<?xml version="1.0" encoding="UTF-8"?>
<svg width="100px" height="54px" viewBox="0 0 100 54" version="1.1" xmlns="http://www.w3.org/2000/svg" xmlns:xlink="http://www.w3.org/1999/xlink">
    <!-- Generator: sketchtool 56.3 (101010) - https://sketch.com -->
    <title>6F9966D3-CCE6-4EEA-ADD4-0E9F4295C4EA</title>
    <desc>Created with sketchtool.</desc>
    <g id="Navigation" stroke="none" stroke-width="1" fill="none" fill-rule="evenodd">
        <g id="Sub.-Category-Page---With-Open-Nav-Level-2" transform="translate(-17.000000, -176.000000)">
            <g id="Super" transform="translate(17.000000, 176.000000)">
                <ellipse id="Oval" fill="#FADDBF" fill-rule="nonzero" cx="50.038961" cy="49.1168831" rx="49.9350649" ry="4.4025974"></ellipse>
                <g id="Group" transform="translate(56.363636, 16.493506)" fill-rule="nonzero">
                    <rect id="Rectangle" fill="#FDD500" x="6.44155844" y="0.142857143" width="21.5584416" height="29.1558442"></rect>
                    <rect id="Rectangle" fill="#FF9A1B" x="0.155844156" y="0.12987013" width="6.28571429" height="29.1558442"></rect>
                    <rect id="Rectangle" fill="#F5F5F5" x="6.45454545" y="7.41558442" width="21.5584416" height="14.5844156"></rect>
                    <polygon id="Path" fill="#F5F5F5" points="3.2987013 5.88311688 0.116883117 0.155844156 0.194805195 0.116883117 3.2987013 5.7012987 6.41558442 0.103896104 6.48051948 0.142857143"></polygon>
                    <polygon id="Path" fill="#F5F5F5" points="6.48051948 29.2857143 6.4025974 29.3246753 3.31168831 23.7272727 0.194805195 29.3246753 0.116883117 29.2857143 3.31168831 23.5454545"></polygon>
                    <rect id="Rectangle" fill="#F5F5F5" x="3.25974026" y="5.79220779" width="1" height="17.8441558"></rect>
                    <g transform="translate(15.714286, 10.000000)" fill="#15499D" id="Path">
                        <path d="M1.51948052,3.48051948 C1.51948052,2.68831169 2.16883117,2.03896104 2.96103896,2.03896104 C2.96103896,2.83116883 2.31168831,3.46753247 1.51948052,3.48051948 Z"></path>
                        <path d="M1.49350649,3.46753247 C1.49350649,2.67532468 0.844155844,2.02597403 0.0519480519,2.02597403 C0.0519480519,2.83116883 0.701298701,3.46753247 1.49350649,3.46753247 Z"></path>
                        <path d="M1.51948052,5.15584416 C1.51948052,4.36363636 2.16883117,3.71428571 2.96103896,3.71428571 C2.96103896,4.49350649 2.31168831,5.15584416 1.51948052,5.15584416 Z"></path>
                        <path d="M1.49350649,5.15584416 C1.49350649,4.36363636 0.844155844,3.71428571 0.0519480519,3.71428571 C0.0519480519,4.49350649 0.701298701,5.14285714 1.49350649,5.15584416 Z"></path>
                        <path d="M1.51948052,6.81818182 C1.51948052,6.02597403 2.16883117,5.37662338 2.96103896,5.37662338 C2.94805195,6.18181818 2.31168831,6.81818182 1.51948052,6.81818182 Z"></path>
                        <path d="M1.49350649,6.81818182 C1.49350649,6.02597403 0.844155844,5.37662338 0.0519480519,5.37662338 C0.0519480519,6.18181818 0.701298701,6.83116883 1.49350649,6.81818182 Z"></path>
                        <path d="M1.51948052,8.49350649 C1.51948052,7.7012987 2.16883117,7.05194805 2.96103896,7.05194805 C2.96103896,7.85714286 2.31168831,8.50649351 1.51948052,8.49350649 Z"></path>
                        <path d="M1.49350649,8.50649351 C1.49350649,7.71428571 0.844155844,7.06493506 0.0519480519,7.06493506 C0.0519480519,7.85714286 0.701298701,8.50649351 1.49350649,8.50649351 Z"></path>
                        <path d="M1.49350649,9.72727273 C1.44155844,9.72727273 1.4025974,9.68831169 1.4025974,9.63636364 L1.4025974,2.03896104 C1.4025974,1.98701299 1.44155844,1.94805195 1.49350649,1.94805195 C1.54545455,1.94805195 1.58441558,1.98701299 1.58441558,2.03896104 L1.58441558,9.63636364 C1.58441558,9.67532468 1.54545455,9.71428571 1.49350649,9.72727273 Z"></path>
                        <path d="M1.49350649,2.06493506 C0.909090909,1.51948052 0.883116883,0.61038961 1.44155844,0.025974026 C2.01298701,0.571428571 2.05194805,1.49350649 1.49350649,2.06493506 Z"></path>
                    </g>
                    <g transform="translate(10.000000, 14.285714)" fill="#15499D" id="Path">
                        <path d="M2.02597403,1.92207792 C1.58441558,1.48051948 1.58441558,0.766233766 2.02597403,0.324675325 C2.46753247,0.766233766 2.46753247,1.48051948 2.02597403,1.92207792 Z"></path>
                        <path d="M2.01298701,1.93506494 C1.57142857,1.49350649 0.857142857,1.49350649 0.415584416,1.93506494 C0.857142857,2.37662338 1.57142857,2.37662338 2.01298701,1.93506494 Z"></path>
                        <path d="M2.94805195,2.84415584 C2.50649351,2.4025974 2.50649351,1.68831169 2.94805195,1.24675325 C3.38961039,1.68831169 3.38961039,2.4025974 2.94805195,2.84415584 Z"></path>
                        <path d="M2.94805195,2.85714286 C2.50649351,2.41558442 1.79220779,2.41558442 1.35064935,2.85714286 C1.77922078,3.2987013 2.50649351,3.2987013 2.94805195,2.85714286 Z"></path>
                        <path d="M3.88311688,3.77922078 C3.44155844,3.33766234 3.44155844,2.62337662 3.88311688,2.18181818 C4.32467532,2.62337662 4.32467532,3.33766234 3.88311688,3.77922078 Z"></path>
                        <path d="M3.87012987,3.77922078 C3.42857143,3.33766234 2.71428571,3.33766234 2.27272727,3.77922078 C2.71428571,4.22077922 3.42857143,4.22077922 3.87012987,3.77922078 Z"></path>
                        <path d="M4.80519481,4.7012987 C4.36363636,4.25974026 4.36363636,3.54545455 4.80519481,3.1038961 C5.24675325,3.54545455 5.24675325,4.25974026 4.80519481,4.7012987 Z"></path>
                        <path d="M4.79220779,4.71428571 C4.35064935,4.27272727 3.63636364,4.27272727 3.19480519,4.71428571 C3.63636364,5.15584416 4.35064935,5.15584416 4.79220779,4.71428571 Z"></path>
                        <path d="M5.41558442,5.42857143 C5.4025974,5.42857143 5.36363636,5.41558442 5.35064935,5.4025974 L1.14285714,1.19480519 C1.1038961,1.15584416 1.1038961,1.1038961 1.14285714,1.06493506 C1.18181818,1.02597403 1.23376623,1.02597403 1.27272727,1.06493506 L5.48051948,5.27272727 C5.51948052,5.31168831 5.51948052,5.36363636 5.48051948,5.4025974 C5.46753247,5.41558442 5.44155844,5.42857143 5.41558442,5.42857143 Z"></path>
                        <path d="M1.24675325,1.15584416 C0.623376623,1.16883117 0.103896104,0.688311688 0.0779220779,0.0649350649 C0.714285714,0.038961039 1.22077922,0.532467532 1.24675325,1.15584416 Z"></path>
                    </g>
                    <g transform="translate(18.701299, 14.285714)" fill="#15499D" id="Path">
                        <path d="M3.61038961,1.97402597 C4.05194805,1.53246753 4.76623377,1.53246753 5.20779221,1.97402597 C4.75324675,2.4025974 4.05194805,2.41558442 3.61038961,1.97402597 Z"></path>
                        <path d="M3.58441558,1.96103896 C4.02597403,1.51948052 4.02597403,0.805194805 3.58441558,0.363636364 C3.14285714,0.805194805 3.14285714,1.51948052 3.58441558,1.96103896 Z"></path>
                        <path d="M2.67532468,2.90909091 C3.11688312,2.46753247 3.83116883,2.46753247 4.27272727,2.90909091 C3.83116883,3.33766234 3.11688312,3.35064935 2.67532468,2.90909091 Z"></path>
                        <path d="M2.66233766,2.88311688 C3.1038961,2.44155844 3.1038961,1.72727273 2.66233766,1.28571429 C2.22077922,1.72727273 2.22077922,2.44155844 2.66233766,2.88311688 Z"></path>
                        <path d="M1.75324675,3.83116883 C2.19480519,3.38961039 2.90909091,3.38961039 3.35064935,3.83116883 C2.8961039,4.25974026 2.19480519,4.27272727 1.75324675,3.83116883 Z"></path>
                        <path d="M1.74025974,3.81818182 C2.18181818,3.37662338 2.18181818,2.66233766 1.74025974,2.22077922 C1.2987013,2.64935065 1.2987013,3.37662338 1.74025974,3.81818182 Z"></path>
                        <path d="M0.831168831,4.75324675 C1.27272727,4.31168831 1.98701299,4.31168831 2.42857143,4.75324675 C1.97402597,5.19480519 1.25974026,5.19480519 0.831168831,4.75324675 Z"></path>
                        <path d="M0.805194805,4.74025974 C1.24675325,4.2987013 1.24675325,3.58441558 0.805194805,3.14285714 C0.363636364,3.58441558 0.363636364,4.2987013 0.805194805,4.74025974 Z"></path>
                        <path d="M0.181818182,5.45454545 C0.168831169,5.45454545 0.12987013,5.44155844 0.116883117,5.42857143 C0.0779220779,5.38961039 0.0779220779,5.33766234 0.116883117,5.2987013 L4.32467532,1.09090909 C4.36363636,1.05194805 4.41558442,1.05194805 4.45454545,1.09090909 C4.49350649,1.12987013 4.49350649,1.18181818 4.45454545,1.22077922 L0.246753247,5.42857143 C0.233766234,5.44155844 0.220779221,5.45454545 0.181818182,5.45454545 Z"></path>
                        <path d="M4.37662338,1.18181818 C4.36363636,0.558441558 4.84415584,0.038961039 5.46753247,0.012987013 C5.48051948,0.649350649 5,1.18181818 4.37662338,1.18181818 Z"></path>
                    </g>
                    <path d="M26.0909091,17.5324675 C26.038961,17.5324675 26,17.4935065 26,17.4415584 C26,12.5584416 22.025974,8.58441558 17.1298701,8.57142857 C12.2467532,8.57142857 8.27272727,12.5454545 8.25974026,17.4415584 C8.25974026,17.4935065 8.22077922,17.5324675 8.16883117,17.5324675 C8.11688312,17.5324675 8.07792208,17.4935065 8.07792208,17.4415584 C8.07792208,12.4415584 12.1428571,8.38961039 17.1298701,8.38961039 C22.1298701,8.38961039 26.1818182,12.4545455 26.1818182,17.4415584 C26.1818182,17.4935065 26.1428571,17.5324675 26.0909091,17.5324675 Z" id="Path" fill="#15499D"></path>
                </g>
                <g id="Group" transform="translate(15.324675, 0.000000)" fill-rule="nonzero">
                    <g>
                        <g transform="translate(0.129870, 3.246753)" id="Path">
                            <polygon fill="#FFD5A1" points="23.7922078 0.0909090909 32.8441558 9.14285714 32.8441558 42.8701299 23.7922078 42.8701299 14.7402597 42.8701299 14.7402597 9.14285714"></polygon>
                            <polygon fill="#F37C20" points="9.14285714 0.0909090909 0.0909090909 9.14285714 0.0909090909 42.8701299 14.7402597 42.8701299 14.7402597 9.14285714 23.7922078 0.0909090909"></polygon>
                        </g>
                        <rect id="Rectangle" fill="#F5F5F5" x="14.8571429" y="16.5454545" width="18.1038961" height="19.012987"></rect>
                        <rect id="Rectangle" fill="#FFD5A1" x="0.038961039" y="16.5454545" width="14.8311688" height="19.012987"></rect>
                        <circle id="Oval" fill="#F37C20" cx="23.4025974" cy="27.3246753" r="4.67532468"></circle>
                        <path d="M23,22.1818182 C23,20.1038961 21.3246753,18.4285714 19.2467532,18.4285714 C19.2467532,20.5064935 20.9350649,22.1818182 23,22.1818182 Z" id="Path" fill="#FFD600"></path>
                        <path d="M23.4025974,22.1818182 C23.4025974,20.7532468 24.5584416,19.5974026 25.987013,19.5974026 C25.987013,21.025974 24.8311688,22.1818182 23.4025974,22.1818182 Z" id="Path" fill="#FFD600"></path>
                        <rect id="Rectangle" fill="#F37C20" x="7.18181818" y="19.987013" width="5.8961039" height="1.68831169"></rect>
                        <rect id="Rectangle" fill="#F37C20" x="2.01298701" y="22.8961039" width="11.0649351" height="1"></rect>
                        <rect id="Rectangle" fill="#F37C20" x="3.63636364" y="24.5194805" width="9.44155844" height="1"></rect>
                        <rect id="Rectangle" fill="#F37C20" x="2.01298701" y="26.1298701" width="11.0649351" height="1"></rect>
                        <polygon id="Path" fill="#F37C20" points="5.14285714 28.6883117 13.0779221 28.6493506 13.0779221 27.7662338 5.14285714 27.7922078"></polygon>
                        <rect id="Rectangle" fill="#F37C20" x="2.02597403" y="29.3766234" width="11.0649351" height="1"></rect>
                        <rect id="Rectangle" fill="#F37C20" x="3.11688312" y="31" width="9.96103896" height="1"></rect>
                        <polygon id="Path" fill="#F37C20" points="9.27272727 0.012987013 23.9220779 0.012987013 23.9220779 3.33766234 9.27272727 3.33766234"></polygon>
                        <path d="M22.2987013,21.5584416 C22.3116883,21.5584416 22.3246753,21.5584416 22.3376623,21.5454545 C22.3766234,21.5194805 22.4025974,21.4675325 22.3766234,21.4285714 C22.3636364,21.4025974 22.012987,20.6363636 21.3506494,19.974026 C20.7142857,19.3376623 20.025974,19.0649351 19.987013,19.0519481 C19.9350649,19.038961 19.8831169,19.0519481 19.8701299,19.1038961 C19.8571429,19.1558442 19.8701299,19.2077922 19.9220779,19.2207792 C19.9350649,19.2207792 20.6103896,19.4935065 21.2207792,20.1038961 C21.8571429,20.7402597 22.2077922,21.5064935 22.2077922,21.5064935 C22.2207792,21.5454545 22.2597403,21.5584416 22.2987013,21.5584416 Z" id="Path" fill="#FDD500"></path>
                        <path d="M23.8961039,21.7922078 C23.9350649,21.7922078 23.961039,21.7662338 23.974026,21.7402597 C23.974026,21.7402597 24.2077922,21.2207792 24.6493506,20.7792208 C25.0649351,20.3636364 25.5194805,20.1818182 25.5324675,20.1818182 C25.5844156,20.1688312 25.5974026,20.1168831 25.5844156,20.0649351 C25.5714286,20.012987 25.5194805,20 25.4675325,20.012987 C25.4415584,20.025974 24.974026,20.2077922 24.5194805,20.6493506 C24.0649351,21.1038961 23.8181818,21.6363636 23.8051948,21.6623377 C23.7792208,21.7142857 23.8051948,21.7662338 23.8441558,21.7792208 C23.8701299,21.7792208 23.8831169,21.7922078 23.8961039,21.7922078 Z" id="Path" fill="#FDD500"></path>
                    </g>
                    <rect id="Rectangle" fill="#F5F5F5" x="9.27272727" y="3.28571429" width="14.6493506" height="1"></rect>
                    <rect id="Rectangle" fill="#F5F5F5" x="0.220779221" y="12.3376623" width="14.6493506" height="1"></rect>
                </g>
                <g id="Group" transform="translate(3.766234, 22.207792)" fill-rule="nonzero">
                    <g transform="translate(3.246753, 0.000000)" id="Path">
                        <g transform="translate(1.038961, 4.415584)">
                            <path d="M0.0779220779,0.714285714 C0.0779220779,0.714285714 0.376623377,11.1298701 8.55844156,15.2727273 C16.012987,19.0519481 23.7662338,15.5194805 28.6623377,11.6493506 C26.987013,14.0519481 22.0649351,19.8051948 10.987013,17.3376623 C-1.49350649,14.5584416 0.0779220779,0.714285714 0.0779220779,0.714285714 Z" fill="#D27500"></path>
                            <path d="M12.987013,11.0779221 C5.12987013,9.33766234 2.02597403,2.53246753 1.16883117,0.155844156 C1.23376623,0.142857143 1.28571429,0.12987013 1.35064935,0.12987013 C2.16883117,0.025974026 2.55844156,0.935064935 2.55844156,0.935064935 C2.55844156,0.935064935 5.74025974,8.35064935 13.2467532,10.1168831 C20.7532468,11.8831169 28.7012987,7.35064935 28.7012987,7.35064935 C28.7012987,7.35064935 28.8701299,7.58441558 29.0519481,7.96103896 C26.4935065,9.54545455 20.2727273,12.6883117 12.987013,11.0779221 Z" fill="#FFD600"></path>
                            <path d="M8.76623377,12.7922078 C2.33766234,9.66233766 0.87012987,1.92207792 0.636363636,0.324675325 C0.779220779,0.25974026 0.961038961,0.194805195 1.15584416,0.155844156 C2.01298701,2.53246753 5.11688312,9.33766234 12.974026,11.0779221 C20.2597403,12.6883117 26.4805195,9.54545455 29.038961,7.96103896 C29.2987013,8.48051948 29.5844156,9.28571429 29.4545455,10.0779221 C25.4675325,12.3896104 16.5194805,16.5584416 8.76623377,12.7922078 Z" fill="#FF9A1B"></path>
                            <path d="M8.55844156,15.2727273 C0.38961039,11.1298701 0.0779220779,0.714285714 0.0779220779,0.714285714 C0.0779220779,0.714285714 0.272727273,0.506493506 0.636363636,0.337662338 C0.87012987,1.93506494 2.33766234,9.67532468 8.76623377,12.8051948 C16.5194805,16.5714286 25.4545455,12.4025974 29.4675325,10.0779221 C29.4285714,10.3766234 29.3246753,10.6623377 29.1428571,10.9350649 C29.025974,11.1038961 28.8701299,11.3636364 28.6623377,11.6623377 C23.7662338,15.5194805 16,19.0519481 8.55844156,15.2727273 Z" fill="#F57C00"></path>
                        </g>
                        <g fill="#D27500">
                            <path d="M29.7402597,11.7662338 C29.7402597,11.7662338 29.4545455,12.7662338 28.9090909,13.0649351 C28.9090909,13.0649351 28.4935065,14.038961 30.1818182,15.3506494 C30.1818182,15.3376623 31.7662338,13.7402597 29.7402597,11.7662338 Z"></path>
                            <path d="M3.5974026,5.33766234 C3.5974026,5.33766234 3.44155844,1.61038961 2.25974026,0.571428571 C1.07792208,-0.467532468 0.532467532,0.337662338 0.311688312,0.519480519 C0.0779220779,0.688311688 -0.246753247,1.83116883 0.935064935,2.02597403 C1.90909091,2.19480519 1.12987013,5.11688312 1.12987013,5.11688312 C1.12987013,5.11688312 2.31168831,6.33766234 3.5974026,5.33766234 Z"></path>
                        </g>
                    </g>
                    <g transform="translate(2.337662, 0.389610)" id="Path">
                        <g transform="translate(0.000000, 4.545455)">
                            <path d="M0.675324675,0.467532468 C0.675324675,0.467532468 -0.792207792,10.7922078 6.55844156,16.2597403 C13.2597403,21.2467532 21.5064935,19.0779221 26.987013,16.1038961 C24.9350649,18.1818182 19.0909091,23.025974 8.61038961,18.7142857 C-3.20779221,13.8571429 0.675324675,0.467532468 0.675324675,0.467532468 Z" fill="#D27500"></path>
                            <path d="M11.6493506,12.8701299 C4.19480519,9.81818182 2.28571429,2.5974026 1.84415584,0.103896104 C1.90909091,0.103896104 1.96103896,0.103896104 2.02597403,0.103896104 C2.85714286,0.142857143 3.07792208,1.1038961 3.07792208,1.1038961 C3.07792208,1.1038961 4.96103896,8.96103896 12.0519481,11.961039 C19.1428571,14.961039 27.7532468,11.8571429 27.7532468,11.8571429 C27.7532468,11.8571429 27.8831169,12.1168831 27.987013,12.5194805 C25.2207792,13.6493506 18.5454545,15.7012987 11.6493506,12.8701299 Z" fill="#FDD500"></path>
                            <path d="M7.19480519,13.8571429 C1.38961039,9.68831169 1.25974026,1.80519481 1.2987013,0.194805195 C1.45454545,0.155844156 1.63636364,0.116883117 1.84415584,0.116883117 C2.28571429,2.61038961 4.19480519,9.83116883 11.6493506,12.8831169 C18.5584416,15.7012987 25.2207792,13.6623377 28.012987,12.5324675 C28.1818182,13.0909091 28.3246753,13.9220779 28.0649351,14.6883117 C23.7142857,16.2857143 14.1948052,18.8831169 7.19480519,13.8571429 Z" fill="#FF9A1B"></path>
                            <path d="M6.55844156,16.2597403 C-0.792207792,10.7922078 0.675324675,0.467532468 0.675324675,0.467532468 C0.675324675,0.467532468 0.909090909,0.298701299 1.2987013,0.181818182 C1.25974026,1.79220779 1.38961039,9.67532468 7.19480519,13.8441558 C14.1948052,18.8701299 23.7142857,16.2857143 28.0519481,14.6623377 C27.961039,14.9480519 27.8051948,15.2207792 27.5844156,15.4545455 C27.4415584,15.6103896 27.2467532,15.8311688 26.987013,16.0909091 C21.5064935,19.0779221 13.2727273,21.2467532 6.55844156,16.2597403 Z" fill="#F57C00"></path>
                        </g>
                        <g transform="translate(0.259740, 0.000000)" fill="#D27500">
                            <path d="M27.5064935,16.4025974 C27.5064935,16.4025974 27.0519481,17.3506494 26.4675325,17.5324675 C26.4675325,17.5324675 25.8961039,18.4285714 27.3246753,20 C27.3246753,20.012987 29.1688312,18.7012987 27.5064935,16.4025974 Z"></path>
                            <path d="M2.81818182,5.64935065 C2.81818182,5.64935065 3.2987013,1.94805195 2.2987013,0.727272727 C1.2987013,-0.493506494 0.636363636,0.207792208 0.38961039,0.337662338 C0.142857143,0.467532468 -0.38961039,1.53246753 0.753246753,1.92207792 C1.68831169,2.24675325 0.415584416,5 0.415584416,5 C0.415584416,5 1.38961039,6.4025974 2.81818182,5.64935065 Z"></path>
                        </g>
                    </g>
                    <g transform="translate(0.000000, 1.298701)" id="Path">
                        <g transform="translate(0.000000, 4.675325)">
                            <path d="M1.15584416,0.337662338 C1.15584416,0.337662338 -1.19480519,10.4935065 5.64935065,16.5714286 C11.8961039,22.1168831 20.2987013,20.6753247 26.012987,18.1818182 C23.7792208,20.0779221 17.5584416,24.3896104 7.48051948,19.1948052 C-3.87012987,13.3376623 1.15584416,0.337662338 1.15584416,0.337662338 Z" fill="#D27500"></path>
                            <path d="M11.012987,13.6363636 C3.85714286,9.96103896 2.58441558,2.58441558 2.35064935,0.0779220779 C2.41558442,0.0779220779 2.46753247,0.0909090909 2.53246753,0.0909090909 C3.35064935,0.194805195 3.49350649,1.16883117 3.49350649,1.16883117 C3.49350649,1.16883117 4.68831169,9.15584416 11.5064935,12.7662338 C18.3246753,16.3766234 27.1558442,14.012987 27.1558442,14.012987 C27.1558442,14.012987 27.2597403,14.2857143 27.3376623,14.6883117 C24.4675325,15.5844156 17.6493506,17.0519481 11.012987,13.6363636 Z" fill="#FDD500"></path>
                            <path d="M6.49350649,14.2337662 C1.06493506,9.58441558 1.62337662,1.71428571 1.79220779,0.116883117 C1.94805195,0.0909090909 2.14285714,0.0649350649 2.33766234,0.0779220779 C2.57142857,2.5974026 3.84415584,9.96103896 11,13.6363636 C17.6363636,17.0519481 24.4545455,15.5844156 27.3246753,14.7012987 C27.4415584,15.2727273 27.5064935,16.1168831 27.1948052,16.8441558 C22.7402597,18.0909091 13.038961,19.8441558 6.49350649,14.2337662 Z" fill="#FF9A1B"></path>
                            <path d="M5.66233766,16.5714286 C-1.19480519,10.4935065 1.16883117,0.337662338 1.16883117,0.337662338 C1.16883117,0.337662338 1.41558442,0.181818182 1.80519481,0.116883117 C1.62337662,1.72727273 1.07792208,9.58441558 6.50649351,14.2337662 C13.0519481,19.8441558 22.7532468,18.0909091 27.2207792,16.8441558 C27.1038961,17.1168831 26.9350649,17.3766234 26.6883117,17.5974026 C26.5324675,17.7402597 26.3116883,17.9350649 26.038961,18.1818182 C20.3116883,20.6753247 11.9090909,22.1168831 5.66233766,16.5714286 Z" fill="#F37C20"></path>
                        </g>
                        <g transform="translate(1.038961, 0.000000)" fill="#D27500">
                            <path d="M26.1168831,18.7012987 C26.1168831,18.7012987 25.5844156,19.5974026 24.987013,19.7402597 C24.987013,19.7402597 24.3376623,20.5844156 25.6363636,22.2727273 C25.6363636,22.2727273 27.5844156,21.1298701 26.1168831,18.7012987 Z"></path>
                            <path d="M2.46753247,5.85714286 C2.46753247,5.85714286 3.25974026,2.20779221 2.37662338,0.909090909 C1.49350649,-0.38961039 0.766233766,0.246753247 0.506493506,0.363636364 C0.246753247,0.467532468 -0.363636364,1.49350649 0.727272727,1.97402597 C1.63636364,2.37662338 0.12987013,5.01298701 0.12987013,5.01298701 C0.12987013,5.01298701 0.961038961,6.48051948 2.46753247,5.85714286 Z"></path>
                        </g>
                    </g>
                </g>
                <g id="Group" transform="translate(74.545455, 31.688312)">
                    <g transform="translate(0.000000, 4.285714)" id="Path">
                        <path d="M9.02597403,0.74025974 C7.87012987,0.38961039 5.94805195,-0.0519480519 4.16883117,0.181818182 C6.20779221,0.402597403 7.94805195,1.11688312 7.94805195,1.11688312 C7.94805195,1.11688312 8.37662338,0.935064935 9.02597403,0.74025974 Z" fill="#FFD5A1" fill-rule="nonzero"></path>
                        <path d="M7.35064935,12.9350649 C6.8961039,13.3246753 6.4025974,13.5844156 5.88311688,13.7402597 C6.97402597,14.012987 8.07792208,13.8961039 9.02597403,13.2987013 C8.87012987,13.1948052 8.7012987,13.0779221 8.55844156,12.9480519 C8.20779221,12.6363636 7.7012987,12.6363636 7.35064935,12.9350649 Z" fill="#FFD5A1" fill-rule="nonzero"></path>
                        <path d="M13.8831169,0.181818182 C16.0779221,0.467532468 18.0519481,1.77922078 18.0519481,5.57142857 C18.0519481,9.63636364 15.1688312,13.0519481 12.2337662,13.7662338 C15.7012987,14.7142857 20.1948417,10.6493506 20.1948417,5.57142857 C20.2077922,0.545454545 16.7532468,-0.12987013 13.8831169,0.181818182 Z" fill="#FFD5A1" fill-rule="nonzero"></path>
                        <path d="M13.8831169,0.181818182 C12.1168831,-0.038961039 10.1948052,0.38961039 9.02597403,0.74025974 C9.68831169,0.935064935 10.1038961,1.1038961 10.1038961,1.1038961 C10.1038961,1.1038961 11.8441558,0.38961039 13.8831169,0.181818182 Z" stroke="#D20915" stroke-width="0.6498"></path>
                        <path d="M18.0519481,5.57142857 C18.0519481,1.77922078 16.0779221,0.467532468 13.8831169,0.181818182 C11.8441558,0.402597403 10.1038961,1.11688312 10.1038961,1.11688312 C10.1038961,1.11688312 9.68831169,0.948051948 9.02597403,0.753246753 C8.36363636,0.948051948 7.94805195,1.11688312 7.94805195,1.11688312 C7.94805195,1.11688312 6.20779221,0.402597403 4.16883117,0.181818182 C1.97402597,0.467532468 0,1.77922078 0,5.57142857 C0,9.50649351 2.93506494,13 5.88311688,13.7402597 C6.4025974,13.5974026 6.8961039,13.3376623 7.35064935,12.9350649 C7.7012987,12.6363636 8.20779221,12.6363636 8.54545455,12.9350649 C8.7012987,13.0649351 8.85714286,13.1818182 9.01298701,13.2857143 C9.18181818,13.1818182 9.33766234,13.0649351 9.49350649,12.9350649 C9.84415584,12.6363636 10.3506494,12.6363636 10.6883117,12.9350649 C11.1558442,13.3506494 11.6753247,13.6103896 12.2207792,13.7662338 C15.1688312,13.038961 18.0519481,9.63636364 18.0519481,5.57142857 Z" fill="#F37C20" fill-rule="nonzero"></path>
                    </g>
                    <path d="M10.2467532,6.31168831 C10.2467532,3.85714286 12.2467532,1.85714286 14.7012987,1.85714286 C14.7012987,4.32467532 12.7142857,6.31168831 10.2467532,6.31168831 Z" id="Path" fill="#15499D" fill-rule="nonzero"></path>
                    <path d="M10.1818182,6.31168831 C10.1818182,3.85714286 8.18181818,1.85714286 5.72727273,1.85714286 C5.72727273,4.32467532 7.72727273,6.31168831 10.1818182,6.31168831 Z" id="Path" fill="#15499D" fill-rule="nonzero"></path>
                    <path d="M10.2207792,6.31168831 C8.42857143,4.62337662 8.33766234,1.80519481 10.025974,0.012987013 C11.8181818,1.7012987 11.8961039,4.51948052 10.2207792,6.31168831 Z" id="Path" fill="#223A72" fill-rule="nonzero"></path>
                    <path d="M1.18181818,10.9350649 C1.01298701,10.9350649 0.87012987,10.8181818 0.844155844,10.6493506 C0.831168831,10.5454545 0.454545455,8.02597403 1.64935065,6.51948052 C1.76623377,6.37662338 1.97402597,6.35064935 2.12987013,6.46753247 C2.27272727,6.58441558 2.2987013,6.79220779 2.18181818,6.94805195 C1.16883117,8.23376623 1.50649351,10.5324675 1.50649351,10.5584416 C1.53246753,10.7402597 1.4025974,10.9090909 1.22077922,10.9480519 C1.22077922,10.9350649 1.19480519,10.9350649 1.18181818,10.9350649 Z" id="Path" fill="#FFFFFF" fill-rule="nonzero"></path>
                    <path d="M3.67532468,6.01298701 C3.51948052,6.01298701 3.38961039,5.90909091 3.35064935,5.76623377 C3.2987013,5.58441558 3.41558442,5.4025974 3.5974026,5.35064935 C4.49350649,5.11688312 5.28571429,5.19480519 5.31168831,5.19480519 C5.49350649,5.20779221 5.63636364,5.37662338 5.61038961,5.57142857 C5.5974026,5.75324675 5.42857143,5.8961039 5.24675325,5.87012987 C5.23376623,5.87012987 4.53246753,5.80519481 3.76623377,6 C3.72727273,6.01298701 3.7012987,6.01298701 3.67532468,6.01298701 Z" id="Path" fill="#FFFFFF" fill-rule="nonzero"></path>
                </g>
                <g id="Group" transform="translate(44.415584, 23.246753)" fill-rule="nonzero">
                    <rect id="Rectangle" fill="#F5F5F5" x="0.363636364" y="0.688311688" width="23.9480519" height="25.8311688"></rect>
                    <circle id="Oval" fill="#F37C20" cx="12.3376623" cy="12.7532468" r="4.03896104"></circle>
                    <rect id="Rectangle" fill="#15499D" x="0.376623377" y="20.2207792" width="23.9480519" height="6.28571429"></rect>
                    <rect id="Rectangle" fill="#15499D" x="0.376623377" y="0.688311688" width="23.9480519" height="4.4025974"></rect>
                    <path d="M4.5974026,15.8051948 C4.67532468,15.8051948 4.75324675,15.8311688 4.81818182,15.8701299 C7.12987013,17.4285714 9.84415584,18.2597403 12.6493506,18.2597403 C15.1948052,18.2597403 17.6883117,17.5714286 19.8701299,16.2597403 C20.0649351,16.1428571 20.3116883,16.2077922 20.4285714,16.4025974 C20.5454545,16.5974026 20.4805195,16.8441558 20.2857143,16.961039 C17.987013,18.3376623 15.3506494,19.0779221 12.6493506,19.0779221 C9.67532468,19.0779221 6.81818182,18.2077922 4.36363636,16.5454545 C4.18181818,16.4155844 4.12987013,16.1688312 4.25974026,15.987013 C4.33766234,15.8701299 4.46753247,15.8051948 4.5974026,15.8051948 Z" id="Path" fill="#F37C20"></path>
                    <path d="M12.025974,6.81818182 C14.9480519,6.81818182 17.7662338,7.67532468 20.1818182,9.31168831 C20.2597403,9.36363636 20.2857143,9.46753247 20.2337662,9.55844156 C20.1818182,9.63636364 20.0779221,9.66233766 19.987013,9.61038961 C17.6363636,8.02597403 14.8831169,7.18181818 12.025974,7.18181818 C9.44155844,7.18181818 6.8961039,7.88311688 4.68831169,9.20779221 C4.61038961,9.25974026 4.49350649,9.23376623 4.45454545,9.14285714 C4.4025974,9.06493506 4.42857143,8.94805195 4.51948052,8.90909091 C6.76623377,7.53246753 9.36363636,6.81818182 12.025974,6.81818182 Z" id="Path" fill="#F37C20"></path>
                    <rect id="Rectangle" fill="#223A72" x="0.363636364" y="20.2207792" width="3.36363636" height="6.28571429"></rect>
                    <rect id="Rectangle" fill="#223A72" x="0.363636364" y="0.675324675" width="3.36363636" height="4.44155844"></rect>
                    <rect id="Rectangle" fill="#223A72" opacity="0.15" x="0.376623377" y="5.1038961" width="3.36363636" height="15.1168831"></rect>
                    <rect id="Rectangle" fill="#223A72" opacity="0.15" x="23.5974026" y="5.1038961" width="1" height="15.1168831"></rect>
                    <path d="M0.311688312,27.1038961 L24.3766234,27.1038961 C24.5324675,27.1038961 24.6753247,26.974026 24.6753247,26.8051948 L24.6753247,26.8051948 C24.6753247,26.6493506 24.5454545,26.5064935 24.3766234,26.5064935 L0.311688312,26.5064935 C0.155844156,26.5064935 0.012987013,26.6363636 0.012987013,26.8051948 L0.012987013,26.8051948 C0.012987013,26.961039 0.142857143,27.1038961 0.311688312,27.1038961 Z" id="Path" fill="#223A72"></path>
                    <path d="M0.311688312,0.688311688 L24.3766234,0.688311688 C24.5324675,0.688311688 24.6753247,0.558441558 24.6753247,0.38961039 L24.6753247,0.38961039 C24.6753247,0.233766234 24.5454545,0.0909090909 24.3766234,0.0909090909 L0.311688312,0.0909090909 C0.155844156,0.0909090909 0.012987013,0.220779221 0.012987013,0.38961039 L0.012987013,0.38961039 C0.012987013,0.545454545 0.142857143,0.688311688 0.311688312,0.688311688 Z" id="Path" fill="#223A72"></path>
                </g>
            </g>
        </g>
    </g>
</svg>