<svg width="30" height="46" xmlns="http://www.w3.org/2000/svg"><defs><linearGradient x1="0%" y1="50%" y2="50%" id="a"><stop stop-color="#4454B2" offset="0%"/><stop stop-color="#00247F" offset="100%"/></linearGradient><linearGradient x1="0%" y1="50%" y2="50%" id="b"><stop stop-color="#FF9A1B" offset="0%"/><stop stop-color="#F57C00" offset="100%"/></linearGradient><linearGradient x1="0%" y1="50%" y2="50%" id="c"><stop stop-color="#4454B2" offset="0%"/><stop stop-color="#00247F" offset="100%"/></linearGradient><linearGradient x1="-.1%" y1="50%" x2="99.9%" y2="50%" id="d"><stop stop-color="#4454B2" offset="0%"/><stop stop-color="#00247F" offset="100%"/></linearGradient><linearGradient x1="0%" y1="50%" y2="50%" id="e"><stop stop-color="#4454B2" offset="0%"/><stop stop-color="#00247F" offset="100%"/></linearGradient><linearGradient x1="0%" y1="50%" y2="50%" id="f"><stop stop-color="#FF9A1B" offset="0%"/><stop stop-color="#F57C00" offset="100%"/></linearGradient></defs><g fill-rule="nonzero" fill="none"><path d="M27.7 14.6a3 3 0 0 0-.3-.1c-2-.8-2.3-2.8-2.3-3.6V4.7c.5 0 1-.4 1-1s-.5-1-1-1v-.3c0-.4-.3-.7-.7-.7H22c-.3 0-.6.3-.6.7v.3a1 1 0 0 0 0 2v6.1c0 1-.4 2.9-2.4 3.7h-.2c-1.2.6-2 1.7-2 3V44.7c0 .5.4 1 1 1h11c.5 0 1-.5 1-1v-27c0-1.4-.9-2.5-2-3z" fill="#9EB5E5"/><path fill="#5967D6" d="M19 2.1h2.5v7.1H19z"/><path fill="url(#a)" d="M7.2 0h1.2v7.1H7.2z" transform="translate(14.3 2.1)"/><path d="M25.4 13a3 3 0 0 0-.3 0c-2-.8-2.3-2.8-2.4-3.6v-.1h-1.2V11s.1 2.5 2.4 3c1.8.4 1.8 2.7 1.8 4.3v25.9h.7c.5 0 1-.5 1-1V16c0-1.4-.9-2.5-2-3z" fill="#C66802"/><path d="M9.6 12c-2.3-.6-2.4-3-2.4-3V7.1H4.6c0 1-.3 2.9-2.3 3.7A3.3 3.3 0 0 0 0 14v27c0 .6.5 1 1 1h10.3V16.2c0-1.6 0-3.9-1.7-4.3z" fill="url(#b)" transform="translate(14.3 2.1)"/><path d="M19.1 12.6v-.3c.3-.5.6-1.2.8-2h.1l.1.1c-.2.8-.4 1.5-.9 2v.2zM15.5 19.5l-.1-.1V16c0-1 .5-1.7 1.3-2l.2-.1h.1c0-.1.2 0 .2 0v.2h-.4a2 2 0 0 0-1.2 1.9v3.4zM15.5 42.6l-.1-.1v-9.2h.2V42.6z" fill="#FFF"/><path d="M19.6.2c-.3 0-.6.3-.6.6v1.3h2.5v-2h-1.9z" fill="#5967D6"/><path d="M3.2 0h-.6v2h1.2V.7c0-.4-.3-.7-.6-.7z" fill="url(#c)" transform="translate(19 .1)"/><path d="M15.5 44.1h-.1v-.7l.1-.2.1.2v.7zM16.6 44.1h-.1v-.8h.2V44.1zM17.7 44.1h-.1v-.8h.2v.7l-.1.1zM18.8 44.1h-.1v-.8h.2v.7l-.1.1zM19.9 44.1h-.1v-.8h.2v.7l-.1.1zM21 44.1h-.2v-.8H21.1v.7l-.1.1zM22 44.1v-.8h.2v.7l-.1.1zM23.2 44.1H23v-.8h.2V44.1zM24.2 44.1v-.8h.2v.7l-.2.1zM25.3 44.1v-.8h.2v.7l-.2.1z" fill="#C66802"/><path fill="#F5F5F5" d="M14.3 20.3h10v12.3h-10z"/><path fill="#C66802" d="M23 31.4h-8.7H23v-9.7h-8.6v-.1H23z"/><path d="M21 24.2h-5.5v-1H21v1zm-5.4-.2h5.3v-.7h-5.3v.7zM21 25.2h-5.5v-1H21v1zm-5.4-.1h5.3v-.7h-5.3v.7zM21 30.1h-5.5V29H21V30zm-5.4-.1h5.3v-1h-5.3v1z" fill="#C66802"/><g><path d="M4.7 0H3.5c.6 0 1 .5 1 1v.1c0 .5-.4 1-1 1h1.2c.5 0 1-.5 1-1V1c0-.5-.5-1-1-1z" fill="url(#d)" transform="translate(18 1)"/><path d="M22.6 2.2V2c0-.6-.5-1-1-1H19a1 1 0 0 0-1 1c0 .6.5 1 1 1h2.6c.5 0 1-.4 1-1z" fill="#5967D6"/></g><path fill="url(#e)" d="M4.6 3h3.8v1H4.6z" transform="translate(14.3 .1)"/><path d="M13.4 26.4v-4.5H1.6v4.5c0 3 2.4 5.6 5.4 5.8v11.1c-1.5.1-2.8.7-3.9 1.5h8.8A7.3 7.3 0 0 0 8 43.3v-11c3-.3 5.4-2.8 5.4-6z" fill="#9EB5E5"/><path d="M12.5 25.7v-4.5H.8v4.5c0 3 2.3 5.6 5.3 5.9v11c-1.4.2-2.8.7-3.9 1.5h8.9a7.3 7.3 0 0 0-4-1.4V31.6c3-.3 5.4-2.8 5.4-6z" fill="#FFD5A1"/><path d="M6 30.7a5.1 5.1 0 0 1-5.2-5.1v-3.7H11v3.7c0 2.8-2.3 5-5 5z" fill="url(#f)" transform="translate(.7 .1)"/><path d="M6.5 30.4l-.1-.2c2.6 0 4.6-2 4.6-4.6V24v-.2c.2 0 .2.1.2.2v1.6c0 2.7-2.1 4.8-4.7 4.8z" fill="#F5F5F5"/></g></svg>