<svg width="50" height="34" xmlns="http://www.w3.org/2000/svg"><g fill-rule="nonzero" fill="none"><path d="M47.97 2.05H4.92c-.73 0-1.34.6-1.34 1.34v24.45c0 .73.6 1.34 1.34 1.34h20.33l-2.32 3.73h-6.9v1.07h17.76v-1.07h-7.08l2.31-3.73H47.97c.73 0 1.33-.6 1.33-1.34V3.39c0-.74-.6-1.34-1.33-1.34z" fill="#9EB5E5"/><path d="M45.35 27.4H3.24c-.73 0-1.33-.6-1.33-1.35V1.6C1.9.87 2.5.26 3.24.26h42.11c.73 0 1.33.6 1.33 1.34v24.45c0 .74-.6 1.34-1.33 1.34z" fill="#7A3700"/><path d="M44.42 27.4H2.3c-.73 0-1.33-.6-1.33-1.35V1.6C.97.87 1.57.26 2.3.26h42.11c.73 0 1.34.6 1.34 1.34v24.45c0 .74-.6 1.34-1.33 1.34z" fill="#F57C00"/><path fill="#5967D6" d="M1.77 1.68h43.18v23.48H1.77z"/><path fill="#F5F5F5" d="M34.24 2.25L13.4 25.17h6.04L40.28 2.25zM42.06 2.25L21.22 25.17h2.15L44.2 2.25zM7.52 2.25l-5.1 5.6v2.36l7.24-7.96z"/><path fill="#7A3700" d="M44.94 1.68H1.77v23.49h.66V2.24h42.5zM27.97 31.12h3.2v1.07h-3.2z"/><path fill="#F57C00" d="M25.79 27.4h-3.16l-2.32 3.72h3.15z"/><path fill="#7A3700" d="M26.41 27.4h-.67l-2.32 3.72h.67z"/><path fill="#7A3700" d="M22.63 27.4l-.8 1.29h3.15l.76-1.3z"/><path fill="#F57C00" d="M13.4 31.12h14.57v1.07H13.4z"/></g></svg>