<svg width="45" height="39" xmlns="http://www.w3.org/2000/svg"><defs><linearGradient x1="0%" y1="50%" y2="50%" id="a"><stop stop-color="#FF9A1B" offset="0%"/><stop stop-color="#F57C00" offset="100%"/></linearGradient><linearGradient x1="100%" y1="50%" x2="0%" y2="50%" id="b"><stop stop-color="#FF9A1B" offset="0%"/><stop stop-color="#F57C00" offset="100%"/></linearGradient><linearGradient x1="0%" y1="49.9%" x2="100.1%" y2="49.9%" id="c"><stop stop-color="#4454B2" offset="0%"/><stop stop-color="#00247F" offset="100%"/></linearGradient><linearGradient x1="0%" y1="50%" x2="100.1%" y2="50%" id="d"><stop stop-color="#4454B2" offset="0%"/><stop stop-color="#00247F" offset="100%"/></linearGradient><linearGradient x1="0%" y1="49.9%" x2="100.1%" y2="49.9%" id="e"><stop stop-color="#4454B2" offset="0%"/><stop stop-color="#00247F" offset="100%"/></linearGradient><linearGradient x1="0%" y1="50%" x2="100.1%" y2="50%" id="f"><stop stop-color="#4454B2" offset="0%"/><stop stop-color="#00247F" offset="100%"/></linearGradient><linearGradient x1="0%" y1="49.8%" x2="100.1%" y2="49.8%" id="g"><stop stop-color="#4454B2" offset="0%"/><stop stop-color="#00247F" offset="100%"/></linearGradient><linearGradient x1="0%" y1="50%" x2="100.1%" y2="50%" id="h"><stop stop-color="#4454B2" offset="0%"/><stop stop-color="#00247F" offset="100%"/></linearGradient><linearGradient x1="0%" y1="49.9%" x2="100.1%" y2="49.9%" id="i"><stop stop-color="#4454B2" offset="0%"/><stop stop-color="#00247F" offset="100%"/></linearGradient><linearGradient x1="0%" y1="50%" x2="100.1%" y2="50%" id="j"><stop stop-color="#4454B2" offset="0%"/><stop stop-color="#00247F" offset="100%"/></linearGradient><linearGradient x1="0%" y1="49.9%" x2="100.1%" y2="49.9%" id="k"><stop stop-color="#4454B2" offset="0%"/><stop stop-color="#00247F" offset="100%"/></linearGradient><linearGradient x1="0%" y1="50%" x2="100.1%" y2="50%" id="l"><stop stop-color="#4454B2" offset="0%"/><stop stop-color="#00247F" offset="100%"/></linearGradient><linearGradient x1="0%" y1="49.8%" x2="100.1%" y2="49.8%" id="m"><stop stop-color="#4454B2" offset="0%"/><stop stop-color="#00247F" offset="100%"/></linearGradient><linearGradient x1="0%" y1="50%" x2="100.1%" y2="50%" id="n"><stop stop-color="#4454B2" offset="0%"/><stop stop-color="#00247F" offset="100%"/></linearGradient></defs><g fill-rule="nonzero" fill="none"><path d="M43.7 6.6h-5.9c-.6 0-1.2.5-1.2 1s.3.9.7 1v2.5H25V2.3H1.7V37H23c0 .5.4.9.9.9h13.3c.5 0 .9-.4.9-1 .6.7 1.5 1 2.4 1h.9a3.3 3.3 0 0 0 2.6-3.3V8.8c.4-.2.7-.6.7-1.1 0-.6-.5-1.1-1.1-1.1z" fill="#9EB5E5"/><path fill="url(#a)" d="M7.5 34.8h15.9V0H7.5z" transform="translate(.1 .8)"/><path fill="#984500" d="M8 35.7H.2V.8H8z"/><path fill="#FFDFC5" d="M20 16.1h-8.9V5.3h9z"/><path fill="#F5F5F5" d="M20 26.9h-8.9v-1.3h9zM20 29.5h-8.9v-1.3h9zM20 32.2h-8.9V31h9zM8 35.7l-3.9-5.9-3.9 5.9 3.9-6 4 6zM4.1 6.8l-4-6h.1l4 5.9L8 .8z"/><path fill="#F5F5F5" d="M4 6.7h1v23H4z"/><path fill="#D25F00" d="M11.1 16.1L20 5.3l-8.8 10.9z"/><path fill="#D25F00" d="M11.1 5.3l9 10.8H20z"/><g><path d="M36 6.2h1.7c-.2 0-.3.2-.3.3v26.8c0 1.6 1.1 2.9 2.6 3.2l-.8.1a3.3 3.3 0 0 1-3.4-3.3V6.5c0-.1 0-.3.2-.3z" fill="#B55A08"/><path d="M1.7 27.1V.3c0-.2.1-.3.3-.3h4.6c.1 0 .2.1.2.3V27c0 1.6-1 2.9-2.5 3.2a3.3 3.3 0 0 1-2.6-3.2z" fill="url(#b)" transform="translate(35.7 6.2)"/><path fill="#B55A08" d="M42.5 8.4h-6.7V7.3h6.7z"/><path d="M36.3 5.1h1.6c-.7 0-1.2.5-1.2 1.2 0 .6.5 1 1.2 1h-1.6c-.6 0-1.2-.4-1.2-1 0-.7.6-1.2 1.2-1.2z" fill="#FFB579"/><path d="M36.7 6.3c0-.7.5-1.2 1.2-1.2h4.3c.6 0 1.1.5 1.1 1.2 0 .6-.5 1-1.1 1h-4.3c-.7 0-1.2-.4-1.2-1zM39.1 11.7h3.5v18.6h-3.5z" fill="#F5F5F5"/><path fill="#F57C00" d="M42.6 29H40V12.7h2.6H40v16h2.5z"/><path fill="#FFB579" d="M42.1 5.1h1v2.2h-1zM41 5.1h1v2.2h-1zM39.7 5.1h1v2.2h-1zM38.5 5.1h1v2.2h-1zM37.3 5.1h1v2.2h-1z"/><path fill="#F5F5F5" d="M36.1 5.1h1v2.2h-1z"/></g><g><path d="M36.7 35.6v-25c0-.5-.4-1-1-1H22.6a1 1 0 0 0-1 1v25c0 .5.5 1 1 1h13.3c.5 0 .9-.5.9-1z" fill="#5967D6"/><path d="M2.5 3.7v-.2c0-.5.4-1 1-1h2c.5 0 1 .5 1 1v.2c0 .5-.5.9-1 .9h-2a1 1 0 0 1-1-1z" fill="url(#c)" transform="translate(21.5 9.6)"/><path d="M26.7 11.8c.5 0 .9.4.9 1s-.4 1-1 1h-1v-2h1z" fill="#F57C00"/><path d="M23.7 12.9v-.2c0-.5.4-1 .9-1h1v2h-1a1 1 0 0 1-1-.8z" fill="#F5F5F5"/><path d="M2.5 7.7v-.1c0-.5.4-1 1-1h2c.5 0 1 .5 1 1 0 .6-.5 1-1 1h-2a1 1 0 0 1-1-1z" fill="url(#d)" transform="translate(21.5 9.6)"/><path d="M26.7 15.8c.5 0 .9.5.9 1v.1c0 .5-.4 1-1 1h-1v-2h1z" fill="#F57C00"/><path d="M23.7 16.9v-.1c0-.5.4-1 .9-1h1v2h-1a1 1 0 0 1-1-.9z" fill="#F5F5F5"/><path d="M2.5 11.7c0-.6.4-1 1-1h2c.5 0 1 .4 1 1s-.5 1-1 1h-2a1 1 0 0 1-1-1z" fill="url(#e)" transform="translate(21.5 9.6)"/><path d="M26.7 19.9c.5 0 .9.4.9 1s-.4 1-1 1h-1v-2h1z" fill="#F57C00"/><path d="M23.7 21v-.2c0-.5.4-1 .9-1h1v2h-1a1 1 0 0 1-1-.9z" fill="#F5F5F5"/><path d="M2.5 15.8v-.1c0-.6.4-1 1-1h2c.5 0 1 .4 1 1s-.5 1-1 1h-2a1 1 0 0 1-1-1z" fill="url(#f)" transform="translate(21.5 9.6)"/><path d="M26.7 24c.5 0 .9.4.9.9 0 .6-.4 1-1 1h-1v-2h1z" fill="#F57C00"/><path d="M23.7 25v-.1c0-.5.4-1 .9-1h1v2h-1a1 1 0 0 1-1-1z" fill="#F5F5F5"/><path d="M2.5 19.8c0-.6.4-1 1-1h2c.5 0 1 .4 1 1 0 .5-.5 1-1 1h-2a1 1 0 0 1-1-1z" fill="url(#g)" transform="translate(21.5 9.6)"/><path d="M26.7 28c.5 0 .9.4.9 1s-.4 1-1 1h-1v-2h1z" fill="#F57C00"/><path d="M23.7 29c0-.6.4-1 .9-1h1v2h-1a1 1 0 0 1-1-1z" fill="#F5F5F5"/><path d="M2.5 23.9v-.2c0-.5.4-.9 1-.9h2c.5 0 1 .4 1 1s-.5 1-1 1h-2a1 1 0 0 1-1-1z" fill="url(#h)" transform="translate(21.5 9.6)"/><path d="M26.7 32c.5 0 .9.4.9 1s-.4 1-1 1h-1v-2h1z" fill="#F57C00"/><path d="M23.7 33c0-.6.4-1 .9-1h1v2h-1a1 1 0 0 1-1-1z" fill="#F5F5F5"/><path d="M9 3.7v-.2c0-.5.5-1 1-1h2c.6 0 1 .5 1 1v.2c0 .5-.4.9-1 .9h-2a1 1 0 0 1-1-1z" fill="url(#i)" transform="translate(21.5 9.6)"/><path d="M33.2 11.8c.5 0 1 .4 1 1s-.5 1-1 1h-1v-2h1z" fill="#F57C00"/><path d="M30.2 12.9v-.2c0-.5.4-1 1-1h1v2h-1a1 1 0 0 1-1-.8z" fill="#F5F5F5"/><path d="M9 7.7v-.1c0-.5.5-1 1-1h2c.6 0 1 .5 1 1 0 .6-.4 1-1 1h-2a1 1 0 0 1-1-1z" fill="url(#j)" transform="translate(21.5 9.6)"/><path d="M33.2 15.8c.5 0 1 .5 1 1v.1c0 .5-.5 1-1 1h-1v-2h1z" fill="#F57C00"/><path d="M30.2 16.9v-.1c0-.5.4-1 1-1h1v2h-1a1 1 0 0 1-1-.9z" fill="#F5F5F5"/><path d="M9 11.7c0-.6.5-1 1-1h2c.6 0 1 .4 1 1s-.4 1-1 1h-2a1 1 0 0 1-1-1z" fill="url(#k)" transform="translate(21.5 9.6)"/><g><path d="M33.2 19.9c.5 0 1 .4 1 1s-.5 1-1 1h-1v-2h1z" fill="#F57C00"/><path d="M30.2 21v-.2c0-.5.4-1 1-1h1v2h-1a1 1 0 0 1-1-.9z" fill="#F5F5F5"/></g><path d="M9 15.8v-.1c0-.6.5-1 1-1h2c.6 0 1 .4 1 1s-.4 1-1 1h-2a1 1 0 0 1-1-1z" fill="url(#l)" transform="translate(21.5 9.6)"/><g><path d="M33.2 24c.5 0 1 .4 1 .9 0 .6-.5 1-1 1h-1v-2h1z" fill="#F57C00"/><path d="M30.2 25v-.1c0-.5.4-1 1-1h1v2h-1a1 1 0 0 1-1-1z" fill="#F5F5F5"/></g><path d="M9 19.8c0-.6.5-1 1-1h2c.6 0 1 .4 1 1 0 .5-.4 1-1 1h-2a1 1 0 0 1-1-1z" fill="url(#m)" transform="translate(21.5 9.6)"/><g><path d="M33.2 28c.5 0 1 .4 1 1s-.5 1-1 1h-1v-2h1z" fill="#F57C00"/><path d="M30.2 29c0-.6.4-1 1-1h1v2h-1a1 1 0 0 1-1-1z" fill="#F5F5F5"/></g><path d="M9 23.9v-.2c0-.5.5-.9 1-.9h2c.6 0 1 .4 1 1s-.4 1-1 1h-2a1 1 0 0 1-1-1z" fill="url(#n)" transform="translate(21.5 9.6)"/><g><path d="M33.2 32c.5 0 1 .4 1 1s-.5 1-1 1h-1v-2h1z" fill="#F57C00"/><path d="M30.2 33c0-.6.4-1 1-1h1v2h-1a1 1 0 0 1-1-1z" fill="#F5F5F5"/></g></g></g></svg>
