<svg width="55" height="40" xmlns="http://www.w3.org/2000/svg"><defs><linearGradient x1="0%" y1="50%" y2="50%" id="a"><stop stop-color="#AA4700" offset="0%"/><stop stop-color="#B45200" offset="12.9%"/><stop stop-color="#C56600" offset="41.1%"/><stop stop-color="#CF7100" offset="69.9%"/><stop stop-color="#D27500" offset="100%"/></linearGradient><linearGradient x1="0%" y1="49.9%" y2="49.9%" id="b"><stop stop-color="#AA4700" offset="0%"/><stop stop-color="#B45200" offset="12.9%"/><stop stop-color="#C56600" offset="41.1%"/><stop stop-color="#CF7100" offset="69.9%"/><stop stop-color="#D27500" offset="100%"/></linearGradient><linearGradient x1="0%" y1="49.9%" y2="49.9%" id="c"><stop stop-color="#AA4700" offset="0%"/><stop stop-color="#B45200" offset="12.9%"/><stop stop-color="#C56600" offset="41.1%"/><stop stop-color="#CF7100" offset="69.9%"/><stop stop-color="#D27500" offset="100%"/></linearGradient><linearGradient x1="100.1%" y1="49.9%" x2="0%" y2="49.9%" id="d"><stop stop-color="#AA4700" offset="0%"/><stop stop-color="#B45200" offset="12.9%"/><stop stop-color="#C56600" offset="41.1%"/><stop stop-color="#CF7100" offset="69.9%"/><stop stop-color="#D27500" offset="100%"/></linearGradient><linearGradient x1="100%" y1="50%" x2="0%" y2="50%" id="e"><stop stop-color="#AA4700" offset="0%"/><stop stop-color="#B45200" offset="12.9%"/><stop stop-color="#C56600" offset="41.1%"/><stop stop-color="#CF7100" offset="69.9%"/><stop stop-color="#D27500" offset="100%"/></linearGradient><linearGradient x1="0%" y1="50%" y2="50%" id="f"><stop stop-color="#AA4700" offset="0%"/><stop stop-color="#B45200" offset="12.9%"/><stop stop-color="#C56600" offset="41.1%"/><stop stop-color="#CF7100" offset="69.9%"/><stop stop-color="#D27500" offset="100%"/></linearGradient><linearGradient x1="-.1%" y1="50.1%" x2="99.9%" y2="50.1%" id="g"><stop stop-color="#AA4700" offset="0%"/><stop stop-color="#B45200" offset="12.9%"/><stop stop-color="#C56600" offset="41.1%"/><stop stop-color="#CF7100" offset="69.9%"/><stop stop-color="#D27500" offset="100%"/></linearGradient><linearGradient x1="0%" y1="50%" y2="50%" id="h"><stop stop-color="#AA4700" offset="0%"/><stop stop-color="#B45200" offset="12.9%"/><stop stop-color="#C56600" offset="41.1%"/><stop stop-color="#CF7100" offset="69.9%"/><stop stop-color="#D27500" offset="100%"/></linearGradient><linearGradient x1="0%" y1="50.1%" x2="100.1%" y2="50.1%" id="i"><stop stop-color="#4454B2" offset="0%"/><stop stop-color="#00247F" offset="100%"/></linearGradient></defs><g fill-rule="nonzero" fill="none"><path d="M20.4 10s1.8 15.4-7 14.6c0 0 0 4.4-.4 6 0 0-4.3 1.5-7.7-.5 0 0 .4-8.8-.6-11.6-1-2.9-3-10.5 3.8-11.3 6.8-.9 11.8.8 11.9 2.8z" fill="#FFD5A1"/><path d="M6.1 17.4s-.4 1.4-3 2.3c-2.6 1 0-4.2 0-4.2S-1.3 11.7.4 10c1.8-1.6 4 1 4 1S-.6 5.7 3 3.3C6.6 1 7.7 5 7.7 5s1.2-2.6 6.5-3.8c5.2-1.2 5.8 0 4.2 2.1-1.6 2 .7 1.2 2 .8 1.3-.4 5 .2 3.5 3.8-1.6 3.8-3.6 4.3-3.6 7.8V9.8s-.6-.4-2.7-.4c-3.3 0-4.8 2.7-9.3-1.2 0 0 1.6 4.5-.6 6 0 0-1.4-1-2.3.2-1 1.3.7 3 .7 3z" fill="url(#a)" transform="translate(0 .3)"/><path d="M13.2 24s-2.4.3-5.1-2c0 0 2.7 3.7 5 3.7l.1-1.6z" fill="url(#b)" transform="translate(0 .3)"/><g transform="translate(33.7 .3)"><ellipse fill="#E5B785" cx="1.3" cy="15.5" rx="1.2" ry="1.9"/><path d="M13.8 3.8s-.3-1.4 1.4-3c1.5-1.3 3.5-1 5 .6 1.7 1.6.8 4 .3 4.5-.4.5-1 2-3.8 1-2.8-1.1-3-3-3-3z" fill="url(#c)"/><path d="M13.8 3.8s1.5-1.4 3.4 1c1.3 1.6.8 2.4.8 2.4s-2.4-.7-3-1.3a6.2 6.2 0 0 1-1.2-2z" fill="#5967D6"/><path d="M.5 9.9s-1.9 12.7 7 14.4c0 0 0 4.4.4 6 0 0 4.3 1.5 7.7-.5 0 0-.4-8.8.6-11.6 1-2.8 3-10.3-3.8-11.2C5.6 6.2.6 8 .5 10z" fill="#FFD5A1"/><path d="M7.5 24.3s2.2.2 4.8-2.1c0 0-2.6 3.7-4.8 3.7v-1.6z" fill="url(#d)"/><path d="M.5 9.9S-.4 4 6.7 3.5c7-.7 9.3.5 11.1 4.7 1.9 4.3.1 9.6-2.8 10l-.4-.9s1.6-1.6.7-2.9c-1-1.3-2.3-.2-2.3-.2-2.2-1.5-.6-6-.6-6-4.4 3.9-6 1.3-9.2 1.3-2.1 0-2.7.4-2.7.4" fill="url(#e)"/></g><g transform="translate(16.9 15.7)"><path d="M2 12.9l-2 7.5s5.4 3.1 10.6 3.1c5.2 0 9.9-3.1 9.9-3.1l-1.6-7.5H2z" fill="url(#f)"/><path d="M9.5 22.7a9.4 9.4 0 0 1-3.7-1.1l-.5 1.6s2 1 5.2 1c3.3 0 5.3-1.2 5.3-1.2l-.6-1.5a9.3 9.3 0 0 1-5.7 1.2z" fill="#FFD5A1"/><path d="M.9.3l-.3 1a9.3 9.3 0 0 0 9.4-.1L9.6 0 .9.3z" fill="url(#g)" transform="translate(5.3 20.3)"/><ellipse fill="#E5B785" cx="18.9" cy="11.3" rx="1.6" ry="1.6"/><ellipse fill="#E5B785" cx="2.1" cy="11.3" rx="1.6" ry="1.6"/><path d="M10.5 2.5h-.9c-4.2.6-7.5 4.7-7.5 9.6 0 5 3.3 9 7.5 9.5h.9c4.6 0 8.4-4.2 8.4-9.5s-3.8-9.6-8.4-9.6z" fill="#FFD5A1"/><path d="M4.7 8s9-.8 10.5-3c0 0 .7 7.7 3.7 7.9 0 0 1.2-11.2-8-11.2-9.4 0-8.8 11.2-8.8 11.2S4.5 10 4.7 8z" fill="url(#h)"/><path d="M10.1 1.7L7.6.2a1 1 0 0 0-1.5.9V4a1 1 0 0 0 1.5.9l2.5-1.5a1 1 0 0 0 0-1.7z" fill="#5967D6"/><path d="M11 3.4l2.5 1.5a1 1 0 0 0 1.5-1V1.2a1 1 0 0 0-1.5-.9L11 1.7a1 1 0 0 0 0 1.7z" fill="#5967D6"/><ellipse fill="url(#i)" cx="10.6" cy="2.5" rx="1.1" ry="1.1"/></g></g></svg>