<svg width="55" height="29" xmlns="http://www.w3.org/2000/svg"><defs><linearGradient x1="-.1%" y1="50%" x2="99.9%" y2="50%" id="a"><stop stop-color="#4454B2" offset="0%"/><stop stop-color="#00247F" offset="100%"/></linearGradient><linearGradient x1=".1%" y1="50%" x2="100.1%" y2="50%" id="b"><stop stop-color="#4454B2" offset="0%"/><stop stop-color="#00247F" offset="100%"/></linearGradient><linearGradient x1="0%" y1="50%" x2="100.1%" y2="50%" id="c"><stop stop-color="#4454B2" offset="0%"/><stop stop-color="#00247F" offset="100%"/></linearGradient><linearGradient x1=".1%" y1="50%" x2="100.1%" y2="50%" id="d"><stop stop-color="#4454B2" offset="0%"/><stop stop-color="#00247F" offset="100%"/></linearGradient><linearGradient x1="0%" y1="50%" y2="50%" id="e"><stop stop-color="#4454B2" offset="0%"/><stop stop-color="#00247F" offset="100%"/></linearGradient></defs><g fill-rule="nonzero" fill="none"><path d="M52 3.4H20a4 4 0 0 0-4 4v1.5l-2.2 2.2c-.4.3-.6.7-.6 1H7.5l-.7.2-.7-.1h-.8c-1.2 0-2.2 1-2.2 2.2v9c0 1 .6 1.7 1.4 2v1.3a1.3 1.3 0 0 0 2.6 0v-1.1h11.2v1.1a1.3 1.3 0 0 0 2.7 0v-1H38v1c0 .8.6 1.4 1.4 1.4.7 0 1.3-.6 1.3-1.4v-1h9.8v1c0 .8.6 1.4 1.4 1.4.7 0 1.3-.6 1.3-1.4v-1.1c1-.3 1.7-1.2 1.7-2.2v-17a3 3 0 0 0-3-3zm-36 13v.6l.1 1.2H16v-1.8zm25.7 7.5H42h-.3z" fill="#9EB5E5"/><g transform="translate(0 1)"><path d="M2.8 24.7c-.8 0-1.4-.6-1.4-1.3v-2.2c0-.8.6-1.4 1.4-1.4.7 0 1.3.6 1.3 1.4v2.2c0 .7-.6 1.3-1.3 1.3z" fill="url(#a)"/><path d="M36.4 24.7c-.7 0-1.3-.6-1.3-1.3v-2.2c0-.8.6-1.4 1.3-1.4.7 0 1.3.6 1.3 1.4v2.2c0 .7-.6 1.3-1.3 1.3z" fill="url(#b)"/><path d="M16.6 24.7c-.8 0-1.4-.6-1.4-1.3v-2.2c0-.8.6-1.4 1.4-1.4.7 0 1.3.6 1.3 1.4v2.2c0 .7-.6 1.3-1.3 1.3z" fill="url(#c)"/><path d="M48.9 24.7c-.7 0-1.3-.6-1.3-1.3v-2.2c0-.8.6-1.4 1.3-1.4.7 0 1.3.6 1.3 1.4v2.2c0 .7-.6 1.3-1.3 1.3z" fill="url(#d)"/><path d="M48 17.6H16.8a4 4 0 0 1-4-4V4a4 4 0 0 1 4-4h31a4 4 0 0 1 4 4v9.6a4 4 0 0 1-4 4z" fill="#F57C00"/><path d="M10.6 22.3H4.4c-1.2 0-2.2-1-2.2-2.2v-9c0-1.3 1-2.3 2.2-2.3H13v11.3c0 1.2-1 2.2-2.3 2.2z" fill="#5967D6"/><path fill="url(#e)" d="M48.9 22.3H3l.7-2.5h45.8z"/><path d="M3 22.3h-.8C1 22.3 0 21.3 0 20v-9c0-1.3 1-2.3 2.2-2.3H3c1.3 0 2.3 1 2.3 2.2v9c0 1.3-1 2.3-2.3 2.3z" fill="#FFD5A1"/><path d="M48.9 17.6a3 3 0 0 1-3-3V3a3 3 0 0 1 6 0v11.5a3 3 0 0 1-3 3z" fill="#5967D6"/><path d="M38.6 20.6h-32c-1.2 0-2.2-1-2.2-2.2V17c0-1.2 1-2.2 2.2-2.2h32c1.3 0 2.3 1 2.3 2.2v1.4c0 1.2-1 2.2-2.3 2.2z" fill="#FFD5A1"/><path d="M49.7 20.6H39c-1.2 0-2.2-1-2.2-2.2V17c0-1.2 1-2.2 2.2-2.2h13v3.6c0 1.2-1 2.2-2.2 2.2z" fill="#5967D6"/><path d="M34 7.7l3.5-3.5c.9-.9 2.3-.9 3.2 0l3.5 3.5c.9.9.9 2.3 0 3.1l-3.5 3.6c-.9.9-2.3.9-3.2 0L34 10.8c-.9-.8-.9-2.2 0-3z" fill="#7A3700"/><path d="M23 7.7l3.6-3.5c.9-.9 2.3-.9 3.2 0l3.5 3.5c.9.9.9 2.3 0 3.1l-3.5 3.6c-.9.9-2.3.9-3.2 0l-3.5-3.6c-.9-.8-.9-2.2 0-3z" fill="#7A3700"/><path d="M12.2 7.7l3.5-3.5c.9-.9 2.3-.9 3.2 0l3.5 3.5c.9.9.9 2.3 0 3.1L19 14.4c-.9.9-2.3.9-3.2 0l-3.5-3.6c-.9-.8-.9-2.2 0-3z" fill="#7A3700"/><path d="M21.6 7.7l3.6-3.5c.8-.9 2.2-.9 3.1 0l3.6 3.5c.8.9.8 2.3 0 3.1l-3.6 3.6c-.9.9-2.3.9-3.1 0l-3.6-3.6c-.9-.8-.9-2.2 0-3z" fill="#F5F5F5"/><path d="M32.5 7.7l3.6-3.5c.8-.9 2.2-.9 3.1 0l3.6 3.5c.8.9.8 2.3 0 3.1l-3.6 3.6c-.9.9-2.3.9-3.1 0l-3.6-3.6c-.9-.8-.9-2.2 0-3zM10.7 7.7l3.6-3.5c.8-.9 2.2-.9 3.1 0L21 7.7c.8.9.8 2.3 0 3.1l-3.6 3.6c-.9.9-2.3.9-3.1 0l-3.6-3.6c-.9-.8-.9-2.2 0-3z" fill="#F5F5F5"/><ellipse fill="#F57C00" cx="15.8" cy="9.3" rx="1" ry="1"/><ellipse fill="#F57C00" cx="26.7" cy="9.3" rx="1" ry="1"/><ellipse fill="#F57C00" cx="37.6" cy="9.3" rx="1" ry="1"/><path d="M49.7 22.3h-6.2c-1.2 0-2.2-1-2.2-2.2v-9c0-1.3 1-2.3 2.2-2.3h6.2c1.2 0 2.2 1 2.2 2.2v9c0 1.3-1 2.3-2.2 2.3z" fill="#5967D6"/><path d="M42.1 22.3h-.8c-1.2 0-2.2-1-2.2-2.2v-9c0-1.3 1-2.3 2.2-2.3h.8c1.2 0 2.2 1 2.2 2.2v9c0 1.3-1 2.3-2.2 2.3z" fill="#FFD5A1"/></g></g></svg>