<svg width="23" height="41" xmlns="http://www.w3.org/2000/svg"><defs><linearGradient x1="0%" y1="50%" y2="50%" id="a"><stop stop-color="#FF9A1B" offset="0%"/><stop stop-color="#F57C00" offset="100%"/></linearGradient><linearGradient x1="0%" y1="50%" x2="99.9%" y2="50%" id="b"><stop stop-color="#4454B2" offset="0%"/><stop stop-color="#00247F" offset="100%"/></linearGradient><linearGradient x1=".1%" y1="50%" x2="100.1%" y2="50%" id="c"><stop stop-color="#4454B2" offset="0%"/><stop stop-color="#00247F" offset="100%"/></linearGradient><linearGradient x1="0%" y1="50%" y2="50%" id="d"><stop stop-color="#4454B2" offset="0%"/><stop stop-color="#00247F" offset="100%"/></linearGradient><linearGradient x1=".2%" y1="50%" x2="100.1%" y2="50%" id="e"><stop stop-color="#4454B2" offset="0%"/><stop stop-color="#00247F" offset="100%"/></linearGradient></defs><g fill="none" fill-rule="evenodd"><path d="M20.3 28.1c-.1-1-1-1.8-2.1-1.8h.4v-1.6h-1.3V24l3.5-17.7h.7V4.7h-4.8c-.3-1.7-1.7-3-3.5-3a3.5 3.5 0 0 0-3.4 3H5v1.5h.6L6 7.6l.3 1.5h-.6a2 2 0 0 0-2 2v9.1c0 1.1.8 2 2 2h3.1L9 24v.8H7.6v1.5c-1 0-2 .8-2.1 1.9l-2 12.5H22l-1.8-12.5z" fill="#9EB5E5" fill-rule="nonzero"/><g transform="translate(.9 .3)"><ellipse fill="url(#a)" fill-rule="nonzero" cx="9.8" cy="3.5" rx="3.5" ry="3.4"/><path d="M2 9.4l-.1 9.1s0 .2.2.2h2.8L3.1 9.2H2s-.2 0-.2.2z"/><path d="M2 18.7l-.1-.2V9.4l.2-.2h1l-.4-1.8h-.6a2 2 0 0 0-2 2v9c0 1.2.9 2 2 2l3.2.1-.4-1.8H2.1z" fill="#5967D6" fill-rule="nonzero"/><path fill="#FFD5A1" fill-rule="nonzero" d="M9.8 4.5H2l.6 2.9.4 1.8 1.8 9.5.4 1.8.3 1.6h8.2l3.6-17.6z"/><g fill-rule="nonzero"><path d="M16.8 2c-.1-1.1-1-2-2.1-2h-2c1 0 2 .8 2 2l1.9 12.4h2L16.9 2z" fill="url(#b)" transform="translate(0 24.5)"/><path d="M12.6 24.6H4.1c-1 0-2 .7-2.1 1.8L0 38.9h16.6l-1.8-12.5c-.2-1-1-1.8-2.2-1.8z" fill="#5967D6"/></g><path d="M5.9 34.1a.8.8 0 0 1-.8-.8v-1.5c0-.4.4-.7.8-.7s.8.3.8.7v1.6c0 .4-.4.7-.8.7z" fill="url(#c)" fill-rule="nonzero"/><path d="M10.1 34.1a.8.8 0 0 1-.7-.7v-1.6c0-.4.3-.7.7-.7.5 0 .8.3.8.7v1.6c0 .4-.4.7-.8.7z" fill="url(#d)" fill-rule="nonzero"/><path d="M14.4 34.1a.8.8 0 0 1-.8-.7v-1.5c0-.5.3-.8.8-.8.4 0 .7.3.7.8v1.5c0 .4-.3.7-.7.7z" fill="url(#e)" fill-rule="nonzero"/><path d="M5.1 33.5a.8.8 0 0 1-.8-.8v-1.5c0-.4.4-.8.8-.8s.8.4.8.8v1.5c0 .4-.4.8-.8.8zM9.4 33.5a.8.8 0 0 1-.8-.8v-1.5c0-.4.3-.8.8-.8.4 0 .7.4.7.8v1.5c0 .4-.3.8-.7.8zM13.6 33.5a.8.8 0 0 1-.8-.8v-1.5c0-.4.4-.8.8-.8s.8.4.8.8v1.5c0 .4-.4.8-.8.8z" fill="#FFF" fill-rule="nonzero"/><path fill="#7F3F05" fill-rule="nonzero" d="M4.2 23h11v1.6h-11z"/><path fill="#F57C00" fill-rule="nonzero" d="M5.6 22.1h8.2v1H5.6zM1.5 3H18v1.5H1.5z"/><path fill="#A04800" fill-rule="nonzero" d="M2.1 4.4h15.3L17 6H2.4z"/><path fill="#D05E00" fill-rule="nonzero" d="M13 8.3v-.1h2.2zM12.5 10h2.3zM12.1 11.8v-.1h2.4zM11.7 13.5h2.4zM11.3 15.3v-.1h2.4zM11 17h2.3zM10.6 18.8v-.1h2.3z"/><path fill="#D05E00" fill-rule="nonzero" d="M11.7 20l2.7-12.7h.1L11.8 20z"/><path fill="#FFF" fill-rule="nonzero" d="M4.9 11.7h.4L6.9 20h-.4zM4 7.3h.4L5 9.9h-.4z"/></g></g></svg>
