<!DOCTYPE svg PUBLIC "-//W3C//DTD SVG 20010904//EN" "http://www.w3.org/TR/2001/REC-SVG-20010904/DTD/svg10.dtd">
<svg version="1.0" xmlns="http://www.w3.org/2000/svg" width="500px" height="500px" viewBox="0 0 5000 5000" preserveAspectRatio="xMidYMid meet">
<g id="layer101" fill="#f28524" stroke="none">
 <path d="M1300 2070 l0 -650 1245 0 1245 0 0 650 0 650 -1245 0 -1245 0 0 -650z"/>
 </g>
<g id="layer102" fill="#fffefe" stroke="none">
 <path d="M1300 2070 l0 -650 1245 0 1245 0 0 650 0 650 -1245 0 -1245 0 0 -650z m539 506 c50 -57 91 -107 91 -110 0 -3 -37 -6 -83 -6 l-83 0 -45 53 c-24 28 -66 78 -93 110 l-48 57 85 0 86 0 90 -104z m263 17 c40 -49 122 -145 182 -215 l108 -128 -114 0 -114 0 -130 157 c-71 86 -151 183 -177 215 l-49 58 110 0 109 0 75 -87z m388 -53 c63 -76 120 -139 125 -139 6 -1 64 62 130 139 l120 139 83 1 c46 0 82 -4 80 -9 -1 -5 -61 -77 -133 -159 l-130 -150 -150 -1 -150 0 -81 97 c-45 53 -105 125 -134 160 l-52 62 89 0 88 -1 115 -139z m774 104 c22 -22 20 -61 -4 -74 -51 -27 -95 36 -50 72 27 22 34 22 54 2z m201 -15 c11 -18 -4 -57 -25 -64 -31 -10 -60 12 -60 46 0 46 60 59 85 18z m5 -199 l0 -110 -167 -2 -168 -3 -35 -67 c-32 -63 -38 -68 -67 -68 -18 0 -33 2 -33 5 0 3 39 84 87 180 l88 175 147 0 148 0 0 -110z m-1494 -24 c6 -15 -182 -256 -198 -256 -4 0 -8 61 -8 135 l0 135 100 0 c79 0 102 -3 106 -14z m84 -98 l42 -48 -72 -90 -73 -90 -89 0 c-48 0 -88 3 -88 8 0 15 223 283 230 275 4 -4 26 -29 50 -55z m700 -68 l0 -80 -102 -122 -103 -121 -5 140 -5 140 -67 58 c-38 31 -68 59 -68 61 0 2 79 4 175 4 l175 0 0 -80z m209 -4 c9 -11 10 -20 1 -36 -13 -25 -47 -24 -63 2 -22 34 36 66 62 34z m294 -17 c42 -52 6 -139 -59 -139 -46 0 -63 9 -80 42 -33 63 18 135 86 124 19 -3 43 -15 53 -27z m-853 -74 l0 -66 -92 -112 c-50 -62 -100 -121 -110 -132 -17 -19 -18 -14 -18 178 l0 197 110 0 110 0 0 -65z m443 -145 l-118 -139 -94 -1 c-87 0 -93 1 -80 17 8 10 60 73 117 140 l103 123 95 0 94 0 -117 -140z m-353 -6 l0 -85 -56 -70 -56 -69 -95 0 c-112 0 -117 -22 42 174 92 113 114 135 138 136 l27 0 0 -86z m-558 27 c27 -24 33 -36 33 -71 0 -34 -6 -47 -28 -66 -39 -33 -69 -39 -110 -19 -75 35 -76 133 -2 173 35 20 73 14 107 -17z m787 -225 c21 -21 26 -36 26 -76 0 -40 -5 -55 -26 -76 -83 -82 -223 9 -179 116 29 71 125 90 179 36z m-356 -81 c54 -38 73 -120 41 -175 -66 -111 -244 -64 -244 65 0 60 36 106 100 129 22 7 81 -3 103 -19z"/>
 </g>

</svg>