<svg xmlns="http://www.w3.org/2000/svg" xmlns:xlink="http://www.w3.org/1999/xlink" width="27" height="27">
  <defs>
    <path id="a" d="M14.2 0L0 14.2l3.9 3.9L18.1 3.9z"/>
    <linearGradient id="b" x1="39.2%" x2="60.8%" y1="39.2%" y2="60.8%">
      <stop offset="0%" stop-color="#FF9A1A"/>
      <stop offset="100%" stop-color="#F47C00"/>
    </linearGradient>
    <path id="d" d="M0 0h5.9v5.9H0z"/>
    <path id="f" d="M1.3 3.7L0 6.4v.2c0 .3.3.5.6.4l2.7-1.3L7 3.9 3 0 1.4 3.7z"/>
    <linearGradient id="g" x1="0%" y1="50%" y2="50%">
      <stop offset="0%" stop-color="#4454B1"/>
      <stop offset="100%" stop-color="#00237E"/>
    </linearGradient>
    <path id="i" d="M0 0h15.2v1.4H0z"/>
    <path id="k" d="M0 0h20.4v1.4H0z"/>
    <path id="m" d="M0 0h9.8v1.4H0z"/>
  </defs>
  <g fill="none" fill-rule="evenodd">
    <path fill="#FFD5A1" d="M16.2 5.8L18 4.1 21.9 8l-1.8 1.7z"/>
    <g transform="translate(2 5.7)">
      <mask id="c" fill="#fff">
        <use xlink:href="#a"/>
      </mask>
      <path fill="url(#b)" d="M14.2 0L0 14.2l3.9 3.9L18.1 3.9z" mask="url(#c)"/>
    </g>
    <g transform="translate(18 2)">
      <mask id="e" fill="#fff">
        <use xlink:href="#d"/>
      </mask>
      <path fill="#5967D6" d="M5.1 4.7c1.1-1 1.1-2.8 0-3.9-1-1-2.8-1-3.9 0L0 2l4 4L5 4.6z" mask="url(#e)"/>
    </g>
    <g transform="translate(-1 20)">
      <mask id="h" fill="#fff">
        <use xlink:href="#f"/>
      </mask>
      <path fill="url(#g)" d="M1.3 3.7L0 6.4v.2c0 .3.3.5.6.4l2.7-1.3L7 3.9 3 0 1.4 3.7z" mask="url(#h)"/>
    </g>
    <g transform="translate(12.8 20)">
      <mask id="j" fill="#fff">
        <use xlink:href="#i"/>
      </mask>
      <path fill="#5967D6" d="M14.5 0h-13L0 1.4h14.5a.7.7 0 0 0 0-1.4" mask="url(#j)"/>
    </g>
    <g transform="translate(7.5 25.6)">
      <mask id="l" fill="#fff">
        <use xlink:href="#k"/>
      </mask>
      <path fill="#5967D6" d="M19.8 0H1.4L0 1.4h19.8a.7.7 0 1 0 0-1.4" mask="url(#l)"/>
    </g>
    <g transform="translate(18.2 14.3)">
      <mask id="n" fill="#fff">
        <use xlink:href="#m"/>
      </mask>
      <path fill="#5967D6" d="M9.1 0H1.4L0 1.4h9.1a.7.7 0 0 0 0-1.4" mask="url(#n)"/>
    </g>
  </g>
</svg>