<svg xmlns="http://www.w3.org/2000/svg" width="27" height="27">
  <defs>
    <linearGradient id="a" x1="0%" y1="50%" y2="50%">
      <stop offset="0%" stop-color="#FF9A1B"/>
      <stop offset="100%" stop-color="#F57C00"/>
    </linearGradient>
  </defs>
  <g fill="none" fill-rule="nonzero">
    <path fill="#5967D6" d="M24.7 21.9H7.4a.6.6 0 0 1-.6-.5L2.5 4.8c-.2-.2-1-1.6-3.8-1.6a.6.6 0 0 1-.7-.6c0-.3.3-.6.7-.6 3.8 0 4.9 2.3 5 2.4l4.1 16.3h17c.3 0 .5.2.5.6 0 .3-.2.6-.6.6z"/>
    <path fill="url(#a)" d="M8.1 6.6l2.3 8.6a2.7 2.7 0 0 0 3 2l13-1.7a3.3 3.3 0 0 0 2.8-2.4L31 6.3c.2-.9-.4-1.7-1.3-1.7h-20c-1.1 0-1.9 1-1.6 2z" transform="translate(-2 2)"/>
    <path fill="#5967D6" d="M10 27h-.2-.1-.1-.1-.1l-.1-.1h-.1H9v-.1h-.2v-.1h-.1l-.1-.2h-.1l-.1-.1v-.1h-.1V26h-.1l-.1-.1v-.1-.1l-.1-.1v-.2l-.1-.2V25 25v-.1-.1-.1-.1-.1-.1h.1v-.2h.1V24h.1v-.1h.1v-.2h.2v-.2h.2l.1-.1H9l.1-.1h.2v-.1h.4l.1-.1h.7l.1.1h.1l.2.1.1.1h.1l.1.1v.1h.1l.1.1v.1h.1v.2h.1v.1l.1.1v.1h.1v.4h.1V25.8h-.1v.2h-.1v.1l-.1.1v.1h-.1v.2h-.2l-.1.1v.1H11v.1h-.1l-.1.1h-.1l-.2.1H9.8zM22.8 27H22.1v-.1H22 22l-.1-.1h-.1v-.1h-.2v-.2h-.1l-.2-.1v-.1l-.1-.2-.1-.1v-.1l-.1-.1v-.1l-.1-.2v-.2-.2-.1-.1-.1-.1-.1-.1-.1l.1-.2.1-.2.1-.1.1-.2h.1l.2-.2h.1l.1-.1.2-.1h.1l.1-.1h.4l.1-.1h.6l.2.1h.2v.1h.1l.1.1.2.1v.1h.1v.1l.1.1h.1v.2h.1v.1l.1.1v.1l.1.2V25.8l-.1.2v.1l-.1.1-.1.1-.1.2H24v.1l-.1.1-.2.1-.1.1h-.1-.1l-.1.1h-.1-.5z"/>
  </g>
</svg>