<svg xmlns="http://www.w3.org/2000/svg" width="27" height="27">
  <path fill="#F57C00" fill-rule="evenodd" d="M9.3 25.8h16.1v-14a4.8 4.8 0 0 1-7.4-1.6 4.9 4.9 0 0 1-8.8 0 4.9 4.9 0 0 1-8 1v14.6h2V15.7h6.1v10zm-5.2 0h4.4v-9.3H4v9.3zM9 3.3H1.2V8a3.6 3.6 0 0 0 7 1.6c.1-.4.6-.7 1-.7.5 0 1 .3 1.1.7a3.6 3.6 0 0 0 6.5 0c.3-.4.7-.7 1.1-.7.5 0 1 .3 1.2.7a3.6 3.6 0 0 0 6.3.3V3.3h-7.2V8c0 .2-.1.3-.3.3a.2.2 0 0 1-.2-.3V3.3H9.5V8c0 .2-.1.3-.3.3A.2.2 0 0 1 9 8V3.3zM0 2h26.7v25H0V2zm12 21.2h11.1v-6.7h-11v6.7zm-.8.8v-8.3h12.7V24H11.2zm9.3-6.7c.2.2.2.5 0 .7l-4 4-.3.1-.4-.1a.5.5 0 0 1 0-.8l4-3.9a.5.5 0 0 1 .7 0zm.7 1.7a.5.5 0 0 1 .3.9l-2 2-.4.2c-.1 0-.3 0-.4-.2a.5.5 0 0 1 0-.7l2.1-2c.1-.2.2-.2.4-.2z"/>
</svg>