<svg xmlns="http://www.w3.org/2000/svg" width="27" height="27">
  <path fill="#F57C00" fill-rule="evenodd" d="M5.5 22.6L19 9l-2.2-2.2L3.3 20.4l2.2 2.2zm-3.8 1.9l3-1.5L3 21.1l-1.5 3-.2.7.5-.3zm19-17.1l-2.2-2.2-1 1.1 2 2.2 1.2-1.1zM20 3.7l-.9 1 2.2 2 .9-.8A1.5 1.5 0 0 0 20 3.7zM20 10l-14 13.8-3.6 1.8-2.7 1.3h-.2a.4.4 0 0 1-.4-.6l1.3-2.7L2.1 20 17.7 4.3l.5-.5 1-1a2.8 2.8 0 0 1 3.9 0c1 1.1 1 2.9 0 4L21.9 8l-1.4 1.4-.6.6zm7.5 10a.7.7 0 0 1 0 1.4H12.8l1.4-1.4h13.2zm0 5.6a.7.7 0 0 1 0 1.4H7.5L9 25.6h18.5zm-9.2-9.9l1.4-1.3h7.8a.7.7 0 1 1 0 1.3h-9.2z"/>
</svg>