<svg xmlns="http://www.w3.org/2000/svg" width="27" height="27">
  <path fill="#F57C00" fill-rule="evenodd" d="M24.3 20.7c.4 0 .6.2.6.6 0 .3-.2.6-.6.6H7.2a.6.6 0 0 1-.6-.5L2.4 4.8c-.2-.2-1-1.6-3.8-1.6a.6.6 0 0 1-.6-.6c0-.3.3-.6.6-.6 3.8 0 4.9 2.3 5 2.4l4 16.3h16.7zm3.9-13.2l-.1-.4-.4-.2H8a.7.7 0 0 0-.8 1l2.3 8.4a1.8 1.8 0 0 0 2 1.4l12.8-1.5a2.4 2.4 0 0 0 2-1.8l1.9-6.9zm-.5-1.4c.9 0 1.5.8 1.3 1.6l-1.8 7a3.3 3.3 0 0 1-2.8 2.3l-12.8 1.5a2.6 2.6 0 0 1-3-2L6.5 8.2C6.2 7 7 6 8 6h19.7zM10.8 25V25a1.4 1.4 0 0 1 0-.1 8.1 8.1 0 0 1 0-.4 1.6 1.6 0 0 1-.1 0v-.1h-.1v-.1a1 1 0 0 1-.1 0v-.1h-.2V24h-.1a2 2 0 0 1-.1-.1H10h-.1a1.6 1.6 0 0 1-.2 0 1.5 1.5 0 0 1-.2 0 1.1 1.1 0 0 1-.2 0 2.4 2.4 0 0 1-.2.2H9v.1h-.1a1.3 1.3 0 0 1-.1.2v.1a1.1 1.1 0 0 1-.1.2 2.5 2.5 0 0 0 0 .2V25.6h.1l.1.2H9v.1h.2v.1h.1a2.8 2.8 0 0 1 .1 0 1 1 0 0 1 0 .1H10a1.2 1.2 0 0 1 .1 0h.1a1.6 1.6 0 0 1 .2-.2h.1v-.1l.1-.1a1.3 1.3 0 0 1 .1-.1v-.1l.1-.2a.9.9 0 0 0 0-.2zm.9-.3V25.7l-.1.1v.2h-.1v.1l-.1.1v.1h-.1l-.1.2H11l-.1.1v.1h-.2v.1h-.1l-.1.1h-.1l-.2.1H9.6h-.1-.1-.1-.1-.1H9 9v-.1h-.2l-.1-.1h-.1v-.2h-.2l-.1-.1v-.1l-.1-.1L8 26l-.1-.1v-.1-.1h-.1v-.2-.2l-.1-.2V25v-.1-.1-.1-.1-.1l.1-.1v-.1L8 24l.1-.1v-.1h.1l.1-.2.1-.1h.1v-.1h.2v-.1h.1l.1-.1H9l.2-.1h.2l.2-.1a1 1 0 0 1 .2 0h.5l.1.1h.2v.1h.2v.1h.1v.1l.2.1v.1l.2.1v.2h.1v.1l.1.1v.1l.1.2v.2zm11.8.2a1.4 1.4 0 0 1 0-.1v-.1a1.7 1.7 0 0 1 0-.2 1.5 1.5 0 0 1-.1-.1v-.1h-.1v-.1h-.1v-.1H23V24h-.1l-.1-.1h-.2a1.6 1.6 0 0 1-.2 0 1.5 1.5 0 0 1-.2 0 2.3 2.3 0 0 0-.1 0 1.1 1.1 0 0 1-.1 0l-.1.1h-.1v.1h-.1v.1h-.1a1.3 1.3 0 0 1-.1.2v.1a2.8 2.8 0 0 1-.1.2v.6a1.7 1.7 0 0 1 0 .2h.2v.2h.1v.1a1.3 1.3 0 0 1 .2.1 2.1 2.1 0 0 1 .2 0 1.4 1.4 0 0 1 0 .1H22.8a1.2 1.2 0 0 1 .1 0h.1a1.8 1.8 0 0 1 .1-.1l.2-.1v-.1l.1-.1a1.3 1.3 0 0 1 .1-.1 2.3 2.3 0 0 1 0-.1 1.1 1.1 0 0 1 .1-.2V25zm.9-.2V25.7l-.1.1v.2h-.1v.1l-.1.1v.1H24l-.1.2h-.1l-.1.1v.1h-.2v.1h-.1l-.1.1h-.1-.1v.1h-.4H22.3h-.1-.1-.1-.1-.1-.1-.1v-.1h-.2l-.1-.1h-.1v-.2H21a42.5 42.5 0 0 1-.2-.3l-.1-.2-.1-.1v-.1-.1h-.1v-.2-.2h-.1V25v-.1-.1-.1-.1-.1l.1-.1v-.1l.1-.2.1-.1v-.1h.1l.1-.2.1-.1h.1v-.1h.2v-.1h.1l.1-.1h.1l.2-.1h.2l.2-.1a1 1 0 0 1 .2 0h.5l.1.1h.2v.1h.1l.1.1h.1v.1l.2.1v.1l.2.1v.2h.1v.1l.1.1v.1l.1.2v.2z"/>
</svg>