<svg xmlns="http://www.w3.org/2000/svg" xmlns:xlink="http://www.w3.org/1999/xlink" width="27" height="27">
  <defs>
    <linearGradient id="a" x1="0%" y1="50%" y2="50%">
      <stop offset="0%" stop-color="#FF9A1A"/>
      <stop offset="100%" stop-color="#F47C00"/>
    </linearGradient>
    <path id="b" d="M0 0h26.7v18.4H0z"/>
    <linearGradient id="c" x1="0%" y1="50%" y2="50%">
      <stop offset="0%" stop-color="#FF9A1A"/>
      <stop offset="100%" stop-color="#F47C00"/>
    </linearGradient>
    <linearGradient id="e" x1="50%" x2="50%" y1="100%" y2="0%">
      <stop offset="0%" stop-color="#4454B1"/>
      <stop offset="100%" stop-color="#00237E"/>
    </linearGradient>
    <path id="f" d="M0 .3v5.6c0 .2.1.3.3.3.1 0 .2-.1.2-.3V.3C.5 0 .4 0 .3 0 0 0 0 .1 0 .3"/>
    <linearGradient id="g" x1="0%" y1="50%" y2="50%">
      <stop offset="0%" stop-color="#4454B1"/>
      <stop offset="100%" stop-color="#00237E"/>
    </linearGradient>
    <path id="i" d="M0 .3v5.6c0 .2.1.3.3.3.1 0 .2-.1.2-.3V.3C.5 0 .4 0 .3 0 0 0 0 .1 0 .3"/>
    <linearGradient id="j" x1="0%" y1="50%" y2="50%">
      <stop offset="0%" stop-color="#4454B1"/>
      <stop offset="100%" stop-color="#00237E"/>
    </linearGradient>
  </defs>
  <g fill="none" fill-rule="evenodd">
    <path fill="url(#a)" d="M0 25h26.7V0H0z" transform="translate(0 2)"/>
    <g transform="translate(0 8.6)">
      <mask id="d" fill="#fff">
        <use xlink:href="#b"/>
      </mask>
      <path fill="url(#c)" d="M0 18.4h26.7V0H0z" mask="url(#d)"/>
    </g>
    <path fill="url(#e)" d="M3 25h6.2V13.4H3z" transform="translate(0 2)"/>
    <path fill="#F5F5F5" d="M11.1 23.7h12.7v-8.3H11.1z"/>
    <path fill="#FFD5A1" d="M16.1 21.8c-.1 0-.3 0-.4-.2a.5.5 0 0 1 0-.7l4-4h.7c.2.3.2.6 0 .8l-4 4h-.3M19 21.8c-.1 0-.3 0-.4-.2a.5.5 0 0 1 0-.7l2.1-2c.2-.3.5-.3.7 0 .2.1.2.4 0 .6l-2 2.1-.4.2"/>
    <path fill="#5967D6" d="M26.7 2H0v6a4.9 4.9 0 0 0 9.2 2.2 4.9 4.9 0 0 0 8.8 0 4.9 4.9 0 0 0 8.7 0V2z"/>
    <g transform="translate(9 2.2)">
      <mask id="h" fill="#fff">
        <use xlink:href="#f"/>
      </mask>
      <path fill="url(#g)" d="M0 .3v5.6c0 .2.1.3.3.3.1 0 .2-.1.2-.3V.3C.5 0 .4 0 .3 0 0 0 0 .1 0 .3" mask="url(#h)"/>
    </g>
    <g transform="translate(17.7 2.2)">
      <mask id="k" fill="#fff">
        <use xlink:href="#i"/>
      </mask>
      <path fill="url(#j)" d="M0 .3v5.6c0 .2.1.3.3.3.1 0 .2-.1.2-.3V.3C.5 0 .4 0 .3 0 0 0 0 .1 0 .3" mask="url(#k)"/>
    </g>
  </g>
</svg>