<svg xmlns="http://www.w3.org/2000/svg" width="27" height="27">
  <path fill="#F57C00" fill-rule="evenodd" d="M24.4 25.4c.43-.44.43-1.14 0-1.58l-7.12-6.53a1.17 1.17 0 0 1-.07-.07c-.5-.4-.63-1.12-.28-1.66a7.98 7.98 0 1 0-14.68-4.3 7.98 7.98 0 0 0 11.67 7.06 1.25 1.25 0 0 1 1.61.39l.1.12 7.13 6.53.04.04a1.12 1.12 0 0 0 1.6 0zm.88-2.48a2.38 2.38 0 0 1-3.36 3.37l-7.16-6.56c-.1-.1-.18-.2-.25-.3a9.23 9.23 0 1 1-4.29-17.38 9.23 9.23 0 0 1 7.76 14.19c.05.03.1.08.14.13l7.16 6.55zM10.18 5.44a5.81 5.81 0 1 1-.02 11.63 5.81 5.81 0 0 1 .01-11.63zm0 10.76a4.96 4.96 0 1 0-.02-9.92 4.96 4.96 0 0 0 .01 9.92z"/>
</svg>