<?xml version="1.0" standalone="no"?><!DOCTYPE svg PUBLIC "-//W3C//DTD SVG 1.1//EN" "http://www.w3.org/Graphics/SVG/1.1/DTD/svg11.dtd"><svg class="icon" height="512" viewBox="0 0 1024 1024" version="1.1" xmlns="http://www.w3.org/2000/svg"><path d="M769.792 398.144c-2.08 3.616-4.128 7.232-6.24 10.816-23.968 40.736-47.968 81.44-71.904 122.176-0.544 0.96-1.152 1.28-2.176 1.28l-286.208-0.032h-1.664l3.2-5.44 75.424-128.032 0.512-0.832h118.176c-0.128 0.256-0.192 0.512-0.352 0.768l-41.024 69.664-3.776 6.432 0.8 0.064 50.944-0.032c0.48 0 1.12-0.48 1.376-0.928l44.768-75.968h118.176zM337.568 398.144l6.208 0.864c14.72 2.272 27.872 8.192 37.952 20.352 13.088 15.808 17.792 34.272 13.28 55.136a42.944 42.944 0 0 1-5.344 12.864c-8.64 14.56-17.216 29.184-25.76 43.808-0.512 0.864-1.024 1.28-2.048 1.28-30.592-0.032-61.184 0-91.776-0.096a26.656 26.656 0 0 1-7.232-1.152c-3.456-1.056-4.576-3.712-3.36-7.392a22.4 22.4 0 0 1 1.952-4.16c7.2-12.416 14.432-24.8 21.6-37.248 1.28-2.24 2.368-4.64 3.168-7.104 1.056-3.296-0.16-5.6-3.296-6.432a22.4 22.4 0 0 0-5.824-0.768l-222.24-0.032h-1.92l3.84-6.528 36.512-61.984c0.256-0.416 0.416-0.896 0.64-1.376h243.68zM933.632 398.144l-19.616 33.248-58.88 100.032c-0.48 0.8-0.96 1.024-1.792 1.024l-122.72-0.032h-1.44l2.976-5.024 75.36-127.872c0.256-0.416 0.416-0.896 0.608-1.376h125.504z" fill="#5D5D5D" /><path d="M352.928 550.016c-3.04 4.608-5.952 9.344-9.12 13.856a161.536 161.536 0 0 1-40.512 41.184 113.568 113.568 0 0 1-64.416 20.736c-66.912 0.064-133.824 0.064-200.736 0.064h-1.888l5.44-9.28 76.352-129.728c0.64-1.088 1.28-1.504 2.496-1.504l100.288 0.064c2.08 0 4.192 0.224 6.24 0.736 3.328 0.832 4.576 3.2 3.456 6.72-0.768 2.432-1.856 4.8-3.136 6.976-7.008 12.064-14.112 24-21.12 36.064a31.616 31.616 0 0 0-2.88 6.464c-0.736 2.368 0.16 4.384 2.304 5.376a27.36 27.36 0 0 0 5.792 1.664c1.28 0.256 2.624 0.192 3.936 0.192h137.28l0.256 0.416zM987.712 549.6l-6.944 11.808-37.184 63.2c-0.544 0.896-1.056 1.248-2.08 1.248-63.616-0.032-127.264 0-190.88-0.064-10.464 0-20.736-1.632-30.464-6.208a34.56 34.56 0 0 1-15.296-12.928c-5.472-8.8-5.632-18.144-2.176-27.744 0.896-2.496 2.08-4.896 3.392-7.168 4-7.008 8.16-13.888 12.192-20.864 0.544-0.928 1.088-1.28 2.08-1.28l33.472 0.032H987.648zM509.664 549.696l-3.936 6.72-40.192 68.32c-0.48 0.832-1.024 1.088-1.888 1.088l-115.648-0.032h-1.344l0.608-1.216 43.52-73.952c0.448-0.768 0.928-1.088 1.792-1.088l115.776 0.032 1.312 0.096zM680.704 549.6l-3.008 5.152-41.216 69.984c-0.448 0.736-0.864 1.12-1.76 1.12l-116.032-0.032h-1.056l0.576-1.216 43.456-73.824c0.544-0.928 1.12-1.216 2.112-1.216l115.232 0.032h1.632z" fill="#5D5D5D" /></svg>