<svg width="28" height="17" viewBox="0 0 28 17" fill="none" xmlns="http://www.w3.org/2000/svg">
<path d="M26.88 0H1.12C0.501441 0 0 0.501441 0 1.12V15.88C0 16.4986 0.501441 17 1.12 17H26.88C27.4986 17 28 16.4986 28 15.88V1.12C28 0.501441 27.4986 0 26.88 0Z" fill="#0072CE"/>
<path fill-rule="evenodd" clip-rule="evenodd" d="M23.6343 9.82192H22.645C22.5462 9.82192 22.4806 9.82565 22.4253 9.86331C22.3681 9.90041 22.346 9.95549 22.346 10.0282C22.346 10.1146 22.3944 10.1734 22.4647 10.1989C22.522 10.219 22.5835 10.2248 22.6739 10.2248L22.9681 10.2328C23.2649 10.2402 23.4631 10.2917 23.5839 10.4172C23.6059 10.4347 23.6191 10.4543 23.6343 10.4739V9.82192ZM23.6343 11.3327C23.5024 11.5272 23.2455 11.6258 22.8977 11.6258H21.8495V11.1344H22.8934C22.997 11.1344 23.0695 11.1207 23.1131 11.0777C23.1509 11.0422 23.1773 10.9907 23.1773 10.9282C23.1773 10.8615 23.1509 10.8085 23.111 10.7767C23.0716 10.7417 23.0143 10.7258 22.9197 10.7258C22.4101 10.7083 21.7742 10.7417 21.7742 10.0166C21.7742 9.6842 21.9834 9.33434 22.553 9.33434H23.6342V8.87842H22.6297C22.3265 8.87842 22.1063 8.95166 21.9503 9.06554V8.87842H20.4645C20.2269 8.87842 19.948 8.93784 19.8161 9.06554V8.87842H17.1628V9.06554C16.9516 8.91186 16.5953 8.87842 16.4309 8.87842H14.6807V9.06554C14.5137 8.90233 14.1422 8.87842 13.9157 8.87842H11.957L11.5088 9.36779L11.089 8.87842H8.16309V12.0758H11.0339L11.4958 11.5787L11.9308 12.0758L13.7004 12.0774V11.3253H13.8744C14.1092 11.3289 14.3861 11.3194 14.6304 11.2128V12.0758H16.09V11.2424H16.1605C16.2503 11.2424 16.2592 11.2461 16.2592 11.3367V12.0757H20.6931C20.9747 12.0757 21.2689 12.003 21.4318 11.8711V12.0757H22.8383C23.131 12.0757 23.4168 12.0343 23.6343 11.9283V11.3327ZM21.4691 10.4172C21.5748 10.5276 21.6314 10.6669 21.6314 10.9027C21.6314 11.3957 21.3262 11.6258 20.7788 11.6258H19.7216V11.1344H20.7745C20.8775 11.1344 20.9505 11.1207 20.9962 11.0777C21.0336 11.0422 21.0603 10.9907 21.0603 10.9282C21.0603 10.8615 21.0314 10.8085 20.9941 10.7767C20.9526 10.7417 20.8953 10.7258 20.8008 10.7258C20.2932 10.7083 19.6575 10.7417 19.6575 10.0166C19.6575 9.6842 19.8645 9.33434 20.4336 9.33434H21.5217V9.82205H20.526C20.4273 9.82205 20.3631 9.82578 20.3086 9.86344C20.2491 9.90055 20.227 9.95562 20.227 10.0283C20.227 10.1148 20.2775 10.1736 20.3458 10.199C20.4031 10.2191 20.4646 10.225 20.5571 10.225L20.8492 10.2329C21.1439 10.2402 21.3462 10.2916 21.4691 10.4172ZM16.5713 10.2757C16.4987 10.3192 16.4089 10.3229 16.3033 10.3229H15.6439V9.80823H16.3122C16.4089 9.80823 16.5056 9.81031 16.5713 9.84962C16.6416 9.88673 16.6837 9.9577 16.6837 10.0558C16.6837 10.1538 16.6416 10.2328 16.5713 10.2757ZM16.8991 10.5609C17.0199 10.6059 17.1187 10.6865 17.165 10.7533C17.2416 10.8651 17.2527 10.9695 17.2549 11.1715V11.6258H16.71V11.3391C16.71 11.2012 16.7231 10.9971 16.6222 10.8906C16.5429 10.8085 16.422 10.7888 16.224 10.7888H15.6439V11.6258H15.0985V9.33427H16.3517C16.6265 9.33427 16.8266 9.3465 17.0048 9.44242C17.1761 9.54683 17.2838 9.68986 17.2838 9.95127C17.2837 10.317 17.042 10.5037 16.8991 10.5609ZM17.5848 9.33427H19.3964V9.80816H18.1253V10.2248H19.3653V10.6923H18.1253V11.1482L19.3964 11.1503V11.6258H17.5848V9.33427ZM13.9226 10.3918H13.2212V9.80823H13.9289C14.1249 9.80823 14.2609 9.8888 14.2609 10.0892C14.2609 10.2874 14.1312 10.3918 13.9226 10.3918ZM12.6806 11.4174L11.8472 10.484L12.6806 9.5802V11.4174ZM10.5284 11.1482H9.19391V10.6923H10.3856V10.2248H9.19391V9.80816H10.5547L11.1484 10.476L10.5284 11.1482ZM14.8437 10.0892C14.8437 10.7257 14.3729 10.8572 13.8985 10.8572H13.2212V11.6258H12.1662L11.4978 10.8672L10.8032 11.6258H8.65323V9.33427H10.8363L11.5041 10.0854L12.1945 9.33427H13.9289C14.3597 9.33427 14.8437 9.45458 14.8437 10.0892Z" fill="white"/>
<path fill-rule="evenodd" clip-rule="evenodd" d="M6.06303 6.69353L5.69152 5.78023L5.32213 6.69353H6.06303ZM14.2473 6.32985C14.1727 6.37553 14.0845 6.37705 13.9788 6.37705H13.3194V5.8682H13.9878C14.0824 5.8682 14.1811 5.87248 14.2452 5.90952C14.3156 5.94289 14.3592 6.01393 14.3592 6.11205C14.3592 6.21218 14.3177 6.29275 14.2473 6.32985ZM18.9513 6.69353L18.5757 5.78023L18.2021 6.69353H18.9513ZM10.1828 7.68208H9.62633L9.62428 5.88782L8.83722 7.68208H8.36064L7.57153 5.88623V7.68208H6.46755L6.25899 7.17108H5.12884L4.91816 7.68208H4.32864L5.30063 5.39113H6.10707L7.03022 7.56019V5.39113H7.91612L8.62647 6.94526L9.279 5.39113H10.1827V7.68208H10.1828ZM12.4005 7.68208H10.5873V5.39113H12.4005V5.8682H11.1301V6.28114H12.37V6.75075H11.1301V7.20826H12.4005V7.68208ZM14.9571 6.00812C14.9571 6.37339 14.7155 6.5621 14.5746 6.61876C14.6934 6.66437 14.7949 6.74494 14.8431 6.81169C14.9198 6.92564 14.933 7.02742 14.933 7.23203V7.68208H14.3855L14.3835 7.39317C14.3835 7.25532 14.3966 7.05707 14.2978 6.94685C14.2185 6.86628 14.0976 6.8488 13.9022 6.8488H13.3195V7.68208H12.7768V5.39113H14.0252C14.3026 5.39113 14.507 5.39852 14.6825 5.50086C14.8542 5.60319 14.9571 5.75259 14.9571 6.00812ZM15.8257 7.68208H15.2719V5.39113H15.8257V7.68208ZM22.251 7.68208H21.4818L20.453 5.96259V7.68208H19.3475L19.1363 7.17108H18.0088L17.8038 7.68208H17.1687C16.9049 7.68208 16.5708 7.62321 16.3816 7.42869C16.1909 7.23417 16.0916 6.97069 16.0916 6.55409C16.0916 6.21432 16.151 5.90371 16.3842 5.65827C16.5597 5.47543 16.8345 5.39113 17.2086 5.39113H17.734V5.88201H17.2196C17.0215 5.88201 16.9097 5.91173 16.8019 6.01773C16.7094 6.11419 16.6459 6.29655 16.6459 6.53667C16.6459 6.78212 16.6942 6.95908 16.7951 7.07469C16.8787 7.16535 17.0305 7.19285 17.1734 7.19285H17.4172L18.1822 5.39119H18.9955L19.9145 7.55812V5.39119H20.7409L21.695 6.98672V5.39119H22.251V7.68208ZM4.32233 8.13206H5.24974L5.45885 7.62321H5.927L6.13556 8.13206H7.9603V7.74303L8.12318 8.13372H9.07044L9.23332 7.73722V8.13206H13.7681L13.766 7.29678H13.8538C13.9152 7.29892 13.9331 7.30465 13.9331 7.40699V8.13206H16.2786V7.93761C16.4677 8.03988 16.762 8.13206 17.1492 8.13206H18.1359L18.3471 7.62321H18.8152L19.0217 8.13206H20.9232V7.64871L21.2111 8.13206H22.7348V4.93686H21.2269V5.31422L21.0157 4.93686H19.4684V5.31422L19.2745 4.93686H17.1844C16.8345 4.93686 16.527 4.98613 16.2786 5.12343V4.93686H14.8362V5.12343C14.6781 4.98191 14.4627 4.93686 14.2232 4.93686H8.95379L8.60023 5.76213L8.23715 4.93686H6.57741V5.31422L6.39508 4.93686H4.9796L4.32227 6.45603V8.13206H4.32233Z" fill="white"/>
</svg>
