<svg width="43" height="18" viewBox="0 0 43 18" fill="none" xmlns="http://www.w3.org/2000/svg">
<path d="M7.85691 2.32065C7.35295 2.92864 6.5466 3.40818 5.74026 3.33968C5.63947 2.5176 6.03424 1.64415 6.49621 1.10466C7.00017 0.479543 7.88211 0.0342531 8.59606 0C8.68005 0.856327 8.35248 1.69553 7.85691 2.32065ZM8.58766 3.50238C7.42014 3.43387 6.42061 4.17888 5.86625 4.17888C5.30349 4.17888 4.45515 3.53663 3.53122 3.55376C2.33011 3.57088 1.21299 4.26451 0.59983 5.36917C-0.66008 7.5785 0.272254 10.8497 1.49017 12.648C2.08652 13.5385 2.80047 14.5147 3.74121 14.4805C4.63154 14.4462 4.98432 13.8896 6.05944 13.8896C7.14296 13.8896 7.45374 14.4805 8.39447 14.4634C9.3688 14.4462 9.98196 13.5728 10.5783 12.6822C11.2587 11.6717 11.5358 10.687 11.5526 10.6356C11.5358 10.6185 9.67118 9.89058 9.65438 7.69838C9.63758 5.86584 11.1243 4.99239 11.1915 4.94101C10.3515 3.67364 9.04123 3.53663 8.58766 3.50238ZM15.3324 1.01903V14.3692H17.365V9.80495H20.1788C22.749 9.80495 24.5549 8.00666 24.5549 5.40343C24.5549 2.80019 22.7826 1.01903 20.246 1.01903H15.3324ZM17.365 2.76594H19.7085C21.4723 2.76594 22.4803 3.72502 22.4803 5.41199C22.4803 7.09895 21.4723 8.0666 19.7001 8.0666H17.365V2.76594ZM28.2675 14.4719C29.5442 14.4719 30.7285 13.8126 31.266 12.7678H31.308V14.3692H33.1895V7.72407C33.1895 5.79734 31.6776 4.55566 29.351 4.55566C27.1923 4.55566 25.5964 5.81446 25.5376 7.54424H27.3687C27.5199 6.72217 28.2675 6.18268 29.2922 6.18268C30.5353 6.18268 31.2324 6.77355 31.2324 7.86108V8.59753L28.6958 8.75167C26.3356 8.89724 25.0589 9.88202 25.0589 11.5947C25.0589 13.3245 26.3776 14.4719 28.2675 14.4719ZM28.8134 12.8877C27.7299 12.8877 27.0411 12.3568 27.0411 11.5433C27.0411 10.7041 27.7047 10.216 28.973 10.1389L31.2324 9.99334V10.7469C31.2324 11.9971 30.1909 12.8877 28.8134 12.8877ZM35.7009 18C37.6832 18 38.6155 17.2293 39.4303 14.8915L43 4.68411H40.9338L38.5399 12.5709H38.4979L36.1041 4.68411H33.979L37.4228 14.4034L37.238 14.9943C36.9272 15.9962 36.4233 16.3815 35.5245 16.3815C35.3649 16.3815 35.0542 16.3644 34.9282 16.3473V17.9486C35.0458 17.9829 35.5497 18 35.7009 18Z" fill="black"/>
</svg>
