<?xml version="1.0" encoding="UTF-8"?>
<svg width="48px" height="54px" viewBox="0 0 48 54" version="1.1" xmlns="http://www.w3.org/2000/svg" xmlns:xlink="http://www.w3.org/1999/xlink">
    <!-- Generator: sketchtool 56.3 (101010) - https://sketch.com -->
    <title>01E1857C-F7D1-4E51-91D3-E58145C5FB3A</title>
    <desc>Created with sketchtool.</desc>
    <g id="Search-/-List" stroke="none" stroke-width="1" fill="none" fill-rule="evenodd">
        <g id="Search" transform="translate(-29.000000, -581.000000)" fill="#F57C00" fill-rule="nonzero">
            <g id="banners-/-announcement" transform="translate(14.000000, 562.000000)">
                <g id="Card-/-Announcment">
                    <g id="balance" transform="translate(15.000000, 19.000000)">
                        <path d="M9.9375,20.0625937 C9.16209375,20.0625937 8.53125,19.43175 8.53125,18.6563437 L5.71875,18.6563437 C5.71875,20.489625 6.89446875,22.0527187 8.53125,22.6332187 L8.53125,25.6875 L11.34375,25.6875 L11.34375,22.6332187 C12.9805313,22.0527187 14.15625,20.489625 14.15625,18.6563437 C14.15625,16.330125 12.2637187,14.4375937 9.9375,14.4375937 C9.16209375,14.4375937 8.53125,13.80675 8.53125,13.0313437 C8.53125,12.2559375 9.16209375,11.6250937 9.9375,11.6250937 C10.7129062,11.6250937 11.34375,12.2559375 11.34375,13.03125 L14.15625,13.03125 C14.15625,11.1980625 12.9805313,9.63496875 11.34375,9.0545625 L11.34375,6.00009375 L8.53125,6.00009375 L8.53125,9.05446875 C6.89446875,9.63496875 5.71875,11.1980625 5.71875,13.0313437 C5.71875,15.3575625 7.61128125,17.2500937 9.9375,17.2500937 C10.7129062,17.2500937 11.34375,17.8809375 11.34375,18.6563437 C11.34375,19.43175 10.7129062,20.0625937 9.9375,20.0625937 Z" id="Path"></path>
                        <path d="M38.21875,14.0625 C37.4433437,14.0625 36.8125,13.4316562 36.8125,12.65625 L34,12.65625 C34,14.4895313 35.1757188,16.052625 36.8125,16.633125 L36.8125,19.6874062 L39.625,19.6874062 L39.625,16.633125 C41.2617812,16.052625 42.4375,14.4895312 42.4375,12.65625 C42.4375,10.3300312 40.5449687,8.4375 38.21875,8.4375 C37.4433437,8.4375 36.8125,7.80665625 36.8125,7.03125 C36.8125,6.25584375 37.4433437,5.625 38.21875,5.625 C38.9941563,5.625 39.625,6.25584375 39.625,7.03115625 L42.4375,7.03115625 C42.4375,5.19796875 41.2617812,3.634875 39.625,3.05446875 L39.625,0 L36.8125,0 L36.8125,3.054375 C35.1757188,3.634875 34,5.19796875 34,7.03125 C34,9.35746875 35.8925312,11.25 38.21875,11.25 C38.9941563,11.25 39.625,11.8808438 39.625,12.65625 C39.625,13.4316562 38.9941563,14.0625 38.21875,14.0625 Z" id="Path-Copy"></path>
                        <path d="M28.3125,24.28125 C28.3125,28.1582813 31.4667187,31.3125 35.34375,31.3125 L36.75,31.3125 L36.75,34.3776563 L25.40625,36.6389063 L25.40625,31.3125 L22.59375,31.3125 L22.59375,37.1995313 L11.34375,39.4420313 L11.34375,36.9375 L12.75,36.9375 C16.6270312,36.9375 19.78125,33.7832813 19.78125,29.90625 L19.78125,28.5 L0,28.5 L0,29.90625 C0,33.7832813 3.15421875,36.9375 7.03125,36.9375 L8.53125,36.9375 L8.53125,42.8704688 L22.59375,40.0673438 L22.59375,45.5625 L11.34375,45.5625 L11.34375,51.1875 L5.71875,51.1875 L5.71875,54 L42.375,54 L42.375,51.1875 L36.75,51.1875 L36.75,45.5625 L25.40625,45.5625 L25.40625,39.5067188 L39.5625,36.6848438 L39.5625,31.3125 L40.96875,31.3125 C44.8457813,31.3125 48,28.1582813 48,24.28125 L48,22.875 L28.3125,22.875 L28.3125,24.28125 Z M3.0534375,31.3115625 L16.7278125,31.3115625 C16.1474062,32.9494688 14.583375,34.125 12.75,34.125 L7.03125,34.125 C5.197875,34.125 3.63384375,32.9494688 3.0534375,31.3115625 Z M33.9375,51.1875 L14.15625,51.1875 L14.15625,48.375 L33.9375,48.375 L33.9375,51.1875 Z M44.9465625,25.6875 C44.3661563,27.3244688 42.802125,28.5 40.96875,28.5 L35.34375,28.5 C33.510375,28.5 31.9463438,27.3244688 31.3659375,25.6875 L44.9465625,25.6875 Z" id="Shape"></path>
                    </g>
                </g>
            </g>
        </g>
    </g>
</svg>