<?xml version="1.0" encoding="UTF-8"?>
<svg width="24px" height="16px" viewBox="0 0 24 16" version="1.1" xmlns="http://www.w3.org/2000/svg" xmlns:xlink="http://www.w3.org/1999/xlink">
    <!-- Generator: sketchtool 55.2 (78181) - https://sketchapp.com -->
    <title>988E5FC4-88B2-4E13-B98A-43DF4920BFF5</title>
    <desc>Created with sketchtool.</desc>
    <g id="Page-1" stroke="none" stroke-width="1" fill="none" fill-rule="evenodd">
        <g id="Wallet---No-Extra" transform="translate(-273.000000, -143.000000)" fill="#454F5B">
            <path d="M273,143 L275.4,143 L275.4,159 L273,159 L273,143 Z M281,143 L285,143 L285,159 L281,159 L281,143 Z M293.8,143 L297,143 L297,159 L293.8,159 L293.8,143 Z M290.6,143 L291.4,143 L291.4,159 L290.6,159 L290.6,143 Z M286.6,143 L288.2,143 L288.2,159 L286.6,159 L286.6,143 Z M277.8,143 L278.6,143 L278.6,159 L277.8,159 L277.8,143 Z" id="Barcode"></path>
        </g>
    </g>
</svg>