<?xml version="1.0" encoding="UTF-8"?>
<svg width="22px" height="22px" viewBox="0 0 22 22" version="1.1" xmlns="http://www.w3.org/2000/svg" xmlns:xlink="http://www.w3.org/1999/xlink">
    <!-- Generator: sketchtool 56.3 (101010) - https://sketch.com -->
    <title>A75F63D7-6260-4207-A200-56C2BFD1E550</title>
    <desc>Created with sketchtool.</desc>
    <g id="Main-Navigation" stroke="none" stroke-width="1" fill="none" fill-rule="evenodd">
        <g id="Nav---Guest" transform="translate(-26.000000, -175.000000)" fill="#FFFFFF" fill-rule="nonzero" stroke="#FFFFFF" stroke-width="0.6">
            <g id="Bill" transform="translate(27.000000, 176.000000)">
                <path d="M17.0710937,2.92890625 C15.1823438,1.04015625 12.6710938,0 10,0 C7.32890625,0 4.81765625,1.04015625 2.92890625,2.92890625 C1.04019531,4.81765625 0,7.32890625 0,10 C0,12.6710938 1.04019531,15.1823438 2.92890625,17.0710937 C4.81765625,18.9598438 7.32890625,20 10,20 C12.6710938,20 15.1823438,18.9598438 17.0710937,17.0710937 C18.9598047,15.1823438 20,12.6710938 20,10 C20,7.32890625 18.9598047,4.81765625 17.0710937,2.92890625 Z M10,18.828125 C5.13214844,18.828125 1.171875,14.8678516 1.171875,10 C1.171875,5.13214844 5.13214844,1.171875 10,1.171875 C14.8678516,1.171875 18.828125,5.13214844 18.828125,10 C18.828125,14.8678516 14.8678516,18.828125 10,18.828125 Z" id="Shape"></path>
                <path d="M10.6276172,9.4140625 L9.37238281,9.4140625 C8.65726563,9.4140625 8.07550781,8.83230469 8.07550781,8.11722656 C8.07550781,7.40210937 8.65730469,6.82035156 9.37238281,6.82035156 L11.8828125,6.82035156 C12.2064063,6.82035156 12.46875,6.55800781 12.46875,6.23441406 C12.46875,5.91082031 12.2064063,5.64847656 11.8828125,5.64847656 L10.5859375,5.64847656 L10.5859375,4.35160156 C10.5859375,4.02800781 10.3235938,3.76566406 10,3.76566406 C9.67640625,3.76566406 9.4140625,4.02800781 9.4140625,4.35160156 L9.4140625,5.64847656 L9.37242188,5.64847656 C8.01113281,5.64847656 6.90367187,6.75597656 6.90367187,8.11722656 C6.90367187,9.47847656 8.01117187,10.5859375 9.37242187,10.5859375 L10.6276562,10.5859375 C11.3427344,10.5859375 11.9244922,11.1677344 11.9244922,11.8828125 C11.9244922,12.5978906 11.3427344,13.1796875 10.6276562,13.1796875 L8.11722656,13.1796875 C7.79363281,13.1796875 7.53128906,13.4420312 7.53128906,13.765625 C7.53128906,14.0892187 7.79363281,14.3515625 8.11722656,14.3515625 L9.4140625,14.3515625 L9.4140625,15.6484766 C9.4140625,15.9720703 9.67640625,16.2344141 10,16.2344141 C10.3235938,16.2344141 10.5859375,15.9720703 10.5859375,15.6484766 L10.5859375,14.3515625 L10.6276172,14.3515625 C11.9888672,14.3515625 13.0963281,13.2440625 13.0963281,11.8828125 C13.0963281,10.5215625 11.9888672,9.4140625 10.6276172,9.4140625 Z" id="Path"></path>
            </g>
        </g>
    </g>
</svg>