<?xml version="1.0" encoding="UTF-8"?><svg xmlns="http://www.w3.org/2000/svg" width="190" height="78"><!--Generator: Sketch 54.1 (76490) - https://sketchapp.com--><defs><linearGradient id="a" x1="0%" y1="50%" y2="50%"><stop offset="0%" stop-color="#AA4700"/><stop offset="12.9%" stop-color="#B45200"/><stop offset="41.1%" stop-color="#C56600"/><stop offset="69.9%" stop-color="#CF7100"/><stop offset="100%" stop-color="#D27500"/></linearGradient><linearGradient id="b" x1="0%" y1="50%" y2="50%"><stop offset="0%" stop-color="#AA4700"/><stop offset="12.9%" stop-color="#B45200"/><stop offset="41.1%" stop-color="#C56600"/><stop offset="69.9%" stop-color="#CF7100"/><stop offset="100%" stop-color="#D27500"/></linearGradient><linearGradient id="c" x1="0%" x2="99.9%" y1="50%" y2="50%"><stop offset="0%" stop-color="#FF9A1B"/><stop offset="100%" stop-color="#F57C00"/></linearGradient><linearGradient id="d" x1="0%" y1="50%" y2="50%"><stop offset="0%" stop-color="#FF9A1B"/><stop offset="100%" stop-color="#F57C00"/></linearGradient><linearGradient id="e" x1="-.1%" x2="99.9%" y1="50%" y2="50%"><stop offset="0%" stop-color="#4454B2"/><stop offset="100%" stop-color="#00247F"/></linearGradient><linearGradient id="f" x1="0%" y1="50%" y2="50%"><stop offset="0%" stop-color="#AA4700"/><stop offset="12.9%" stop-color="#B45200"/><stop offset="41.1%" stop-color="#C56600"/><stop offset="69.9%" stop-color="#CF7100"/><stop offset="100%" stop-color="#D27500"/></linearGradient><linearGradient id="g" x1="100.1%" x2="0%" y1="50%" y2="50%"><stop offset="0%" stop-color="#AA4700"/><stop offset="12.9%" stop-color="#B45200"/><stop offset="41.1%" stop-color="#C56600"/><stop offset="69.9%" stop-color="#CF7100"/><stop offset="100%" stop-color="#D27500"/></linearGradient><linearGradient id="h" x1="100%" x2="0%" y1="50%" y2="50%"><stop offset="0%" stop-color="#AA4700"/><stop offset="12.9%" stop-color="#B45200"/><stop offset="41.1%" stop-color="#C56600"/><stop offset="69.9%" stop-color="#CF7100"/><stop offset="100%" stop-color="#D27500"/></linearGradient></defs><g fill="none" fill-rule="nonzero"><path fill="#FFD5A1" d="M113 53.5s5 10 5.1 17c0 0-.1 5.3 6.8 4.4 7-.9 5.7-8.7 2.6-14.5-3.2-5.7-2.6-9.6-4.7-12.7-2-3.1-9.8 5.8-9.8 5.8zM46.6 23S51 58 30.2 56c0 0-.2 10.2-1 13.7 0 0-10.3 3.5-18.3-1 0 0 1-20-1.4-26.5-2.4-6.4-7-23.7 9-25.7 16.1-2 27.8 1.9 28.1 6.5z"/><path fill="url(#a)" d="M14 39.5s-1 3.1-7 5.2C1 47 7 35 7 35s-10-8.7-6-12.4c4-3.7 9 2.2 9 2.2s-11.2-12-3-17.6C15 1.7 17.5 11 17.5 11s2.8-6 14.7-8.8c12-2.8 13.3.1 9.7 4.9-3.6 4.7 1.6 2.6 4.5 1.7 2.8-1 11.1.6 7.9 8.8-3.6 9-8.2 10-8.2 18V22s-1.4-1-6.1-.9c-7.4 0-11 6.1-21.1-2.9 0 0 3.6 10.4-1.4 13.9 0 0-3.1-2.5-5.2.5-2 3 1.6 6.9 1.6 6.9z"/><path fill="url(#b)" d="M31 56.1s-5.2.4-11-5.1c0 0 5.7 9 10.9 9v-3.9z"/><path fill="url(#c)" d="M44.3 43c-1.8 0-3.3 2.5-3.3 5.5s1.5 5.5 3.3 5.5H61V43H44.3z"/><ellipse cx="60.5" cy="48.5" fill="#5967D6" rx="3.5" ry="5.5"/><path fill="#4454B2" d="M76 56c-3.3 0-6.1-2.4-7.4-6-3 .4-7-.8-7.2-1a.6.6 0 0 1-.4-.7c.1-.3.5-.5.8-.4 1.3.4 4.2 1.1 6.5 1-.2-.9-.3-1.8-.3-2.8 0-1.4.2-2.5.5-3.3.6-1.2 1.3-1.4 1.7-1.4 1.4 0 2.4 2 2.4 4.7 0 1.3-.4 2.3-1.3 3-.4.4-.9.6-1.5.8 1.1 2.9 3.5 4.9 6.2 4.9 3.2 0 6.4-2.2 8.5-4.6a9.4 9.4 0 0 1-1.4-5.1c0-1.9 1-3.8 2.7-3.8.8 0 1.4.3 1.9 1s.7 1.6.7 2.8c0 1.3-.9 3.3-2.3 5.2 2.2 2.7 6 3.4 7.7 3.4 3.6 0 6-2.7 7.2-5.7a6 6 0 0 1-1.4-1 4 4 0 0 1-1.3-3c0-1.2.3-2.2.7-2.9.4-.7 1-1.1 1.7-1.1 1.2 0 2.4 1.3 2.4 3.8a12 12 0 0 1-.5 3.6c2.5.9 5.7.7 5.8.7.3 0 .6.3.6.6s-.2.6-.6.6c-.2 0-3.5.2-6.2-.8-.4 1-1 1.8-1.5 2.6a8.5 8.5 0 0 1-6.9 3.8c-1.7 0-4.3-.5-6.6-2-.7-.5-1.4-1-2-1.7-2.2 2.6-5.6 4.8-9.1 4.8zm10-13.5c-.8 0-1.6.9-1.6 2.6 0 1.7.4 3 1 4.1 1.2-1.5 1.9-3 1.9-4.1 0-1.1-.3-1.8-.5-2-.3-.4-.6-.6-.9-.6zm-15.8.1c-.1 0-.3.2-.5.7-.2.4-.5 1.3-.5 2.8 0 1 .1 1.8.3 2.6l1.1-.5c.6-.5.9-1.1.8-2 0-2.6-.8-3.6-1.2-3.6zm30.6-1.4c-.3 0-.5.2-.7.5-.3.4-.5 1-.5 2.3a3 3 0 0 0 1 2.2c.2.2.5.5 1 .7.2-1 .4-2.2.4-3.1 0-1.8-.7-2.6-1.2-2.6z"/><path fill="url(#d)" d="M111.3 43c-1.8 0-3.3 2.5-3.3 5.5s1.5 5.5 3.3 5.5H128V43h-16.7z"/><ellipse cx="126.5" cy="48.5" fill="url(#e)" rx="3.5" ry="5.5"/><path fill="#FFD5A1" d="M45.3 54.2S44 50.9 44 47.8c0-3 .6-6.8 3-6.8 1.6 0 1.6 1.3 1.6 1.3s.1-1.3 1.7-1.3c1.3 0 1.5 1.3 1.5 1.3S52 41 53.5 41c1.5 0 1.4 1.3 1.4 1.3s.4-1.3 1.9-1.3c1.4 0 1.2 1.3 1.2 1.3s-2.3 0-2.3 6c0 2.6.6 4 .9 5 .4 1.3-1 2.9-2.3 3.3-.7.3-1.7.4-3 .4-5.4 0-6-2.8-6-2.8z"/><path fill="#FFD5A1" d="M46 53.4s.2 11-2.6 17.4c0 0-2.3 4.6 4.1 6.8 6.5 2.2 8.6-5.3 8.2-11.8-.4-6.5 1.7-9.7 1.2-13.4-.5-3.6-11 1-11 1zM116 40.7s-.6-1.7-2.2-1.7c-1.5 0-5.5 9.2-3 9 2.5-.2 3.6-7 3.6-7s0 1.2 1.6-.3z"/><path fill="#FFD5A1" d="M119 40.7s-.6-1.7-2.2-1.7c-1.5 0-5.5 9.2-3 9 2.5-.2 3.6-7 3.6-7s0 1.2 1.6-.3z"/><path fill="#FFD5A1" d="M122 40.7s-.6-1.7-2.2-1.7c-1.5 0-5.5 9.2-3 9 2.5-.2 3.6-7 3.6-7s0 1.2 1.6-.3z"/><path fill="#FFD5A1" d="M124 40.7s-.6-1.7-2.2-1.7c-1.5 0-5.5 9.2-3 9 2.5-.2 3.6-7 3.6-7s0 1.2 1.6-.3z"/><path fill="#5967D6" d="M130.7 44c-.2 0-.4 0-.5-.2a.7.7 0 0 1 0-1l7.6-7.6c.3-.3.7-.3 1 0 .3.3.3.7 0 1l-7.6 7.6-.5.2zM138.3 58c-.2 0-.3 0-.5-.2l-7.6-7.6a.7.7 0 0 1 0-1c.3-.3.7-.3 1 0l7.6 7.6c.3.3.3.7 0 1l-.5.2zM141.4 48h-8.8c-.4 0-.6-.2-.6-.5s.2-.5.6-.5h8.8c.4 0 .6.2.6.5s-.2.5-.6.5z"/><g transform="translate(140)"><ellipse cx="3" cy="35.6" fill="#E5B785" rx="2.9" ry="4.4"/><path fill="url(#f)" d="M32.5 8.8s-.7-3.3 3.4-6.9c3.5-3 8.2-2.2 12 1.4 3.7 3.6 1.5 9.2.5 10.4-1 1.1-2.5 4.4-9.1 2-6.6-2.4-6.8-6.9-6.8-6.9z"/><path fill="#5967D6" d="M32.5 8.8s3.6-3.3 8.1 2.3c3 3.7 1.9 5.4 1.9 5.4s-5.6-1.5-7.2-2.8c-1.6-1.4-2.8-4.9-2.8-4.9z"/><path fill="#FFD5A1" d="M1.3 22.7S-3.1 52 17.6 56c0 0 .2 10.2 1 13.7 0 0 10.2 3.5 18.2-1 0 0-1-20.1 1.3-26.6 2.4-6.4 7-23.8-9-25.8-15.9-2-27.5 1.9-27.8 6.5z"/><path fill="url(#g)" d="M17.6 55.9S23 56.3 29 51c0 0-6 8.6-11.3 8.6v-3.7z"/><path fill="url(#h)" d="M1.3 22.7S-.7 9.5 15.8 8C32.3 6.4 37.7 9.2 42 19c4.4 9.7.2 22-6.8 23l-1-2s4-3.9 1.8-6.9c-2.1-3-5.3-.5-5.3-.5-5.2-3.4-1.5-13.7-1.5-13.7-10.5 8.9-14.2 3-21.8 2.9-4.8 0-6.2 1-6.2 1"/></g></g></svg>