<svg width="109" height="59" viewBox="0 0 109 59" fill="none" xmlns="http://www.w3.org/2000/svg">
<rect x="0.5" y="0.5" width="108" height="58" rx="3.5" fill="#F9FAFB" stroke="#DFE3E8"/>
<g clip-path="url(#clip0)">
<path d="M40.0153 47.8108V45.3906C40.0439 44.9789 39.8939 44.5748 39.6036 44.2814C39.3133 43.988 38.9107 43.8337 38.4987 43.8579C37.9557 43.8223 37.4364 44.085 37.1434 44.5436C36.8763 44.0987 36.3872 43.8356 35.8688 43.8579C35.4174 43.835 34.9877 44.053 34.7394 44.4306V43.9547H33.9004V47.8108H34.7474V45.6891C34.711 45.4221 34.7956 45.1528 34.9781 44.9546C35.1607 44.7564 35.4222 44.6501 35.6913 44.6646C36.248 44.6646 36.5303 45.0276 36.5303 45.6811V47.8269H37.3774V45.6891C37.3424 45.4224 37.4275 45.154 37.6097 44.9562C37.792 44.7583 38.0526 44.6515 38.3212 44.6646C38.894 44.6646 39.1683 45.0276 39.1683 45.6811V47.8269L40.0153 47.8108ZM52.5478 43.9547H51.1683V42.7849H50.3212V43.9547H49.5548V44.7211H50.3374V46.4958C50.3374 47.3913 50.6843 47.9237 51.6765 47.9237C52.0472 47.925 52.4108 47.8215 52.7253 47.6253L52.4832 46.9073C52.2583 47.0415 52.0029 47.1164 51.7411 47.1251C51.3377 47.1251 51.1844 46.8669 51.1844 46.4797V44.7211H52.5559L52.5478 43.9547ZM59.7034 43.8579C59.2867 43.8456 58.8967 44.0623 58.6869 44.4226V43.9547H57.856V47.8108H58.695V45.6488C58.695 45.0115 58.9693 44.6565 59.5017 44.6565C59.6812 44.6541 59.8594 44.687 60.0261 44.7533L60.2843 43.9466C60.0926 43.8781 59.8908 43.8426 59.6873 43.8417L59.7034 43.8579ZM48.8853 44.2612C48.4104 43.9789 47.8643 43.8389 47.3122 43.8579C46.336 43.8579 45.6987 44.3258 45.6987 45.0921C45.6987 45.7214 46.1666 46.1086 47.0298 46.2296L47.4332 46.2861C47.893 46.3506 48.1108 46.4716 48.1108 46.6895C48.1108 46.9879 47.8043 47.1574 47.2315 47.1574C46.7708 47.1707 46.319 47.0286 45.9488 46.754L45.5454 47.4074C46.0342 47.7487 46.6195 47.924 47.2153 47.9076C48.3286 47.9076 48.974 47.3832 48.974 46.6491C48.974 45.915 48.4658 45.6165 47.6268 45.4955L47.2234 45.439C46.8604 45.3906 46.57 45.318 46.57 45.0599C46.57 44.8017 46.8443 44.6081 47.3041 44.6081C47.7291 44.6131 48.1457 44.7269 48.5142 44.9389L48.8853 44.2612ZM71.3565 43.8579C70.9398 43.8456 70.5498 44.0623 70.34 44.4226V43.9547H69.5091V47.8108H70.3481V45.6488C70.3481 45.0115 70.6224 44.6565 71.1548 44.6565C71.3343 44.6541 71.5125 44.687 71.6792 44.7533L71.9374 43.9466C71.7458 43.8781 71.5439 43.8426 71.3404 43.8417L71.3565 43.8579ZM60.5464 45.8747C60.5263 46.4226 60.7379 46.9537 61.1294 47.3375C61.521 47.7214 62.0561 47.9225 62.6036 47.8915C63.1073 47.9171 63.6024 47.753 63.9911 47.4316L63.5878 46.754C63.2978 46.9752 62.9441 47.0968 62.5794 47.1009C61.9363 47.0489 61.4409 46.5118 61.4409 45.8666C61.4409 45.2214 61.9363 44.6843 62.5794 44.6323C62.9441 44.6364 63.2978 44.758 63.5878 44.9792L63.9911 44.3016C63.6024 43.9802 63.1073 43.8161 62.6036 43.8417C62.0561 43.8107 61.521 44.0118 61.1294 44.3957C60.7379 44.7795 60.5263 45.3106 60.5464 45.8585V45.8747ZM68.4039 45.8747V43.9547H67.5649V44.4226C67.2759 44.0506 66.8256 43.8405 66.3548 43.8579C65.241 43.8579 64.338 44.7608 64.338 45.8747C64.338 46.9885 65.241 47.8915 66.3548 47.8915C66.8256 47.9088 67.2759 47.6987 67.5649 47.3268V47.7947H68.4039V45.8747ZM65.2819 45.8747C65.3192 45.2417 65.8557 44.7546 66.4893 44.7784C67.123 44.8021 67.6214 45.3281 67.6112 45.9621C67.6009 46.5961 67.0857 47.1057 66.4516 47.109C66.1288 47.113 65.8189 46.9821 65.5967 46.7477C65.3746 46.5134 65.2605 46.1969 65.2819 45.8747ZM55.1575 43.8579C54.0437 43.8735 53.1534 44.7891 53.169 45.9029C53.1846 47.0168 54.1001 47.9071 55.214 47.8915C55.7943 47.9213 56.365 47.7344 56.8153 47.3671L56.412 46.7459C56.0935 47.0014 55.6989 47.1433 55.2906 47.1493C54.714 47.1989 54.2026 46.7805 54.137 46.2054H57.0009C57.0009 46.1006 57.0009 45.9957 57.0009 45.8827C57.0009 44.6727 56.2506 43.8659 55.1696 43.8659L55.1575 43.8579ZM55.1575 44.6081C55.4111 44.6027 55.6564 44.6983 55.8395 44.8738C56.0225 45.0493 56.1284 45.2904 56.1337 45.5439H54.1169C54.1472 45.0054 54.6023 44.5897 55.1414 44.6081H55.1575ZM76.1767 45.8827V42.4058H75.37V44.4226C75.0809 44.0506 74.6306 43.8405 74.1599 43.8579C73.046 43.8579 72.1431 44.7608 72.1431 45.8747C72.1431 46.9885 73.046 47.8915 74.1599 47.8915C74.6306 47.9088 75.0809 47.6987 75.37 47.3268V47.7947H76.1767V45.8827ZM77.5764 47.2501C77.6288 47.2495 77.6809 47.2591 77.7296 47.2784C77.776 47.2973 77.8184 47.3246 77.8547 47.359C77.8901 47.3938 77.9188 47.4348 77.9394 47.4801C77.9807 47.5753 77.9807 47.6833 77.9394 47.7785C77.9188 47.8237 77.8901 47.8648 77.8547 47.8995C77.8184 47.934 77.776 47.9613 77.7296 47.9802C77.6813 48.0015 77.6291 48.0125 77.5764 48.0125C77.4203 48.0113 77.2789 47.9202 77.2133 47.7785C77.1725 47.6832 77.1725 47.5754 77.2133 47.4801C77.2339 47.4348 77.2626 47.3938 77.298 47.359C77.3344 47.3246 77.3768 47.2973 77.4231 47.2784C77.4756 47.2575 77.532 47.2479 77.5885 47.2501H77.5764ZM77.5764 47.9318C77.6166 47.9321 77.6565 47.9238 77.6933 47.9076C77.728 47.8921 77.7595 47.8702 77.7861 47.8431C77.8907 47.729 77.8907 47.5538 77.7861 47.4397C77.7596 47.4125 77.7281 47.3906 77.6933 47.3752C77.6564 47.3591 77.6166 47.3508 77.5764 47.351C77.5361 47.3512 77.4964 47.3594 77.4594 47.3752C77.4231 47.39 77.3902 47.412 77.3626 47.4397C77.258 47.5538 77.258 47.729 77.3626 47.8431C77.3903 47.8707 77.4232 47.8927 77.4594 47.9076C77.5001 47.9252 77.5442 47.9334 77.5885 47.9318H77.5764ZM77.6006 47.4518C77.6382 47.45 77.6753 47.4614 77.7054 47.4841C77.7305 47.5048 77.744 47.5364 77.7417 47.5688C77.7429 47.5959 77.7327 47.6222 77.7135 47.6414C77.6901 47.6626 77.6603 47.6754 77.6288 47.6777L77.7458 47.8108H77.653L77.5441 47.6777H77.5078V47.8108H77.4311V47.4558L77.6006 47.4518ZM77.5118 47.5204V47.6172H77.6006C77.6163 47.6219 77.6332 47.6219 77.649 47.6172C77.6547 47.6058 77.6547 47.5923 77.649 47.5809C77.6547 47.5695 77.6547 47.556 77.649 47.5446C77.6332 47.5399 77.6163 47.5399 77.6006 47.5446L77.5118 47.5204ZM73.0748 45.8827C73.1121 45.2497 73.6486 44.7626 74.2823 44.7864C74.9159 44.8102 75.4143 45.3361 75.4041 45.9702C75.3939 46.6042 74.8787 47.1137 74.2446 47.117C73.9217 47.1211 73.6118 46.9902 73.3897 46.7558C73.1676 46.5214 73.0534 46.2049 73.0748 45.8827ZM44.7468 45.8827V43.9547H43.9078V44.4226C43.6187 44.0506 43.1684 43.8405 42.6977 43.8579C41.5838 43.8579 40.6809 44.7608 40.6809 45.8747C40.6809 46.9885 41.5838 47.8915 42.6977 47.8915C43.1684 47.9088 43.6187 47.6987 43.9078 47.3268V47.7947H44.7468V45.8827ZM41.6248 45.8827C41.6621 45.2497 42.1985 44.7626 42.8322 44.7864C43.4658 44.8102 43.9643 45.3361 43.954 45.9702C43.9438 46.6042 43.4286 47.1137 42.7945 47.117C42.4702 47.1234 42.1582 46.9934 41.9343 46.7588C41.7104 46.5242 41.5952 46.2064 41.6167 45.8827H41.6248Z" fill="#454F5B"/>
<path d="M61.3133 14.5698H48.6074V37.4041H61.3133V14.5698Z" fill="#454F5B" stroke="#F9FAFB"/>
<path d="M49.4142 25.9894C49.4095 21.5329 51.4548 17.3218 54.9605 14.5703C49.0068 9.89131 40.457 10.5728 35.3197 16.1359C30.1825 21.699 30.1825 30.2759 35.3197 35.8389C40.457 41.402 49.0068 42.0835 54.9605 37.4046C51.4559 34.6539 49.4107 30.4446 49.4142 25.9894Z" fill="#454F5B" stroke="#F9FAFB"/>
<path d="M78.4567 25.9889C78.4566 31.5486 75.282 36.6202 70.2813 39.0497C65.2806 41.4793 59.3316 40.8403 54.9609 37.4041C58.464 34.6511 60.5093 30.4423 60.5093 25.9869C60.5093 21.5316 58.464 17.3228 54.9609 14.5698C59.3316 11.1336 65.2806 10.4946 70.2813 12.9241C75.282 15.3536 78.4566 20.4252 78.4567 25.9849V25.9889Z" fill="#454F5B" stroke="#F9FAFB"/>
</g>
<defs>
<clipPath id="clip0">
<rect width="48" height="37.1092" fill="white" transform="translate(31 11)"/>
</clipPath>
</defs>
</svg>
