<svg width="109" height="59" viewBox="0 0 109 59" fill="none" xmlns="http://www.w3.org/2000/svg">
<rect x="0.5" y="0.5" width="108" height="58" rx="3.5" fill="#F9FAFB" stroke="#0D47A1"/>
<path d="M65.89 23.246C65.116 22.954 63.91 22.644 62.41 22.644C58.57 22.644 55.86 24.58 55.84 27.354C55.816 29.394 57.768 30.542 59.242 31.226C60.756 31.926 61.262 32.366 61.258 32.996C61.248 33.95 60.048 34.382 58.934 34.382C57.402 34.382 56.562 34.168 55.272 33.632L54.794 33.41L54.252 36.606C55.184 36.996 56.864 37.33 58.602 37.356C62.684 37.356 65.352 35.434 65.384 32.478C65.416 30.852 64.364 29.618 62.142 28.602C60.794 27.942 59.954 27.5 59.954 26.83C59.954 26.238 60.672 25.606 62.172 25.606C63.462 25.586 64.364 25.864 65.082 26.152L65.442 26.314L65.984 23.226L65.89 23.246ZM75.856 22.906H72.856C71.922 22.906 71.224 23.16 70.814 24.088L65.044 37.156H69.126L69.942 35.016L74.922 35.02C75.044 35.52 75.402 37.156 75.402 37.156H79L75.856 22.906ZM50.32 22.786H54.206L51.776 37.044H47.888L50.32 22.782V22.786ZM40.442 30.644L40.846 32.624L44.648 22.906H48.766L42.644 37.136H38.536L35.176 25.084C35.106 24.878 35.02 24.738 34.816 24.61C33.68 24.016 32.41 23.532 31 23.196L31.05 22.896H37.312C38.16 22.928 38.844 23.196 39.078 24.104L40.442 30.65V30.644ZM71.058 32.098L72.608 28.11C72.588 28.15 72.928 27.286 73.124 26.75L73.39 27.98L74.288 32.094H71.058V32.098Z" fill="#454F5B"/>
</svg>
