<svg width="109" height="59" viewBox="0 0 109 59" fill="none" xmlns="http://www.w3.org/2000/svg">
<rect x="0.5" y="0.5" width="108" height="58" rx="3.5" fill="#F9FAFB" stroke="#DFE3E8"/>
<g clip-path="url(#clip0)">
<path d="M80.5185 15.48H31.4815L31.4815 45.1604H80.5185V15.48Z" fill="#F9FAFB"/>
<path fill-rule="evenodd" clip-rule="evenodd" d="M80.0008 33.1043H77.542C77.2965 33.1043 77.1334 33.1135 76.9961 33.2069C76.8537 33.2988 76.7989 33.4353 76.7989 33.6154C76.7989 33.8296 76.9191 33.9753 77.0939 34.0383C77.2363 34.0881 77.3891 34.1027 77.6139 34.1027L78.3451 34.1224C79.0829 34.1407 79.5754 34.2683 79.8757 34.5794C79.9304 34.6227 79.9632 34.6713 80.0008 34.7199V33.1043ZM80.0008 36.8477C79.6731 37.3296 79.0345 37.574 78.17 37.574H75.5647V36.3564H78.1595C78.4169 36.3564 78.597 36.3224 78.7055 36.2159C78.7994 36.128 78.865 36.0005 78.865 35.8455C78.865 35.6801 78.7994 35.5488 78.7002 35.47C78.6023 35.3834 78.4598 35.344 78.2249 35.344C76.9581 35.3007 75.3777 35.3834 75.3777 33.5866C75.3777 32.7631 75.8977 31.8962 77.3134 31.8962H80.0007V30.7665H77.5039C76.7504 30.7665 76.2031 30.948 75.8154 31.2301V30.7665H72.1224C71.5318 30.7665 70.8386 30.9137 70.5107 31.2301V30.7665H63.9158V31.2301C63.391 30.8494 62.5054 30.7665 62.0966 30.7665H57.7466V31.2301C57.3314 30.8257 56.408 30.7665 55.8452 30.7665H50.9768L49.8627 31.9791L48.8193 30.7665H41.5469V38.6891H48.6824L49.8303 37.4574L50.9117 38.6891L55.3101 38.6931V36.8293H55.7425C56.3261 36.8384 57.0144 36.8148 57.6217 36.5508V38.689H61.2495V36.6241H61.4245C61.6479 36.6241 61.6698 36.6333 61.6698 36.8578V38.6888H72.6906C73.3903 38.6888 74.1217 38.5087 74.5267 38.1818V38.6888H78.0224C78.7499 38.6888 79.4603 38.5862 80.0008 38.3236V36.8477ZM74.6193 34.5794C74.882 34.8528 75.0228 35.198 75.0228 35.7823C75.0228 37.0038 74.264 37.574 72.9034 37.574H70.2758V36.3564H72.8929C73.1488 36.3564 73.3302 36.3224 73.444 36.2159C73.5367 36.128 73.6033 36.0005 73.6033 35.8455C73.6033 35.6801 73.5313 35.5488 73.4387 35.47C73.3355 35.3834 73.1932 35.344 72.9583 35.344C71.6966 35.3007 70.1166 35.3834 70.1166 33.5866C70.1166 32.7631 70.631 31.8962 72.0454 31.8962H74.7501V33.1046H72.2752C72.0299 33.1046 71.8704 33.1139 71.7347 33.2072C71.587 33.2992 71.5321 33.4356 71.5321 33.6157C71.5321 33.8299 71.6576 33.9756 71.8273 34.0386C71.9697 34.0885 72.1225 34.103 72.3524 34.103L73.0786 34.1227C73.811 34.1407 74.3137 34.2681 74.6193 34.5794ZM62.4456 34.2287C62.2652 34.3364 62.042 34.3456 61.7795 34.3456H60.1406V33.0704H61.8018C62.042 33.0704 62.2824 33.0755 62.4456 33.173C62.6205 33.2649 62.725 33.4407 62.725 33.6837C62.725 33.9267 62.6205 34.1224 62.4456 34.2287ZM63.2604 34.9353C63.5607 35.0468 63.8062 35.2466 63.9213 35.412C64.1118 35.6892 64.1394 35.9479 64.1448 36.4484V37.574H62.7904V36.8636C62.7904 36.522 62.8231 36.0162 62.5723 35.7522C62.3752 35.5488 62.0747 35.5002 61.5825 35.5002H60.1407V37.574H58.7851V31.896H61.8998C62.5829 31.896 63.0803 31.9263 63.5231 32.164C63.9489 32.4227 64.2167 32.7771 64.2167 33.4248C64.2165 34.3311 63.6155 34.7936 63.2604 34.9353ZM64.9647 31.896H69.4674V33.0702H66.3083V34.1025H69.3903V35.261H66.3083V36.3907L69.4674 36.3958V37.574H64.9647V31.896ZM55.8624 34.5163H54.1189V33.0704H55.878C56.3651 33.0704 56.7032 33.27 56.7032 33.7666C56.7032 34.2576 56.3808 34.5163 55.8624 34.5163ZM52.7752 37.0576L50.7039 34.7448L52.7752 32.5054V37.0576ZM47.426 36.3907H44.109V35.261H47.0709V34.1025H44.109V33.0702H47.4914L48.9671 34.7249L47.426 36.3907ZM58.1516 33.7666C58.1516 35.3438 56.9815 35.6695 55.8023 35.6695H54.1189V37.574H51.4967L49.8355 35.6943L48.109 37.574H42.7651V31.896H48.1913L49.8511 33.7572L51.5672 31.896H55.878C56.9487 31.896 58.1516 32.1941 58.1516 33.7666Z" fill="#212B36"/>
<path fill-rule="evenodd" clip-rule="evenodd" d="M36.3267 25.3527L35.4033 23.0897L34.4852 25.3527H36.3267ZM56.6689 24.4516C56.4835 24.5648 56.2643 24.5685 56.0016 24.5685H54.3627V23.3077H56.0239C56.259 23.3077 56.5043 23.3183 56.6637 23.4101C56.8387 23.4928 56.9469 23.6688 56.9469 23.9119C56.9469 24.16 56.8439 24.3597 56.6689 24.4516ZM68.3608 25.3527L67.4272 23.0897L66.4987 25.3527H68.3608ZM46.5664 27.8022H45.1834L45.1783 23.3563L43.222 27.8022H42.0375L40.0761 23.3524V27.8022H37.3322L36.8138 26.536H34.0048L33.4811 27.8022H32.0158L34.4317 22.1256H36.4362L38.7307 27.5002V22.1256H40.9326L42.6982 25.9765L44.3201 22.1256H46.5663V27.8022H46.5664ZM52.0787 27.8022H47.5719V22.1256H52.0787V23.3077H48.921V24.3309H52.0029V25.4945H48.921V26.6281H52.0787V27.8022ZM58.4332 23.6544C58.4332 24.5595 57.8325 25.0271 57.4825 25.1675C57.7777 25.2805 58.0299 25.4801 58.1499 25.6455C58.3404 25.9279 58.3732 26.1801 58.3732 26.687V27.8022H57.0125L57.0074 27.0863C57.0074 26.7447 57.0399 26.2535 56.7944 25.9804C56.5973 25.7808 56.2968 25.7375 55.8111 25.7375H54.3628V27.8022H53.0138V22.1256H56.1168C56.8063 22.1256 57.3143 22.1439 57.7505 22.3975C58.1773 22.6511 58.4332 23.0212 58.4332 23.6544ZM60.5922 27.8022H59.2156V22.1256H60.5922V27.8022ZM76.5622 27.8022H74.6504L72.0932 23.5416V27.8022H69.3457L68.8207 26.536H66.0181L65.5088 27.8022H63.9301C63.2743 27.8022 62.4441 27.6563 61.9739 27.1743C61.4997 26.6923 61.253 26.0395 61.253 25.0072C61.253 24.1653 61.4005 23.3957 61.9803 22.7875C62.4165 22.3345 63.0995 22.1256 64.0292 22.1256H65.3353V23.3419H64.0566C63.5643 23.3419 63.2862 23.4156 63.0185 23.6782C62.7885 23.9172 62.6306 24.3691 62.6306 24.9641C62.6306 25.5722 62.7508 26.0107 63.0016 26.2972C63.2093 26.5218 63.5867 26.59 63.9419 26.59H64.5477L66.4492 22.1258H68.4706L70.7548 27.495V22.1258H72.8089L75.1804 26.0792V22.1258H76.5622V27.8022ZM32.0002 28.9172H34.3052L34.825 27.6563H35.9886L36.507 28.9172H41.0424V27.9532L41.4472 28.9213H43.8017L44.2065 27.9388V28.9172H55.4779L55.4726 26.8475H55.6907C55.8434 26.8528 55.888 26.867 55.888 27.1206V28.9172H61.7176V28.4354C62.1878 28.6888 62.9192 28.9172 63.8816 28.9172H66.3341L66.8589 27.6563H68.0226L68.5358 28.9172H73.2619V27.7195L73.9776 28.9172H77.7648V21H74.0168V21.935L73.4919 21H69.646V21.935L69.164 21H63.9691C63.0995 21 62.3351 21.1221 61.7176 21.4623V21H58.1327V21.4623C57.7398 21.1116 57.2043 21 56.609 21H43.5118L42.633 23.0449L41.7305 21H37.6052V21.935L37.152 21H33.6338L32 24.7642V28.9172H32.0002Z" fill="#454F5B"/>
</g>
<defs>
<clipPath id="clip0">
<rect width="48" height="29.0526" fill="white" transform="translate(31 15)"/>
</clipPath>
</defs>
</svg>
