<svg width="109" height="59" viewBox="0 0 109 59" fill="none" xmlns="http://www.w3.org/2000/svg">
<rect x="0.5" y="0.5" width="108" height="58" rx="3.5" fill="#F9FAFB" stroke="#0D47A1"/>
<path d="M36.1625 46C36.1092 46 36.0665 45.984 36.0345 45.952C36.0025 45.9147 35.9865 45.8693 35.9865 45.816V40.592C35.9865 40.5333 36.0025 40.488 36.0345 40.456C36.0665 40.4187 36.1092 40.4 36.1625 40.4H39.4505C39.5092 40.4 39.5545 40.4187 39.5865 40.456C39.6238 40.488 39.6425 40.5333 39.6425 40.592V40.88C39.6425 40.9333 39.6238 40.976 39.5865 41.008C39.5545 41.04 39.5092 41.056 39.4505 41.056H36.7225V42.84H39.2745C39.3332 42.84 39.3785 42.8587 39.4105 42.896C39.4478 42.928 39.4665 42.9733 39.4665 43.032V43.304C39.4665 43.3573 39.4478 43.4027 39.4105 43.44C39.3785 43.472 39.3332 43.488 39.2745 43.488H36.7225V45.336H39.5145C39.5732 45.336 39.6185 45.3547 39.6505 45.392C39.6878 45.424 39.7065 45.4693 39.7065 45.528V45.816C39.7065 45.8693 39.6878 45.9147 39.6505 45.952C39.6132 45.984 39.5678 46 39.5145 46H36.1625ZM41.3262 46C41.2729 46 41.2302 45.984 41.1982 45.952C41.1662 45.9147 41.1502 45.8693 41.1502 45.816V40.592C41.1502 40.5333 41.1662 40.488 41.1982 40.456C41.2302 40.4187 41.2729 40.4 41.3262 40.4H44.5742C44.6329 40.4 44.6782 40.4187 44.7102 40.456C44.7476 40.488 44.7662 40.5333 44.7662 40.592V40.888C44.7662 40.9413 44.7476 40.9867 44.7102 41.024C44.6782 41.056 44.6329 41.072 44.5742 41.072H41.8942V42.968H44.4142C44.4729 42.968 44.5182 42.9867 44.5502 43.024C44.5876 43.056 44.6062 43.0987 44.6062 43.152V43.456C44.6062 43.5093 44.5876 43.5547 44.5502 43.592C44.5129 43.624 44.4676 43.64 44.4142 43.64H41.8942V45.816C41.8942 45.8693 41.8756 45.9147 41.8382 45.952C41.8009 45.984 41.7556 46 41.7022 46H41.3262ZM46.3103 46C46.257 46 46.2143 45.984 46.1823 45.952C46.1503 45.9147 46.1343 45.8693 46.1343 45.816V40.592C46.1343 40.5333 46.1503 40.488 46.1823 40.456C46.2143 40.4187 46.257 40.4 46.3103 40.4H49.5983C49.657 40.4 49.7023 40.4187 49.7343 40.456C49.7716 40.488 49.7903 40.5333 49.7903 40.592V40.88C49.7903 40.9333 49.7716 40.976 49.7343 41.008C49.7023 41.04 49.657 41.056 49.5983 41.056H46.8703V42.84H49.4223C49.481 42.84 49.5263 42.8587 49.5583 42.896C49.5956 42.928 49.6143 42.9733 49.6143 43.032V43.304C49.6143 43.3573 49.5956 43.4027 49.5583 43.44C49.5263 43.472 49.481 43.488 49.4223 43.488H46.8703V45.336H49.6623C49.721 45.336 49.7663 45.3547 49.7983 45.392C49.8356 45.424 49.8543 45.4693 49.8543 45.528V45.816C49.8543 45.8693 49.8356 45.9147 49.7983 45.952C49.761 45.984 49.7156 46 49.6623 46H46.3103ZM53.2434 46.08C52.534 46.08 51.9927 45.888 51.6194 45.504C51.2514 45.1147 51.054 44.584 51.0274 43.912C51.022 43.768 51.0194 43.5333 51.0194 43.208C51.0194 42.8773 51.022 42.6373 51.0274 42.488C51.054 41.816 51.2514 41.288 51.6194 40.904C51.9927 40.5147 52.534 40.32 53.2434 40.32C53.718 40.32 54.1207 40.4053 54.4514 40.576C54.782 40.7413 55.03 40.96 55.1954 41.232C55.366 41.504 55.4594 41.7947 55.4754 42.104C55.4754 42.152 55.4567 42.192 55.4194 42.224C55.3874 42.2507 55.3474 42.264 55.2994 42.264H54.8994C54.846 42.264 54.8034 42.2507 54.7714 42.224C54.7394 42.1973 54.7154 42.152 54.6994 42.088C54.6087 41.6773 54.4434 41.3893 54.2034 41.224C53.9687 41.0587 53.6487 40.976 53.2434 40.976C52.3154 40.976 51.8327 41.4933 51.7954 42.528C51.79 42.672 51.7874 42.8933 51.7874 43.192C51.7874 43.4907 51.79 43.7173 51.7954 43.872C51.8327 44.9013 52.3154 45.416 53.2434 45.416C53.6434 45.416 53.9634 45.3333 54.2034 45.168C54.4434 45.0027 54.6087 44.7173 54.6994 44.312C54.7154 44.248 54.7394 44.2027 54.7714 44.176C54.8034 44.1493 54.846 44.136 54.8994 44.136H55.2994C55.3474 44.136 55.3874 44.152 55.4194 44.184C55.4567 44.2107 55.4754 44.248 55.4754 44.296C55.4594 44.6053 55.366 44.896 55.1954 45.168C55.03 45.44 54.782 45.6613 54.4514 45.832C54.1207 45.9973 53.718 46.08 53.2434 46.08ZM58.2917 46C58.2384 46 58.193 45.984 58.1557 45.952C58.1237 45.9147 58.1077 45.8693 58.1077 45.816V41.088H56.5637C56.5104 41.088 56.465 41.072 56.4277 41.04C56.3957 41.0027 56.3797 40.9573 56.3797 40.904V40.592C56.3797 40.5333 56.3957 40.488 56.4277 40.456C56.465 40.4187 56.5104 40.4 56.5637 40.4H60.4037C60.4624 40.4 60.5077 40.4187 60.5397 40.456C60.5717 40.488 60.5877 40.5333 60.5877 40.592V40.904C60.5877 40.9573 60.569 41.0027 60.5317 41.04C60.4997 41.072 60.457 41.088 60.4037 41.088H58.8677V45.816C58.8677 45.8693 58.849 45.9147 58.8117 45.952C58.7744 45.984 58.729 46 58.6757 46H58.2917ZM61.9969 46C61.9435 46 61.9009 45.984 61.8689 45.952C61.8369 45.9147 61.8209 45.8693 61.8209 45.816V40.584C61.8209 40.5307 61.8369 40.488 61.8689 40.456C61.9009 40.4187 61.9435 40.4 61.9969 40.4H62.3969C62.4555 40.4 62.5009 40.416 62.5329 40.448C62.5649 40.48 62.5809 40.5253 62.5809 40.584V45.816C62.5809 45.8693 62.5622 45.9147 62.5249 45.952C62.4929 45.984 62.4502 46 62.3969 46H61.9969ZM65.9767 46C65.8381 46 65.7421 45.9307 65.6887 45.792L63.8887 40.648L63.8727 40.56C63.8727 40.5173 63.8887 40.48 63.9207 40.448C63.9581 40.416 63.9981 40.4 64.0407 40.4H64.4247C64.4834 40.4 64.5287 40.416 64.5607 40.448C64.5981 40.4747 64.6221 40.5067 64.6327 40.544L66.2167 45.12L67.8087 40.544C67.8194 40.5067 67.8407 40.4747 67.8727 40.448C67.9101 40.416 67.9581 40.4 68.0167 40.4H68.4007C68.4434 40.4 68.4807 40.416 68.5127 40.448C68.5447 40.48 68.5607 40.5173 68.5607 40.56C68.5607 40.5973 68.5581 40.6267 68.5527 40.648L66.7527 45.792C66.6994 45.9307 66.6034 46 66.4647 46H65.9767ZM71.7031 46.08C71.0097 46.08 70.4737 45.8987 70.0951 45.536C69.7164 45.168 69.5164 44.616 69.4951 43.88C69.4897 43.72 69.4871 43.4933 69.4871 43.2C69.4871 42.9067 69.4897 42.6827 69.4951 42.528C69.5164 41.8027 69.7217 41.2533 70.1111 40.88C70.5057 40.5067 71.0364 40.32 71.7031 40.32C72.3697 40.32 72.8977 40.5067 73.2871 40.88C73.6764 41.2533 73.8817 41.8027 73.9031 42.528C73.9137 42.8373 73.9191 43.0613 73.9191 43.2C73.9191 43.3333 73.9137 43.56 73.9031 43.88C73.8817 44.616 73.6817 45.168 73.3031 45.536C72.9297 45.8987 72.3964 46.08 71.7031 46.08ZM71.7031 45.416C72.1297 45.416 72.4711 45.288 72.7271 45.032C72.9831 44.7707 73.1217 44.3733 73.1431 43.84C73.1537 43.52 73.1591 43.3067 73.1591 43.2C73.1591 43.0827 73.1537 42.8693 73.1431 42.56C73.1217 42.0267 72.9831 41.6293 72.7271 41.368C72.4711 41.1067 72.1297 40.976 71.7031 40.976C71.2764 40.976 70.9324 41.1067 70.6711 41.368C70.4151 41.6293 70.2791 42.0267 70.2631 42.56C70.2577 42.7147 70.2551 42.928 70.2551 43.2C70.2551 43.4667 70.2577 43.68 70.2631 43.84C70.2791 44.3733 70.4151 44.7707 70.6711 45.032C70.9271 45.288 71.2711 45.416 71.7031 45.416Z" fill="#454F5B"/>
<path d="M54.166 30.1666H55.8327V29.3333H56.666C57.1243 29.3333 57.4993 28.9583 57.4993 28.5V26C57.4993 25.5416 57.1243 25.1666 56.666 25.1666H54.166V24.3333H57.4993V22.6666H55.8327V21.8333H54.166V22.6666H53.3327C52.8743 22.6666 52.4993 23.0416 52.4993 23.5V26C52.4993 26.4583 52.8743 26.8333 53.3327 26.8333H55.8327V27.6666H52.4993V29.3333H54.166V30.1666ZM61.666 19.3333H48.3327C47.4077 19.3333 46.6743 20.075 46.6743 21L46.666 31C46.666 31.925 47.4077 32.6666 48.3327 32.6666H61.666C62.591 32.6666 63.3327 31.925 63.3327 31V21C63.3327 20.075 62.591 19.3333 61.666 19.3333ZM61.666 31H48.3327V21H61.666V31Z" fill="#454F5B"/>
</svg>
