<svg width="109" height="59" viewBox="0 0 109 59" fill="none" xmlns="http://www.w3.org/2000/svg">
<rect x="0.5" y="0.5" width="108" height="58" rx="3.5" fill="#F9FAFB" stroke="#0D47A1"/>
<path d="M11.7302 46C11.5915 46 11.4955 45.9307 11.4422 45.792L9.64219 40.648L9.62619 40.56C9.62619 40.5173 9.64219 40.48 9.67419 40.448C9.71152 40.416 9.75152 40.4 9.79419 40.4H10.1782C10.2369 40.4 10.2822 40.416 10.3142 40.448C10.3515 40.4747 10.3755 40.5067 10.3862 40.544L11.9702 45.12L13.5622 40.544C13.5729 40.5067 13.5942 40.4747 13.6262 40.448C13.6635 40.416 13.7115 40.4 13.7702 40.4H14.1542C14.1969 40.4 14.2342 40.416 14.2662 40.448C14.2982 40.48 14.3142 40.5173 14.3142 40.56C14.3142 40.5973 14.3115 40.6267 14.3062 40.648L12.5062 45.792C12.4529 45.9307 12.3569 46 12.2182 46H11.7302ZM14.8381 46C14.7955 46 14.7581 45.984 14.7261 45.952C14.6941 45.92 14.6781 45.8827 14.6781 45.84L14.6941 45.752L16.6781 40.576C16.7208 40.4587 16.8061 40.4 16.9341 40.4H17.4461C17.5741 40.4 17.6595 40.4587 17.7021 40.576L19.6861 45.752L19.7021 45.84C19.7021 45.8827 19.6835 45.92 19.6461 45.952C19.6141 45.984 19.5768 46 19.5341 46H19.1581C19.1048 46 19.0595 45.9867 19.0221 45.96C18.9901 45.928 18.9688 45.896 18.9581 45.864L18.5101 44.712H15.8621L15.4221 45.864C15.3795 45.9547 15.3128 46 15.2221 46H14.8381ZM16.0941 44.048H18.2861L17.1901 41.176L16.0941 44.048ZM21.0619 46C21.0085 46 20.9659 45.984 20.9339 45.952C20.9019 45.9147 20.8859 45.8693 20.8859 45.816V40.584C20.8859 40.5307 20.9019 40.488 20.9339 40.456C20.9659 40.4187 21.0085 40.4 21.0619 40.4H21.4619C21.5152 40.4 21.5579 40.4187 21.5899 40.456C21.6219 40.488 21.6379 40.5307 21.6379 40.584V45.328H24.3099C24.3685 45.328 24.4139 45.3467 24.4459 45.384C24.4832 45.416 24.5019 45.4587 24.5019 45.512V45.816C24.5019 45.8693 24.4832 45.9147 24.4459 45.952C24.4085 45.984 24.3632 46 24.3099 46H21.0619ZM25.8662 46C25.8129 46 25.7702 45.984 25.7382 45.952C25.7062 45.9147 25.6902 45.8693 25.6902 45.816V40.592C25.6902 40.5333 25.7062 40.488 25.7382 40.456C25.7702 40.4187 25.8129 40.4 25.8662 40.4H29.1542C29.2129 40.4 29.2582 40.4187 29.2902 40.456C29.3276 40.488 29.3462 40.5333 29.3462 40.592V40.88C29.3462 40.9333 29.3276 40.976 29.2902 41.008C29.2582 41.04 29.2129 41.056 29.1542 41.056H26.4262V42.84H28.9782C29.0369 42.84 29.0822 42.8587 29.1142 42.896C29.1516 42.928 29.1702 42.9733 29.1702 43.032V43.304C29.1702 43.3573 29.1516 43.4027 29.1142 43.44C29.0822 43.472 29.0369 43.488 28.9782 43.488H26.4262V45.336H29.2182C29.2769 45.336 29.3222 45.3547 29.3542 45.392C29.3916 45.424 29.4102 45.4693 29.4102 45.528V45.816C29.4102 45.8693 29.3916 45.9147 29.3542 45.952C29.3169 45.984 29.2716 46 29.2182 46H25.8662ZM32.638 46.08C32.2007 46.08 31.8193 46.0107 31.494 45.872C31.174 45.7333 30.9287 45.552 30.758 45.328C30.5927 45.0987 30.5047 44.8533 30.494 44.592C30.494 44.5493 30.51 44.512 30.542 44.48C30.574 44.448 30.614 44.432 30.662 44.432H31.054C31.15 44.432 31.2167 44.4853 31.254 44.592C31.302 44.816 31.438 45.0107 31.662 45.176C31.8913 45.336 32.2167 45.416 32.638 45.416C33.0913 45.416 33.43 45.336 33.654 45.176C33.878 45.016 33.99 44.7947 33.99 44.512C33.99 44.3307 33.934 44.1813 33.822 44.064C33.7153 43.9467 33.5527 43.8453 33.334 43.76C33.1207 43.6693 32.798 43.56 32.366 43.432C31.9553 43.3147 31.6273 43.1893 31.382 43.056C31.142 42.9227 30.9607 42.76 30.838 42.568C30.7153 42.3707 30.654 42.1227 30.654 41.824C30.654 41.536 30.7313 41.28 30.886 41.056C31.0407 40.8267 31.2647 40.648 31.558 40.52C31.8513 40.3867 32.198 40.32 32.598 40.32C33.014 40.32 33.3687 40.3947 33.662 40.544C33.9607 40.688 34.1873 40.872 34.342 41.096C34.4967 41.3147 34.5793 41.536 34.59 41.76C34.59 41.808 34.574 41.848 34.542 41.88C34.51 41.912 34.47 41.928 34.422 41.928H34.022C33.9793 41.928 33.9393 41.9147 33.902 41.888C33.8647 41.8613 33.838 41.8213 33.822 41.768C33.79 41.5387 33.662 41.3493 33.438 41.2C33.214 41.0507 32.934 40.976 32.598 40.976C32.2353 40.976 31.9473 41.048 31.734 41.192C31.5207 41.3307 31.414 41.5387 31.414 41.816C31.414 42.0027 31.462 42.1547 31.558 42.272C31.6593 42.3893 31.8113 42.4933 32.014 42.584C32.222 42.6747 32.5233 42.7787 32.918 42.896C33.3713 43.024 33.726 43.152 33.982 43.28C34.2433 43.408 34.438 43.568 34.566 43.76C34.694 43.9467 34.758 44.1893 34.758 44.488C34.758 44.9893 34.566 45.3813 34.182 45.664C33.8033 45.9413 33.2887 46.08 32.638 46.08ZM38.5997 46C38.5464 46 38.5037 45.984 38.4717 45.952C38.4397 45.9147 38.4237 45.8693 38.4237 45.816V40.592C38.4237 40.5333 38.4397 40.488 38.4717 40.456C38.5037 40.4187 38.5464 40.4 38.5997 40.4H41.8877C41.9464 40.4 41.9917 40.4187 42.0237 40.456C42.061 40.488 42.0797 40.5333 42.0797 40.592V40.88C42.0797 40.9333 42.061 40.976 42.0237 41.008C41.9917 41.04 41.9464 41.056 41.8877 41.056H39.1597V42.84H41.7117C41.7704 42.84 41.8157 42.8587 41.8477 42.896C41.885 42.928 41.9037 42.9733 41.9037 43.032V43.304C41.9037 43.3573 41.885 43.4027 41.8477 43.44C41.8157 43.472 41.7704 43.488 41.7117 43.488H39.1597V45.336H41.9517C42.0104 45.336 42.0557 45.3547 42.0877 45.392C42.125 45.424 42.1437 45.4693 42.1437 45.528V45.816C42.1437 45.8693 42.125 45.9147 42.0877 45.952C42.0504 45.984 42.005 46 41.9517 46H38.5997ZM43.7634 46C43.7101 46 43.6674 45.984 43.6354 45.952C43.6034 45.9147 43.5874 45.8693 43.5874 45.816V40.584C43.5874 40.5307 43.6034 40.488 43.6354 40.456C43.6674 40.4187 43.7101 40.4 43.7634 40.4H44.1634C44.2168 40.4 44.2594 40.4187 44.2914 40.456C44.3234 40.488 44.3394 40.5307 44.3394 40.584V45.328H47.0114C47.0701 45.328 47.1154 45.3467 47.1474 45.384C47.1848 45.416 47.2034 45.4587 47.2034 45.512V45.816C47.2034 45.8693 47.1848 45.9147 47.1474 45.952C47.1101 45.984 47.0648 46 47.0114 46H43.7634ZM48.5678 46C48.5145 46 48.4718 45.984 48.4398 45.952C48.4078 45.9147 48.3918 45.8693 48.3918 45.816V40.592C48.3918 40.5333 48.4078 40.488 48.4398 40.456C48.4718 40.4187 48.5145 40.4 48.5678 40.4H51.8558C51.9145 40.4 51.9598 40.4187 51.9918 40.456C52.0291 40.488 52.0478 40.5333 52.0478 40.592V40.88C52.0478 40.9333 52.0291 40.976 51.9918 41.008C51.9598 41.04 51.9145 41.056 51.8558 41.056H49.1278V42.84H51.6798C51.7385 42.84 51.7838 42.8587 51.8158 42.896C51.8531 42.928 51.8718 42.9733 51.8718 43.032V43.304C51.8718 43.3573 51.8531 43.4027 51.8158 43.44C51.7838 43.472 51.7385 43.488 51.6798 43.488H49.1278V45.336H51.9198C51.9785 45.336 52.0238 45.3547 52.0558 45.392C52.0931 45.424 52.1118 45.4693 52.1118 45.528V45.816C52.1118 45.8693 52.0931 45.9147 52.0558 45.952C52.0185 45.984 51.9731 46 51.9198 46H48.5678ZM55.5009 46.08C54.7915 46.08 54.2502 45.888 53.8769 45.504C53.5089 45.1147 53.3115 44.584 53.2849 43.912C53.2795 43.768 53.2769 43.5333 53.2769 43.208C53.2769 42.8773 53.2795 42.6373 53.2849 42.488C53.3115 41.816 53.5089 41.288 53.8769 40.904C54.2502 40.5147 54.7915 40.32 55.5009 40.32C55.9755 40.32 56.3782 40.4053 56.7089 40.576C57.0395 40.7413 57.2875 40.96 57.4529 41.232C57.6235 41.504 57.7169 41.7947 57.7329 42.104C57.7329 42.152 57.7142 42.192 57.6769 42.224C57.6449 42.2507 57.6049 42.264 57.5569 42.264H57.1569C57.1035 42.264 57.0609 42.2507 57.0289 42.224C56.9969 42.1973 56.9729 42.152 56.9569 42.088C56.8662 41.6773 56.7009 41.3893 56.4609 41.224C56.2262 41.0587 55.9062 40.976 55.5009 40.976C54.5729 40.976 54.0902 41.4933 54.0529 42.528C54.0475 42.672 54.0449 42.8933 54.0449 43.192C54.0449 43.4907 54.0475 43.7173 54.0529 43.872C54.0902 44.9013 54.5729 45.416 55.5009 45.416C55.9009 45.416 56.2209 45.3333 56.4609 45.168C56.7009 45.0027 56.8662 44.7173 56.9569 44.312C56.9729 44.248 56.9969 44.2027 57.0289 44.176C57.0609 44.1493 57.1035 44.136 57.1569 44.136H57.5569C57.6049 44.136 57.6449 44.152 57.6769 44.184C57.7142 44.2107 57.7329 44.248 57.7329 44.296C57.7169 44.6053 57.6235 44.896 57.4529 45.168C57.2875 45.44 57.0395 45.6613 56.7089 45.832C56.3782 45.9973 55.9755 46.08 55.5009 46.08ZM60.5492 46C60.4959 46 60.4505 45.984 60.4132 45.952C60.3812 45.9147 60.3652 45.8693 60.3652 45.816V41.088H58.8212C58.7679 41.088 58.7225 41.072 58.6852 41.04C58.6532 41.0027 58.6372 40.9573 58.6372 40.904V40.592C58.6372 40.5333 58.6532 40.488 58.6852 40.456C58.7225 40.4187 58.7679 40.4 58.8212 40.4H62.6612C62.7199 40.4 62.7652 40.4187 62.7972 40.456C62.8292 40.488 62.8452 40.5333 62.8452 40.592V40.904C62.8452 40.9573 62.8265 41.0027 62.7892 41.04C62.7572 41.072 62.7145 41.088 62.6612 41.088H61.1252V45.816C61.1252 45.8693 61.1065 45.9147 61.0692 45.952C61.0319 45.984 60.9865 46 60.9332 46H60.5492ZM64.2544 46C64.201 46 64.1584 45.984 64.1264 45.952C64.0944 45.9147 64.0784 45.8693 64.0784 45.816V40.592C64.0784 40.5333 64.0944 40.488 64.1264 40.456C64.1584 40.4187 64.201 40.4 64.2544 40.4H66.2064C66.8144 40.4 67.289 40.544 67.6304 40.832C67.977 41.1147 68.1504 41.528 68.1504 42.072C68.1504 42.4773 68.049 42.8107 67.8464 43.072C67.6437 43.3333 67.361 43.5147 66.9984 43.616L68.2304 45.752C68.2464 45.784 68.2544 45.8133 68.2544 45.84C68.2544 45.8827 68.2384 45.92 68.2064 45.952C68.1744 45.984 68.137 46 68.0944 46H67.7424C67.6624 46 67.5984 45.9813 67.5504 45.944C67.5077 45.9067 67.4677 45.8533 67.4304 45.784L66.2544 43.736H64.8304V45.816C64.8304 45.8693 64.8117 45.9147 64.7744 45.952C64.737 45.984 64.6917 46 64.6384 46H64.2544ZM66.1744 43.08C66.9797 43.08 67.3824 42.7413 67.3824 42.064C67.3824 41.3867 66.9797 41.048 66.1744 41.048H64.8304V43.08H66.1744ZM71.6249 46.08C70.9316 46.08 70.3956 45.8987 70.0169 45.536C69.6383 45.168 69.4383 44.616 69.4169 43.88C69.4116 43.72 69.4089 43.4933 69.4089 43.2C69.4089 42.9067 69.4116 42.6827 69.4169 42.528C69.4383 41.8027 69.6436 41.2533 70.0329 40.88C70.4276 40.5067 70.9583 40.32 71.6249 40.32C72.2916 40.32 72.8196 40.5067 73.2089 40.88C73.5983 41.2533 73.8036 41.8027 73.8249 42.528C73.8356 42.8373 73.8409 43.0613 73.8409 43.2C73.8409 43.3333 73.8356 43.56 73.8249 43.88C73.8036 44.616 73.6036 45.168 73.2249 45.536C72.8516 45.8987 72.3183 46.08 71.6249 46.08ZM71.6249 45.416C72.0516 45.416 72.3929 45.288 72.6489 45.032C72.9049 44.7707 73.0436 44.3733 73.0649 43.84C73.0756 43.52 73.0809 43.3067 73.0809 43.2C73.0809 43.0827 73.0756 42.8693 73.0649 42.56C73.0436 42.0267 72.9049 41.6293 72.6489 41.368C72.3929 41.1067 72.0516 40.976 71.6249 40.976C71.1983 40.976 70.8543 41.1067 70.5929 41.368C70.3369 41.6293 70.2009 42.0267 70.1849 42.56C70.1796 42.7147 70.1769 42.928 70.1769 43.2C70.1769 43.4667 70.1796 43.68 70.1849 43.84C70.2009 44.3733 70.3369 44.7707 70.5929 45.032C70.8489 45.288 71.1929 45.416 71.6249 45.416ZM71.4249 40C71.3396 40 71.2969 39.9573 71.2969 39.872C71.2969 39.8293 71.3103 39.7947 71.3369 39.768L71.9289 39.048C71.9823 38.9893 72.0276 38.952 72.0649 38.936C72.1023 38.9147 72.1556 38.904 72.2249 38.904H72.7929C72.8943 38.904 72.9449 38.9547 72.9449 39.056C72.9449 39.0933 72.9316 39.1253 72.9049 39.152L71.9849 39.912C71.9423 39.9493 71.9023 39.9733 71.8649 39.984C71.8276 39.9947 71.7796 40 71.7209 40H71.4249ZM75.5194 46C75.466 46 75.4234 45.984 75.3914 45.952C75.3594 45.9147 75.3434 45.8693 75.3434 45.816V40.592C75.3434 40.5333 75.3594 40.488 75.3914 40.456C75.4234 40.4187 75.466 40.4 75.5194 40.4H75.8714C75.9247 40.4 75.9647 40.4107 75.9914 40.432C76.018 40.4533 76.0447 40.48 76.0714 40.512L78.7514 44.64V40.592C78.7514 40.5333 78.7674 40.488 78.7994 40.456C78.8367 40.4187 78.882 40.4 78.9354 40.4H79.2954C79.354 40.4 79.3994 40.4187 79.4314 40.456C79.4687 40.488 79.4874 40.5333 79.4874 40.592V45.808C79.4874 45.8613 79.4687 45.9067 79.4314 45.944C79.3994 45.9813 79.3567 46 79.3034 46H78.9434C78.8527 46 78.7887 45.9627 78.7514 45.888L76.0714 41.8V45.816C76.0714 45.8693 76.0527 45.9147 76.0154 45.952C75.9834 45.984 75.9407 46 75.8874 46H75.5194ZM81.3863 46C81.3329 46 81.2903 45.984 81.2583 45.952C81.2263 45.9147 81.2103 45.8693 81.2103 45.816V40.584C81.2103 40.5307 81.2263 40.488 81.2583 40.456C81.2903 40.4187 81.3329 40.4 81.3863 40.4H81.7863C81.8449 40.4 81.8903 40.416 81.9223 40.448C81.9543 40.48 81.9703 40.5253 81.9703 40.584V45.816C81.9703 45.8693 81.9516 45.9147 81.9143 45.952C81.8823 45.984 81.8396 46 81.7863 46H81.3863ZM85.7021 46.08C84.9928 46.08 84.4515 45.888 84.0781 45.504C83.7101 45.1147 83.5128 44.584 83.4861 43.912C83.4808 43.768 83.4781 43.5333 83.4781 43.208C83.4781 42.8773 83.4808 42.6373 83.4861 42.488C83.5128 41.816 83.7101 41.288 84.0781 40.904C84.4515 40.5147 84.9928 40.32 85.7021 40.32C86.1768 40.32 86.5795 40.4053 86.9101 40.576C87.2408 40.7413 87.4888 40.96 87.6541 41.232C87.8248 41.504 87.9181 41.7947 87.9341 42.104C87.9341 42.152 87.9155 42.192 87.8781 42.224C87.8461 42.2507 87.8061 42.264 87.7581 42.264H87.3581C87.3048 42.264 87.2621 42.2507 87.2301 42.224C87.1981 42.1973 87.1741 42.152 87.1581 42.088C87.0675 41.6773 86.9021 41.3893 86.6621 41.224C86.4275 41.0587 86.1075 40.976 85.7021 40.976C84.7741 40.976 84.2915 41.4933 84.2541 42.528C84.2488 42.672 84.2461 42.8933 84.2461 43.192C84.2461 43.4907 84.2488 43.7173 84.2541 43.872C84.2915 44.9013 84.7741 45.416 85.7021 45.416C86.1021 45.416 86.4221 45.3333 86.6621 45.168C86.9021 45.0027 87.0675 44.7173 87.1581 44.312C87.1741 44.248 87.1981 44.2027 87.2301 44.176C87.2621 44.1493 87.3048 44.136 87.3581 44.136H87.7581C87.8061 44.136 87.8461 44.152 87.8781 44.184C87.9155 44.2107 87.9341 44.248 87.9341 44.296C87.9181 44.6053 87.8248 44.896 87.6541 45.168C87.4888 45.44 87.2408 45.6613 86.9101 45.832C86.5795 45.9973 86.1768 46.08 85.7021 46.08ZM91.3424 46.08C90.6491 46.08 90.1131 45.8987 89.7344 45.536C89.3558 45.168 89.1558 44.616 89.1344 43.88C89.1291 43.72 89.1264 43.4933 89.1264 43.2C89.1264 42.9067 89.1291 42.6827 89.1344 42.528C89.1558 41.8027 89.3611 41.2533 89.7504 40.88C90.1451 40.5067 90.6758 40.32 91.3424 40.32C92.0091 40.32 92.5371 40.5067 92.9264 40.88C93.3158 41.2533 93.5211 41.8027 93.5424 42.528C93.5531 42.8373 93.5584 43.0613 93.5584 43.2C93.5584 43.3333 93.5531 43.56 93.5424 43.88C93.5211 44.616 93.3211 45.168 92.9424 45.536C92.5691 45.8987 92.0358 46.08 91.3424 46.08ZM91.3424 45.416C91.7691 45.416 92.1104 45.288 92.3664 45.032C92.6224 44.7707 92.7611 44.3733 92.7824 43.84C92.7931 43.52 92.7984 43.3067 92.7984 43.2C92.7984 43.0827 92.7931 42.8693 92.7824 42.56C92.7611 42.0267 92.6224 41.6293 92.3664 41.368C92.1104 41.1067 91.7691 40.976 91.3424 40.976C90.9158 40.976 90.5718 41.1067 90.3104 41.368C90.0544 41.6293 89.9184 42.0267 89.9024 42.56C89.8971 42.7147 89.8944 42.928 89.8944 43.2C89.8944 43.4667 89.8971 43.68 89.9024 43.84C89.9184 44.3733 90.0544 44.7707 90.3104 45.032C90.5664 45.288 90.9104 45.416 91.3424 45.416ZM96.8449 46.08C96.4075 46.08 96.0262 46.0107 95.7009 45.872C95.3809 45.7333 95.1355 45.552 94.9649 45.328C94.7995 45.0987 94.7115 44.8533 94.7009 44.592C94.7009 44.5493 94.7169 44.512 94.7489 44.48C94.7809 44.448 94.8209 44.432 94.8689 44.432H95.2609C95.3569 44.432 95.4235 44.4853 95.4609 44.592C95.5089 44.816 95.6449 45.0107 95.8689 45.176C96.0982 45.336 96.4235 45.416 96.8449 45.416C97.2982 45.416 97.6369 45.336 97.8609 45.176C98.0849 45.016 98.1969 44.7947 98.1969 44.512C98.1969 44.3307 98.1409 44.1813 98.0289 44.064C97.9222 43.9467 97.7595 43.8453 97.5409 43.76C97.3275 43.6693 97.0049 43.56 96.5729 43.432C96.1622 43.3147 95.8342 43.1893 95.5889 43.056C95.3489 42.9227 95.1675 42.76 95.0449 42.568C94.9222 42.3707 94.8609 42.1227 94.8609 41.824C94.8609 41.536 94.9382 41.28 95.0929 41.056C95.2475 40.8267 95.4715 40.648 95.7649 40.52C96.0582 40.3867 96.4049 40.32 96.8049 40.32C97.2209 40.32 97.5755 40.3947 97.8689 40.544C98.1675 40.688 98.3942 40.872 98.5489 41.096C98.7035 41.3147 98.7862 41.536 98.7969 41.76C98.7969 41.808 98.7809 41.848 98.7489 41.88C98.7169 41.912 98.6769 41.928 98.6289 41.928H98.2289C98.1862 41.928 98.1462 41.9147 98.1089 41.888C98.0715 41.8613 98.0449 41.8213 98.0289 41.768C97.9969 41.5387 97.8689 41.3493 97.6449 41.2C97.4209 41.0507 97.1409 40.976 96.8049 40.976C96.4422 40.976 96.1542 41.048 95.9409 41.192C95.7275 41.3307 95.6209 41.5387 95.6209 41.816C95.6209 42.0027 95.6689 42.1547 95.7649 42.272C95.8662 42.3893 96.0182 42.4933 96.2209 42.584C96.4289 42.6747 96.7302 42.7787 97.1249 42.896C97.5782 43.024 97.9329 43.152 98.1889 43.28C98.4502 43.408 98.6449 43.568 98.7729 43.76C98.9009 43.9467 98.9649 44.1893 98.9649 44.488C98.9649 44.9893 98.7729 45.3813 98.3889 45.664C98.0102 45.9413 97.4955 46.08 96.8449 46.08Z" fill="#454F5B"/>
<path d="M63.3327 24.3333V21C63.3327 20.0833 62.5827 19.3333 61.666 19.3333H48.3327C47.416 19.3333 46.6743 20.0833 46.6743 21V24.3333C47.591 24.3333 48.3327 25.0833 48.3327 26C48.3327 26.9166 47.591 27.6666 46.666 27.6666V31C46.666 31.9166 47.416 32.6666 48.3327 32.6666H61.666C62.5827 32.6666 63.3327 31.9166 63.3327 31V27.6666C62.416 27.6666 61.666 26.9166 61.666 26C61.666 25.0833 62.416 24.3333 63.3327 24.3333ZM61.666 23.1166C60.6743 23.6916 59.9993 24.775 59.9993 26C59.9993 27.225 60.6743 28.3083 61.666 28.8833V31H48.3327V28.8833C49.3243 28.3083 49.9993 27.225 49.9993 26C49.9993 24.7666 49.3327 23.6916 48.341 23.1166L48.3327 21H61.666V23.1166Z" fill="#454F5B"/>
</svg>
