<svg width="13" height="12" viewBox="0 0 13 12" fill="none" xmlns="http://www.w3.org/2000/svg">
<path d="M9.07148 6.58366C9.50898 6.58366 9.89398 6.34449 10.0923 5.98283L12.1806 2.19699C12.3965 1.81199 12.1165 1.33366 11.6732 1.33366H3.03982L2.49148 0.166992H0.583984V1.33366H1.75065L3.85065 5.76116L3.06315 7.18449C2.63732 7.96616 3.19732 8.91699 4.08398 8.91699H11.084V7.75033H4.08398L4.72565 6.58366H9.07148ZM3.59398 2.50033H10.6815L9.07148 5.41699H4.97648L3.59398 2.50033ZM4.08398 9.50033C3.44232 9.50033 2.92315 10.0253 2.92315 10.667C2.92315 11.3087 3.44232 11.8337 4.08398 11.8337C4.72565 11.8337 5.25065 11.3087 5.25065 10.667C5.25065 10.0253 4.72565 9.50033 4.08398 9.50033ZM9.91732 9.50033C9.27565 9.50033 8.75648 10.0253 8.75648 10.667C8.75648 11.3087 9.27565 11.8337 9.91732 11.8337C10.559 11.8337 11.084 11.3087 11.084 10.667C11.084 10.0253 10.559 9.50033 9.91732 9.50033Z" fill="#F9FAFB"/>
</svg>