<?xml version="1.0" encoding="UTF-8"?>
<svg width="20px" height="19px" viewBox="0 0 20 19" version="1.1" xmlns="http://www.w3.org/2000/svg" xmlns:xlink="http://www.w3.org/1999/xlink">
    <!-- Generator: sketchtool 56.3 (101010) - https://sketch.com -->
    <title>D95D9F9A-A75E-4B42-B7AA-13FE1D5ACE5D</title>
    <desc>Created with sketchtool.</desc>
    <g id="Main-Navigation" stroke="none" stroke-width="1" fill="none" fill-rule="evenodd">
        <g id="Nav---Guest" transform="translate(-27.000000, -125.000000)" fill="#FFFFFF">
            <path d="M41.8390037,136.349537 L33.9789334,136.349537 L32.289916,130.15888 L44.9343319,130.15888 L41.8390037,136.349537 Z M46.689383,129.073452 C47.0680448,129.686327 47.1031252,130.436428 46.7801793,131.081288 L43.4000809,137.842517 C43.2246789,138.192289 42.8676844,138.413089 42.4766413,138.413089 L33.1906565,138.413089 C32.7253255,138.413089 32.3177739,138.101493 32.1949926,137.65267 L29.3070513,127.063552 L28.0317761,127.063552 C27.4612039,127.063552 27,126.601316 27,126.031776 C27,125.462236 27.4612039,125 28.0317761,125 L30.0953283,125 C30.5606593,125 30.9682108,125.311596 31.0909922,125.760419 L31.727598,128.095328 L44.9343319,128.095328 C45.6545116,128.095328 46.3107212,128.460577 46.689383,129.073452 Z M32.6749748,140.476641 C33.5292854,140.476641 34.2226389,141.168963 34.2226389,142.024305 C34.2226389,142.879648 33.5292854,143.57197 32.6749748,143.57197 C31.8206642,143.57197 31.1273107,142.879648 31.1273107,142.024305 C31.1273107,141.168963 31.8206642,140.476641 32.6749748,140.476641 Z M42.9927357,140.476641 C43.8470463,140.476641 44.5403998,141.168963 44.5403998,142.024305 C44.5403998,142.879648 43.8470463,143.57197 42.9927357,143.57197 C42.1384251,143.57197 41.4450715,142.879648 41.4450715,142.024305 C41.4450715,141.168963 42.1384251,140.476641 42.9927357,140.476641 Z" id="Cart"></path>
        </g>
    </g>
</svg>