<?xml version="1.0" encoding="UTF-8"?>
<svg width="97px" height="8px" viewBox="0 0 97 8" version="1.1" xmlns="http://www.w3.org/2000/svg" xmlns:xlink="http://www.w3.org/1999/xlink">
    <!-- Generator: Sketch 55 (78076) - https://sketchapp.com -->
    <title>Brand/Chedraui Logo / Lockup</title>
    <desc>Created with Sketch.</desc>
    <g id="Price-Compare" stroke="none" stroke-width="1" fill="none" fill-rule="evenodd">
        <g id="Comparar-Precios" transform="translate(-30.000000, -578.000000)" fill="#F57C00" fill-rule="nonzero">
            <g id="Group-6" transform="translate(15.000000, 562.000000)">
                <g id="Brand/Chedraui-Logo-/-Orange" transform="translate(15.000000, 16.500000)">
                    <path d="M26.9531598,0.0245396736 C30.5266442,0.0245396736 34.0836845,0.0245396736 37.6715574,0.0245396736 C37.6715574,0.571237767 37.6756684,1.10365643 37.6653909,1.6360751 C37.6643631,1.68299322 37.5759767,1.75133048 37.517395,1.76764982 C37.4290085,1.79212884 37.3303446,1.77988933 37.2368194,1.77988933 C34.5482272,1.77988933 31.8586073,1.77988933 29.1700151,1.77988933 C28.7681651,1.77988933 28.7681651,1.77988933 28.7681651,2.18889294 C28.7681651,2.2398909 28.7722761,2.29088886 28.7671373,2.34188681 C28.7476101,2.53465909 28.8205803,2.62543545 29.0292134,2.61115602 C29.2337355,2.59789656 29.4403131,2.60809615 29.645863,2.60809615 C32.1977645,2.60809615 34.7496661,2.60809615 37.3015676,2.60809615 C37.4115368,2.60809615 37.521506,2.60809615 37.6540856,2.60809615 C37.6540856,3.20171236 37.6540856,3.77390943 37.6540856,4.3909847 C37.5492552,4.3909847 37.4423693,4.3909847 37.3354833,4.3909847 C34.6037257,4.3909847 31.871968,4.3909847 29.1402103,4.3909847 C28.7691928,4.3909847 28.7691928,4.3909847 28.7681651,4.75103028 C28.7671373,5.26814955 28.7455546,5.20899193 29.219347,5.20899193 C31.925411,5.21001188 34.6314749,5.20899193 37.3375388,5.21001188 C37.6746406,5.21001188 37.6746406,5.21103184 37.6756684,5.54251856 C37.6756684,6.00965984 37.6756684,6.47578116 37.6756684,6.96740146 C34.0960175,6.96740146 30.5338384,6.96740146 26.9541876,6.96740146 C26.9531598,4.6531142 26.9531598,2.34698661 26.9531598,0.0245396736 Z M6.16855137,0.00822032752 C7.58992867,0.00822032752 9.01130597,0.0143400823 10.4326833,0.00210057275 C10.6865373,6.06544913e-05 10.7553965,0.0765575892 10.7430636,0.318287903 C10.7235363,0.699752617 10.7204531,1.08427721 10.7440913,1.46472196 C10.7605353,1.73603109 10.6515939,1.79110888 10.404934,1.78906897 C9.14594113,1.77988933 7.88694822,1.78498913 6.62898306,1.78498913 C5.1562183,1.78498913 3.68345353,1.78498913 2.21068877,1.78498913 C1.86639275,1.78498913 1.84686551,1.80538831 1.84686551,2.14707462 C1.84583776,3.04769853 1.84583776,3.94832244 1.84686551,4.84996631 C1.84686551,5.18757278 1.869476,5.21001188 2.21479977,5.21001188 C4.91264171,5.21001188 7.6094559,5.20899193 10.3072978,5.21103184 C10.8047285,5.21103184 10.7338138,5.16105385 10.7389526,5.65165419 C10.7420358,6.00048021 10.7266196,6.34930623 10.7440913,6.69711229 C10.7564243,6.93068293 10.6803708,6.9990202 10.4429608,6.99800024 C8.16546828,6.98984056 5.88694806,6.99290044 3.60945558,6.99290044 C3.05241546,6.99290044 2.49640308,6.9990202 1.93936295,6.99086052 C0.9712231,6.9765811 0.249743083,6.40132415 0.0359712259,5.47928109 C0.00719424518,5.356886 0.00205549862,5.22735119 0.00205549862,5.10087626 C-0.00102774931,4.03807885 -1.42104981e-14,2.97630139 0.00102774931,1.91350398 C0.00102774931,0.946582726 0.521068901,0.290749006 1.47482026,0.0704378344 C1.64748215,0.0306594284 1.82939377,0.0112802049 2.00719441,0.0102602458 C3.39465598,0.00516045014 4.78211755,0.00822032752 6.16855137,0.00822032752 Z M21.3306401,0.0102602458 C21.9236515,0.0102602458 22.4776084,0.00618040926 23.032593,0.0173999597 C23.081925,0.0184199188 23.1405067,0.11021624 23.1744224,0.171413788 C23.1960051,0.211192194 23.1795612,0.271369783 23.1795612,0.322367739 C23.1795612,2.43878293 23.1744224,4.55417816 23.1846999,6.67059336 C23.1857276,6.9266031 23.1199517,7.01023975 22.8558201,6.9990202 C22.3614727,6.97760105 21.8660975,6.99290044 21.3470841,6.99290044 C21.3409176,6.87866502 21.3326956,6.78890862 21.3326956,6.69915221 C21.3316679,6.01883947 21.3265291,5.33954669 21.3357789,4.65923395 C21.3378344,4.46952156 21.2936412,4.38588491 21.0798693,4.38690487 C18.895902,4.39302462 16.7129625,4.39302462 14.5289952,4.38690487 C14.3172788,4.38588491 14.2679469,4.47054152 14.2689746,4.66025391 C14.2761689,5.33138702 14.2648636,6.00252013 14.2751411,6.67467319 C14.2782244,6.90722387 14.2175872,7.00921979 13.9575666,6.9990202 C13.4642469,6.97862101 12.9698995,6.99290044 12.4591081,6.99290044 C12.4591081,4.65617408 12.4591081,2.35004649 12.4591081,0.0112802049 C13.025398,0.0112802049 13.5793548,0.00414049101 14.1312562,0.0235197145 C14.1805882,0.0255596327 14.2628081,0.198952685 14.2648636,0.294828843 C14.2771966,0.940462971 14.2710301,1.5860971 14.2720579,2.23173123 C14.2720579,2.60911611 14.2730856,2.60911611 14.6523251,2.60911611 C16.7674332,2.60911611 18.8825413,2.60911611 20.9976494,2.60911611 C21.3326956,2.60911611 21.3326956,2.60809615 21.3326956,2.26844976 C21.3306401,1.52999935 21.3306401,0.791548938 21.3306401,0.0102602458 Z M86.268524,5.46500167 C87.3990483,5.46500167 88.5285448,5.45888191 89.659069,5.47010146 C89.8964791,5.47214138 89.9653383,5.40278416 89.9632828,5.1671736 C89.9540331,3.56991761 89.9581441,1.97266161 89.9581441,0.375405614 C89.9581441,0.00822032752 89.9591718,0.00822032752 90.3394391,0.00822032752 C90.6734576,0.00822032752 91.0074761,0.0143400823 91.3414946,0.00618040926 C91.4966848,0.00210057275 91.5501277,0.0561584066 91.5501277,0.211192194 C91.5460167,2.06343797 91.553211,3.91568375 91.536767,5.76792953 C91.5357393,5.92398327 91.4247423,6.11675555 91.3044957,6.22589118 C90.7957597,6.68895262 90.2191924,7.00921979 89.4925736,6.99494036 C87.9869209,6.96434159 86.4802404,6.95108212 84.9745876,6.92762306 C84.1616379,6.91538355 83.349716,6.89192449 82.5367663,6.88070494 C82.2407745,6.8766251 81.9786984,6.80012817 81.7618433,6.59919622 C81.5747929,6.42478321 81.3846593,6.25241011 81.2171362,6.06167776 C80.9345051,5.73937067 80.7772595,5.37830514 80.8039809,4.92442333 C80.8903119,3.46792169 80.9406716,2.00938014 81.016725,0.551858543 C81.045502,0.00618040926 81.0588628,0.00720036839 81.6066532,0.00720036839 C81.7947313,0.00720036839 81.9838371,0.00720036839 82.1719153,0.00720036839 C82.554238,0.00720036839 82.554238,0.00720036839 82.554238,0.398864674 C82.554238,1.96246202 82.554238,3.52605936 82.554238,5.08965671 C82.554238,5.46500167 82.554238,5.46500167 82.9303943,5.46500167 C84.042419,5.46500167 85.1554715,5.46500167 86.268524,5.46500167 Z M95.7307151,6.9765811 C95.7255764,6.87050535 95.7173544,6.77972898 95.7173544,6.68895262 C95.7163266,4.56539772 95.7204376,2.44184281 95.7111879,0.318287903 C95.7101601,0.0785975074 95.7656586,-0.019318569 96.0205404,0.00312053188 C96.2672003,0.0245396736 96.5169433,0.0163800006 96.7646309,0.00516045014 C96.9475703,-0.00401918202 97.0010133,0.0694178753 96.9999855,0.242810927 C96.9927913,0.845606772 96.99793,1.44840262 96.99793,2.05221842 C96.99793,3.59847646 96.9989578,5.14371454 96.99793,6.68997258 C96.99793,6.78074894 96.989708,6.87152531 96.9845693,6.97760105 C96.5611366,6.9765811 96.1562033,6.9765811 95.7307151,6.9765811 Z M64.6144397,2.96508184 C64.6308837,3.37408545 64.6134119,3.76676972 64.2547274,4.0717375 C64.6062177,4.43586291 64.6267727,4.86934554 64.6144397,5.32016747 C64.6000512,5.86278573 64.6113564,6.40540398 64.6113564,6.99290044 C64.4499998,6.99290044 64.3081704,6.99290044 64.1673687,6.99290044 C63.7819627,6.99290044 63.3965567,6.98372081 63.0111508,6.99596032 C62.8179339,7.00208007 62.7583244,6.92966298 62.7624354,6.74505037 C62.7716852,6.28606877 62.7665464,5.82708716 62.7644909,5.36810555 C62.7634632,5.05599806 62.7059092,4.99786039 62.3862792,4.99786039 C60.2372554,4.99684043 58.0872038,4.9999003 55.93818,4.99276059 C55.7172139,4.99174063 55.6606877,5.07129744 55.6658264,5.27528927 C55.6771317,5.76792953 55.6637709,6.26158975 55.6719929,6.75423001 C55.6750762,6.92456318 55.6257442,6.99800024 55.4407493,6.9939204 C54.9864841,6.98372081 54.5332467,6.98780065 54.0789815,6.99188048 C53.9494851,6.99290044 53.8724039,6.96944138 53.8724039,6.81236768 C53.8765149,4.5857969 53.8765149,2.35922612 53.8775426,0.132655341 C53.8775426,0.101036608 53.8898756,0.0694178753 53.9022086,0.00720036839 C54.0060113,0.00720036839 54.1067307,0.00720036839 54.2064224,0.00720036839 C57.049177,0.00720036839 59.8929593,0.0184199188 62.7357139,0.00108061362 C63.6072454,-0.00401918202 64.6832989,0.71913184 64.6144397,1.86862578 C64.5928569,2.23275119 64.6000512,2.59993647 64.6144397,2.96508184 Z M62.4972761,3.19049281 C62.6915207,3.19151277 62.7778517,3.13541502 62.7696297,2.92836331 C62.7552412,2.62339553 62.7583244,2.31638784 62.7686019,2.01142006 C62.7747684,1.82986733 62.698715,1.77784942 62.5260531,1.77784942 C60.3256418,1.78192925 58.1262583,1.78192925 55.925847,1.77682946 C55.7172139,1.7758095 55.6586322,1.85434635 55.6668542,2.04813859 C55.6791872,2.32760739 55.6853537,2.60911611 55.6658264,2.88858491 C55.6493824,3.13031522 55.7449631,3.19355269 55.975179,3.19151277 C57.053288,3.18233314 58.1324248,3.18743293 59.2105338,3.18743293 C60.3061146,3.18743293 61.4016953,3.18437305 62.4972761,3.19049281 Z M51.3464929,1.80334839 C51.3495761,2.97630139 51.3403264,4.14925439 51.3526594,5.32220739 C51.3577981,5.7536501 51.1954137,6.10145616 50.8973664,6.3901046 C50.497572,6.77768907 50.0196685,6.99494036 49.4472122,6.9939204 C46.6126796,6.99086052 43.7771192,6.99290044 40.9425866,6.99290044 C40.8428949,6.99290044 40.7432032,6.99290044 40.6270676,6.99290044 C40.6270676,4.6531142 40.6270676,2.34698661 40.6270676,0.0235197145 C40.7247038,0.0173999597 40.8079514,0.00822032752 40.8911991,0.00822032752 C43.700038,0.00822032752 46.5099046,0.00618040926 49.3187435,0.00924028665 C50.2262461,0.0102602458 51.0885278,0.629375437 51.3033274,1.42698348 C51.3362154,1.54733865 51.3464929,1.67789342 51.3464929,1.80334839 Z M49.5037384,4.94584247 C49.4965441,3.98606093 49.4944886,3.02525943 49.5068216,2.06649785 C49.5088771,1.84108688 49.4369347,1.77376958 49.2128853,1.7758095 C48.6692059,1.78090929 48.1255265,1.78192925 47.5818472,1.78192925 C47.0381678,1.78192925 46.4944884,1.78090929 45.950809,1.78090929 C45.4071296,1.78090929 44.8634502,1.78192925 44.3197708,1.78192925 C43.7760915,1.78192925 43.2324121,1.78090929 42.6887327,1.77784942 C42.4852383,1.7758095 42.3999351,1.82782741 42.4019906,2.04813859 C42.4122681,3.0160798 42.4112404,3.98504097 42.4030184,4.95298218 C42.4019906,5.15493409 42.4698221,5.21511168 42.6702332,5.21409172 C44.8613947,5.20797197 47.0525563,5.20797197 49.2437178,5.21409172 C49.4523509,5.21511168 49.5047661,5.1396347 49.5037384,4.94584247 Z M80.1454905,6.69099254 C80.2071554,6.76748947 80.2585429,6.85214608 80.3541236,6.98984056 C79.5545346,6.98984056 78.8289436,6.9939204 78.1023248,6.98270085 C78.0283269,6.98168089 77.9419959,6.89702428 77.884442,6.83072694 C77.6110607,6.51453961 77.3376793,6.19835228 77.0817698,5.86890548 C76.9533011,5.7036721 76.8094162,5.64349451 76.6018108,5.64451447 C74.7097243,5.65063423 72.8176379,5.64961427 70.9255514,5.64655439 C70.6346983,5.64655439 70.3438453,5.63329492 70.05402,5.61289574 C69.8741638,5.60065623 69.7487784,5.65981386 69.6367537,5.80158818 C69.3674834,6.14225453 69.0827969,6.47068137 68.8094155,6.80828784 C68.7066406,6.93680269 68.5946159,7.00004016 68.4188708,6.99698028 C67.7364453,6.98678069 67.052992,6.99290044 66.3078737,6.99290044 C66.3839272,6.87356522 66.4240094,6.79400841 66.4784801,6.72669111 C68.2246262,4.55723804 69.9728278,2.38982489 71.7158906,0.217311949 C71.841276,0.0612582022 71.9718002,6.06544913e-05 72.1711835,0.00312053188 C72.9584395,0.0133201232 73.7467232,6.06544913e-05 74.5339792,0.0143400823 C74.6501149,0.0163800006 74.801194,0.0867571804 74.8741642,0.175493625 C76.1763226,1.77274962 77.4692312,3.37816529 78.7641954,4.98154104 C79.2235993,5.55169819 79.6860865,6.12083539 80.1454905,6.69099254 Z M71.2400427,3.86570575 C72.6429205,3.86570575 73.9974941,3.86570575 75.4075661,3.86570575 C74.9800224,3.32104758 74.5545342,2.84064683 74.2040717,2.31128804 C73.9214406,1.88392517 73.5843388,1.67993334 73.0817694,1.78396917 C72.960495,1.80946815 72.8166101,1.86250602 72.7415844,1.95124247 C72.4075659,2.34902653 72.0930746,2.76312993 71.7734446,3.17213355 C71.6028382,3.3904048 71.435315,3.61173593 71.2400427,3.86570575 Z" id="Combined-Shape"></path>
                </g>
            </g>
        </g>
    </g>
</svg>