<svg width="227" height="53" viewBox="0 0 227 53" fill="none" xmlns="http://www.w3.org/2000/svg">
<path d="M62.782 43.784C62.87 43.784 62.942 43.812 62.998 43.868C63.054 43.924 63.082 43.996 63.082 44.084V45.56C63.082 45.648 63.054 45.724 62.998 45.788C62.942 45.844 62.87 45.872 62.782 45.872H61.306C61.226 45.872 61.154 45.844 61.09 45.788C61.034 45.724 61.006 45.648 61.006 45.56V44.084C61.006 43.996 61.034 43.924 61.09 43.868C61.154 43.812 61.226 43.784 61.306 43.784H62.782ZM62.734 46.436C62.822 46.436 62.894 46.464 62.95 46.52C63.006 46.576 63.034 46.648 63.034 46.736V51.884C63.034 51.972 63.006 52.044 62.95 52.1C62.894 52.156 62.822 52.184 62.734 52.184H61.354C61.274 52.184 61.202 52.156 61.138 52.1C61.082 52.044 61.054 51.972 61.054 51.884V46.736C61.054 46.648 61.082 46.576 61.138 46.52C61.202 46.464 61.274 46.436 61.354 46.436H62.734ZM68.5281 50.12C67.3841 50.12 66.4881 49.844 65.8401 49.292C65.2001 48.732 64.8601 47.924 64.8201 46.868C64.8121 46.652 64.8081 46.3 64.8081 45.812C64.8081 45.316 64.8121 44.956 64.8201 44.732C64.8601 43.692 65.2081 42.892 65.8641 42.332C66.5201 41.764 67.4081 41.48 68.5281 41.48C69.2321 41.48 69.8641 41.6 70.4241 41.84C70.9841 42.072 71.4241 42.408 71.7441 42.848C72.0721 43.28 72.2401 43.788 72.2481 44.372V44.396C72.2481 44.46 72.2201 44.516 72.1641 44.564C72.1161 44.604 72.0601 44.624 71.9961 44.624H70.3761C70.2721 44.624 70.1921 44.604 70.1361 44.564C70.0801 44.516 70.0321 44.432 69.9921 44.312C69.8801 43.904 69.7041 43.62 69.4641 43.46C69.2241 43.292 68.9081 43.208 68.5161 43.208C67.5721 43.208 67.0841 43.736 67.0521 44.792C67.0441 45.008 67.0401 45.34 67.0401 45.788C67.0401 46.236 67.0441 46.576 67.0521 46.808C67.0841 47.864 67.5721 48.392 68.5161 48.392C68.9081 48.392 69.2281 48.308 69.4761 48.14C69.7241 47.964 69.8961 47.68 69.9921 47.288C70.0241 47.168 70.0681 47.088 70.1241 47.048C70.1801 47 70.2641 46.976 70.3761 46.976H71.9961C72.0681 46.976 72.1281 47 72.1761 47.048C72.2321 47.096 72.2561 47.156 72.2481 47.228C72.2401 47.812 72.0721 48.324 71.7441 48.764C71.4241 49.196 70.9841 49.532 70.4241 49.772C69.8641 50.004 69.2321 50.12 68.5281 50.12ZM77.5379 50.12C76.4099 50.12 75.5259 49.844 74.8859 49.292C74.2539 48.74 73.9379 47.908 73.9379 46.796V41.9C73.9379 41.812 73.9659 41.74 74.0219 41.684C74.0859 41.628 74.1579 41.6 74.2379 41.6H75.7859C75.8739 41.6 75.9459 41.628 76.0019 41.684C76.0659 41.74 76.0979 41.812 76.0979 41.9V46.784C76.0979 47.304 76.2179 47.696 76.4579 47.96C76.7059 48.216 77.0619 48.344 77.5259 48.344C77.9819 48.344 78.3339 48.212 78.5819 47.948C78.8299 47.684 78.9539 47.296 78.9539 46.784V41.9C78.9539 41.812 78.9819 41.74 79.0379 41.684C79.1019 41.628 79.1739 41.6 79.2539 41.6H80.8139C80.9019 41.6 80.9739 41.628 81.0299 41.684C81.0859 41.74 81.1139 41.812 81.1139 41.9V46.796C81.1139 47.908 80.7939 48.74 80.1539 49.292C79.5219 49.844 78.6499 50.12 77.5379 50.12ZM83.5052 50C83.4252 50 83.3532 49.972 83.2892 49.916C83.2332 49.852 83.2052 49.78 83.2052 49.7V41.9C83.2052 41.812 83.2332 41.74 83.2892 41.684C83.3532 41.628 83.4252 41.6 83.5052 41.6H89.1092C89.1972 41.6 89.2692 41.628 89.3252 41.684C89.3812 41.74 89.4092 41.812 89.4092 41.9V43.028C89.4092 43.108 89.3812 43.18 89.3252 43.244C89.2692 43.3 89.1972 43.328 89.1092 43.328H85.2812V44.948H88.8452C88.9332 44.948 89.0052 44.98 89.0612 45.044C89.1172 45.1 89.1452 45.172 89.1452 45.26V46.304C89.1452 46.384 89.1172 46.456 89.0612 46.52C89.0052 46.576 88.9332 46.604 88.8452 46.604H85.2812V48.272H89.2052C89.2932 48.272 89.3652 48.3 89.4212 48.356C89.4772 48.412 89.5052 48.484 89.5052 48.572V49.7C89.5052 49.78 89.4772 49.852 89.4212 49.916C89.3652 49.972 89.2932 50 89.2052 50H83.5052ZM94.5013 50.12C93.7413 50.12 93.0893 50.008 92.5453 49.784C92.0013 49.56 91.5893 49.268 91.3093 48.908C91.0373 48.54 90.8933 48.14 90.8773 47.708C90.8773 47.644 90.9013 47.588 90.9493 47.54C91.0053 47.484 91.0693 47.456 91.1413 47.456H92.6533C92.7493 47.456 92.8253 47.476 92.8813 47.516C92.9453 47.548 93.0093 47.6 93.0733 47.672C93.1773 47.88 93.3453 48.052 93.5773 48.188C93.8093 48.324 94.1173 48.392 94.5013 48.392C94.9573 48.392 95.3053 48.32 95.5453 48.176C95.7853 48.032 95.9053 47.836 95.9053 47.588C95.9053 47.412 95.8413 47.268 95.7133 47.156C95.5933 47.044 95.4013 46.944 95.1373 46.856C94.8733 46.768 94.4813 46.668 93.9613 46.556C93.0013 46.356 92.2813 46.064 91.8013 45.68C91.3293 45.288 91.0933 44.732 91.0933 44.012C91.0933 43.524 91.2293 43.088 91.5013 42.704C91.7733 42.32 92.1613 42.02 92.6653 41.804C93.1693 41.588 93.7573 41.48 94.4293 41.48C95.1253 41.48 95.7293 41.6 96.2413 41.84C96.7533 42.08 97.1413 42.384 97.4053 42.752C97.6773 43.112 97.8213 43.468 97.8373 43.82C97.8373 43.892 97.8133 43.952 97.7653 44C97.7173 44.048 97.6573 44.072 97.5853 44.072H96.0013C95.9053 44.072 95.8253 44.056 95.7613 44.024C95.7053 43.992 95.6533 43.94 95.6053 43.868C95.5573 43.684 95.4253 43.528 95.2093 43.4C95.0013 43.272 94.7413 43.208 94.4293 43.208C94.0693 43.208 93.7933 43.272 93.6013 43.4C93.4093 43.528 93.3133 43.716 93.3133 43.964C93.3133 44.132 93.3653 44.272 93.4693 44.384C93.5813 44.496 93.7573 44.6 93.9973 44.696C94.2453 44.784 94.5973 44.876 95.0533 44.972C95.7973 45.108 96.3893 45.28 96.8293 45.488C97.2773 45.688 97.6053 45.952 97.8133 46.28C98.0213 46.6 98.1253 47.004 98.1253 47.492C98.1253 48.028 97.9693 48.496 97.6573 48.896C97.3533 49.288 96.9253 49.592 96.3733 49.808C95.8293 50.016 95.2053 50.12 94.5013 50.12ZM101.892 50C101.812 50 101.74 49.972 101.676 49.916C101.62 49.852 101.592 49.78 101.592 49.7V43.484H99.4563C99.3763 43.484 99.3043 43.456 99.2403 43.4C99.1843 43.336 99.1563 43.264 99.1563 43.184V41.9C99.1563 41.812 99.1843 41.74 99.2403 41.684C99.3043 41.628 99.3763 41.6 99.4563 41.6H105.912C106 41.6 106.072 41.628 106.128 41.684C106.184 41.74 106.212 41.812 106.212 41.9V43.184C106.212 43.272 106.184 43.344 106.128 43.4C106.072 43.456 106 43.484 105.912 43.484H103.776V49.7C103.776 49.78 103.748 49.852 103.692 49.916C103.636 49.972 103.564 50 103.476 50H101.892ZM106.467 50C106.403 50 106.343 49.976 106.287 49.928C106.239 49.872 106.215 49.812 106.215 49.748C106.215 49.7 106.219 49.664 106.227 49.64L109.047 41.936C109.071 41.84 109.123 41.76 109.203 41.696C109.283 41.632 109.387 41.6 109.515 41.6H111.291C111.419 41.6 111.523 41.632 111.603 41.696C111.683 41.76 111.735 41.84 111.759 41.936L114.567 49.64L114.591 49.748C114.591 49.812 114.563 49.872 114.507 49.928C114.459 49.976 114.399 50 114.327 50H112.851C112.659 50 112.531 49.916 112.467 49.748L111.999 48.524H108.795L108.339 49.748C108.275 49.916 108.143 50 107.943 50H106.467ZM111.519 46.796L110.403 43.628L109.287 46.796H111.519ZM119.087 50C119.007 50 118.935 49.972 118.871 49.916C118.815 49.852 118.787 49.78 118.787 49.7V41.9C118.787 41.812 118.815 41.74 118.871 41.684C118.935 41.628 119.007 41.6 119.087 41.6H120.383C120.575 41.6 120.715 41.688 120.803 41.864L122.915 45.644L125.027 41.864C125.115 41.688 125.255 41.6 125.447 41.6H126.731C126.819 41.6 126.891 41.628 126.947 41.684C127.011 41.74 127.043 41.812 127.043 41.9V49.7C127.043 49.788 127.011 49.86 126.947 49.916C126.891 49.972 126.819 50 126.731 50H125.303C125.215 50 125.139 49.972 125.075 49.916C125.019 49.86 124.991 49.788 124.991 49.7V45.2L123.647 47.708C123.543 47.892 123.403 47.984 123.227 47.984H122.603C122.499 47.984 122.415 47.96 122.351 47.912C122.287 47.864 122.231 47.796 122.183 47.708L120.827 45.2V49.7C120.827 49.78 120.799 49.852 120.743 49.916C120.687 49.972 120.615 50 120.527 50H119.087ZM129.525 50C129.445 50 129.373 49.972 129.309 49.916C129.253 49.852 129.225 49.78 129.225 49.7V41.9C129.225 41.812 129.253 41.74 129.309 41.684C129.373 41.628 129.445 41.6 129.525 41.6H135.129C135.217 41.6 135.289 41.628 135.345 41.684C135.401 41.74 135.429 41.812 135.429 41.9V43.028C135.429 43.108 135.401 43.18 135.345 43.244C135.289 43.3 135.217 43.328 135.129 43.328H131.301V44.948H134.865C134.953 44.948 135.025 44.98 135.081 45.044C135.137 45.1 135.165 45.172 135.165 45.26V46.304C135.165 46.384 135.137 46.456 135.081 46.52C135.025 46.576 134.953 46.604 134.865 46.604H131.301V48.272H135.225C135.313 48.272 135.385 48.3 135.441 48.356C135.497 48.412 135.525 48.484 135.525 48.572V49.7C135.525 49.78 135.497 49.852 135.441 49.916C135.385 49.972 135.313 50 135.225 50H129.525ZM137.689 50C137.609 50 137.537 49.972 137.473 49.916C137.417 49.852 137.389 49.78 137.389 49.7V41.9C137.389 41.812 137.417 41.74 137.473 41.684C137.537 41.628 137.609 41.6 137.689 41.6H138.961C139.161 41.6 139.297 41.676 139.369 41.828L142.297 46.436V41.9C142.297 41.812 142.325 41.74 142.381 41.684C142.445 41.628 142.517 41.6 142.597 41.6H144.037C144.125 41.6 144.197 41.628 144.253 41.684C144.309 41.74 144.337 41.812 144.337 41.9V49.688C144.337 49.776 144.309 49.852 144.253 49.916C144.197 49.972 144.125 50 144.037 50H142.753C142.577 50 142.445 49.924 142.357 49.772L139.429 45.332V49.7C139.429 49.78 139.401 49.852 139.345 49.916C139.289 49.972 139.217 50 139.129 50H137.689ZM149.946 50.12C148.818 50.12 147.93 49.844 147.282 49.292C146.634 48.74 146.29 47.928 146.25 46.856C146.242 46.624 146.238 46.28 146.238 45.824C146.238 45.36 146.242 45.012 146.25 44.78C146.29 43.724 146.638 42.912 147.294 42.344C147.958 41.768 148.842 41.48 149.946 41.48C151.05 41.48 151.934 41.768 152.598 42.344C153.262 42.912 153.61 43.724 153.642 44.78C153.658 45.244 153.666 45.592 153.666 45.824C153.666 46.048 153.658 46.392 153.642 46.856C153.602 47.928 153.258 48.74 152.61 49.292C151.962 49.844 151.074 50.12 149.946 50.12ZM149.946 48.392C150.386 48.392 150.734 48.26 150.99 47.996C151.254 47.732 151.394 47.328 151.41 46.784C151.426 46.32 151.434 45.992 151.434 45.8C151.434 45.592 151.426 45.264 151.41 44.816C151.394 44.272 151.254 43.868 150.99 43.604C150.726 43.34 150.378 43.208 149.946 43.208C149.514 43.208 149.166 43.34 148.902 43.604C148.646 43.868 148.506 44.272 148.482 44.816C148.474 45.04 148.47 45.368 148.47 45.8C148.47 46.224 148.474 46.552 148.482 46.784C148.506 47.328 148.646 47.732 148.902 47.996C149.158 48.26 149.506 48.392 149.946 48.392ZM158.689 50.12C157.929 50.12 157.277 50.008 156.733 49.784C156.189 49.56 155.777 49.268 155.497 48.908C155.225 48.54 155.081 48.14 155.065 47.708C155.065 47.644 155.089 47.588 155.137 47.54C155.193 47.484 155.257 47.456 155.329 47.456H156.841C156.937 47.456 157.013 47.476 157.069 47.516C157.133 47.548 157.197 47.6 157.261 47.672C157.365 47.88 157.533 48.052 157.765 48.188C157.997 48.324 158.305 48.392 158.689 48.392C159.145 48.392 159.493 48.32 159.733 48.176C159.973 48.032 160.093 47.836 160.093 47.588C160.093 47.412 160.029 47.268 159.901 47.156C159.781 47.044 159.589 46.944 159.325 46.856C159.061 46.768 158.669 46.668 158.149 46.556C157.189 46.356 156.469 46.064 155.989 45.68C155.517 45.288 155.281 44.732 155.281 44.012C155.281 43.524 155.417 43.088 155.689 42.704C155.961 42.32 156.349 42.02 156.853 41.804C157.357 41.588 157.945 41.48 158.617 41.48C159.313 41.48 159.917 41.6 160.429 41.84C160.941 42.08 161.329 42.384 161.593 42.752C161.865 43.112 162.009 43.468 162.025 43.82C162.025 43.892 162.001 43.952 161.953 44C161.905 44.048 161.845 44.072 161.773 44.072H160.189C160.093 44.072 160.013 44.056 159.949 44.024C159.893 43.992 159.841 43.94 159.793 43.868C159.745 43.684 159.613 43.528 159.397 43.4C159.189 43.272 158.929 43.208 158.617 43.208C158.257 43.208 157.981 43.272 157.789 43.4C157.597 43.528 157.501 43.716 157.501 43.964C157.501 44.132 157.553 44.272 157.657 44.384C157.769 44.496 157.945 44.6 158.185 44.696C158.433 44.784 158.785 44.876 159.241 44.972C159.985 45.108 160.577 45.28 161.017 45.488C161.465 45.688 161.793 45.952 162.001 46.28C162.209 46.6 162.313 47.004 162.313 47.492C162.313 48.028 162.157 48.496 161.845 48.896C161.541 49.288 161.113 49.592 160.561 49.808C160.017 50.016 159.393 50.12 158.689 50.12ZM164.23 47.348C164.15 47.348 164.078 47.32 164.014 47.264C163.958 47.2 163.93 47.128 163.93 47.048V41.9C163.93 41.812 163.958 41.74 164.014 41.684C164.078 41.628 164.15 41.6 164.23 41.6H165.61C165.698 41.6 165.77 41.628 165.826 41.684C165.882 41.74 165.91 41.812 165.91 41.9V47.048C165.91 47.128 165.882 47.2 165.826 47.264C165.77 47.32 165.698 47.348 165.61 47.348H164.23ZM164.182 50C164.094 50 164.022 49.972 163.966 49.916C163.91 49.86 163.882 49.788 163.882 49.7V48.224C163.882 48.136 163.91 48.064 163.966 48.008C164.022 47.944 164.094 47.912 164.182 47.912H165.658C165.738 47.912 165.806 47.944 165.862 48.008C165.926 48.064 165.958 48.136 165.958 48.224V49.7C165.958 49.78 165.93 49.852 165.874 49.916C165.818 49.972 165.746 50 165.658 50H164.182Z" fill="#212B36"/>
<path d="M51.3248 11C51.2608 11 51.2008 10.976 51.1448 10.928C51.0968 10.872 51.0728 10.812 51.0728 10.748C51.0728 10.7 51.0768 10.664 51.0848 10.64L53.9048 2.936C53.9288 2.84 53.9808 2.76 54.0608 2.696C54.1408 2.632 54.2448 2.6 54.3728 2.6H56.1488C56.2768 2.6 56.3808 2.632 56.4608 2.696C56.5408 2.76 56.5928 2.84 56.6168 2.936L59.4248 10.64L59.4488 10.748C59.4488 10.812 59.4208 10.872 59.3648 10.928C59.3168 10.976 59.2568 11 59.1848 11H57.7088C57.5168 11 57.3888 10.916 57.3248 10.748L56.8568 9.524H53.6528L53.1968 10.748C53.1328 10.916 53.0008 11 52.8008 11H51.3248ZM56.3768 7.796L55.2608 4.628L54.1448 7.796H56.3768ZM61.1947 11C61.1067 11 61.0347 10.972 60.9787 10.916C60.9227 10.86 60.8947 10.788 60.8947 10.7V2.9C60.8947 2.812 60.9227 2.74 60.9787 2.684C61.0427 2.628 61.1147 2.6 61.1947 2.6H62.7427C62.8307 2.6 62.9027 2.628 62.9587 2.684C63.0227 2.74 63.0547 2.812 63.0547 2.9V5.792H66.0067V2.9C66.0067 2.812 66.0347 2.74 66.0907 2.684C66.1467 2.628 66.2187 2.6 66.3067 2.6H67.8547C67.9427 2.6 68.0147 2.628 68.0707 2.684C68.1267 2.74 68.1547 2.812 68.1547 2.9V10.7C68.1547 10.788 68.1267 10.86 68.0707 10.916C68.0147 10.972 67.9427 11 67.8547 11H66.3067C66.2187 11 66.1467 10.972 66.0907 10.916C66.0347 10.86 66.0067 10.788 66.0067 10.7V7.712H63.0547V10.7C63.0547 10.788 63.0227 10.86 62.9587 10.916C62.9027 10.972 62.8307 11 62.7427 11H61.1947ZM73.7681 11.12C72.6401 11.12 71.7521 10.844 71.1041 10.292C70.4561 9.74 70.1121 8.928 70.0721 7.856C70.0641 7.624 70.0601 7.28 70.0601 6.824C70.0601 6.36 70.0641 6.012 70.0721 5.78C70.1121 4.724 70.4601 3.912 71.1161 3.344C71.7801 2.768 72.6641 2.48 73.7681 2.48C74.8721 2.48 75.7561 2.768 76.4201 3.344C77.0841 3.912 77.4321 4.724 77.4641 5.78C77.4801 6.244 77.4881 6.592 77.4881 6.824C77.4881 7.048 77.4801 7.392 77.4641 7.856C77.4241 8.928 77.0801 9.74 76.4321 10.292C75.7841 10.844 74.8961 11.12 73.7681 11.12ZM73.7681 9.392C74.2081 9.392 74.5561 9.26 74.8121 8.996C75.0761 8.732 75.2161 8.328 75.2321 7.784C75.2481 7.32 75.2561 6.992 75.2561 6.8C75.2561 6.592 75.2481 6.264 75.2321 5.816C75.2161 5.272 75.0761 4.868 74.8121 4.604C74.5481 4.34 74.2001 4.208 73.7681 4.208C73.3361 4.208 72.9881 4.34 72.7241 4.604C72.4681 4.868 72.3281 5.272 72.3041 5.816C72.2961 6.04 72.2921 6.368 72.2921 6.8C72.2921 7.224 72.2961 7.552 72.3041 7.784C72.3281 8.328 72.4681 8.732 72.7241 8.996C72.9801 9.26 73.3281 9.392 73.7681 9.392ZM79.6791 11C79.5991 11 79.5271 10.972 79.4631 10.916C79.4071 10.852 79.3791 10.78 79.3791 10.7V2.9C79.3791 2.812 79.4071 2.74 79.4631 2.684C79.5271 2.628 79.5991 2.6 79.6791 2.6H82.9431C83.9911 2.6 84.8071 2.84 85.3911 3.32C85.9831 3.792 86.2791 4.464 86.2791 5.336C86.2791 5.896 86.1471 6.372 85.8831 6.764C85.6191 7.156 85.2551 7.456 84.7911 7.664L86.4351 10.616C86.4591 10.664 86.4711 10.708 86.4711 10.748C86.4711 10.812 86.4431 10.872 86.3871 10.928C86.3391 10.976 86.2831 11 86.2191 11H84.6231C84.3911 11 84.2271 10.892 84.1311 10.676L82.7631 8.036H81.5391V10.7C81.5391 10.788 81.5071 10.86 81.4431 10.916C81.3871 10.972 81.3151 11 81.2271 11H79.6791ZM82.9191 6.332C83.2871 6.332 83.5671 6.244 83.7591 6.068C83.9511 5.884 84.0471 5.632 84.0471 5.312C84.0471 4.992 83.9511 4.74 83.7591 4.556C83.5751 4.364 83.2951 4.268 82.9191 4.268H81.5391V6.332H82.9191ZM88.4759 11C88.3959 11 88.3239 10.972 88.2599 10.916C88.2039 10.852 88.1759 10.78 88.1759 10.7V2.9C88.1759 2.812 88.2039 2.74 88.2599 2.684C88.3239 2.628 88.3959 2.6 88.4759 2.6H91.7399C92.7879 2.6 93.6039 2.84 94.1879 3.32C94.7799 3.792 95.0759 4.464 95.0759 5.336C95.0759 5.896 94.9439 6.372 94.6799 6.764C94.4159 7.156 94.0519 7.456 93.5879 7.664L95.2319 10.616C95.2559 10.664 95.2679 10.708 95.2679 10.748C95.2679 10.812 95.2399 10.872 95.1839 10.928C95.1359 10.976 95.0799 11 95.0159 11H93.4199C93.1879 11 93.0239 10.892 92.9279 10.676L91.5599 8.036H90.3359V10.7C90.3359 10.788 90.3039 10.86 90.2399 10.916C90.1839 10.972 90.1119 11 90.0239 11H88.4759ZM91.7159 6.332C92.0839 6.332 92.3639 6.244 92.5559 6.068C92.7479 5.884 92.8439 5.632 92.8439 5.312C92.8439 4.992 92.7479 4.74 92.5559 4.556C92.3719 4.364 92.0919 4.268 91.7159 4.268H90.3359V6.332H91.7159ZM96.4928 11C96.4288 11 96.3688 10.976 96.3128 10.928C96.2648 10.872 96.2408 10.812 96.2408 10.748C96.2408 10.7 96.2448 10.664 96.2528 10.64L99.0728 2.936C99.0968 2.84 99.1488 2.76 99.2288 2.696C99.3088 2.632 99.4128 2.6 99.5408 2.6H101.317C101.445 2.6 101.549 2.632 101.629 2.696C101.709 2.76 101.761 2.84 101.785 2.936L104.593 10.64L104.617 10.748C104.617 10.812 104.589 10.872 104.533 10.928C104.485 10.976 104.425 11 104.353 11H102.877C102.685 11 102.557 10.916 102.493 10.748L102.025 9.524H98.8208L98.3648 10.748C98.3008 10.916 98.1688 11 97.9688 11H96.4928ZM101.545 7.796L100.429 4.628L99.3128 7.796H101.545ZM110.933 11C110.853 11 110.781 10.972 110.717 10.916C110.661 10.852 110.633 10.78 110.633 10.7V8.12L107.849 2.984C107.825 2.912 107.813 2.868 107.813 2.852C107.813 2.788 107.837 2.732 107.885 2.684C107.941 2.628 108.005 2.6 108.077 2.6H109.577C109.737 2.6 109.877 2.684 109.997 2.852L111.713 5.948L113.441 2.852C113.537 2.684 113.677 2.6 113.861 2.6H115.361C115.433 2.6 115.493 2.628 115.541 2.684C115.589 2.732 115.613 2.788 115.613 2.852C115.613 2.892 115.605 2.936 115.589 2.984L112.805 8.12V10.7C112.805 10.788 112.773 10.86 112.709 10.916C112.653 10.972 112.581 11 112.493 11H110.933ZM122.988 11.12C122.228 11.12 121.576 11.008 121.032 10.784C120.488 10.56 120.076 10.268 119.796 9.908C119.524 9.54 119.38 9.14 119.364 8.708C119.364 8.644 119.388 8.588 119.436 8.54C119.492 8.484 119.556 8.456 119.628 8.456H121.14C121.236 8.456 121.312 8.476 121.368 8.516C121.432 8.548 121.496 8.6 121.56 8.672C121.664 8.88 121.832 9.052 122.064 9.188C122.296 9.324 122.604 9.392 122.988 9.392C123.444 9.392 123.792 9.32 124.032 9.176C124.272 9.032 124.392 8.836 124.392 8.588C124.392 8.412 124.328 8.268 124.2 8.156C124.08 8.044 123.888 7.944 123.624 7.856C123.36 7.768 122.968 7.668 122.448 7.556C121.488 7.356 120.768 7.064 120.288 6.68C119.816 6.288 119.58 5.732 119.58 5.012C119.58 4.524 119.716 4.088 119.988 3.704C120.26 3.32 120.648 3.02 121.152 2.804C121.656 2.588 122.244 2.48 122.916 2.48C123.612 2.48 124.216 2.6 124.728 2.84C125.24 3.08 125.628 3.384 125.892 3.752C126.164 4.112 126.308 4.468 126.324 4.82C126.324 4.892 126.3 4.952 126.252 5C126.204 5.048 126.144 5.072 126.072 5.072H124.488C124.392 5.072 124.312 5.056 124.248 5.024C124.192 4.992 124.14 4.94 124.092 4.868C124.044 4.684 123.912 4.528 123.696 4.4C123.488 4.272 123.228 4.208 122.916 4.208C122.556 4.208 122.28 4.272 122.088 4.4C121.896 4.528 121.8 4.716 121.8 4.964C121.8 5.132 121.852 5.272 121.956 5.384C122.068 5.496 122.244 5.6 122.484 5.696C122.732 5.784 123.084 5.876 123.54 5.972C124.284 6.108 124.876 6.28 125.316 6.488C125.764 6.688 126.092 6.952 126.3 7.28C126.508 7.6 126.612 8.004 126.612 8.492C126.612 9.028 126.456 9.496 126.144 9.896C125.84 10.288 125.412 10.592 124.86 10.808C124.316 11.016 123.692 11.12 122.988 11.12ZM128.613 11C128.533 11 128.461 10.972 128.397 10.916C128.341 10.852 128.313 10.78 128.313 10.7V2.9C128.313 2.812 128.341 2.74 128.397 2.684C128.461 2.628 128.533 2.6 128.613 2.6H130.221C130.309 2.6 130.381 2.628 130.437 2.684C130.501 2.74 130.533 2.812 130.533 2.9V10.7C130.533 10.788 130.501 10.86 130.437 10.916C130.381 10.972 130.309 11 130.221 11H128.613ZM133.003 11C132.923 11 132.851 10.972 132.787 10.916C132.731 10.852 132.703 10.78 132.703 10.7V2.9C132.703 2.812 132.731 2.74 132.787 2.684C132.851 2.628 132.923 2.6 133.003 2.6H138.607C138.695 2.6 138.767 2.628 138.823 2.684C138.879 2.74 138.907 2.812 138.907 2.9V4.028C138.907 4.108 138.879 4.18 138.823 4.244C138.767 4.3 138.695 4.328 138.607 4.328H134.779V5.948H138.343C138.431 5.948 138.503 5.98 138.559 6.044C138.615 6.1 138.643 6.172 138.643 6.26V7.304C138.643 7.384 138.615 7.456 138.559 7.52C138.503 7.576 138.431 7.604 138.343 7.604H134.779V9.272H138.703C138.791 9.272 138.863 9.3 138.919 9.356C138.975 9.412 139.003 9.484 139.003 9.572V10.7C139.003 10.78 138.975 10.852 138.919 10.916C138.863 10.972 138.791 11 138.703 11H133.003ZM141.167 11C141.087 11 141.015 10.972 140.951 10.916C140.895 10.852 140.867 10.78 140.867 10.7V2.9C140.867 2.812 140.895 2.74 140.951 2.684C141.015 2.628 141.087 2.6 141.167 2.6H142.463C142.655 2.6 142.795 2.688 142.883 2.864L144.995 6.644L147.107 2.864C147.195 2.688 147.335 2.6 147.527 2.6H148.811C148.899 2.6 148.971 2.628 149.027 2.684C149.091 2.74 149.123 2.812 149.123 2.9V10.7C149.123 10.788 149.091 10.86 149.027 10.916C148.971 10.972 148.899 11 148.811 11H147.383C147.295 11 147.219 10.972 147.155 10.916C147.099 10.86 147.071 10.788 147.071 10.7V6.2L145.727 8.708C145.623 8.892 145.483 8.984 145.307 8.984H144.683C144.579 8.984 144.495 8.96 144.431 8.912C144.367 8.864 144.311 8.796 144.263 8.708L142.907 6.2V10.7C142.907 10.78 142.879 10.852 142.823 10.916C142.767 10.972 142.695 11 142.607 11H141.167ZM151.605 11C151.525 11 151.453 10.972 151.389 10.916C151.333 10.852 151.305 10.78 151.305 10.7V2.9C151.305 2.812 151.333 2.74 151.389 2.684C151.453 2.628 151.525 2.6 151.605 2.6H154.965C155.989 2.6 156.793 2.836 157.377 3.308C157.969 3.78 158.265 4.468 158.265 5.372C158.265 6.268 157.973 6.944 157.389 7.4C156.805 7.848 155.997 8.072 154.965 8.072H153.537V10.7C153.537 10.788 153.505 10.86 153.441 10.916C153.385 10.972 153.313 11 153.225 11H151.605ZM154.905 6.416C155.257 6.416 155.533 6.328 155.733 6.152C155.933 5.968 156.033 5.7 156.033 5.348C156.033 5.02 155.937 4.76 155.745 4.568C155.561 4.368 155.281 4.268 154.905 4.268H153.501V6.416H154.905ZM160.214 11C160.134 11 160.062 10.972 159.998 10.916C159.942 10.852 159.914 10.78 159.914 10.7V2.9C159.914 2.812 159.942 2.74 159.998 2.684C160.062 2.628 160.134 2.6 160.214 2.6H163.478C164.526 2.6 165.342 2.84 165.926 3.32C166.518 3.792 166.814 4.464 166.814 5.336C166.814 5.896 166.682 6.372 166.418 6.764C166.154 7.156 165.79 7.456 165.326 7.664L166.97 10.616C166.994 10.664 167.006 10.708 167.006 10.748C167.006 10.812 166.978 10.872 166.922 10.928C166.874 10.976 166.818 11 166.754 11H165.158C164.926 11 164.762 10.892 164.666 10.676L163.298 8.036H162.074V10.7C162.074 10.788 162.042 10.86 161.978 10.916C161.922 10.972 161.85 11 161.762 11H160.214ZM163.454 6.332C163.822 6.332 164.102 6.244 164.294 6.068C164.486 5.884 164.582 5.632 164.582 5.312C164.582 4.992 164.486 4.74 164.294 4.556C164.11 4.364 163.83 4.268 163.454 4.268H162.074V6.332H163.454ZM169.011 11C168.931 11 168.859 10.972 168.795 10.916C168.739 10.852 168.711 10.78 168.711 10.7V2.9C168.711 2.812 168.739 2.74 168.795 2.684C168.859 2.628 168.931 2.6 169.011 2.6H174.615C174.703 2.6 174.775 2.628 174.831 2.684C174.887 2.74 174.915 2.812 174.915 2.9V4.028C174.915 4.108 174.887 4.18 174.831 4.244C174.775 4.3 174.703 4.328 174.615 4.328H170.787V5.948H174.351C174.439 5.948 174.511 5.98 174.567 6.044C174.623 6.1 174.651 6.172 174.651 6.26V7.304C174.651 7.384 174.623 7.456 174.567 7.52C174.511 7.576 174.439 7.604 174.351 7.604H170.787V9.272H174.711C174.799 9.272 174.871 9.3 174.927 9.356C174.983 9.412 175.011 9.484 175.011 9.572V10.7C175.011 10.78 174.983 10.852 174.927 10.916C174.871 10.972 174.799 11 174.711 11H169.011Z" fill="#212B36"/>
<path d="M110.032 21.1C109.345 21.1 108.795 20.89 108.382 20.47C107.975 20.0433 107.752 19.4633 107.712 18.73L107.702 18.39L107.712 18.06C107.758 17.34 107.985 16.7667 108.392 16.34C108.805 15.9133 109.348 15.7 110.022 15.7C110.762 15.7 111.335 15.9367 111.742 16.41C112.148 16.8767 112.352 17.51 112.352 18.31V18.48C112.352 18.5467 112.328 18.6033 112.282 18.65C112.242 18.69 112.188 18.71 112.122 18.71H108.662V18.8C108.682 19.2333 108.812 19.6033 109.052 19.91C109.298 20.21 109.622 20.36 110.022 20.36C110.328 20.36 110.578 20.3 110.772 20.18C110.972 20.0533 111.118 19.9233 111.212 19.79C111.272 19.71 111.315 19.6633 111.342 19.65C111.375 19.63 111.432 19.62 111.512 19.62H112.002C112.062 19.62 112.112 19.6367 112.152 19.67C112.192 19.7033 112.212 19.75 112.212 19.81C112.212 19.9567 112.118 20.1333 111.932 20.34C111.752 20.5467 111.495 20.7267 111.162 20.88C110.835 21.0267 110.458 21.1 110.032 21.1ZM111.402 18.02V17.99C111.402 17.53 111.275 17.1567 111.022 16.87C110.775 16.5767 110.442 16.43 110.022 16.43C109.602 16.43 109.268 16.5767 109.022 16.87C108.782 17.1567 108.662 17.53 108.662 17.99V18.02H111.402ZM114.236 21C114.169 21 114.112 20.98 114.066 20.94C114.026 20.8933 114.006 20.8367 114.006 20.77V16.03C114.006 15.9633 114.026 15.91 114.066 15.87C114.112 15.8233 114.169 15.8 114.236 15.8H114.706C114.772 15.8 114.826 15.8233 114.866 15.87C114.912 15.91 114.936 15.9633 114.936 16.03V16.47C115.129 16.2233 115.356 16.0333 115.616 15.9C115.882 15.7667 116.212 15.7 116.606 15.7C117.246 15.7 117.742 15.9067 118.096 16.32C118.456 16.7267 118.636 17.27 118.636 17.95V20.77C118.636 20.8367 118.612 20.8933 118.566 20.94C118.526 20.98 118.472 21 118.406 21H117.906C117.839 21 117.782 20.98 117.736 20.94C117.696 20.8933 117.676 20.8367 117.676 20.77V18C117.676 17.5267 117.559 17.16 117.326 16.9C117.099 16.64 116.769 16.51 116.336 16.51C115.916 16.51 115.582 16.6433 115.336 16.91C115.089 17.17 114.966 17.5333 114.966 18V20.77C114.966 20.8367 114.942 20.8933 114.896 20.94C114.856 20.98 114.802 21 114.736 21H114.236Z" fill="#637381"/>
<path fill-rule="evenodd" clip-rule="evenodd" d="M62.348 25.9603V27.4523H49.8864C49.5477 27.4523 49.5477 27.6938 49.5477 27.8968V32.2331C49.5477 32.4343 49.674 32.516 49.9285 32.516H62.348V34.2943L62.3459 34.2944L62.3402 34.9934C62.3402 34.9934 50.6071 35.0083 49.9736 34.9934C48.2844 34.9543 47 34.025 47 32.1303C47 31.6456 47.0174 28.4202 47.0174 27.5738C47.0174 26.1213 48.158 25 50.0578 25C50.6919 25 62.348 25.0058 62.348 25.0058V25.9603Z" fill="#F57C00"/>
<path fill-rule="evenodd" clip-rule="evenodd" d="M65.9201 34.9919L65.92 35H64.1191V25.0012H65.6689L66.6351 25V28.7492L76.8846 28.7538V25.0012L77.8687 25V25.0067H79.4672L79.4504 34.9918H77.8685L76.8856 34.9988V31.2214L66.6348 31.2208V34.9919H65.9201Z" fill="#F57C00"/>
<path fill-rule="evenodd" clip-rule="evenodd" d="M99.5252 34.0345L99.5371 35H84.1895V25H99.5371L99.5312 25.4756H99.5375L99.5249 27.441H86.7082V28.7488L99.5375 28.7534V30.6179V31.254L86.7082 31.2436V32.5169H99.5249V34.0345H99.5252Z" fill="#F57C00"/>
<path fill-rule="evenodd" clip-rule="evenodd" d="M136.048 34.9996L136.176 34.9997L136.176 34.9995L136.724 34.9988V32.0869C136.724 31.5227 136.403 31.0373 136.154 30.836C136.321 30.6755 136.727 30.2712 136.727 29.7875C136.727 29.7264 136.727 29.6499 136.727 29.562C136.727 28.9538 136.728 27.8017 136.718 27.4484C136.677 25.9559 135.327 25.0023 134.044 25.0023C133.423 25.0023 121.379 25 121.379 25V34.9908L122.353 34.9977L122.353 34.9911H123.867V32.0826C123.867 32.0826 133.306 32.0883 133.678 32.0883C134.051 32.0883 134.175 32.2574 134.175 32.6209V34.9986L135.739 35L136.048 34.9996ZM134.171 29.6253H123.866V27.4409H134.171V29.6253Z" fill="#F57C00"/>
<path fill-rule="evenodd" clip-rule="evenodd" d="M155.311 35L157.337 34.9986L157.337 34.9995L158.569 34.9983L150.526 25H146.517L138.498 34.9983L139.747 34.9983H141.777L143.413 33.019L153.667 33.023L155.311 35ZM151.647 30.5948H145.396L147.853 27.4435L149.19 27.4424L151.647 30.5948Z" fill="#F57C00"/>
<path fill-rule="evenodd" clip-rule="evenodd" d="M179.229 25.0069L180.968 25L181 35H179.229V25.0069Z" fill="#F57C00"/>
<path fill-rule="evenodd" clip-rule="evenodd" d="M160.973 25V32.8827H171.728V25L173.916 25.0109C173.916 25.0109 173.916 32.6518 173.916 33.243C173.916 34.0472 172.038 35 171.305 35L160.672 34.7929C160.07 34.7929 158.568 33.2506 158.568 32.4898C158.568 32.1484 158.898 25 158.898 25H160.973Z" fill="#F57C00"/>
<path fill-rule="evenodd" clip-rule="evenodd" d="M115.374 25H103.079V34.9965C103.079 34.9965 114.862 35 115.708 35C117.088 35 118.427 33.898 118.427 32.7288V27.5663C118.427 26.0732 116.879 25 115.374 25ZM115.845 32.5153H105.576V27.4414H115.845V32.5153Z" fill="#F57C00"/>
</svg>
