<svg xmlns="http://www.w3.org/2000/svg" width="158" height="12"><path fill="#F57C00" fill-rule="nonzero" d="M44.12.04h17.54V2.8c0 .09-.15.2-.25.23-.14.04-.3.02-.46.02h-13.2c-.66 0-.66 0-.66.7v.26c-.03.34.09.5.43.47.33-.03.67 0 1 0h13.12v3.05H47.7c-.6 0-.6 0-.6.61-.01.9-.05.79.73.79h13.29c.55 0 .55 0 .55.57v2.44H44.12V.04zM10.39.01h6.9c.4-.01.52.12.5.54-.03.65-.04 1.3 0 1.96.03.47-.15.56-.55.56-2.04-.02-4.07-.01-6.1-.01H3.98c-.56 0-.6.03-.6.62v4.63c0 .58.04.62.6.62h13.1c.8 0 .68-.08.7.76 0 .6-.03 1.2 0 1.8.02.4-.1.5-.49.5H3.55a3.1 3.1 0 0 1-3.08-2.6 3.02 3.02 0 0 1-.06-.65V3.28C.41 1.62 1.25.5 2.8.12c.27-.07.57-.1.86-.1 2.24-.01 4.49 0 6.73 0zm26.28 0c.97 0 1.88 0 2.79.02.08 0 .17.16.23.26.03.07 0 .18 0 .26l.01 10.89c0 .43-.1.58-.53.56-.81-.04-1.62-.01-2.47-.01l-.03-.5v-3.5c.01-.33-.06-.47-.41-.47H25.54c-.35 0-.43.14-.42.47v3.45c.01.4-.09.58-.51.56-.81-.04-1.62-.01-2.46-.01V.02C23.08.02 24 0 24.9.04c.08 0 .22.3.22.47.02 1.1 0 2.2.01 3.32 0 .64 0 .64.62.64h10.39c.54 0 .54 0 .54-.58V.02zm104.98 9.36h5.65c.39.01.5-.1.5-.51V.64c0-.63 0-.63.63-.63h1.67c.25 0 .34.09.34.35 0 3.18 0 6.35-.02 9.53 0 .27-.19.6-.39.78a4.2 4.2 0 0 1-3.01 1.32c-2.5-.05-5.01-.07-7.52-.11-1.35-.03-2.7-.07-4.06-.08-.5-.01-.93-.14-1.29-.49-.3-.3-.63-.6-.9-.92a2.65 2.65 0 0 1-.7-1.95c.15-2.5.24-5 .36-7.5.05-.93.07-.93.98-.93h.94c.64 0 .64 0 .64.67v8.05c0 .64 0 .64.63.64h5.55zm12.88 2.59l-.02-.5c0-3.63 0-7.27-.02-10.91 0-.42.12-.58.65-.54.52.03 1.04.02 1.56 0 .38-.02.5.1.5.4-.02 1.04-.01 2.07-.01 3.1v7.96l-.03.5-2.63-.01zm-48.65-6.88c.03.7 0 1.38-.6 1.9.59.63.62 1.37.6 2.14-.02.94 0 1.87 0 2.87h-2.67c-.32.02-.42-.1-.41-.42V9.2c0-.54-.1-.64-.63-.64H91.44c-.37 0-.46.13-.46.48.02.84 0 1.69.01 2.53.01.3-.07.42-.38.42-.76-.02-1.51-.01-2.27 0-.21 0-.34-.05-.34-.32V.23c0-.06.03-.11.05-.22h.5c4.74 0 9.47.02 14.2-.01 1.45 0 3.25 1.23 3.13 3.2a19.7 19.7 0 0 0 0 1.88zm-3.48.33c.32 0 .46-.1.45-.44-.02-.51-.02-1.03 0-1.54 0-.3-.12-.39-.4-.39H91.46c-.34 0-.44.13-.43.46.02.46.03.93 0 1.4-.03.4.13.51.51.5h10.85zM83.6 3.08l.01 6.05c0 .74-.26 1.34-.74 1.83A3.22 3.22 0 0 1 80.49 12H66.06V.03l.43-.03h13.8c1.48 0 2.89 1.07 3.24 2.44.05.2.07.43.07.64zM80.57 8.5c-.01-1.65-.02-3.3 0-4.96 0-.39-.11-.5-.48-.5l-2.67.01H69.4c-.33 0-.47.08-.47.46.02 1.67.01 3.33 0 5 0 .35.11.45.44.45h10.77c.34 0 .43-.13.43-.46zm49.3 2.97l.32.52-3.54-.01c-.12 0-.26-.15-.35-.27-.43-.54-.86-1.08-1.26-1.65a.83.83 0 0 0-.76-.38h-8.93c-.46 0-.92-.02-1.37-.05-.28-.03-.48.08-.66.32-.42.58-.87 1.15-1.3 1.73-.16.22-.34.33-.62.32-1.07-.02-2.14 0-3.32 0 .12-.21.19-.35.27-.46L116.6.37c.2-.27.4-.38.72-.37 1.24.02 2.48 0 3.72.02.18 0 .42.12.54.28l6.12 8.24 2.17 2.93zM115.84 6.6h6.58c-.68-.92-1.35-1.72-1.9-2.61-.45-.72-.98-1.07-1.78-.9-.19.05-.41.14-.53.29-.53.67-1.03 1.37-1.53 2.05l-.84 1.17z"/></svg>