<svg width="188" height="14" viewBox="0 0 188 14" fill="none" xmlns="http://www.w3.org/2000/svg">
<path fill-rule="evenodd" clip-rule="evenodd" d="M21.4184 1.34441V3.43323H4.02797C3.55533 3.43323 3.55533 3.77135 3.55533 4.05552V10.1263C3.55533 10.4081 3.73162 10.5224 4.08674 10.5224H21.4184V13.012L21.4155 13.0121L21.4075 13.9907C21.4075 13.9907 5.03371 14.0116 4.1497 13.9907C1.79236 13.936 0 12.635 0 9.98243C0 9.30379 0.0243458 4.78835 0.0243458 3.60334C0.0243458 1.56982 1.61606 0 4.26723 0C5.15208 0 21.4184 0.00805035 21.4184 0.00805035V1.34441Z" fill="#F57C00"/>
<path fill-rule="evenodd" clip-rule="evenodd" d="M26.404 13.9886L26.4038 14H23.8906V0.00161058H26.0534L27.4016 0V5.24889L41.7051 5.25534V0.00161058L43.0784 0V0.00942192H45.3091L45.2857 13.9885H43.0781L41.7064 13.9983V8.70996L27.4013 8.70915V13.9886H26.404Z" fill="#F57C00"/>
<path fill-rule="evenodd" clip-rule="evenodd" d="M73.3007 12.6483L73.3174 14H51.8994V0H73.3174L73.3091 0.665834H73.3179L73.3003 3.41735H55.4144V5.24831L73.3179 5.25475V7.86504V8.75556L55.4144 8.74106V10.5237H73.3003V12.6483H73.3007Z" fill="#F57C00"/>
<path fill-rule="evenodd" clip-rule="evenodd" d="M124.268 13.9995L124.446 13.9996L124.446 13.9993L125.212 13.9984V9.92167C125.212 9.13177 124.763 8.45218 124.416 8.17036C124.649 7.94571 125.215 7.37965 125.215 6.70248C125.215 6.61694 125.215 6.50986 125.215 6.38692C125.216 5.53539 125.216 3.92237 125.203 3.42773C125.146 1.33824 123.262 0.0032208 121.472 0.0032208C120.605 0.0032208 103.797 0 103.797 0V13.9871L105.156 13.9968L105.156 13.9875H107.269V9.91563C107.269 9.91563 120.441 9.92368 120.961 9.92368C121.482 9.92368 121.654 10.1604 121.654 10.6693V13.998L123.837 14L124.268 13.9995ZM121.65 6.47557H107.27V3.41743H121.65V6.47557Z" fill="#F57C00"/>
<path fill-rule="evenodd" clip-rule="evenodd" d="M151.151 14L153.978 13.998L153.979 13.9993L155.697 13.9977L144.474 0H138.879L127.688 13.9977L129.432 13.9976H132.265L134.548 11.2266L148.857 11.2323L151.151 14ZM146.037 7.83294H137.313L140.743 3.42116L142.608 3.41955L146.037 7.83294Z" fill="#F57C00"/>
<path fill-rule="evenodd" clip-rule="evenodd" d="M184.531 0.0096635L186.957 0L187.002 14H184.531V0.0096635Z" fill="#F57C00"/>
<path fill-rule="evenodd" clip-rule="evenodd" d="M159.051 0V11.0358H174.059V0L177.114 0.0152031C177.114 0.0152031 177.114 10.7125 177.114 11.5402C177.114 12.6661 174.492 14 173.469 14L158.631 13.71C157.791 13.71 155.695 11.5508 155.695 10.4857C155.695 10.0077 156.155 0 156.155 0H159.051Z" fill="#F57C00"/>
<path fill-rule="evenodd" clip-rule="evenodd" d="M95.4207 0H78.2627V13.9952C78.2627 13.9952 94.7066 14 95.8871 14C97.8124 14 99.6811 12.4572 99.6811 10.8203V3.5928C99.6811 1.5025 97.5206 0 95.4207 0ZM96.0731 10.5211H81.7432V3.41759H96.0731V10.5211Z" fill="#F57C00"/>
</svg>
