<?xml version="1.0" encoding="UTF-8"?>
<svg width="185px" height="15px" viewBox="0 0 185 15" version="1.1" xmlns="http://www.w3.org/2000/svg" xmlns:xlink="http://www.w3.org/1999/xlink">
    <!-- Generator: sketchtool 56.3 (101010) - https://sketch.com -->
    <title>FAAE535E-51F7-4D87-A511-032CB5479AF0</title>
    <desc>Created with sketchtool.</desc>
    <g id="Main-Navigation" stroke="none" stroke-width="1" fill="none" fill-rule="evenodd">
        <g id="Nav---Guest" transform="translate(-95.000000, -42.000000)" fill="#FFFFFF">
            <g id="Brand/Chedraui-Logo-/-Lockup-Copy" transform="translate(95.000000, 42.000000)">
                <g id="Group-14">
                    <path d="M20.5214863,14.5510583 C20.5214863,14.5510583 4.82303027,14.5708409 3.97605204,14.5510583 C1.71744342,14.4972496 0.000160869563,13.2177104 0.000160869563,10.6111539 C0.000160869563,9.94408435 0.0234869557,5.50565826 0.0234869557,4.34085826 C0.0234869557,2.34202348 1.54853038,0.79898 4.08866073,0.79898 L20.5214863,0.79898 L20.5214863,4.17389304 L3.85942161,4.17389304 C3.4065738,4.17389304 3.4065738,4.50624087 3.4065738,4.78478 L3.4065738,10.7520061 C3.4065738,11.0297539 3.57548683,11.1413278 3.91492161,11.1413278 L20.5214863,11.1413278 L20.5214863,14.5510583 Z" id="Fill-1"></path>
                    <polygon id="Fill-3" points="42.6913233 14.5463896 42.6913233 9.35068522 28.9257149 9.34910261 28.9257149 14.5368939 25.5474541 14.5479722 25.5474541 0.792728696 28.9257149 0.791146087 28.9257149 5.94886783 42.6897146 5.95598957 42.6897146 0.792728696 46.1572581 0.800641739 46.1355407 14.5368939"></polygon>
                    <polygon id="Fill-6" points="72.0751933 11.1308035 54.8002154 11.1308035 54.8002154 9.37964696 72.0751933 9.39389043 72.0751933 5.95488174 54.8002154 5.9485513 54.8002154 4.14991652 72.0751933 4.14991652 72.0751933 0.793203478 51.409085 0.793203478 51.409085 14.5452817 72.0751933 14.5452817"></polygon>
                    <path d="M80.5296967,11.130487 L94.395044,11.130487 L94.395044,4.1496 L80.5296967,4.1496 L80.5296967,11.130487 Z M93.7588054,0.791304348 L77.1578707,0.791304348 L77.1578707,14.5449652 C77.1578707,14.5449652 93.0686749,14.549713 94.2108488,14.549713 C96.072914,14.549713 97.8810879,13.0335739 97.8810879,11.4248522 L97.8810879,4.32210435 C97.8810879,2.26787826 95.7913923,0.791304348 93.7588054,0.791304348 L93.7588054,0.791304348 Z" id="Fill-8"></path>
                    <path d="M106.355694,7.15497391 L120.414889,7.15497391 L120.414889,4.1496 L106.355694,4.1496 L106.355694,7.15497391 Z M123.888063,4.15988696 C123.833368,2.10645217 121.991411,0.794469565 120.24115,0.794469565 L102.961346,0.794469565 L102.961346,14.5370522 L106.355694,14.5370522 L106.355694,10.5354261 C106.355694,10.5354261 119.233302,10.5433391 119.74165,10.5433391 C120.250802,10.5433391 120.418911,10.7759826 120.418911,11.276087 L120.418911,14.5481304 L123.897715,14.5481304 L123.897715,10.5417565 C123.897715,9.76548696 123.459346,9.09762609 123.119911,8.82066957 C123.347541,8.59989565 123.900933,8.0436087 123.900933,7.37812174 C123.900933,6.71184348 123.90415,4.71617391 123.888063,4.15988696 L123.888063,4.15988696 Z" id="Fill-10"></path>
                    <path d="M135.431341,8.4903 L138.650341,4.16265652 L140.401406,4.16107391 L143.619602,8.4903 L135.431341,8.4903 Z M142.151667,0.806734783 L136.90008,0.806734783 L126.396102,14.5374478 L130.69132,14.5374478 L132.834102,11.8193174 L146.266711,11.8248565 L148.418341,14.5398217 L152.686211,14.5374478 L142.151667,0.806734783 Z" id="Fill-11"></path>
                    <polygon id="Fill-12" points="180.831388 14.5479722 180.831388 0.800641739 184.224127 0.791146087 184.247453 14.5479722"></polygon>
                    <path d="M158.641926,0.791304348 L158.641926,11.130487 L172.750991,11.130487 L172.750991,0.791304348 L176.235426,0.796052174 C176.235426,0.796052174 176.233817,9.94511304 176.233817,11.166887 C176.233817,12.6640348 175.184143,14.5512957 172.531404,14.5512957 L158.695818,14.5512957 C157.002666,14.5512957 155.1961,12.7194261 155.252405,10.8883478 C155.268492,10.3890348 155.252405,0.799217391 155.252405,0.799217391 L158.641926,0.791304348 Z" id="Fill-13"></path>
                </g>
            </g>
        </g>
    </g>
</svg>