<svg width="22" height="19" viewBox="0 0 22 19" fill="#0D47A1" xmlns="http://www.w3.org/2000/svg">
<path d="M21.2876 1.54531L12.2085 17.7203C12.0371 18.0578 11.7499 18.2266 11.3467 18.2266C11.2963 18.2266 11.2207 18.217 11.12 18.1977C10.8982 18.1495 10.7193 18.041 10.5833 17.8722C10.4472 17.7034 10.3792 17.5129 10.3792 17.3008L10.5833 8.7342L1.56392 6.3379C1.34219 6.3379 1.14314 6.2728 0.966761 6.14261C0.790384 6.01241 0.676999 5.84123 0.626606 5.62905C0.576213 5.41688 0.59637 5.21436 0.687077 5.02147C0.777786 4.82859 0.923926 4.68393 1.1255 4.58748L19.9875 0.301215C20.1185 0.233705 20.2646 0.199951 20.4259 0.199951C20.698 0.199951 20.9248 0.291571 21.1062 0.47481C21.2574 0.609828 21.3506 0.776191 21.3859 0.973896C21.4212 1.1716 21.3884 1.36207 21.2876 1.54531Z" fill="#0D47A1"/>
</svg>
