<?xml version="1.0" encoding="utf-8"?>
<!-- Generator: Adobe Illustrator 22.1.0, SVG Export Plug-In . SVG Version: 6.00 Build 0)  -->
<svg version="1.1" id="Layer_1" xmlns="http://www.w3.org/2000/svg" xmlns:xlink="http://www.w3.org/1999/xlink" x="0px" y="0px"
	 viewBox="0 0 1080 1080" style="enable-background:new 0 0 1080 1080;" xml:space="preserve">
<style type="text/css">
	.st0{fill:#FCDFC0;}
	.st1{fill:#FFD5A1;}
	.st2{fill:#FFFFFF;}
	.st3{fill:url(#SVGID_1_);}
	.st4{fill:#5967D6;}
	.st5{fill:#9EB5E5;}
	.st6{fill:#F58220;}
	.st7{fill:#00539F;}
	.st8{fill:url(#SVGID_2_);}
	.st9{fill:#F57C00;}
</style>
<g>
	<path class="st0" d="M201.3,324.4c0,0-35.5,1.5-44.7,6.9c0,0,48.6-3.1,58.6,0s27-6.2,37-6.9c10-0.8,30.8-4.6,41.6-4.6
		c10.8,0,29.2,9.1,40,11.5c10.8,2.3,24,1.4,51.8,0.7c27.8-0.6,51.7-2.4,61.7,0c10,2.4,27.6-4.4,20-5.3c-8.1-1-16.6-10.4-27.9-3.2
		c0,0-12.9-13.2-22.2,0c0,0-9.9-16.8-30.1-5.3c0,0,9.3-48.6-14.6-54c-23.9-5.4-34.7,23.9-34.7,23.9s-6.6-20-25.3-15.4
		s-21.8,19.3-20.2,33.2c0,0-26.2-27.8-48.6,6.9C243.7,312.8,214.4,305.1,201.3,324.4z"/>
	<path class="st0" d="M900.5,367.7c0,0,28.5,1.2,36,5.6c0,0-39.1-2.5-47.1,0c-8.1,2.5-21.7-5-29.8-5.6c-8.1-0.6-24.8-3.7-33.5-3.7
		c-8.7,0-23.5,7.4-32.2,9.2c-8.7,1.9-19.3,1.1-41.6,0.6c-22.3-0.5-41.5-1.9-49.6,0c-8.1,2-22.2-3.5-16.1-4.2
		c6.5-0.8,13.3-8.4,22.5-2.6c0,0,10.4-10.6,17.8,0c0,0,8-13.5,24.2-4.2c0,0-7.4-39.1,11.8-43.4c19.2-4.3,27.9,19.2,27.9,19.2
		s5.3-16.1,20.3-12.4c15,3.7,17.5,15.5,16.3,26.7c0,0,21.1-22.3,39.1,5.6C866.5,358.4,890,352.2,900.5,367.7z"/>
	<g>
		<g>
			<path class="st1" d="M584.7,473.4c0,0-0.9,10.1,14.5,10.1c11.4,0,76.7,0,109.4,0c-9.9-2.4-15.4-12-18.7-23.2l-9.7-32.9
				c-4.1-15.2-11.2-30.2-22-40.1h-73.6V473.4z"/>
			<path class="st2" d="M599.2,477.5c-5.2,0-8.4-1.4-8.6-3.7l0.1-0.4l-0.1,0v-80.2h65.1c10.1,10.3,15.7,25,18.6,35.7l9.7,33.1
				c1.8,6.2,4.2,11.4,7,15.6H599.2z"/>
			<linearGradient id="SVGID_1_" gradientUnits="userSpaceOnUse" x1="303.2475" y1="495.81" x2="798.1674" y2="495.81">
				<stop  offset="0" style="stop-color:#FF9A1B"/>
				<stop  offset="1" style="stop-color:#F57C00"/>
			</linearGradient>
			<path class="st3" d="M778.1,565.8c0-8.3,6.8-15.1,15.1-15.1c1.4,0,2.8,0.2,4.2,0.6c-0.5-3.2-1.1-6.4-1.9-9.5h-31.9
				c-7.1,0-12.8-5.8-12.8-12.8s5.8-12.8,12.8-12.8h19.6c-14.2-19.4-37.2-32.1-63.1-32.1h-6.3c-1.8,0-3.5-0.2-5.1-0.6
				c-32.8,0-98,0-109.4,0c-15.4,0-14.5-10.1-14.5-10.1v-86.2h73.6c-8-7.4-17.9-12.1-30.2-12.1H362.7c-32.8,0-59.4,26.6-59.4,59.4
				v182h79.7c0-30.7,24.9-55.5,55.5-55.5s55.5,24.9,55.5,55.5h139.9c0-30.7,24.9-55.5,55.5-55.5s55.5,24.9,55.5,55.5h53.3V580
				c-1.5,0.5-3.2,0.8-4.9,0.8C784.9,580.9,778.1,574.1,778.1,565.8z"/>
			<path class="st1" d="M750.7,529c0,7.1,5.8,12.8,12.8,12.8h31.9c-2.5-9.4-6.8-18-12.3-25.6h-19.6
				C756.5,516.1,750.7,521.9,750.7,529z"/>
			<path class="st1" d="M797.4,551.2c-1.3-0.4-2.7-0.6-4.2-0.6c-8.3,0-15.1,6.8-15.1,15.1c0,8.3,6.8,15.1,15.1,15.1
				c1.7,0,3.4-0.3,4.9-0.8v-17.8C798.2,558.5,797.9,554.8,797.4,551.2z"/>
		</g>
		<path class="st4" d="M806.5,616.5h-10.6c-4.2,0-7.7-3.5-7.7-7.7v-10.6c0-4.2,3.5-7.7,7.7-7.7h10.6c4.2,0,7.7,3.5,7.7,7.7v10.6
			C814.1,613,810.7,616.5,806.5,616.5z"/>
		<path class="st4" d="M305.1,616.5h-10.6c-4.2,0-7.7-3.5-7.7-7.7v-10.6c0-4.2,3.5-7.7,7.7-7.7h10.6c4.2,0,7.7,3.5,7.7,7.7v10.6
			C312.8,613,309.4,616.5,305.1,616.5z"/>
		<circle class="st4" cx="438.9" cy="616.5" r="44.5"/>
		<circle class="st4" cx="690.2" cy="616.5" r="44.5"/>
		<g>
			<path class="st1" d="M626.5,611.1h-52.5V386h11.8l0,87.5c0,0.1-0.2,2.8,2,5.2c2.2,2.4,6,3.6,11.3,3.6h110.6V559l-1.4-0.3
				c-22.1-5-40.4-2.6-54.5,7.2c-22.1,15.4-26.1,43.9-26.1,44.2l-0.1,1H626.5z M576.4,608.7h49.1c1-5.4,6.5-30.5,27-44.8
				c14.3-10,32.8-12.6,54.9-7.9v-71.4H599.2c-6,0-10.4-1.5-13.1-4.4c-2.7-3-2.7-6.4-2.6-6.9v-85h-7V608.7z"/>
		</g>
		<path class="st1" d="M622.7,505.9h-22.2c-2,0-3.7-1.7-3.7-3.7l0,0c0-2,1.7-3.7,3.7-3.7h22.2c2,0,3.7,1.7,3.7,3.7l0,0
			C626.4,504.2,624.7,505.9,622.7,505.9z"/>
		<circle class="st5" cx="438.9" cy="616.5" r="19.9"/>
		<circle class="st5" cx="690.2" cy="616.5" r="19.9"/>
		<path class="st1" d="M448.5,661.1c0,0-20.4-31-34.8-18c-14.4,12.9-19,6.6-28-3.2c-9-9.8-15.7-17.4-30.7,0
			c-15.1,17.4-55.4-34.4-75.7-26.6s-34.6,15.2-43.9-0.8c-9.3-16-38.1-36.7-48.3-7c-10.2,29.8,3.5,55.5,25.7,55.5
			S448.5,661.1,448.5,661.1z"/>
		<g>
			<g>
				<g>
					<path class="st2" d="M498,411.9H384.3c-14.4,0-23.5,11.4-23.5,22.3v72.8c0,15.6,12.9,23.6,22.8,23.6h113.5
						c17.1,0,23.8-14.1,23.8-23.7v-72.5C520.6,421.9,509.7,411.9,498,411.9z"/>
				</g>
			</g>
			<path class="st6" d="M362.3,501h158.5c0,0,3.2,27.5-20.6,27.6H381.4C371.9,528.5,360.7,521,362.3,501z"/>
			<g>
				<g>
					<path class="st7" d="M500,410.4H383.4c-14.8,0-24.1,11.7-24.1,22.9V508c0,16,13.2,24.2,23.3,24.2h116.4
						c17.6,0,24.4-14.5,24.4-24.3v-74.3C523.2,420.6,512,410.4,500,410.4z M517.5,507.8c0,9.3-6.3,18.5-19.1,18.5H383.2
						c-7.5,0-18-5.4-18-18.3v-73.9c0-9.5,7.8-18,17.4-18h117.3c8.7,0,17.6,7.7,17.6,17.3V507.8z"/>
				</g>
			</g>
			<rect x="359.9" y="498.9" class="st7" width="163.2" height="5.9"/>
			<g>
				<g>
					<path class="st7" d="M504.3,493.3c0-0.8,0.6-1.3,1.4-1.3c0.7,0,1.3,0.6,1.3,1.3c0,0.8-0.6,1.3-1.3,1.3
						C504.9,494.7,504.3,494.1,504.3,493.3z M505.7,494.5c0.6,0,1.1-0.5,1.1-1.1c0-0.6-0.5-1.1-1.1-1.1c-0.6,0-1.1,0.5-1.1,1.1
						C504.6,494,505,494.5,505.7,494.5z M505.4,494.1h-0.2v-1.5h0.6c0.4,0,0.5,0.1,0.5,0.4c0,0.3-0.2,0.4-0.4,0.4l0.4,0.7H506
						l-0.4-0.7h-0.3V494.1z M505.7,493.3c0.2,0,0.4,0,0.4-0.2c0-0.2-0.2-0.2-0.3-0.2h-0.3v0.5H505.7z"/>
					<g>
						<path class="st7" d="M389.8,483.3v0.9c0,0-10.8,0-11.4,0c-1,0-1.9,0.6-1.9,1.6c0,0.7,0,3.8,0,4.5c0,1.1,0.5,1.8,1.8,1.8
							c0.5,0,11.5,0,11.5,0l0,0.9c0,0-10.9,0-11.5,0c-1.6,0-2.8-0.9-2.8-2.8c0-0.5,0-3.6,0-4.4c0-1.4,1.1-2.5,2.8-2.5
							C379,483.3,389.8,483.3,389.8,483.3z"/>
						<path class="st7" d="M389.8,484.7v0.9c0,0-11.4,0-11.5,0c-0.3,0-0.3,0.2-0.3,0.4c0,0.2,0,4,0,4.2c0,0.2,0.1,0.3,0.4,0.3
							c0.2,0,11.5,0,11.5,0v0.9c0,0-11.1,0-11.5,0c-0.7,0-1.2-0.3-1.2-1c0-0.5,0-4.3,0-4.8c0-0.5,0.5-1,1.2-1
							C378.6,484.7,389.8,484.7,389.8,484.7z"/>
					</g>
					<g>
						<rect x="393.3" y="483.3" class="st7" width="0.9" height="9.7"/>
						<polygon class="st7" points="406.6,483.3 407.6,483.3 407.6,492.9 406.6,492.9 						"/>
						<polygon class="st7" points="394.7,483.3 395.6,483.3 395.6,486.9 405.2,486.9 405.2,483.3 406.1,483.3 406.1,487.8 
							394.7,487.8 						"/>
						<polygon class="st7" points="394.7,488.4 406.1,488.4 406.1,492.9 405.2,492.9 405.2,489.3 395.6,489.3 395.6,492.9 
							394.7,492.9 						"/>
					</g>
					<g>
						<polygon class="st7" points="411.2,483.3 425.5,483.3 425.5,484.2 412.1,484.2 412.1,492 425.5,492 425.5,492.9 411.2,492.9 
													"/>
						<polygon class="st7" points="412.6,484.7 425.5,484.7 425.5,485.6 413.6,485.6 413.6,486.9 425.5,486.9 425.5,487.8 
							412.6,487.8 						"/>
						<polygon class="st7" points="412.6,488.4 412.6,491.5 425.5,491.5 425.5,490.5 413.6,490.5 413.6,489.3 425.5,489.3 
							425.5,488.4 						"/>
					</g>
					<g>
						<path class="st7" d="M429.1,483.3c0,0,10.5,0,11.5,0c1.4,0,2.9,1,2.9,2.5c0,1,0,4.1,0,5c0,1.1-1.3,2.2-2.5,2.2
							c-0.8,0-11.8,0-11.8,0V483.3z M430,492c0,0,10.2,0,10.8,0c1.1,0,1.7-0.6,1.7-1.6c0-0.7,0-4,0-4.7c0-1-0.8-1.6-1.6-1.6
							c-0.6,0-11,0-11,0V492z"/>
						<path class="st7" d="M430.5,484.7c0,0,9.8,0,10.3,0c0.7,0,1.2,0.6,1.2,1.1c0,0.4,0,4.2,0,4.7c0,0.5-0.4,0.9-1.1,0.9
							c-0.4,0-10.4,0-10.4,0V484.7z M431.4,490.5h9.6v-4.9h-9.6V490.5z"/>
					</g>
					<g>
						<path class="st7" d="M446.9,483.3c0,0,11.4,0,12,0c1.2,0,2.5,0.9,2.5,2.4c0,0.4,0,1.8,0,2.3c0,0.5-0.4,0.9-0.5,1
							c0.2,0.2,0.5,0.7,0.5,1.2c0,0.4,0,2.8,0,2.8l-0.9,0c0,0,0-2.1,0-2.7c0-0.5-0.3-1.2-0.6-1.3c0.3-0.2,0.6-0.7,0.6-1.3
							c0-0.3,0-1.5,0-2c0-0.8-0.7-1.5-1.6-1.5c-0.7,0-11.1,0-11.1,0l0,8.8l-0.9,0V483.3z"/>
						<path class="st7" d="M458.9,484.7c0.5,0,1.1,0.5,1.1,0.9c0,0.4,0,1.9,0,2.3c0,0.5-0.5,0.8-0.9,0.8c-0.4,0-10.7,0-10.7,0v-4
							C448.4,484.7,458.6,484.7,458.9,484.7z M449.3,485.6v2.1h9.7v-2.1H449.3z"/>
						<path class="st7" d="M448.4,489.2v3.7h0.9v-2.8c0,0,8.9,0,9.3,0c0.4,0,0.5,0.2,0.5,0.5c0,0.4,0,2.3,0,2.3l0.9,0
							c0,0,0-2.5,0-2.9c0-0.5-0.6-0.9-1-0.9C458.5,489.2,448.4,489.2,448.4,489.2z"/>
					</g>
					<polygon class="st7" points="470.5,483.3 474.1,483.3 481.4,492.9 480.3,492.9 473.7,484.2 470.9,484.2 464.3,492.9 
						463.2,492.9 					"/>
					<path class="st7" d="M471.2,484.7l2.2,0l3.7,4.9h-9.5L471.2,484.7z M469.4,488.7h5.7l-2.2-3l-1.2,0L469.4,488.7z"/>
					<polygon class="st7" points="467.2,490.1 477.5,490.1 479.6,492.9 478.4,492.9 477,491 467.6,491 466.2,492.9 465,492.9 					
						"/>
					<g>
						<polygon class="st7" points="500.9,483.3 501.8,483.3 501.8,492.9 500.9,492.9 						"/>
						<polygon class="st7" points="502.4,483.3 503.3,483.3 503.3,492.9 502.4,492.9 						"/>
					</g>
					<g>
						<path class="st7" d="M483.2,483.3h0.9c0,0,0,6.4,0,7.1c0,0.9,0.7,1.7,1.4,1.7c0.7,0,8.9,0,9.7,0c0.9,0,1.6-0.5,1.6-1.4
							c0-0.7,0-7.3,0-7.3l0.9,0c0,0,0,6.4,0,7.3c0,1.1-0.7,2.4-2.6,2.4c-0.9,0-8.8,0-9.6,0c-1.2,0-2.4-1.3-2.4-2.6
							C483.2,490,483.2,483.3,483.2,483.3z"/>
						<path class="st7" d="M484.6,483.3h0.9v7.3h9.8v-7.3l0.9,0c0,0,0,6.6,0,7.2c0,0.7-0.5,1-1.2,1c-0.5,0-8.7,0-9.3,0
							c-0.5,0-1.2-0.4-1.2-1.1C484.6,490.1,484.6,483.3,484.6,483.3z"/>
					</g>
				</g>
				<g>
					<polygon class="st6" points="427.2,439.2 434.5,439.2 440.4,445 440.4,452.4 					"/>
					<polygon class="st6" points="427,441.1 427,460 437.1,460 437.1,451.1 					"/>
					<polygon class="st6" points="441.9,444.5 448.8,444.5 461.9,457.8 454.9,457.8 					"/>
					<polygon class="st6" points="410.4,454.1 417.6,454.1 424.7,461.6 421.2,465.2 					"/>
					<polygon class="st6" points="441.7,446.4 450.9,455.8 450.9,464.3 435.1,464.3 441.7,457.6 					"/>
					<polygon class="st6" points="410.3,455.8 410.3,468.6 417.9,468.6 417.9,464 					"/>
					<polygon class="st6" points="410,469.9 416.4,469.9 405.6,480.4 399.4,480.4 					"/>
					<polygon class="st6" points="426.9,461.6 435.6,461.6 416.3,480.4 407.7,480.4 					"/>
					<polygon class="st6" points="426.5,480.4 433.9,480.4 446.2,468.5 458,480.4 465.2,480.4 450.9,465.6 441.7,465.6 					"/>
					<path class="st6" d="M461.9,460.4h2.6c0,0,0.8,4,1,4.9c0.2,0.9,0.4,2.1,2.3,2.1c1.5,0,13.7,0,13.7,0v7.8c0,0-7.4,0-11.2,0
						c-3.2,0-5.8-2-6.6-5.9C463.3,466.8,461.9,460.4,461.9,460.4z"/>
					<path class="st6" d="M432.1,438.1c3.4,0,6.1-2.7,6.1-6.1c0-3.4-2.7-6.1-6.1-6.1c-3.4,0-6.1,2.7-6.1,6.1
						C426,435.4,428.8,438.1,432.1,438.1z"/>
					<g>
						<path class="st6" d="M440.5,438.1c0-3.1,2.5-5.7,5.7-5.7c3.1,0,5.7,2.5,5.7,5.7c0,3.1-2.5,5.7-5.7,5.7
							C443.1,443.8,440.5,441.2,440.5,438.1z"/>
						<path class="st6" d="M446.2,438.1"/>
					</g>
					<g>
						<path class="st6" d="M408.9,447.8c0-3,2.4-5.3,5.3-5.3s5.3,2.4,5.3,5.3c0,3-2.4,5.3-5.3,5.3S408.9,450.7,408.9,447.8z"/>
						<path class="st6" d="M414.3,447.8"/>
					</g>
					<g>
						<path class="st6" d="M457,460.4c0-0.9,0.8-1.7,1.7-1.7c0.9,0,1.7,0.8,1.7,1.7c0,0.9-0.8,1.7-1.7,1.7
							C457.8,462.1,457,461.3,457,460.4z"/>
						<path class="st6" d="M458.7,460.4"/>
					</g>
					<g>
						<path class="st6" d="M465.8,460.4c0-2.2,1.8-3.9,4-3.9c2.2,0,4,1.8,4,3.9c0,2.2-1.8,3.9-4,3.9
							C467.5,464.4,465.8,462.6,465.8,460.4z"/>
						<path class="st6" d="M469.7,460.4"/>
					</g>
					<g>
						<ellipse class="st6" cx="469.8" cy="478.4" rx="2.1" ry="2.1"/>
						<path class="st6" d="M469.8,478.4"/>
					</g>
					<g>
						<path class="st6" d="M476.5,478.4c0-1.2,1-2.1,2.1-2.1s2.1,1,2.1,2.1c0,1.2-1,2.1-2.1,2.1S476.5,479.6,476.5,478.4z"/>
						<path class="st6" d="M478.7,478.4"/>
					</g>
				</g>
			</g>
			<g>
				<path class="st2" d="M385.9,516.6l3.4,0.4c-0.2,0.7-0.5,1.3-0.9,1.8c-0.4,0.5-1,0.9-1.6,1.2c-0.7,0.3-1.5,0.4-2.5,0.4
					c-1,0-1.8-0.1-2.5-0.3c-0.7-0.2-1.2-0.5-1.7-0.9c-0.5-0.4-0.8-0.9-1.1-1.4c-0.3-0.6-0.4-1.3-0.4-2.2c0-1,0.2-1.7,0.5-2.4
					c0.2-0.5,0.6-0.9,1-1.2c0.4-0.4,0.8-0.6,1.3-0.8c0.7-0.3,1.6-0.4,2.7-0.4c1.5,0,2.7,0.3,3.5,0.8c0.8,0.5,1.3,1.3,1.7,2.4
					l-3.3,0.4c-0.1-0.4-0.3-0.7-0.6-0.9c-0.3-0.2-0.6-0.3-1.1-0.3c-0.6,0-1.1,0.2-1.4,0.6c-0.4,0.4-0.5,1.1-0.5,1.9
					c0,0.8,0.2,1.3,0.5,1.7c0.4,0.4,0.8,0.6,1.4,0.6c0.5,0,0.9-0.1,1.2-0.3C385.5,517.4,385.7,517,385.9,516.6z"/>
				<path class="st2" d="M399.7,520.2h-3.3v-1.5c-0.5,0.6-1,1.1-1.5,1.3c-0.5,0.3-1.1,0.4-1.9,0.4c-1,0-1.7-0.3-2.3-0.9
					c-0.6-0.6-0.8-1.5-0.8-2.7v-5.9h3.6v5.1c0,0.6,0.1,1,0.3,1.2c0.2,0.2,0.5,0.4,0.9,0.4c0.4,0,0.8-0.2,1-0.5
					c0.3-0.3,0.4-0.9,0.4-1.8v-4.4h3.5V520.2z"/>
				<path class="st2" d="M404.1,514.7c0.1-0.6,0.2-1,0.4-1.2c0.3-0.4,0.8-0.7,1.4-0.7c0.5,0,0.9,0.1,1.2,0.4
					c0.3,0.3,0.5,0.8,0.6,1.5H404.1z M411.2,516c0-1.2-0.2-2.2-0.6-3c-0.4-0.8-1-1.3-1.8-1.7c-0.8-0.4-1.8-0.6-3.1-0.6
					c-1.6,0-2.9,0.4-3.8,1.3c-0.9,0.9-1.4,2.1-1.4,3.5c0,1,0.2,1.9,0.7,2.7c0.5,0.8,1,1.3,1.7,1.6c0.7,0.3,1.7,0.5,2.9,0.5
					c1.4,0,2.5-0.2,3.3-0.6c0.8-0.4,1.4-1.1,1.9-2l-3.5-0.3c-0.2,0.3-0.4,0.5-0.6,0.6c-0.3,0.2-0.6,0.3-1,0.3c-0.6,0-1-0.2-1.3-0.6
					c-0.2-0.3-0.4-0.7-0.5-1.3h7.1V516z"/>
				<path class="st2" d="M411.3,517.6l3.5-0.3c0.1,0.4,0.3,0.7,0.6,0.9c0.3,0.2,0.6,0.3,1,0.3c0.5,0,0.8-0.1,1.1-0.3
					c0.2-0.2,0.3-0.3,0.3-0.6c0-0.3-0.1-0.5-0.4-0.6c-0.2-0.1-0.7-0.2-1.5-0.4c-1.2-0.2-2.1-0.4-2.6-0.6c-0.5-0.2-0.9-0.5-1.2-0.9
					c-0.3-0.4-0.5-0.9-0.5-1.5c0-0.6,0.2-1.1,0.5-1.6c0.4-0.4,0.8-0.8,1.5-1c0.6-0.2,1.5-0.3,2.5-0.3c1.1,0,1.9,0.1,2.4,0.3
					c0.5,0.2,1,0.4,1.3,0.8c0.4,0.4,0.6,0.8,0.9,1.4l-3.4,0.3c-0.1-0.3-0.2-0.5-0.4-0.6c-0.3-0.2-0.6-0.3-1-0.3
					c-0.4,0-0.7,0.1-0.9,0.2c-0.2,0.1-0.3,0.3-0.3,0.5c0,0.2,0.1,0.4,0.4,0.5c0.2,0.1,0.7,0.2,1.5,0.3c1.2,0.1,2.1,0.3,2.6,0.6
					c0.6,0.2,1,0.6,1.3,1c0.3,0.4,0.5,0.9,0.5,1.5c0,0.5-0.2,1.1-0.5,1.6c-0.3,0.5-0.8,0.9-1.5,1.2c-0.7,0.3-1.6,0.4-2.8,0.4
					c-1.7,0-2.9-0.2-3.6-0.7C412,519.2,411.5,518.5,411.3,517.6z"/>
				<path class="st2" d="M426.2,507.4v3.5h1.9v2.6h-1.9v3.3c0,0.4,0,0.7,0.1,0.8c0.1,0.2,0.3,0.3,0.6,0.3c0.3,0,0.6-0.1,1.1-0.2
					l0.3,2.4c-0.9,0.2-1.7,0.3-2.5,0.3c-0.9,0-1.5-0.1-2-0.3c-0.4-0.2-0.7-0.6-0.9-1c-0.2-0.5-0.3-1.2-0.3-2.2v-3.3h-1.3v-2.6h1.3
					v-1.7L426.2,507.4z"/>
				<path class="st2" d="M435.2,516.3c0,0.4-0.1,0.8-0.2,1.1c-0.1,0.3-0.4,0.5-0.7,0.7c-0.3,0.2-0.7,0.3-1.1,0.3
					c-0.4,0-0.7-0.1-0.9-0.3c-0.2-0.2-0.3-0.4-0.3-0.7c0-0.2,0.1-0.5,0.3-0.7c0.2-0.2,0.6-0.4,1.4-0.6c0.5-0.1,1-0.3,1.5-0.5V516.3z
					 M432.7,513.1c0.3-0.2,0.7-0.3,1.3-0.3c0.4,0,0.8,0.1,0.9,0.3c0.2,0.2,0.3,0.5,0.3,0.9c-0.4,0.2-0.9,0.3-1.3,0.4
					c-0.4,0.1-1.3,0.3-2.6,0.6c-1.1,0.2-1.9,0.6-2.3,1c-0.4,0.5-0.6,1-0.6,1.7c0,0.8,0.3,1.4,0.9,1.9c0.6,0.5,1.4,0.8,2.5,0.8
					c0.8,0,1.6-0.1,2.2-0.4c0.5-0.2,0.9-0.5,1.4-1c0,0.3,0.1,0.5,0.1,0.6c0,0.1,0.1,0.3,0.3,0.5h3.3c-0.2-0.4-0.3-0.7-0.4-0.9
					c-0.1-0.2-0.1-0.6-0.1-1v-4.1c0-0.4-0.1-0.9-0.3-1.4c-0.2-0.5-0.4-0.8-0.7-1.1c-0.4-0.4-1-0.6-1.6-0.7c-0.6-0.1-1.5-0.2-2.6-0.2
					c-0.7,0-1.3,0.1-1.8,0.1c-0.6,0.1-1,0.2-1.3,0.4c-0.5,0.2-0.8,0.5-1,0.9c-0.2,0.3-0.4,0.8-0.6,1.4l3.4,0.4
					C432.3,513.5,432.5,513.2,432.7,513.1z"/>
				<path class="st2" d="M445,510.9h3.3v1.3c0.5-0.6,1-1,1.4-1.2c0.5-0.2,1.1-0.4,1.8-0.4c0.7,0,1.3,0.1,1.8,0.4
					c0.4,0.3,0.8,0.6,1.1,1.2c0.6-0.6,1.1-1,1.5-1.2c0.5-0.2,1-0.3,1.7-0.3c1,0,1.8,0.3,2.3,0.9c0.6,0.6,0.8,1.5,0.8,2.8v5.8h-3.6
					v-5.3c0-0.4-0.1-0.7-0.2-0.9c-0.2-0.3-0.5-0.5-0.9-0.5c-0.4,0-0.8,0.2-1,0.5c-0.3,0.3-0.4,0.8-0.4,1.5v4.8H451v-5.1
					c0-0.4,0-0.7-0.1-0.8c-0.1-0.2-0.2-0.4-0.4-0.6c-0.2-0.1-0.4-0.2-0.7-0.2c-0.4,0-0.7,0.2-1,0.5c-0.3,0.3-0.4,0.8-0.4,1.5v4.7
					H445V510.9z"/>
				<path class="st2" d="M465,514.7c0.1-0.6,0.2-1,0.4-1.2c0.3-0.4,0.8-0.7,1.4-0.7c0.5,0,0.9,0.1,1.2,0.4c0.3,0.3,0.5,0.8,0.6,1.5
					H465z M472.1,516c0-1.2-0.2-2.2-0.6-3c-0.4-0.8-1-1.3-1.8-1.7c-0.8-0.4-1.8-0.6-3.1-0.6c-1.6,0-2.9,0.4-3.8,1.3
					c-0.9,0.9-1.4,2.1-1.4,3.5c0,1,0.2,1.9,0.7,2.7c0.5,0.8,1,1.3,1.7,1.6c0.7,0.3,1.7,0.5,2.9,0.5c1.4,0,2.5-0.2,3.3-0.6
					c0.8-0.4,1.4-1.1,1.9-2l-3.5-0.3c-0.2,0.3-0.4,0.5-0.6,0.6c-0.3,0.2-0.6,0.3-1,0.3c-0.6,0-1-0.2-1.3-0.6
					c-0.2-0.3-0.4-0.7-0.5-1.3h7.1V516z"/>
				<path class="st2" d="M472.8,510.9h3.3v1.5c0.5-0.6,1-1,1.5-1.3c0.5-0.3,1.1-0.4,1.9-0.4c1,0,1.8,0.3,2.3,0.9
					c0.6,0.6,0.8,1.5,0.8,2.7v5.9h-3.6v-5.1c0-0.6-0.1-1-0.3-1.2c-0.2-0.2-0.5-0.4-0.9-0.4c-0.4,0-0.8,0.2-1.1,0.5
					c-0.3,0.3-0.4,0.9-0.4,1.8v4.4h-3.5V510.9z"/>
				<path class="st2" d="M487.5,513.7c0.3-0.4,0.8-0.6,1.3-0.6c0.5,0,0.9,0.2,1.2,0.6c0.3,0.4,0.5,1,0.5,1.8c0,0.9-0.2,1.5-0.5,1.9
					c-0.3,0.4-0.7,0.6-1.3,0.6c-0.5,0-0.9-0.2-1.3-0.6c-0.3-0.4-0.5-1-0.5-1.8C487,514.7,487.1,514.1,487.5,513.7z M485.1,519.3
					c0.9,0.8,2.1,1.1,3.6,1.1c1.7,0,3-0.5,3.9-1.4c0.9-0.9,1.4-2.1,1.4-3.5c0-1.3-0.4-2.3-1.1-3.2c-0.9-1.1-2.3-1.6-4.2-1.6
					c-1.6,0-2.9,0.5-3.9,1.4c-1,0.9-1.4,2.1-1.4,3.5C483.4,517.1,484,518.3,485.1,519.3z"/>
				<path class="st2" d="M494.2,517.6l3.5-0.3c0.1,0.4,0.3,0.7,0.6,0.9c0.3,0.2,0.6,0.3,1,0.3c0.5,0,0.8-0.1,1.1-0.3
					c0.2-0.2,0.3-0.3,0.3-0.6c0-0.3-0.1-0.5-0.4-0.6c-0.2-0.1-0.7-0.2-1.5-0.4c-1.2-0.2-2.1-0.4-2.6-0.6c-0.5-0.2-0.9-0.5-1.2-0.9
					c-0.3-0.4-0.5-0.9-0.5-1.5c0-0.6,0.2-1.1,0.5-1.6c0.4-0.4,0.8-0.8,1.5-1c0.6-0.2,1.5-0.3,2.5-0.3c1.1,0,1.9,0.1,2.4,0.3
					c0.5,0.2,1,0.4,1.3,0.8c0.4,0.4,0.6,0.8,0.9,1.4l-3.4,0.3c-0.1-0.3-0.2-0.5-0.4-0.6c-0.3-0.2-0.6-0.3-1-0.3
					c-0.4,0-0.7,0.1-0.9,0.2c-0.2,0.1-0.3,0.3-0.3,0.5c0,0.2,0.1,0.4,0.4,0.5c0.2,0.1,0.7,0.2,1.5,0.3c1.2,0.1,2.1,0.3,2.6,0.6
					c0.6,0.2,1,0.6,1.3,1c0.3,0.4,0.5,0.9,0.5,1.5c0,0.5-0.2,1.1-0.5,1.6c-0.3,0.5-0.8,0.9-1.5,1.2c-0.7,0.3-1.6,0.4-2.8,0.4
					c-1.7,0-2.9-0.2-3.6-0.7C494.8,519.2,494.4,518.5,494.2,517.6z"/>
			</g>
		</g>
		<g>
			<rect x="326.8" y="386" class="st1" width="331.5" height="2.4"/>
		</g>
	</g>
	<g>
		<path class="st5" d="M921,660.1c0,0-78.1,0-419.2,0c-243.9,0-311.9,0-311.9,0h-52.8c0,47.5,50.4,88.9,215.3,125
			c164.9,36.1,199.5-44.9,379.6-43c180.1,1.9,218-82,218-82H921z"/>
		<linearGradient id="SVGID_2_" gradientUnits="userSpaceOnUse" x1="550.4684" y1="660.1111" x2="550.4684" y2="726.5515">
			<stop  offset="0" style="stop-color:#5967D6"/>
			<stop  offset="0.2045" style="stop-color:#6170D8;stop-opacity:0.7955"/>
			<stop  offset="0.542" style="stop-color:#7789DD;stop-opacity:0.458"/>
			<stop  offset="0.9685" style="stop-color:#9BB2E4;stop-opacity:3.150254e-02"/>
			<stop  offset="1" style="stop-color:#9EB5E5;stop-opacity:0"/>
		</linearGradient>
		<path class="st8" d="M814.1,660.1H286.8c0,0-26.1,66.4,217.9,66.4C845.8,726.6,814.1,660.1,814.1,660.1z"/>
	</g>
	<g>
		<path class="st9" d="M264.7,569.5H133.9c-1.6,0-3-1.3-3-3s1.3-3,3-3h130.8c1.6,0,3,1.3,3,3S266.3,569.5,264.7,569.5z"/>
	</g>
	<g>
		<path class="st9" d="M278.4,547.2h-97.8c-1.6,0-3-1.3-3-3s1.3-3,3-3h97.8c1.6,0,3,1.3,3,3S280.1,547.2,278.4,547.2z"/>
	</g>
	<g>
		<path class="st9" d="M219.3,440.2h-73c-1.6,0-3-1.3-3-3s1.3-3,3-3h73c1.6,0,3,1.3,3,3S220.9,440.2,219.3,440.2z"/>
	</g>
	<g>
		<path class="st9" d="M266,460.8h-73c-1.6,0-3-1.3-3-3s1.3-3,3-3h73c1.6,0,3,1.3,3,3S267.7,460.8,266,460.8z"/>
	</g>
	<g>
		<path class="st9" d="M289.5,416.3H182.8c-1.6,0-3-1.3-3-3s1.3-3,3-3h106.8c1.6,0,3,1.3,3,3S291.2,416.3,289.5,416.3z"/>
	</g>
</g>
</svg>
