<?xml version="1.0" encoding="UTF-8"?>
<svg width="15px" height="11px" viewBox="0 0 15 11" version="1.1" xmlns="http://www.w3.org/2000/svg" xmlns:xlink="http://www.w3.org/1999/xlink">
    <!-- Generator: Sketch 57.1 (83088) - https://sketch.com -->
    <title>Icon / 18 / Deliver</title>
    <desc>Created with Sketch.</desc>
    <g id="Checkout---Logged-In" stroke="none" stroke-width="1" fill="none" fill-rule="evenodd">
        <g id="Checkout---Payment-Method-Not-Enough" transform="translate(-54.000000, -315.000000)" fill="#C4CDD5">
            <g id="Group-2" transform="translate(15.000000, 268.000000)">
                <g id="Icon-/-18-/-Deliver-Light" transform="translate(37.000000, 43.000000)">
                    <path d="M13.333,13.3331 C12.967,13.3331 12.667,13.0331 12.667,12.6671 C12.667,12.3001 12.967,12.0001 13.333,12.0001 C13.7,12.0001 14,12.3001 14,12.6671 C14,13.0331 13.7,13.3331 13.333,13.3331 L13.333,13.3331 Z M6.813,11.3331 C6.447,10.9271 5.927,10.6671 5.333,10.6671 C4.74,10.6671 4.22,10.9271 3.854,11.3331 L3.333,11.3331 L3.333,5.3331 L11.333,5.3331 L11.333,11.3331 L6.813,11.3331 Z M5.333,13.3331 C4.967,13.3331 4.666,13.0331 4.666,12.6671 C4.666,12.3001 4.967,12.0001 5.333,12.0001 C5.7,12.0001 6,12.3001 6,12.6671 C6,13.0331 5.7,13.3331 5.333,13.3331 L5.333,13.3331 Z M14.333,7.6661 L15.64,9.3331 L12.667,9.3331 L12.667,7.6661 L14.333,7.6661 Z M14.667,6.6661 L12.667,6.6661 L12.667,4.0001 L3.333,4.0001 C2.6,4.0001 2,4.6001 2,5.3331 L2,12.6671 L3.333,12.6671 C3.333,13.7731 4.227,14.6671 5.333,14.6671 C6.44,14.6671 7.333,13.7731 7.333,12.6671 L11.333,12.6671 C11.333,13.7731 12.227,14.6671 13.333,14.6671 C14.44,14.6671 15.333,13.7731 15.333,12.6671 L16.667,12.6671 L16.667,9.3331 L14.667,6.6661 Z" id="Fill-1"></path>
                </g>
            </g>
        </g>
    </g>
</svg>