<?xml version="1.0" encoding="UTF-8"?>
<svg width="259px" height="252px" viewBox="0 0 259 252" version="1.1" xmlns="http://www.w3.org/2000/svg" xmlns:xlink="http://www.w3.org/1999/xlink">
    <!-- Generator: sketchtool 62 (101010) - https://sketch.com -->
    <title>86894F0F-8CFD-4E15-8432-B078C0754B2B</title>
    <desc>Created with sketchtool.</desc>
    <defs>
        <linearGradient x1="7.3892094e-06%" y1="50.0000035%" x2="99.9999952%" y2="50.0000035%" id="linearGradient-1">
            <stop stop-color="#4454B2" offset="0%"></stop>
            <stop stop-color="#00247F" offset="100%"></stop>
        </linearGradient>
        <linearGradient x1="0%" y1="50%" x2="100%" y2="50%" id="linearGradient-2">
            <stop stop-color="#6A3800" offset="0%"></stop>
            <stop stop-color="#D27500" offset="100%"></stop>
        </linearGradient>
        <linearGradient x1="9.9393983e-15%" y1="49.9999685%" x2="100%" y2="49.9999685%" id="linearGradient-3">
            <stop stop-color="#AABBFF" offset="0%"></stop>
            <stop stop-color="#FFFFFF" offset="100%"></stop>
        </linearGradient>
        <linearGradient x1="0%" y1="50%" x2="100%" y2="50%" id="linearGradient-4">
            <stop stop-color="#FF9A1B" offset="0%"></stop>
            <stop stop-color="#F57C00" offset="100%"></stop>
        </linearGradient>
    </defs>
    <g id="Notifications" stroke="none" stroke-width="1" fill="none" fill-rule="evenodd">
        <g id="Sub.-Child-Category-Page-no-connection" transform="translate(-58.000000, -208.000000)">
            <g id="EnableNotifications" transform="translate(58.000000, 208.000000)">
                <path d="M191.119466,74 C191.119466,74 228.432801,99.9428803 209.776133,134.154408 C191.119466,168.400388 162.201631,148.280013 162.097983,206.987408 C162.028884,243.093833 125.993876,263.730998 73.6515588,244.885374 C10.5298336,222.146594 4,205.264773 4,205.264773 L191.119466,74 Z" id="Path" fill="#FCDFC0" fill-rule="nonzero"></path>
                <path d="M207.134742,73.8776373 L205.959611,78.6901939 C204.957292,77.8938716 203.782161,77.2706628 202.434216,76.9244357 L121.24644,55.4929789 C115.439907,53.9695797 109.32231,56.0469422 105.624101,60.7556307 L102.928211,64.2179016 L4.28627382,190.452298 C1.72863424,190.34843 -0.0340633019,190.798525 0,192.39117 C0.069624789,195.611082 0.380689062,198.311653 0.657190637,200.008166 C1.071943,204.439873 4.14802303,208.525352 9.0213633,209.737147 L92.3520257,230.406904 C100.301446,232.380399 108.631056,229.3336 113.400708,222.68604 L114.921467,220.574055 L207.756871,91.7775779 C208.932003,90.1156878 209.519568,88.2806843 209.554131,86.4456807 C209.554131,86.4456807 209.554131,86.4456807 209.554131,86.411058 C211.351391,81.1137835 207.134742,73.8776373 207.134742,73.8776373 Z" id="Path" fill="url(#linearGradient-1)" fill-rule="nonzero"></path>
                <g id="Group">
                    <ellipse id="Oval" fill="url(#linearGradient-2)" fill-rule="nonzero" cx="212.974766" cy="81.4890601" rx="33.4037383" ry="33.3411402"></ellipse>
                    <path d="M2.69719626,184.92943 C-2.24766355,191.245609 0.968224299,200.530046 8.74859813,202.462866 L92.1196262,223.068105 C100.072897,225.035439 108.406542,221.998151 113.178505,215.371341 L114.7,213.265948 L3.38878505,184.066564 L2.69719626,184.92943 Z" id="Path" fill="#5967D6" fill-rule="nonzero"></path>
                    <polygon id="Path" fill="#9EB5E5" fill-rule="nonzero" points="207.580374 84.8714946 102.700935 57.3633282 3.38878505 184.066564 114.7 213.265948"></polygon>
                    <path d="M202.25514,70.0302003 L121.028037,48.6656394 C115.218692,47.1469954 109.098131,49.2178737 105.398131,53.9118644 L102.700935,57.3633282 L207.580374,84.8714946 C211.48785,79.4526965 208.756075,71.7559322 202.25514,70.0302003 Z" id="Path" fill="#5967D6" fill-rule="nonzero"></path>
                    <path d="M187.316822,79.5562404 L207.545794,84.8714946 L192.434579,105.787365 C192.434579,105.787365 134.341121,97.2622496 133.960748,122.803082 C132.923364,188.035747 45.3682243,182.064715 9.78598131,175.886595 L31.3981308,148.309399 C31.3981308,148.309399 98.6897196,144.167643 93.8485981,121.387982 C89.0074766,98.6083205 133.684112,78.9349769 161.036449,72.6533128 L187.316822,79.5562404 Z" id="Path" fill="url(#linearGradient-3)" fill-rule="nonzero"></path>
                    <ellipse id="Oval" fill="url(#linearGradient-4)" fill-rule="nonzero" cx="209.343925" cy="78.1066256" rx="33.4037383" ry="33.3411402"></ellipse>
                    <g transform="translate(195.719626, 64.542373)" id="Path" stroke="#FCDFC0" stroke-width="10">
                        <line x1="0.0345794393" y1="0.0345146379" x2="27.2140187" y2="27.1285054"></line>
                        <line x1="0.0345794393" y1="27.1285054" x2="27.2140187" y2="0.0345146379"></line>
                    </g>
                    <path d="M185.242056,42.0043143 C184.37757,42.0043143 183.478505,41.6246533 182.856075,40.8998459 L162.972897,17.5679507 C161.866355,16.2563945 162.004673,14.2890601 163.318692,13.1845917 C164.63271,12.0801233 166.603738,12.2181818 167.71028,13.5297381 L187.593458,36.8616333 C188.7,38.1731895 188.561682,40.1405239 187.247664,41.2449923 C186.659813,41.7627119 185.968224,42.0043143 185.242056,42.0043143 Z" id="Path" fill="#F57C00" fill-rule="nonzero"></path>
                    <path d="M235.658879,42.0043143 C234.93271,42.0043143 234.241121,41.7627119 233.653271,41.2795069 C232.339252,40.1750385 232.200935,38.2077042 233.307477,36.8961479 L253.190654,13.5642527 C254.297196,12.2526965 256.268224,12.1146379 257.582243,13.2191063 C258.896262,14.3235747 259.034579,16.2909091 257.928037,17.6024653 L238.04486,40.9343606 C237.42243,41.6246533 236.523364,42.0043143 235.658879,42.0043143 Z" id="Path" fill="#F57C00" fill-rule="nonzero"></path>
                    <path d="M210.450467,34.8942989 C208.721495,34.8942989 207.338318,33.5137134 207.338318,31.7879815 L207.338318,3.2788906 C207.338318,1.55315871 208.721495,0.17257319 210.450467,0.17257319 C212.179439,0.17257319 213.562617,1.55315871 213.562617,3.2788906 L213.562617,31.7879815 C213.562617,33.5137134 212.179439,34.8942989 210.450467,34.8942989 Z" id="Path" fill="#F57C00" fill-rule="nonzero"></path>
                </g>
                <g id="Group" transform="translate(89.000000, 116.000000)" fill="#683303" fill-rule="nonzero">
                    <ellipse id="Oval" cx="7.47067669" cy="4.62162162" rx="4.56541353" ry="4.51891892"></ellipse>
                    <ellipse id="Oval" cx="41.1924812" cy="16.6036036" rx="4.56541353" ry="4.51891892"></ellipse>
                    <path d="M28.2917293,38 C28.118797,38 27.9458647,37.9657658 27.7729323,37.9315315 C26.9082707,37.6576577 26.4586466,36.7333333 26.7353383,35.9117117 C27.7729323,32.7279279 27.7037594,29.5099099 26.4932331,26.8738739 C25.2481203,24.1693694 22.9654135,22.218018 19.887218,21.2252252 C16.6706767,20.1981982 13.0045113,20.3351351 9.82255639,21.636036 C6.57142857,22.9711712 4.25413534,25.3675676 3.28571429,28.3459459 C3.00902256,29.2018018 2.10977444,29.6468468 1.24511278,29.372973 C0.380451128,29.0990991 -0.0691729323,28.1747748 0.207518797,27.3531532 C1.48721805,23.4846847 4.46165414,20.4036036 8.57744361,18.6918919 C12.4511278,17.0828829 16.912782,16.9117117 20.8902256,18.1783784 C24.8330827,19.445045 27.8766917,22.0810811 29.4676692,25.572973 C30.9894737,28.9621622 31.1278195,32.9675676 29.8135338,36.9387387 C29.606015,37.554955 28.9834586,38 28.2917293,38 Z" id="Path"></path>
                </g>
            </g>
        </g>
    </g>
</svg>