<svg width="38" height="38" viewBox="0 0 38 38" fill="none" xmlns="http://www.w3.org/2000/svg">
<path d="M35.281 0H2.06379C1.51644 0 0.991507 0.217435 0.604471 0.604471C0.217435 0.991507 0 1.51644 0 2.06379L0 35.281C0 35.8284 0.217435 36.3533 0.604471 36.7404C0.991507 37.1274 1.51644 37.3448 2.06379 37.3448H19.95V22.931H15.069V17.2507H19.9238V13.1034C19.9238 8.27483 22.8655 5.64759 27.17 5.64759C28.6323 5.65193 30.0932 5.73504 31.5466 5.89655V10.9348H28.5721C26.2331 10.9348 25.781 12.0421 25.781 13.6734V17.2769H31.3828L30.6555 22.931H25.781V37.3448H35.281C35.8284 37.3448 36.3533 37.1274 36.7404 36.7404C37.1274 36.3533 37.3448 35.8284 37.3448 35.281V2.06379C37.3448 1.51644 37.1274 0.991507 36.7404 0.604471C36.3533 0.217435 35.8284 0 35.281 0V0Z" fill="white"/>
</svg>
