<?xml version="1.0" encoding="UTF-8"?><svg width="22px" height="22px" viewBox="0 0 22 22" version="1.1" xmlns="http://www.w3.org/2000/svg" xmlns:xlink="http://www.w3.org/1999/xlink"><!--Generator: Sketch 54.1 (76490) - https://sketchapp.com--><title>f_logo_RGB-Blue_1024</title><desc>Created with Sketch.</desc><defs><polygon id="path-1" points="0.0012890625 0.000858880978 22 0.000858880978 22 21.8537971 0.0012890625 21.8537971"/></defs><g id="Page-1" stroke="none" stroke-width="1" fill="none" fill-rule="evenodd"><g id="Contact-Page-v2" transform="translate(-123.000000, -617.000000)"><g id="Iniciar-Sesion" transform="translate(123.000000, 617.000000)"><g id="Social"><g id="f_logo_RGB-Blue_1024"><g id="Group-3"><mask id="mask-2" fill="white"><use xlink:href="#path-1"/></mask><g id="Clip-2"/><path d="M22,10.9936765 C22,4.92203217 17.0751367,0 11,0 C4.92486328,0 0,4.92203217 0,10.9936765 C0,16.4809383 4.02254102,21.0290566 9.28125,21.8537971 L9.28125,14.1715361 L6.48828125,14.1715361 L6.48828125,10.9936765 L9.28125,10.9936765 L9.28125,8.57163216 C9.28125,5.81634199 10.9234727,4.29440489 13.4361133,4.29440489 C14.6396035,4.29440489 15.8984375,4.50912514 15.8984375,4.50912514 L15.8984375,7.21460022 L14.5113633,7.21460022 C13.1448926,7.21460022 12.71875,8.06203661 12.71875,8.93143888 L12.71875,10.9936765 L15.7695312,10.9936765 L15.2818359,14.1715361 L12.71875,14.1715361 L12.71875,21.8537971 C17.977459,21.0290566 22,16.4809383 22,10.9936765" id="Fill-1" fill="#1877F2" mask="url(#mask-2)"/></g><path d="M15.2999148,14.1877439 L15.7875171,11.0113321 L12.7373181,11.0113321 L12.7373181,8.95003395 C12.7373181,8.08102777 13.1633794,7.23397746 14.5295892,7.23397746 L15.9163987,7.23397746 L15.9163987,4.52973496 C15.9163987,4.52973496 14.657805,4.31511254 13.4545445,4.31511254 C10.9423834,4.31511254 9.30047424,5.83635626 9.30047424,8.59039116 L9.30047424,11.0113321 L6.50803859,11.0113321 L6.50803859,14.1877439 L9.30047424,14.1877439 L9.30047424,21.8665049 C9.86040055,21.9542854 10.434289,22 11.0188962,22 C11.6035033,22 12.1773918,21.9542854 12.7373181,21.8665049 L12.7373181,14.1877439 L15.2999148,14.1877439" id="Fill-4" fill="#FFFFFF"/></g></g></g></g></g></svg>