<?xml version="1.0" encoding="UTF-8"?>
<svg width="65px" height="43px" viewBox="0 0 65 43" version="1.1" xmlns="http://www.w3.org/2000/svg" xmlns:xlink="http://www.w3.org/1999/xlink">
    <!-- Generator: sketchtool 56.3 (101010) - https://sketch.com -->
    <title>8EBBBDD7-6615-4269-A10D-2A00D35AF6D8</title>
    <desc>Created with sketchtool.</desc>
    <g id="Log-In-/-Registration" stroke="none" stroke-width="1" fill="none" fill-rule="evenodd">
        <g id="Create-Account" transform="translate(-15.000000, -84.000000)" fill="#F57C00">
            <g id="images-/-logo-/-family-orange" transform="translate(15.000000, 84.000000)">
                <path d="M30.5825198,30.9587293 L40.606152,30.9587293 L50.1894043,41.9933188 L44.3478997,42.0361912 L35.6669422,32.008015 L27.2896474,42.0361912 L21.3027325,42.0361912 L30.5825198,30.9587293 Z M20.4161444,27.1242232 L28.034579,27.1242232 L15.5857948,42.1214419 L8.09498936,42.1214419 L20.4161444,27.1242232 Z M48.5704696,24.4958129 L50.866807,24.4825758 L53.4950593,29.4103265 L64.9307128,29.4190195 L64.9307128,36.8383052 L54.7276884,36.8383052 L48.5704696,24.4958129 Z M33.487921,13.7460972 L39.900003,13.7460972 L47.9738328,23.5452916 L41.5957325,23.5452916 L33.487921,13.7460972 Z M33.3887416,15.1093981 L40.8161277,24.116936 L40.7430274,29.6804618 L28.2900942,29.6804618 L33.3887416,25.2808114 L33.3887416,15.1093981 Z M6.54150912,34.2818493 L12.5258556,34.2818493 L5.87313526,42.0362109 L1.97568389e-05,42.0362109 L6.54150912,34.2818493 Z M6.47603495,21.270588 L12.9955942,21.2447065 L18.1499559,27.4309679 L14.7239225,31.2995545 L6.47603495,21.270588 Z M21.3027325,10.6104695 L27.9347082,10.5932811 L31.9542371,15.4350896 L31.9542371,21.244588 L30.0293283,21.2404391 L21.3027325,10.6104695 Z M24.7962553,0.197528874 C27.2866049,0.197528874 29.3124711,2.22339512 29.3124711,4.71374465 C29.3124711,7.20409417 27.2866049,9.22996042 24.7962553,9.22996042 C22.3061033,9.22996042 20.2804347,7.20409417 20.2804347,4.71374465 C20.2804347,2.22339512 22.3061033,0.197528874 24.7962553,0.197528874 Z M20.8767158,11.87143 L28.6308799,21.4282081 L28.6308799,25.8460348 L20.8854088,25.8460348 L20.8767158,11.87143 Z M36.8963511,5.05455012 C38.9162903,5.05455012 40.5604544,6.73704251 40.5604544,8.80400298 C40.5604544,10.8705683 38.9162903,12.5530607 36.8963511,12.5530607 C34.8764119,12.5530607 33.2322477,10.8705683 33.2322477,8.80400298 C33.2322477,6.73704251 34.8764119,5.05455012 36.8963511,5.05455012 Z M6.73166869,22.9488524 L14.0598754,32.2726973 L13.5029301,32.9776213 L6.75280851,33.0038979 L6.73166869,22.9488524 Z M10.4384073,13.5756352 C12.2939696,13.5756352 13.8041824,15.0862431 13.8041824,16.9416078 C13.8041824,18.7967749 12.2939696,20.3073828 10.4384073,20.3073828 C8.58284498,20.3073828 7.07263222,18.7967749 7.07263222,16.9416078 C7.07263222,15.0862431 8.58284498,13.5756352 10.4384073,13.5756352 Z M55.6001307,21.2446275 C57.1765289,21.2446275 58.4547964,22.5612232 58.4547964,24.1844451 C58.4547964,25.807667 57.1765289,27.1242627 55.6001307,27.1242627 C54.0239301,27.1242627 52.7456626,25.807667 52.7456626,24.1844451 C52.7456626,22.5612232 54.0239301,21.2446275 55.6001307,21.2446275 Z M63.3543146,37.7756487 C64.2228252,37.7756487 64.9307128,38.5218645 64.9307128,39.4373964 C64.9307128,40.3525331 64.2228252,41.0987489 63.3543146,41.0987489 C62.4860015,41.0987489 61.7779164,40.3525331 61.7779164,39.4373964 C61.7779164,38.5218645 62.4860015,37.7756487 63.3543146,37.7756487 Z M56.8783587,37.7756487 C57.7468693,37.7756487 58.4547568,38.5218645 58.4547568,39.4373964 C58.4547568,40.3525331 57.7468693,41.0987489 56.8783587,41.0987489 C56.0100456,41.0987489 55.3019605,40.3525331 55.3019605,39.4373964 C55.3019605,38.5218645 56.0100456,37.7756487 56.8783587,37.7756487 Z M46.6956641,24.5678858 C47.4013784,24.5678858 47.9739316,25.1402415 47.9739316,25.8461533 C47.9739316,26.5518676 47.4013784,27.1242232 46.6956641,27.1242232 C45.9899498,27.1242232 45.4173967,26.5518676 45.4173967,25.8461533 C45.4173967,25.1402415 45.9899498,24.5678858 46.6956641,24.5678858 Z" id="Combined-Shape"></path>
            </g>
        </g>
    </g>
</svg>