<?xml version="1.0" encoding="UTF-8"?><svg width="345px" height="107px" viewBox="0 0 345 107" version="1.1" xmlns="http://www.w3.org/2000/svg" xmlns:xlink="http://www.w3.org/1999/xlink"><!--Generator: Sketch 54.1 (76490) - https://sketchapp.com--><title>Group 2</title><desc>Created with Sketch.</desc><defs><linearGradient x1="23.985727%" y1="49.8212153%" x2="84.8834874%" y2="50.1649127%" id="linearGradient-1"><stop stop-color="#F57C00" offset="0%"/><stop stop-color="#F78E00" offset="100%"/></linearGradient><linearGradient x1="0.0430737507%" y1="49.9287188%" x2="100.098641%" y2="49.9287188%" id="linearGradient-2"><stop stop-color="#DBB389" offset="0%"/><stop stop-color="#DCB489" offset="2.002078%"/><stop stop-color="#F0BE83" offset="33.71%"/><stop stop-color="#FBC480" offset="66.11%"/><stop stop-color="#FFC67F" offset="100%"/></linearGradient><linearGradient x1="27.1404477%" y1="101.493827%" x2="69.5012085%" y2="-4.80518519%" id="linearGradient-3"><stop stop-color="#AA4700" offset="0%"/><stop stop-color="#B45200" offset="12.9%"/><stop stop-color="#C56600" offset="41.08%"/><stop stop-color="#CF7100" offset="69.88%"/><stop stop-color="#D27500" offset="100%"/></linearGradient><linearGradient x1="0.00981903965%" y1="50.0094341%" x2="99.8824633%" y2="50.0094341%" id="linearGradient-4"><stop stop-color="#AA4700" offset="0%"/><stop stop-color="#A34800" offset="16.04%"/><stop stop-color="#984900" offset="57.05%"/><stop stop-color="#944A00" offset="100%"/></linearGradient><linearGradient x1="-0.0220065385%" y1="49.9834386%" x2="99.8200187%" y2="49.9834386%" id="linearGradient-5"><stop stop-color="#4454B2" offset="0%"/><stop stop-color="#00247F" offset="100%"/></linearGradient><linearGradient x1="0.00286839094%" y1="49.8945433%" x2="99.9323929%" y2="49.8945433%" id="linearGradient-6"><stop stop-color="#AA4700" offset="0%"/><stop stop-color="#B45200" offset="12.9%"/><stop stop-color="#C56600" offset="41.08%"/><stop stop-color="#CF7100" offset="69.88%"/><stop stop-color="#D27500" offset="100%"/></linearGradient><linearGradient x1="50.0152374%" y1="99.9293002%" x2="50.0152374%" y2="-0.057903912%" id="linearGradient-7"><stop stop-color="#6A3800" offset="0%"/><stop stop-color="#D27500" offset="100%"/></linearGradient><linearGradient x1="-0.0956692913%" y1="50.1166667%" x2="99.9645669%" y2="50.1166667%" id="linearGradient-8"><stop stop-color="#DBB389" offset="0%"/><stop stop-color="#F2BF83" offset="55.47%"/><stop stop-color="#FFC67F" offset="100%"/></linearGradient><linearGradient x1="0.0193226623%" y1="50.0219137%" x2="99.9731973%" y2="50.0219137%" id="linearGradient-9"><stop stop-color="#DBB389" offset="0%"/><stop stop-color="#DCB489" offset="2.002078%"/><stop stop-color="#F0BE83" offset="33.71%"/><stop stop-color="#FBC480" offset="66.11%"/><stop stop-color="#FFC67F" offset="100%"/></linearGradient><linearGradient x1="-0.320597884%" y1="49.9216717%" x2="100.110219%" y2="49.9216717%" id="linearGradient-10"><stop stop-color="#DBB389" offset="0%"/><stop stop-color="#F2BF83" offset="55.47%"/><stop stop-color="#FFC67F" offset="100%"/></linearGradient><linearGradient x1="-0.229678%" y1="50.029454%" x2="100.220671%" y2="50.029454%" id="linearGradient-11"><stop stop-color="#DBB389" offset="0%"/><stop stop-color="#F2BF83" offset="55.47%"/><stop stop-color="#FFC67F" offset="100%"/></linearGradient><linearGradient x1="99.9530735%" y1="49.9696043%" x2="0.102024376%" y2="49.9696043%" id="linearGradient-12"><stop stop-color="#AA4700" offset="0%"/><stop stop-color="#B45200" offset="12.9%"/><stop stop-color="#C56600" offset="41.08%"/><stop stop-color="#CF7100" offset="69.88%"/><stop stop-color="#D27500" offset="100%"/></linearGradient><linearGradient x1="0.179199571%" y1="50.1663661%" x2="100.009491%" y2="50.1663661%" id="linearGradient-13"><stop stop-color="#AA4700" offset="0%"/><stop stop-color="#B45200" offset="12.9%"/><stop stop-color="#C56600" offset="41.08%"/><stop stop-color="#CF7100" offset="69.88%"/><stop stop-color="#D27500" offset="100%"/></linearGradient><linearGradient x1="-0.334089071%" y1="49.9748387%" x2="99.9170091%" y2="49.9748387%" id="linearGradient-14"><stop stop-color="#4454B2" offset="0%"/><stop stop-color="#00247F" offset="100%"/></linearGradient><linearGradient x1="48.4734269%" y1="50.5846925%" x2="51.3837812%" y2="49.3826515%" id="linearGradient-15"><stop stop-color="#DBB389" offset="0%"/><stop stop-color="#F2BF83" offset="55.47%"/><stop stop-color="#FFC67F" offset="100%"/></linearGradient><linearGradient x1="48.7425211%" y1="50.4663202%" x2="51.0932291%" y2="49.3753864%" id="linearGradient-16"><stop stop-color="#DBB389" offset="0%"/><stop stop-color="#F2BF83" offset="55.47%"/><stop stop-color="#FFC67F" offset="100%"/></linearGradient><linearGradient x1="0.0235950892%" y1="50.0898066%" x2="99.9276315%" y2="50.0898066%" id="linearGradient-17"><stop stop-color="#4454B2" offset="0%"/><stop stop-color="#00247F" offset="100%"/></linearGradient><linearGradient x1="74.5799852%" y1="47.4631813%" x2="32.9320757%" y2="52.0292453%" id="linearGradient-18"><stop stop-color="#FF9A1B" offset="0%"/><stop stop-color="#F57C00" offset="100%"/></linearGradient><linearGradient x1="17.4001359%" y1="53.0184698%" x2="82.3313511%" y2="47.9807637%" id="linearGradient-19"><stop stop-color="#6A3800" offset="0%"/><stop stop-color="#D27500" offset="100%"/></linearGradient><linearGradient x1="-0.115909771%" y1="49.9801525%" x2="100.040216%" y2="49.9801525%" id="linearGradient-20"><stop stop-color="#4454B2" offset="0%"/><stop stop-color="#00247F" offset="100%"/></linearGradient><linearGradient x1="0.0938447229%" y1="49.9852941%" x2="99.9201233%" y2="49.9852941%" id="linearGradient-21"><stop stop-color="#DBB389" offset="0%"/><stop stop-color="#F2BF83" offset="55.47%"/><stop stop-color="#FFC67F" offset="100%"/></linearGradient><linearGradient x1="-0.106977622%" y1="49.9348119%" x2="100.087445%" y2="49.9348119%" id="linearGradient-22"><stop stop-color="#4454B2" offset="0%"/><stop stop-color="#00247F" offset="100%"/></linearGradient><linearGradient x1="0.18612146%" y1="50.448948%" x2="100.344293%" y2="50.448948%" id="linearGradient-23"><stop stop-color="#DBB389" offset="0%"/><stop stop-color="#DCB489" offset="2.002078%"/><stop stop-color="#F0BE83" offset="33.71%"/><stop stop-color="#FBC480" offset="66.11%"/><stop stop-color="#FFC67F" offset="100%"/></linearGradient><linearGradient x1="0.024948987%" y1="50.0036277%" x2="100.004169%" y2="50.0036277%" id="linearGradient-24"><stop stop-color="#AA4700" offset="0%"/><stop stop-color="#B45200" offset="12.9%"/><stop stop-color="#C56600" offset="41.08%"/><stop stop-color="#CF7100" offset="69.88%"/><stop stop-color="#D27500" offset="100%"/></linearGradient><linearGradient x1="0.0239935759%" y1="49.9306286%" x2="100.05277%" y2="49.9306286%" id="linearGradient-25"><stop stop-color="#6A3800" offset="0%"/><stop stop-color="#D27500" offset="100%"/></linearGradient><linearGradient x1="0.066327569%" y1="49.9539866%" x2="100.053378%" y2="49.9539866%" id="linearGradient-26"><stop stop-color="#FF9A1B" offset="0%"/><stop stop-color="#FFD56F" offset="100%"/></linearGradient></defs><g id="Page-1" stroke="none" stroke-width="1" fill="none" fill-rule="evenodd"><g id="Contact-Page-v2" transform="translate(-15.000000, -400.000000)"><g id="Iniciar-Sesion" transform="translate(-13.000000, 276.000000)"><g id="Text"><g id="Group-2" transform="translate(0.000000, 80.000000)"><path d="M28,134 C84.8475509,142.232541 142.300427,142.232541 200.358629,134 C258.416831,125.767459 315.963955,125.767459 373,134 L373,151 L28,151 L28,134 Z" id="Rectangle" fill="url(#linearGradient-1)"/><g id="Group"><g id="Family" transform="translate(293.000000, 108.500000) scale(-1, 1) translate(-293.000000, -108.500000) translate(220.000000, 44.000000)"><g id="Group" transform="translate(9.000000, 0.000000)"><g transform="translate(9.521552, 5.846010)" fill-rule="nonzero" id="Path"><path d="M4.49741379,14.4062399 C4.05172414,14.9282051 7.43491379,19.3753488 7.43491379,19.3753488 C6.88793103,18.2270253 6.74612069,16.4732222 6.72586207,16.1809216 C6.01681034,15.3457773 4.82155172,14.0513036 4.49741379,14.4062399 Z" fill="url(#linearGradient-2)"/><path d="M10.3724138,5.17789493 C10.1698276,4.65592971 9.35948276,1.73292451 9.35948276,1.73292451 C9.35948276,1.73292451 7.6375,-1.29447373 3.38318966,1.10656625 C-0.87112069,3.50760624 1.7625,10.9195123 1.55991379,12.694194 C1.35732759,14.4688757 0.141810345,18.7489905 0.141810345,18.7489905 C0.141810345,18.7489905 1.25603448,20.6280653 3.48448276,21.0456374 C5.71293103,21.4632096 8.04267241,20.6280653 7.43491379,19.3753488 C7.43491379,19.3753488 4.03146552,14.9490837 4.49741379,14.4062399 C4.8012931,14.0513036 6.01681034,15.3248987 6.72586207,16.1809216 C6.72586207,16.160043 6.72586207,16.1391644 6.72586207,16.1391644 C8.65043103,16.7655227 8.65043103,16.3479505 9.86594828,16.1391644 C11.0814655,15.9303783 11.3853448,13.8425175 11.324569,12.694194 C11.2637931,11.5458705 12.3780172,11.629385 13.0060345,10.9195123 C13.4112069,10.4393043 10.575,5.69986014 10.3724138,5.17789493 Z" fill="#FFD5A1"/></g><g transform="translate(31.198276, 26.933405)" fill-rule="nonzero" id="Path"><path d="M12.0741379,0.0835144343 C10.4939655,0.354936346 9.13663793,2.73509772 6.54353448,5.47019545 C3.64655172,8.53935091 0.526724138,14.1765752 0.526724138,14.1765752 C-0.0405172414,15.1369912 -0.0607758621,16.1182858 0.222844828,16.9951874 C4.23405172,13.4458239 9.80517241,4.07132867 12.0741379,0.0835144343 Z" fill="url(#linearGradient-3)"/><path d="M12.6008621,0.0835144343 C12.4185345,0.0626358257 12.2362069,0.0626358257 12.0538793,0.0835144343 C9.78491379,4.07132867 4.2137931,13.4458239 0.202586207,16.9951874 C0.830603448,18.936898 2.95775862,20.3566434 4.17327586,19.8764354 C5.95603448,19.1874413 12.8034483,5.88776762 13.2086207,4.00869285 C13.6137931,2.12961807 14.4241379,0.334057737 12.6008621,0.0835144343 Z" fill="#F57C00"/></g><g transform="translate(23.297414, 24.010400)" fill-rule="nonzero" id="Path"><path d="M4.78103448,3.94605702 C2.69439655,6.13831092 0.486206897,10.1678824 0.486206897,10.1678824 C-0.202586207,11.3370845 0.222844828,12.5480438 0.972413793,13.3623095 C3.05905172,8.14265734 7.37413793,2.21313251 9.01508621,0.0626358257 C7.75905172,0.0208786086 6.78663793,1.81643895 4.78103448,3.94605702 Z" fill="url(#linearGradient-4)"/><path d="M9.13663793,0.0835144343 C9.09612069,0.0835144343 9.05560345,0.0835144343 8.99482759,0.0626358257 C7.35387931,2.21313251 3.0387931,8.14265734 0.952155172,13.3623095 C1.60043103,14.0721822 2.51206897,14.4897543 3.09956897,14.239211 C4.37586207,13.7381244 9.27844828,4.23835754 9.56206897,2.88124798 C9.86594828,1.54501703 10.4534483,0.250543303 9.13663793,0.0835144343 Z" fill="#C66802"/></g><path d="M45.6224138,11.5458705 L39.2409483,9.37449525 C38.4508621,9.10307334 37.6,9.39537386 37.1137931,10.0426107 C36.9922414,10.2096396 36.8706897,10.4184257 36.8099138,10.6272118 L33.0418103,22.3401112 C32.9810345,22.5280186 32.9607759,22.6950475 32.9405172,22.882955 C32.9202586,23.7389779 33.4267241,24.5532437 34.2573276,24.8455442 L40.6387931,27.0169195 C41.4693966,27.30922 42.3607759,26.9542837 42.8267241,26.2652896 C42.9280172,26.1191393 43.0090517,25.9521105 43.0698276,25.764203 L46.8176724,14.0513036 C46.8784483,13.8216389 46.9189655,13.6128528 46.9189655,13.3831881 C46.9189655,12.5689224 46.4125,11.8172925 45.6224138,11.5458705 Z" id="Path" fill="#181B7F" fill-rule="nonzero"/><g transform="translate(32.413793, 9.395374)" fill-rule="nonzero" id="Path"><path d="M1.39784483,15.6380778 L7.77931034,17.8094531 C8.60991379,18.1017536 9.5012931,17.7468173 9.96724138,17.0578232 L0.0810344828,13.6754886 C0.0607758621,14.5315116 0.5875,15.3457773 1.39784483,15.6380778 Z" fill="#5967D6"/><path d="M4.25431034,0.835144343 C4.13275862,1.00217321 4.0112069,1.2109593 3.95043103,1.41974538 L0.202586207,13.1326448 C0.141810345,13.3205523 0.121551724,13.4875811 0.101293103,13.6754886 L9.9875,17.0578232 C10.0887931,16.9116729 10.1698276,16.7446441 10.2306034,16.5567366 L13.9784483,4.84383719 C14.0392241,4.61417249 14.0797414,4.40538641 14.0797414,4.17572171 L4.25431034,0.835144343 Z" fill="#9EB5E5"/><path d="M12.762931,2.35928277 L6.38146552,0.187907477 C5.59137931,-0.0835144343 4.74051724,0.208786086 4.25431034,0.856022951 L14.0797414,4.19660032 C14.0594828,3.38233459 13.5530172,2.60982607 12.762931,2.35928277 Z" fill="#5967D6"/></g><path d="M42.4012931,27.30922 C42.4012931,27.30922 41.6314655,22.4862614 42.4012931,23.3840416 C43.1711207,24.2818218 43.2926724,25.283995 43.5155172,24.427972 C43.7788793,23.3840416 45.3793103,18.6237188 45.3793103,18.6237188 C45.3793103,18.6237188 46.7366379,19.1039268 46.4935345,22.4445042 C46.250431,25.7850816 45.6021552,28.1443644 44.9336207,28.6036937 C44.9336207,28.6036937 44.0219828,26.9542837 42.4012931,27.30922 Z" id="Path" fill="#FFD5A1" fill-rule="nonzero"/><path d="M31.2185345,24.4906079 C31.2185345,24.4906079 31.0969828,21.7972673 31.6642241,20.481915 C32.2314655,19.1665627 33.325431,17.6215456 34.3383621,17.0787018 L33.0012931,21.2544235 C33.0012931,21.2544235 33.8318966,20.962123 34.3383621,20.3148861 C34.8448276,19.6467707 34.8853448,20.7742155 34.500431,21.2961807 C34.1357759,21.818146 33.2241379,25.2004805 33.2241379,25.2004805 C33.2241379,25.2004805 32.3327586,24.1983073 31.2185345,24.4906079 Z" id="Path" fill="#FFD5A1" fill-rule="nonzero"/><g transform="translate(4.659483, 56.163457)" id="Path"><path d="M11.4866379,18.6445975 C11.2435345,17.7050601 11.0612069,17.3083665 10.9193966,17.1413376 C11.2637931,18.1435108 11.4866379,18.6445975 11.4866379,18.6445975 Z"/><path d="M23.5,30.9003407 C22.9935345,24.1147929 21.7172414,15.7424709 20.6030172,13.2370378 C20.6030172,13.2370378 20.2383621,5.5954671 18.5974138,2.15049668 C17.7060345,0.271421911 10.7978448,0.187907477 6.42198276,0.396693563 C6.42198276,11.3370845 10.0887931,14.719419 10.9193966,17.1413376 C11.0612069,17.2874879 11.2637931,17.7050601 11.4866379,18.6445975 C12.0943966,21.0456374 13.5732759,30.7959476 15.2952586,32.9882015 C15.2952586,32.9882015 14.3431034,51.3613771 17.3616379,58.8776762 C17.3616379,58.8776762 20.5017241,62.3226466 23.1150862,58.8776762 C23.1353448,58.8776762 24.0064655,37.6858885 23.5,30.9003407 Z" fill="#5967D6" fill-rule="nonzero"/><g fill-rule="nonzero"><path d="M7.94137931,17.8929675 C4.43663793,13.759003 4.17327586,4.80207997 4.23405172,1.10656625 C2.04612069,1.79556034 0.324137931,2.6724619 0.324137931,2.6724619 C0.324137931,2.6724619 -0.567241379,4.8647158 1.35732759,11.9634427 C2.77543103,17.1830949 0.222844828,20.3357647 3.38318966,32.4244791 C3.38318966,32.4244791 1.7625,46.6219329 1.55991379,58.835919 C1.55991379,58.835919 2.73491379,60.5688435 5.32801724,60.7149937 C7.96163793,46.2043608 11.3448276,21.9016604 7.94137931,17.8929675 Z" fill="#4454B2"/><path d="M10.575,17.2874879 C10.575,17.2874879 10.6965517,16.8907943 10.9193966,17.1413376 C10.1090517,14.6985404 8.65043103,9.22834499 8.30603448,0.271421911 C6.96896552,0.334057737 3.97068966,-0.104393043 2.69439655,0.313179129 C2.63362069,4.02957145 5.34827586,14.6776618 7.96163793,19.4797418 C10.6560345,24.427972 7.90086207,46.5175399 5.34827586,60.7149937 C5.79396552,60.7358723 6.30043103,60.7149937 6.84741379,60.6106007 C6.84741379,60.6106007 12.3172414,39.3144199 12.3172414,32.7376582 C12.3172414,26.1608965 10.575,17.2874879 10.575,17.2874879 Z" fill="url(#linearGradient-5)"/></g></g><path d="M10.9599138,19.2918343 C10.9599138,19.2918343 10.2306034,17.016066 9.66336207,16.5149794 C9.09612069,16.0138928 4.15301724,7.99650708 5.85474138,7.99650708 C7.5362069,7.99650708 8.24525862,8.97780169 8.24525862,8.97780169 C8.24525862,8.97780169 8.83275862,0.897780169 11.9323276,0.563722431 C15.0318966,0.208786086 11.9323276,5.01086606 11.9323276,5.01086606 C11.9323276,5.01086606 15.7206897,-0.480207997 18.4150862,0.14615026 C21.1094828,0.772508517 17.1387931,4.25923615 17.1387931,4.25923615 C17.1387931,4.25923615 21.2512931,0.918658777 23.0137931,3.36145598 C24.7762931,5.80425318 16.7943966,10.5228187 15.6599138,10.5228187 C15.6599138,10.5228187 16.612069,14.9073265 15.3357759,16.2226789 C14.3431034,17.2457307 13.6948276,13.9469105 13.6948276,13.9469105 C13.6948276,13.9469105 12.0133621,15.3457773 12.0133621,17.6424242 C12.0133621,19.9390712 10.9599138,19.2918343 10.9599138,19.2918343 Z" id="Path" fill="url(#linearGradient-6)" fill-rule="nonzero"/><path d="M14.9711207,61.8841958 C14.9711207,61.8841958 15.0521552,64.9533513 16.45,66.2060678 C17.8478448,67.4587843 19.6103448,67.6675704 19.6103448,67.6675704 C19.6103448,67.6675704 22.0818966,66.0599175 22.3452586,65.0995015 C22.6086207,64.1182069 21.8793103,60.3600574 21.8793103,60.3600574 C21.8793103,60.3600574 18.8,62.2391321 14.9711207,61.8841958 Z" id="Path" fill="#9EB5E5" fill-rule="nonzero"/><path d="M6.11810345,61.925953 C6.11810345,61.925953 5.81422414,64.4731433 6.80689655,65.6841026 C7.79956897,66.8950619 9.23793103,67.312634 9.23793103,67.312634 C9.23793103,67.312634 11.4663793,66.3104608 11.8107759,65.5379523 C12.1551724,64.7654438 12.0133621,61.5710167 12.0133621,61.5710167 C12.0133621,61.5710167 9.21767241,62.7193401 6.11810345,61.925953 Z" id="Path" fill="#5967D6" fill-rule="nonzero"/><g transform="translate(4.051724, 24.427972)" fill-rule="nonzero" id="Path"><path d="M16.1866379,23.6554635 C16.4905172,16.8490371 17.9491379,14.9282051 18.637931,14.4062399 C18.8202586,11.6502636 19.0836207,8.72725838 19.2051724,6.11743231 C19.4280172,1.31535234 12.9047414,0.793387126 12.9047414,0.793387126 C12.9047414,0.793387126 9.46077586,0.0626358257 5.61163793,0.167028869 C1.7625,0.271421911 2.67413793,4.23835754 2.67413793,4.23835754 C2.67413793,4.23835754 2.89698276,4.90647301 3.11982759,5.97128205 C6.50301724,3.92517841 10.0482759,1.87907477 10.3724138,2.08786086 C11.0409483,2.48455442 10.2913793,10.773362 7.94137931,14.4062399 C6.4625,16.6611296 4.41637931,17.5797884 2.63362069,17.9347248 C1.45862069,24.5950009 0.0202586207,36.6002008 0.0202586207,36.6002008 C0.0202586207,36.6002008 5.69267241,41.1934947 10.5142241,41.1934947 C12.7426724,41.1934947 15.0318966,40.6088937 16.9159483,39.9198996 C16.4905172,35.9112067 15.9232759,29.3762023 16.1866379,23.6554635 Z" fill="#F57C00"/><path d="M18.5163793,20.7324583 C18.3948276,18.9160194 18.4758621,16.7237655 18.637931,14.4062399 C17.9491379,14.9282051 16.4905172,16.8490371 16.1866379,23.6554635 C15.9232759,29.3970809 16.4905172,35.9112067 16.9362069,39.9198996 C19.4482759,39.0221194 21.2310345,37.9573104 21.2310345,37.9573104 C21.2310345,37.9573104 18.7797414,24.6993939 18.5163793,20.7324583 Z" fill="#C66802"/><path d="M7.94137931,14.3853613 C10.3116379,10.773362 11.0409483,2.48455442 10.3724138,2.06698225 C10.0280172,1.85819616 6.48275862,3.9042998 3.11982759,5.95040344 C3.60603448,8.05914291 4.19353448,11.6711422 3.38318966,14.4479971 C3.16034483,15.199627 2.91724138,16.4314649 2.65387931,17.9138462 C4.41637931,17.5589098 6.48275862,16.6611296 7.94137931,14.3853613 Z" fill="#C66802"/></g><path d="M22.4262931,27.6223991 C22.4262931,27.6223991 25.7689655,30.9003407 30.4284483,36.6837153 C35.087931,42.4670898 36.4452586,45.5571239 35.3715517,46.8098404 C34.2978448,48.0625569 31.7452586,45.6615169 30.4284483,44.7637368 C29.1116379,43.8659566 20.7448276,37.9364318 19.7926724,37.0386516 C18.6176724,35.952964 16.8551724,33.176109 18.1719828,29.4805953 C19.6508621,25.3675094 22.4262931,27.6223991 22.4262931,27.6223991 Z" id="Path" fill="#F57C00" fill-rule="nonzero"/><path d="M0.182327586,33.0508374 C0.182327586,33.0508374 -0.28362069,37.497981 1.53965517,37.6441313 C3.36293103,37.7902815 1.53965517,40.1495643 3.30215517,40.2122001 C5.06465517,40.2748359 9.37974138,39.9407782 11.75,36.3079003 C14.1202586,32.695901 15.0724138,26.0773821 14.4038793,25.6806885 C13.7150862,25.283995 0.182327586,33.0508374 0.182327586,33.0508374 Z" id="Path" fill="#FF9A1B" fill-rule="nonzero"/><path d="M9.66336207,24.5950009 C9.66336207,24.5950009 6.52327586,23.7180993 4.96336207,25.7433244 C3.40344828,27.7685494 -1.6612069,33.1969876 0.850862069,34.0947678 C3.34267241,34.992548 12.5603448,28.7289654 14.3836207,26.2235324 C15.3155172,24.9290586 9.66336207,24.5950009 9.66336207,24.5950009 Z" id="Path" fill="url(#linearGradient-7)" fill-rule="nonzero"/></g><g id="Group" transform="translate(114.000000, 45.000000)"><path d="M1.06683871,20.0654601 C1.06683871,20.0654601 1.12722581,23.9953793 2.27458065,24.6399692 C3.42193548,25.2845591 3.34141935,20.0238737 3.34141935,20.0238737 L1.06683871,20.0654601 Z" id="Path" fill="#FFD5A1" fill-rule="nonzero"/><path d="M2.91870968,15.761263 C2.91870968,15.761263 0.543483871,16.6553716 0.644129032,18.9218329 C0.744774194,21.2090874 1.08696774,21.5625722 1.08696774,21.5625722 L3.36154839,20.0030805 C3.34141935,20.0030805 4.91148387,16.1771275 2.91870968,15.761263 Z" id="Path" fill="#4454B2" fill-rule="nonzero"/><g transform="translate(17.713548, 19.337697)" fill-rule="nonzero" id="Path"><path d="M5.65625806,0.499037351 C5.47509677,0.623796688 5.29393548,0.790142472 5.09264516,0.977281479 C4.12645161,2.74470543 1.57006452,7.42318059 0.462967742,9.08663843 C0.764903226,9.83519446 1.14735484,10.6253369 1.40903226,10.5629573 C1.89212903,10.4381979 6.90425806,1.14362726 6.90425806,1.14362726 C6.90425806,1.14362726 7.60877419,-0.91490181 5.65625806,0.499037351 Z" fill="#FFD5A1"/><path d="M0,7.75587216 C0,7.75587216 0.221419355,8.42125529 0.483096774,9.08663843 C1.59019355,7.40238737 4.14658065,2.74470543 5.11277419,0.977281479 C3.09987097,2.91105121 0,7.75587216 0,7.75587216 Z" fill="url(#linearGradient-8)"/></g><g transform="translate(4.025806, 3.742780)" fill-rule="nonzero" id="Path"><path d="M2.85832258,9.02425876 C2.57651613,9.35695033 4.71019355,12.1640354 4.71019355,12.1640354 C4.368,11.4362726 4.26735484,10.3342318 4.26735484,10.1470928 C3.8043871,9.606469 3.0596129,8.79553331 2.85832258,9.02425876 Z" fill="url(#linearGradient-9)"/><path d="M6.56206452,3.20215633 C6.44129032,2.86946477 5.91793548,1.01886792 5.91793548,1.01886792 C5.91793548,1.01886792 4.83096774,-0.894108587 2.15380645,0.623796688 C-0.523354839,2.14170196 1.12722581,6.82017713 1.00645161,7.94301117 C0.885677419,9.06584521 0.120774194,11.7689642 0.120774194,11.7689642 C0.120774194,11.7689642 0.825290323,12.9541779 2.23432258,13.2244898 C3.64335484,13.4948017 5.11277419,12.9541779 4.73032258,12.1640354 C4.73032258,12.1640354 2.59664516,9.35695033 2.87845161,9.02425876 C3.07974194,8.79553331 3.82451613,9.606469 4.28748387,10.1470928 C4.28748387,10.1262996 4.28748387,10.1262996 4.28748387,10.1262996 C5.49522581,10.5213708 5.49522581,10.2510589 6.26012903,10.1262996 C7.02503226,10.0015402 7.22632258,8.67077397 7.18606452,7.94301117 C7.14580645,7.21524836 7.85032258,7.27762803 8.23277419,6.82017713 C8.47432258,6.52907201 6.68283871,3.5348479 6.56206452,3.20215633 Z" fill="#FFD5A1"/></g><path d="M12.2384516,23.3507894 C12.2384516,23.3507894 15.6603871,29.9214478 18.8005161,30.0670004 C21.9406452,30.2125529 15.2376774,21.6873315 15.2376774,21.6873315 C15.2376774,21.6873315 12.1176774,20.8763958 12.2384516,23.3507894 Z" id="Path" fill="#FFD5A1" fill-rule="nonzero"/><path d="M14.4325161,16.7385445 C14.4123871,16.7385445 14.3922581,16.7385445 14.372129,16.7385445 C13.7682581,16.7177513 13.3052903,17.5910666 12.3592258,18.6099345 C11.3527742,19.6703889 10.3060645,21.6041586 10.3060645,21.6041586 C9.984,22.1655757 10.1852903,22.7477859 10.5274839,23.1428571 C10.8495484,23.4963419 11.2722581,23.6834809 11.5540645,23.5795148 C12.1579355,23.3299961 14.5130323,18.7762803 14.6539355,18.1108972 C14.7747097,17.4455141 15.0565161,16.8217174 14.4325161,16.7385445 Z" id="Path" fill="#FFD5A1" fill-rule="nonzero"/><path d="M24.7385806,13.8898729 L24.0743226,17.9653446 C23.9938065,18.464382 23.6113548,18.83866 23.1483871,18.9218329 C23.0276129,18.9426261 22.8867097,18.9426261 22.7659355,18.9218329 L15.7610323,17.6742395 C15.6603871,17.6534463 15.5597419,17.6118598 15.4590968,17.5702734 C15.0162581,17.3415479 14.7344516,16.8425106 14.8350968,16.3018868 L15.4993548,12.2264151 C15.579871,11.7065845 16.0025806,11.3115133 16.5058065,11.2491336 C16.6064516,11.2283404 16.7272258,11.2283404 16.827871,11.2491336 L23.8327742,12.496727 C23.9736774,12.5175202 24.0944516,12.5591067 24.1950968,12.6214863 C24.5775484,12.9125915 24.8190968,13.3908356 24.7385806,13.8898729 Z" id="Path" fill="#181B7F" fill-rule="nonzero"/><g transform="translate(14.492903, 11.436273)" fill-rule="nonzero" id="Path"><path d="M0.080516129,5.09433962 L0.744774194,1.01886792 C0.825290323,0.499037351 1.248,0.103966115 1.75122581,0.0415864459 L0.704516129,6.341933 C0.261677419,6.13400077 -4.16333634e-17,5.6141702 0.080516129,5.09433962 Z" fill="#5967D6"/><path d="M8.41393548,7.69349249 C8.29316129,7.71428571 8.15225806,7.71428571 8.03148387,7.69349249 L1.02658065,6.44589911 C0.925935484,6.42510589 0.825290323,6.38351945 0.724645161,6.341933 L1.77135484,0.0415864459 C1.872,0.0207932229 1.99277419,0.0207932229 2.09341935,0.0415864459 L9.09832258,1.28917982 C9.23922581,1.30997305 9.36,1.35155949 9.46064516,1.41393916 L8.41393548,7.69349249 Z" fill="#9EB5E5"/><path d="M10.0242581,2.64073931 L9.36,6.71621101 C9.27948387,7.21524836 8.89703226,7.58952638 8.43406452,7.67269927 L9.46064516,1.41393916 C9.86322581,1.66345784 10.1047742,2.14170196 10.0242581,2.64073931 Z" fill="#5967D6"/></g><path d="M23.0074839,20.3149788 C23.0074839,20.3149788 22.6250323,17.9237582 23.0074839,18.3604159 C23.3899355,18.7970735 23.9535484,18.3812091 24.0743226,17.9653446 C24.1950968,17.4455141 24.4366452,15.7404698 24.4366452,15.7404698 C24.4366452,15.7404698 25.1612903,16.2395071 25.0405161,17.8821717 C24.9197419,19.5456296 24.5976774,20.7100501 24.2756129,20.9387755 C24.2554839,20.9595687 23.8126452,20.1278398 23.0074839,20.3149788 Z" id="Path" fill="#FFD5A1" fill-rule="nonzero"/><g transform="translate(1.610323, 52.190990)" fill-rule="nonzero" id="Path"><path d="M5.03225806,4.5329226 C5.03225806,4.5329226 5.5556129,2.03773585 4.9316129,0.540623797 C4.71019355,0.0207932229 4.18683871,0.0415864459 3.62322581,0.291105121 C3.6836129,0.35348479 3.744,0.436657682 3.78425806,0.540623797 C4.40825806,2.03773585 3.88490323,4.5329226 3.88490323,4.5329226 C4.34787097,6.19638044 3.28103226,8.08856373 3.28103226,8.08856373 C3.62322581,11.748171 2.65703226,19.961494 2.65703226,19.961494 C2.65703226,19.961494 2.41548387,21.2506739 1.38890323,21.6249519 C1.57006452,21.6873315 1.79148387,21.728918 2.03303226,21.728918 C3.50245161,21.6665383 3.8043871,19.9822873 3.8043871,19.9822873 C3.8043871,19.9822873 4.77058065,11.7689642 4.4283871,8.10935695 C4.4283871,8.0677705 5.49522581,6.17558722 5.03225806,4.5329226 Z" fill="url(#linearGradient-10)"/><path d="M2.65703226,19.961494 C2.65703226,19.961494 3.62322581,11.748171 3.28103226,8.08856373 C3.28103226,8.08856373 4.368,6.19638044 3.88490323,4.5329226 C3.88490323,4.5329226 4.40825806,2.03773585 3.78425806,0.540623797 C3.744,0.436657682 3.6836129,0.35348479 3.62322581,0.291105121 C2.59664516,0.748556026 1.36877419,1.97535618 1.36877419,1.97535618 C1.36877419,1.97535618 0.865548387,3.20215633 1.22787097,4.86561417 C1.59019355,6.52907201 0.161032258,20.1278398 0.161032258,20.1278398 C0.161032258,20.1278398 0.422709677,21.2714671 1.36877419,21.6249519 C2.41548387,21.2298806 2.65703226,19.961494 2.65703226,19.961494 Z" fill="#FFD5A1"/></g><g transform="translate(8.856774, 52.606854)" fill-rule="nonzero" id="Path"><path d="M4.79070968,4.55371583 C4.79070968,4.55371583 5.27380645,2.03773585 4.62967742,0.56141702 C4.40825806,0.0415864459 3.90503226,0.0831728918 3.36154839,0.332691567 C3.42193548,0.395071236 3.48232258,0.478244128 3.52258065,0.56141702 C4.16670968,2.03773585 3.6836129,4.55371583 3.6836129,4.55371583 C4.18683871,6.19638044 3.14012903,8.10935695 3.14012903,8.10935695 C3.54270968,11.7689642 2.67716129,20.4813246 2.67716129,20.4813246 C2.67716129,20.4813246 2.45574194,21.8120909 1.38890323,22.1655757 C1.59019355,22.2279553 1.79148387,22.2695418 2.05316129,22.2487486 C3.52258065,22.1655757 3.8043871,20.4605314 3.8043871,20.4605314 C3.8043871,20.4605314 4.69006452,11.748171 4.26735484,8.08856373 C4.24722581,8.10935695 5.29393548,6.19638044 4.79070968,4.55371583 Z" fill="url(#linearGradient-11)"/><path d="M2.67716129,20.4813246 C2.67716129,20.4813246 3.56283871,11.7689642 3.14012903,8.10935695 C3.14012903,8.10935695 4.18683871,6.19638044 3.6836129,4.55371583 C3.6836129,4.55371583 4.16670968,2.03773585 3.52258065,0.56141702 C3.48232258,0.457450905 3.42193548,0.395071236 3.36154839,0.332691567 C2.33496774,0.810935695 1.08696774,2.07932229 1.08696774,2.07932229 C1.08696774,2.07932229 0.603870968,3.30612245 1.00645161,4.96958028 C1.40903226,6.63303812 0.161032258,20.7308433 0.161032258,20.7308433 C0.161032258,20.7308433 0.44283871,21.8536773 1.36877419,22.1863689 C2.45574194,21.8120909 2.67716129,20.4813246 2.67716129,20.4813246 Z" fill="#FFD5A1"/></g><path d="M13.8487742,16.9464767 C13.8487742,16.9464767 13.7883871,15.6572969 14.0701935,15.012707 C14.352,14.3681171 14.6136774,13.6403543 15.0967742,13.3700424 L14.7747097,15.3038121 C14.7747097,15.3038121 15.0967742,15.2414324 15.3383226,14.9295341 C15.579871,14.6176357 15.6,15.1374663 15.4188387,15.4077782 C15.2376774,15.6572969 14.7747097,17.4871005 14.7747097,17.4871005 C14.7747097,17.4871005 14.372129,16.8009241 13.8487742,16.9464767 Z" id="Path" fill="#FFD5A1" fill-rule="nonzero"/><g transform="translate(1.409032, 34.932615)" id="Path"><path d="M6.40103226,12.309588 C6.3003871,11.7065845 6.21987097,11.4362726 6.13935484,11.3323065 C6.28025806,11.9768964 6.40103226,12.309588 6.40103226,12.309588 Z"/><path d="M12.9027097,19.7119754 C13.0033548,15.4077782 12.9832258,11.1451675 12.4397419,9.50250289 C12.4397419,9.50250289 12.6611613,4.67847516 11.856,2.41201386 C11.4131613,1.16442049 7.08541935,0.665383134 4.32774194,0.519830574 C3.66348387,7.40238737 5.75690323,9.75202156 6.11922581,11.3323065 C6.19974194,11.4362726 6.3003871,11.7065845 6.38090323,12.309588 C6.62245161,13.8482865 6.66270968,19.0050058 7.60877419,20.5021178 C7.60877419,20.5021178 8.95741935,21.2090874 10.9300645,20.8556026 C12.9429677,20.4813246 12.9027097,19.7119754 12.9027097,19.7119754 Z" fill="#F57C00" fill-rule="nonzero"/><path d="M0.483096774,20.4397382 C-0.764903226,12.6422796 1.02658065,10.8332692 0.462967742,7.46476704 C-0.301935484,2.89025799 0.382451613,1.55949172 0.382451613,1.55949172 C0.382451613,1.55949172 1.02658065,1.30997305 1.97264516,1.06045437 C1.97264516,0.748556026 1.99277419,0.457450905 2.01290323,0.228725452 C2.83819355,0.0623796688 4.69006452,0.519830574 5.53548387,0.56141702 C5.21341935,6.21717366 5.77703226,9.75202156 6.13935484,11.3323065 C6.01858065,11.1659607 5.91793548,11.3946862 5.91793548,11.3946862 C5.91793548,11.3946862 6.56206452,15.5949172 6.15948387,19.7119754 C6.15948387,19.7119754 3.72387097,21.4586061 0.483096774,20.4397382 Z" fill="url(#linearGradient-12)" fill-rule="nonzero"/></g><path d="M12.5403871,2.07932229 C11.4332903,0.540623797 8.83664516,2.64073931 8.83664516,2.64073931 C8.83664516,2.64073931 11.3527742,0.436657682 9.64180645,0.0415864459 C7.93083871,-0.35348479 5.5556129,3.11898344 5.5556129,3.11898344 C5.5556129,3.11898344 7.50812903,0.0831728918 5.5556129,0.311898344 C3.60309677,0.540623797 3.22064516,5.63496342 3.22064516,5.63496342 C3.22064516,5.63496342 2.77780645,5.01116673 1.71096774,5.01116673 C1.06683871,5.01116673 1.9323871,6.82017713 2.79793548,8.3380824 L2.79793548,8.3380824 C2.79793548,8.3380824 -1.48954839,7.83904505 0.603870968,9.35695033 C1.8116129,10.2302657 2.97909677,10.167886 3.78425806,9.95995379 C3.82451613,10.0015402 3.84464516,10.0431267 3.86477419,10.0847131 C3.01935484,10.6461302 2.03303226,11.4570658 3.1803871,11.7273777 C4.9316129,12.1432422 4.9316129,12.1432422 4.9316129,12.1432422 C4.9316129,12.1432422 5.57574194,12.5175202 5.57574194,11.0827878 C5.57574194,9.62726223 6.64258065,8.75394686 6.64258065,8.75394686 C6.64258065,8.75394686 7.04516129,10.8332692 7.66916129,10.1886792 C8.47432258,9.35695033 7.87045161,6.59145168 7.87045161,6.59145168 C8.63535484,6.6122449 13.6474839,3.61802079 12.5403871,2.07932229 Z" id="Path" fill="url(#linearGradient-13)" fill-rule="nonzero"/><path d="M7.85032258,39.0496727 C7.85032258,39.0496727 7.72954839,40.9834424 8.51458065,41.8567578 C9.2996129,42.7300732 10.4067097,42.9795918 10.4067097,42.9795918 C10.4067097,42.9795918 12.0572903,42.1270697 12.2787097,41.5448595 C12.500129,40.941856 12.2787097,38.5506353 12.2787097,38.5506353 C12.2787097,38.5506353 10.2456774,39.5279168 7.85032258,39.0496727 Z" id="Path" fill="#FFAA3F" fill-rule="nonzero"/><path d="M2.29470968,38.4882557 C2.29470968,38.4882557 1.95251613,40.0685406 2.496,40.9002695 C3.03948387,41.7319985 3.92516129,42.0854832 3.92516129,42.0854832 C3.92516129,42.0854832 5.39458065,41.6072391 5.65625806,41.1497882 C5.91793548,40.6923373 6.01858065,38.6753947 6.01858065,38.6753947 C6.01858065,38.6753947 4.20696774,39.1952253 2.29470968,38.4882557 Z" id="Path" fill="#FFAA3F" fill-rule="nonzero"/><g transform="translate(0.603871, 15.386985)" fill-rule="nonzero" id="Path"><path d="M11.6748387,13.0997305 C11.5943226,11.9561032 11.6547097,10.5629573 11.7553548,9.10743165 C11.3125161,9.44012322 10.4067097,10.6461302 10.2054194,14.9503273 C10.0443871,18.5683481 10.3865806,22.6854062 10.6683871,25.2221794 C12.2384516,24.6607624 13.3656774,23.9745861 13.3656774,23.9745861 C13.3656774,23.9745861 11.835871,15.6157104 11.6748387,13.0997305 Z" fill="url(#linearGradient-14)"/><path d="M8.13212903,0.519830574 C8.13212903,0.519830574 5.95819355,0.0623796688 3.54270968,0.124759338 C1.12722581,0.187139007 1.40903226,1.89218329 1.46941935,2.70311898 C1.63045161,4.84482095 1.59019355,10.2926454 1.40903226,11.2283404 C0.664258065,15.4285714 0.0402580645,23.1428571 0.0402580645,23.1428571 C0.0402580645,23.1428571 3.62322581,26.0331151 6.64258065,26.0331151 C8.0516129,26.0331151 9.48077419,25.6588371 10.6683871,25.2221794 C10.3865806,22.6854062 10.0443871,18.5683481 10.2054194,14.9503273 C10.4067097,10.6461302 11.3125161,9.44012322 11.7553548,9.10743165 C11.876129,7.36080092 11.1112258,5.5309973 11.1917419,3.86753947 C11.3125161,0.852522141 8.13212903,0.519830574 8.13212903,0.519830574 Z" fill="#5967D6"/></g><path d="M12.1780645,17.4247208 C12.1780645,17.4247208 13.3254194,17.5910666 15.9019355,21.5209858 C17.0694194,23.3092029 16.1434839,24.6607624 15.4792258,25.4509049 C14.8149677,26.2410474 14.1305806,26.0123219 13.3052903,25.4509049 C12.48,24.8894879 11.1514839,23.9329996 10.5476129,23.3715826 C9.82296774,22.6854062 8.69574194,20.9387755 9.52103226,18.5891413 C10.4268387,16.0107817 12.1780645,17.4247208 12.1780645,17.4247208 Z" id="Path" fill="#5967D6" fill-rule="nonzero"/></g><g id="Group" transform="translate(42.000000, 10.000000)"><g transform="translate(11.450018, 83.001585)" fill-rule="nonzero" id="Path"><path d="M5.28782656,5.16407845 C5.28782656,5.16407845 5.78746372,2.19525602 4.89228048,0.501772805 C4.55918904,-0.104536001 3.91382438,-0.0209072002 3.18518687,0.313608003 C3.26845972,0.376329604 3.35173258,0.480865605 3.41418723,0.585401606 C4.33018868,2.27888482 3.80973331,5.24770725 3.80973331,5.24770725 C4.53837083,7.15026247 3.26845972,9.4500545 3.26845972,9.4500545 C3.97627903,13.6942161 3.28927794,23.395157 3.28927794,23.395157 C3.28927794,23.395157 3.06027758,24.9213827 1.74873004,25.4231555 C1.99854862,25.4858771 2.26918541,25.5276915 2.58145864,25.4858771 C4.47591618,25.2977123 4.76737119,23.290621 4.76737119,23.290621 C4.76737119,23.290621 5.45437228,13.6105873 4.74655298,9.3455185 C4.74655298,9.3664257 6.01646408,7.06663367 5.28782656,5.16407845 Z" fill="url(#linearGradient-15)"/><path d="M3.28927794,23.395157 C3.28927794,23.395157 3.97627903,13.7151233 3.26845972,9.4500545 C3.26845972,9.4500545 4.53837083,7.15026247 3.80973331,5.24770725 C3.80973331,5.24770725 4.30937046,2.27888482 3.41418723,0.585401606 C3.35173258,0.459958405 3.26845972,0.376329604 3.18518687,0.313608003 C1.87363933,0.94082401 0.374727866,2.46704963 0.374727866,2.46704963 C0.374727866,2.46704963 -0.187363933,3.93055364 0.416364296,5.85401606 C1.02009253,7.77747848 0.104091074,23.7714866 0.104091074,23.7714866 C0.104091074,23.7714866 0.541273585,25.0886403 1.76954826,25.4231555 C3.06027758,24.9004755 3.28927794,23.395157 3.28927794,23.395157 Z" fill="#FFD5A1"/></g><g transform="translate(20.610033, 83.001585)" fill-rule="nonzero" id="Path"><path d="M5.24619013,5.14317125 C5.24619013,5.14317125 5.70419086,2.17434882 4.74655298,0.480865605 C4.41346154,-0.104536001 3.76809688,-0.0418144004 3.08109579,0.313608003 C3.16436865,0.376329604 3.24764151,0.459958405 3.31009615,0.585401606 C4.24691582,2.25797762 3.80973331,5.24770725 3.80973331,5.24770725 C4.58000726,7.12935527 3.35173258,9.4500545 3.35173258,9.4500545 C4.14282475,13.6942161 3.62236938,23.9387442 3.62236938,23.9387442 C3.62236938,23.9387442 3.41418723,25.5067843 2.06100327,26.0294643 C2.31082184,26.0921859 2.60227685,26.1130931 2.91455007,26.0921859 C4.80900762,25.8622067 5.0588262,23.8760226 5.0588262,23.8760226 C5.0588262,23.8760226 5.57928157,13.6314945 4.7881894,9.3873329 C4.7881894,9.3455185 5.99564586,7.02481927 5.24619013,5.14317125 Z" fill="url(#linearGradient-16)"/><path d="M3.62236938,23.917837 C3.62236938,23.917837 4.14282475,13.6733089 3.35173258,9.4291473 C3.35173258,9.4291473 4.58000726,7.10844807 3.80973331,5.22680005 C3.80973331,5.22680005 4.26773403,2.25797762 3.31009615,0.564494406 C3.24764151,0.459958405 3.16436865,0.376329604 3.08109579,0.292700803 C1.76954826,0.919916809 0.270636792,2.50886403 0.270636792,2.50886403 C0.270636792,2.50886403 -0.270636792,3.99327524 0.374727866,5.89583046 C1.02009253,7.79838568 0.395546081,24.3777954 0.395546081,24.3777954 C0.395546081,24.3777954 0.853546807,25.6740419 2.08182148,25.9876499 C3.41418723,25.4858771 3.62236938,23.917837 3.62236938,23.917837 Z" fill="#FFD5A1"/></g><path d="M27.8547714,28.0992771 C27.8547714,28.0992771 29.9782293,34.2459939 27.5424982,36.7966724 C25.1067671,39.3473508 22.7126724,31.9462019 22.7126724,31.9462019 L27.8547714,28.0992771 Z" id="Path" fill="url(#linearGradient-17)" fill-rule="nonzero"/><path d="M9.53474238,27.7856691 C9.53474238,27.7856691 3.78891509,38.00929 3.39336901,40.4345252 C2.99782293,42.8597604 11.7414731,52.1007429 11.7414731,52.1007429 L12.4909289,49.6127861 C12.4909289,49.6127861 10.0343795,43.0479252 7.68192126,40.7899476 C7.68192126,40.7899476 12.990566,33.8069427 13.0113843,30.3990691 C13.0113843,27.0121027 10.4507438,27.1375459 9.53474238,27.7856691 Z" id="Path" fill="#FFD5A1" fill-rule="nonzero"/><g transform="translate(0.000000, 46.204912)" fill-rule="nonzero" id="Path"><path d="M26.4391328,44.3859861 C30.8109579,37.3402596 26.2934053,16.5794098 25.2524946,11.7080321 C24.5863117,8.57195209 24.2532202,3.36605923 24.0866745,0.0836288009 C19.3609398,-0.188164802 10.7421988,1.71439042 10.7421988,1.71439042 C10.7421988,1.71439042 8.22319485,6.10490246 9.80537917,11.8334753 C10.4299256,14.0914529 -1.22827467,47.4384373 0.291455007,50.3027237 C10.2009253,51.1599189 22.7959452,50.2609093 26.4391328,44.3859861 Z" fill="url(#linearGradient-18)"/><path d="M27.1053157,1.58894722 C27.1469521,0.606308806 25.9186774,0.188164802 24.1074927,0.0836288009 C24.2532202,3.38696643 24.5863117,8.57195209 25.2733128,11.7080321 C26.3142235,16.5794098 30.8317761,37.3402596 26.459951,44.3859861 C22.8167634,50.2609093 10.2217435,51.1599189 0.312273222,50.2818165 C0.353909652,50.3654453 0.416364296,50.4281669 0.47881894,50.4490741 C2.83127721,51.5571557 9.7012881,54.1705558 18.9653937,54.1078342 C28.2086811,54.0451126 37.9307874,52.7488661 38.1597877,51.0762901 C38.3679699,49.4037141 26.9179517,5.12226405 27.1053157,1.58894722 Z" fill="#C66802"/></g><path d="M29.4161375,26.6148659 C29.4161375,26.6148659 35.6199655,34.2459939 36.1196027,36.6921364 C36.1196027,36.6921364 40.8869739,27.1584531 42.0944303,27.2838963 C43.3018868,27.4093395 41.7405207,33.3051699 41.7405207,33.3051699 C41.7405207,33.3051699 39.159062,43.1106468 36.9315131,43.2151828 C34.7247823,43.3197188 25.5647678,30.6499555 25.5647678,30.6499555 C25.5647678,30.6499555 26.2101324,26.2176291 29.4161375,26.6148659 Z" id="Path" fill="#FFD5A1" fill-rule="nonzero"/><g transform="translate(8.743650, 0.000000)" fill-rule="nonzero" id="Path"><path d="M6.78673803,19.3391602 L5.51682692,23.0606418 C5.51682692,23.0606418 5.87073657,26.3639795 8.70201379,26.1758147 C11.533291,26.0085571 12.2619285,24.126909 12.2619285,24.126909 L11.2001996,18.377429 L6.78673803,19.3391602 Z" fill="#FFD5A1"/><path d="M16.09248,4.82956325 C16.09248,4.82956325 19.5691219,12.6488561 19.194394,12.8788353 C18.8196662,13.1088145 18.2783926,13.1506289 18.2783926,13.1506289 C18.2783926,13.1506289 17.8828465,14.1123601 17.9661194,15.1577202 C18.0493922,16.2030802 15.1972968,18.6492226 15.1972968,18.6492226 L8.86855951,8.50923049 L16.09248,4.82956325 Z" fill="#FFD5A1"/><path d="M9.20165094,0.125443201 C9.20165094,0.125443201 3.39336901,0.250886403 2.18591255,7.40114888 C0.978456096,14.5514113 -0.728637518,18.5237794 0.832728592,19.6945826 C2.3940947,20.8653858 14.6143868,21.618045 15.8426615,19.6109538 C17.0709361,17.6038626 12.3660196,9.7845697 12.3660196,9.7845697 C12.3660196,9.7845697 16.9043904,7.84020008 16.5088443,4.80865605 C16.5088443,4.80865605 17.2791183,0.229979202 9.20165094,0.125443201 Z" fill="url(#linearGradient-19)"/></g><g transform="translate(34.766419, 16.307616)" fill-rule="nonzero" id="Path"><path d="M8.20237663,1.29624641 L4.74655298,0.250886403 C4.12200653,0.0836288009 3.49746009,0.355422404 3.14355044,0.857195209 C3.06027758,1.00354561 2.97700472,1.14989601 2.93536829,1.31715361 L0.582910015,10.2863425 C0.541273585,10.4326929 0.541273585,10.5581361 0.541273585,10.7044865 C0.5620918,11.3526097 0.999274311,11.9380113 1.64463897,12.1052689 L5.10046263,13.1506289 C5.74582729,13.3178865 6.41201016,13.0251857 6.7451016,12.4815985 C6.80755624,12.3561553 6.87001089,12.2307121 6.91164731,12.1052689 L9.26410559,3.13608003 C9.30574202,2.96882243 9.32656023,2.80156483 9.30574202,2.63430723 C9.26410559,2.00709122 8.82692308,1.46350401 8.20237663,1.29624641 Z" fill="#181B7F"/><g transform="translate(0.000000, 0.209072)"><path d="M1.29072932,12.0425473 L4.74655298,13.0879073 C5.39191763,13.2551649 6.05810051,12.9624641 6.39119194,12.4188769 L0.187363933,10.6417649 C0.208182148,11.2898881 0.645364659,11.8752897 1.29072932,12.0425473 Z" fill="#5967D6"/><path d="M2.810459,0.815380808 C2.72718614,0.96173121 2.64391328,1.10808161 2.60227685,1.27533921 L0.249818578,10.2445281 C0.208182148,10.3908785 0.208182148,10.5163217 0.208182148,10.6626721 L6.41201016,12.4397841 C6.4744648,12.3143409 6.53691945,12.1888977 6.57855588,12.0634545 L8.93101415,3.09426563 C8.97265058,2.92700803 8.9934688,2.75975043 8.97265058,2.59249283 L2.810459,0.815380808 Z" fill="#9EB5E5"/><path d="M7.8692852,1.25443201 L4.41346154,0.209072002 C3.78891509,0.0418144004 3.16436865,0.313608003 2.810459,0.815380808 L8.97265058,2.59249283 C8.91019594,1.96527682 8.49383164,1.42168961 7.8692852,1.25443201 Z" fill="#5967D6"/></g></g><path d="M39.8460631,29.8972963 C39.8460631,29.8972963 39.054971,27.3048035 39.7003356,27.3884323 C40.3457003,27.4720611 40.8245192,29.4582451 40.8245192,29.4582451" id="Path" fill="#FFD5A1" fill-rule="nonzero"/><path d="M41.7613389,28.0574627 L42.6565221,24.6495891 C42.6565221,24.6495891 43.1353411,24.6286819 42.5107946,28.3501635" id="Path" fill="#FFD5A1" fill-rule="nonzero"/><g transform="translate(8.535468, 22.997920)" id="Path"><path d="M4.91309869,0.271793603 C5.39191763,0.125443201 5.72500907,0.0627216006 5.72500907,0.0627216006 C5.43355406,0.104536001 5.16291727,0.167257602 4.91309869,0.271793603 Z"/><path d="M12.4701107,1.12898881 C7.16146589,1.48441122 5.72500907,0.0627216006 5.72500907,0.0627216006 C5.72500907,0.0627216006 5.41273585,0.125443201 4.91309869,0.271793603 C1.33236575,1.60985442 1.89445755,8.21652968 1.89445755,8.21652968 C2.01936684,10.1608993 2.64391328,23.4160642 2.22754898,24.9213827 C2.22754898,24.9213827 4.51755261,26.8866595 9.72210631,26.5730515 C12.1578374,26.4267011 14.2396589,26.0294643 15.7802068,25.6531347 C16.9876633,15.5131426 18.902939,10.2445281 18.902939,10.2445281 C18.902939,10.2445281 18.6323022,6.18853126 19.3193033,5.10135685 C20.0063044,4.03508964 20.8598512,3.55422404 20.8598512,3.55422404 C20.8598512,3.55422404 17.7787554,0.773566408 12.4701107,1.12898881 Z" fill="#5967D6" fill-rule="nonzero"/><path d="M4.91309869,0.271793603 C3.53909652,0.669030407 0.811910377,1.65166882 0.333091437,3.55422404 C-0.5620918,7.08754087 1.76954826,6.27216006 1.89445755,8.21652968 C1.89445755,8.21652968 1.33236575,1.60985442 4.91309869,0.271793603 Z" fill="#4454B2" fill-rule="nonzero"/><path d="M18.5698476,24.7959395 C18.5698476,24.7959395 19.2568487,13.2969793 18.902939,10.2445281 C18.902939,10.2445281 14.1772043,8.94828169 15.7802068,25.6531347 C17.5289369,25.2140835 18.5698476,24.7959395 18.5698476,24.7959395 Z" fill="url(#linearGradient-20)" fill-rule="nonzero"/></g></g><g id="Group" transform="translate(81.000000, 41.000000)" fill-rule="nonzero"><g transform="translate(24.961538, 25.605523)" id="Path"><path d="M6.53653846,0.270627478 C6.13461538,0.0208174983 5.66923077,0.270627478 5.16153846,0.770247437 C5.16153846,0.770247437 5.16153846,0.770247437 5.16153846,0.770247437 C5.16153846,0.770247437 3.17307692,7.01549692 0.105769231,9.97158168 C0.126923077,10.7001941 0.338461538,11.2622666 0.909615385,11.3039016 C2.51730769,11.3871716 5.18269231,4.9129296 5.71153846,3.89287218 C6.26153846,2.85199727 7.34038462,0.791064935 6.53653846,0.270627478 Z" fill="#FFD5A1"/><path d="M5.16153846,0.770247437 C5.16153846,0.770247437 5.16153846,0.770247437 5.16153846,0.770247437 C4.63269231,1.29068489 4.06153846,2.04011483 3.51153846,2.72709228 C2.43269231,4.03859467 0.571153846,7.01549692 0.571153846,7.01549692 C0.571153846,7.01549692 0.0634615385,8.72253178 0.105769231,9.97158168 C3.17307692,7.01549692 5.16153846,0.770247437 5.16153846,0.770247437 Z" fill="url(#linearGradient-21)"/></g><g transform="translate(5.076923, 38.304197)" id="Path"><path d="M14.4057692,9.57604921 L14.1096154,6.74486945 C14.1096154,6.74486945 14.1096154,2.24828982 13.8980769,0.874334928 L6.47307692,0.333079973 C6.43076923,0.749429938 6.40961538,1.1865974 6.36730769,1.64458237 C5.92307692,8.93070677 7.02307692,10.5544716 7.02307692,10.5544716 C7.02307692,10.5544716 10.1326923,17.4242461 10.4076923,25.0434504 C10.6826923,32.6626548 11.1480769,37.3882269 12.1211538,37.7421244 C13.0942308,38.0960219 14.6173077,37.9086644 15.2307692,37.2216869 C15.2307692,37.2425044 15.0192308,13.5313739 14.4057692,9.57604921 Z" fill="#5967D6"/><g><path d="M7.00192308,10.5752891 C7.00192308,10.5752891 5.96538462,8.95152427 6.40961538,1.66539986 C6.43076923,1.1865974 6.47307692,0.749429938 6.51538462,0.353897471 L1.375,0.0832699932 C1.14230769,1.85275735 2.13653846,6.53669446 3.575,9.47196172 C4.46346154,11.2830841 1.73461538,28.7697826 1.925,37.1592344 C2.39038462,37.138417 2.96153846,37.013512 3.63846154,36.6596145 C3.63846154,36.6596145 6.05,16.0086562 6.05,12.6778565 C6.02884615,12.657039 5.83846154,10.5752891 7.00192308,10.5752891 Z" fill="url(#linearGradient-22)"/><path d="M3.575,9.45114422 C2.13653846,6.51587697 1.12115385,1.83193985 1.375,0.0624524949 L1.375,0.0624524949 C1.375,0.0624524949 1.05769231,2.26910731 1.01538462,6.24524949 C1.01538462,6.24524949 -0.232692308,26.2092303 0.275,36.6179795 C0.275,36.6179795 0.867307692,37.1592344 1.925,37.1175995 C1.73461538,28.7489651 4.46346154,11.2414491 3.575,9.45114422 Z" fill="#4454B2"/></g></g><path d="M19.1653846,28.8530526 C19.1653846,28.8530526 21.7884615,34.8901271 25.8711538,36.9094245 C25.8711538,36.9094245 26.8442308,37.1800519 27.0346154,35.1607546 C27.2038462,33.1414573 21.1538462,25.0018154 21.1538462,25.0018154 C21.1538462,25.0018154 18.425,24.814458 19.1653846,28.8530526 Z" id="Path" fill="#FFD5A1"/><path d="M32.7884615,18.298581 L31.7096154,23.4196856 C31.5826923,24.0442105 31.0538462,24.5021955 30.4192308,24.5854655 C30.25,24.606283 30.0807692,24.606283 29.9115385,24.564648 L20.6673077,22.6702556 C20.5192308,22.6494381 20.3923077,22.5869856 20.2653846,22.5245332 C19.6942308,22.2122707 19.3557692,21.5669282 19.4826923,20.9007683 L20.5615385,15.7796637 C20.7096154,15.1135038 21.2807692,14.6555188 21.9365385,14.5930663 C22.0846154,14.5722488 22.2115385,14.5930663 22.3596154,14.6138838 L31.6038462,16.5082761 C31.7730769,16.5499111 31.9423077,16.6123636 32.0903846,16.6956336 C32.6192308,17.0287136 32.9365385,17.674056 32.7884615,18.298581 Z" id="Path" fill="#181B7F"/><g transform="translate(19.038462, 14.780424)" id="Path"><path d="M0.148076923,6.34933698 L1.22692308,1.2282324 C1.375,0.562072454 1.94615385,0.104087491 2.60192308,0.0416349966 L0.930769231,7.97310185 C0.338461538,7.68165687 6.9388939e-17,7.01549692 0.148076923,6.34933698 Z" fill="#5967D6"/><path d="M11.0846154,10.0340342 C10.9153846,10.0548517 10.7461538,10.0548517 10.5769231,10.0132167 L1.33269231,8.11882433 C1.18461538,8.09800684 1.05769231,8.03555434 0.930769231,7.97310185 L2.60192308,0.0416349966 C2.75,0.0208174983 2.87692308,0.0416349966 3.025,0.0624524949 L12.2692308,1.95684484 C12.4384615,1.99847984 12.6076923,2.06093233 12.7557692,2.14420232 L11.0846154,10.0340342 Z" fill="#9EB5E5"/><path d="M13.4538462,3.74714969 L12.375,8.86825427 C12.2480769,9.49277922 11.7192308,9.95076418 11.0846154,10.0340342 L12.7557692,2.16501982 C13.2846154,2.49809979 13.5807692,3.12262474 13.4538462,3.74714969 Z" fill="#5967D6"/></g><path d="M19.4192308,22.8576131 C19.4192308,22.8576131 21.4076923,20.0888859 20.5192308,20.4011483 C19.6307692,20.7134108 19.1230769,20.6093233 19.4826923,19.5059959 C19.8423077,18.4026685 20.1173077,17.757326 19.7365385,17.840596 C19.3346154,17.923866 17.7692308,20.1929733 17.5788462,22.7535256 C17.3884615,25.3140779 19.4192308,22.8576131 19.4192308,22.8576131 Z" id="Path" fill="#FFD5A1"/><path d="M4.42115385,25.7720629 C4.42115385,25.7720629 3.25769231,29.2902201 4.06153846,30.95562 C4.86538462,32.6210198 6.68461538,32.6002023 7.84807692,32.6210198 C9.01153846,32.6418373 6.21923077,26.7504853 6.21923077,26.7504853 L4.42115385,25.7720629 Z" id="Path" fill="#FFD5A1"/><g transform="translate(8.884615, 2.498100)" id="Path"><path d="M10.1538462,5.87053452 C10.3653846,4.08022967 9.87884615,3.22671224 9.87884615,3.22671224 C9.87884615,3.22671224 8.99038462,0.145722488 5.24615385,0.145722488 C0.0846153846,0.145722488 0.0846153846,6.45342447 0.0846153846,8.88907177 C0.0846153846,11.3247191 1.86153846,12.157419 1.86153846,12.157419 C1.86153846,12.7611265 0.888461538,16.2792837 0.888461538,16.2792837 C0.888461538,16.2792837 0.719230769,17.3409761 3.025,17.3409761 C5.33076923,17.3409761 5.33076923,16.2376487 5.33076923,16.2376487 C5.18269231,16.0502912 5.14038462,15.6755762 5.14038462,15.2384087 C4.59038462,14.7387888 3.55384615,13.7395489 3.25769231,13.1982939 C2.98269231,12.657039 4.42115385,12.9484839 5.33076923,13.1774764 C5.33076923,13.1774764 5.33076923,13.1774764 5.33076923,13.1774764 C11.5711538,11.907609 10.1538462,5.87053452 10.1538462,5.87053452 Z" fill="#FFD5A1"/><path d="M3.25769231,13.1774764 C3.55384615,13.7395489 4.59038462,14.7179713 5.14038462,15.2175913 C5.14038462,14.3224388 5.33076923,13.1982939 5.33076923,13.1566589 C4.42115385,12.9484839 2.98269231,12.657039 3.25769231,13.1774764 Z" fill="url(#linearGradient-23)"/></g><path d="M18.7634615,5.72481203 C18.7634615,5.72481203 18.15,9.03479426 14.6596154,9.97158168 C14.6596154,9.97158168 15.4634615,14.7387888 10.7461538,14.6555188 C6.02884615,14.5722488 5.11923077,0.541254956 12.6076923,0.0208174983 C17.7903846,-0.333079973 18.7634615,5.72481203 18.7634615,5.72481203 Z" id="Path" fill="url(#linearGradient-24)"/><path d="M9.625,3.06017225 C9.625,3.06017225 12.8826923,3.6014272 12.925,6.91140943 C12.9673077,10.2213917 9.96346154,11.574529 9.96346154,11.574529 L9.625,3.06017225 Z" id="Path" fill="#5967D6"/><path d="M4.69615385,1.51967738 C3.00384615,1.51967738 -0.105769231,2.72709228 0.0634615385,8.38945181 C0.232692308,14.0518113 3.72307692,14.6763363 3.72307692,14.6763363 L4.25192308,17.1744361 L5.05576923,15.4465837 L6.02884615,19.7349884 L7.08653846,15.4465837 L7.89038462,17.1744361 C7.89038462,17.1744361 11.55,13.3648339 11.8038462,9.05561176 C11.825,9.05561176 12.6288462,1.51967738 4.69615385,1.51967738 Z" id="Path" fill="url(#linearGradient-25)"/><path d="M5.94423077,20.6925933 C5.94423077,20.6925933 3.49038462,23.7527656 3.49038462,27.3125578 C3.49038462,27.3125578 4.65384615,29.3318551 6.30384615,29.4775776 C6.30384615,29.4775776 10.3653846,24.523013 8.44038462,21.7334682 C7.08653846,19.8182584 5.94423077,20.6925933 5.94423077,20.6925933 Z" id="Path" fill="#F57C00"/><path d="M30.1230769,26.3757703 C30.1230769,26.3757703 29.7423077,23.0033356 30.3557692,23.6903131 C30.9692308,24.3772905 31.4769231,24.523013 31.7096154,23.3988681 C31.9423077,22.2747232 32.0057692,21.5669282 32.3019231,21.8167382 C32.5980769,22.0873657 32.8730769,24.814458 31.7730769,27.1460178 C30.6730769,29.4775776 30.1230769,26.3757703 30.1230769,26.3757703 Z" id="Path" fill="#FFD5A1"/><path d="M19.0384615,8.36863431 C19.0384615,8.36863431 19.8,10.2838442 19.8634615,10.6169241 C19.9269231,10.9500041 18.7634615,10.8667341 18.7634615,10.8667341 L19.0384615,8.36863431 Z" id="Path" fill="#FFD5A1"/><g transform="translate(5.288462, 18.527573)" id="Path"><path d="M13.5384615,8.72253178 C14.2788462,6.20361449 15.2730769,3.26834723 13.8980769,1.83193985 C11.9730769,-0.187357485 8.94807692,0.208174983 8.94807692,0.208174983 L4.50576923,0.249809979 C4.50576923,0.249809979 0.507692308,0.72861244 0.148076923,4.08022967 C-0.211538462,7.43184689 1.03653846,8.61844429 1.03653846,10.9708216 C1.03653846,13.3023814 1.18461538,19.8390759 1.18461538,19.8390759 C1.18461538,19.8390759 2.43269231,21.5044757 6.79038462,21.5044757 C8.84230769,21.5044757 10.4711538,21.3171183 11.6557692,21.1297608 C11.5288462,19.6517184 11.3173077,16.9038086 11.3173077,14.0934463 C11.275,11.0332741 12.7769231,9.36787423 13.5384615,8.72253178 Z" fill="#F57C00"/><path d="M13.5384615,8.72253178 C12.7769231,9.36787423 11.275,11.0332741 11.2961538,14.0934463 C11.3173077,16.8829911 11.5076923,19.6517184 11.6346154,21.1297608 C12.9673077,20.9007683 13.6865385,20.6717758 13.6865385,20.6717758 C13.6865385,20.6717758 12.7769231,14.0101763 12.9461538,11.3871716 C12.9884615,10.6377416 13.2423077,9.7009542 13.5384615,8.72253178 Z" fill="#C66802"/></g><path d="M19.1653846,20.3595133 C19.1653846,20.3595133 21.2596154,22.7743431 21.9153846,25.1267204 C21.9153846,25.1267204 19.3980769,27.3958278 19.1653846,28.8530526 C19.1653846,28.8530526 15.6538462,25.9177854 16.7961538,22.6702556 C17.9596154,19.4227259 19.1653846,20.3595133 19.1653846,20.3595133 Z" id="Path" fill="#F57C00"/><path d="M6.40961538,38.1584744 C6.40961538,38.1584744 3.68076923,50.4824334 3.44807692,56.7068653 C3.44807692,56.7068653 3.34230769,58.2473602 4.80192308,58.4763527 C6.81153846,58.7677977 5.90192308,57.2481203 8.31346154,57.8310103 C10.725,58.4139002 9.85769231,59.3090526 11.6557692,59.4131401 C13.4538462,59.5172276 12.65,58.0808202 14.7865385,58.4139002 C17.4519231,58.8510677 15.7596154,59.8294901 18.2134615,59.8294901 C20.6673077,59.8294901 20.8365385,59.1216951 20.7519231,57.4771128 C19.9480769,40.5941217 18.8480769,38.3666494 18.8480769,38.3666494 C18.8480769,38.3666494 15.1461538,39.7197867 12.0153846,39.5740643 C8.88461538,39.4075243 6.40961538,38.1584744 6.40961538,38.1584744 Z" id="Path" fill="url(#linearGradient-26)"/></g></g></g></g></g></g></g></g></svg>