<?xml version="1.0" encoding="UTF-8"?>
<svg width="14px" height="11px" viewBox="0 0 14 11" version="1.1" xmlns="http://www.w3.org/2000/svg" xmlns:xlink="http://www.w3.org/1999/xlink">
    <!-- Generator: sketchtool 56.3 (101010) - https://sketch.com -->
    <title>A8724961-A68C-4057-9B8C-E448C04EFF55</title>
    <desc>Created with sketchtool.</desc>
    <g id="Navigation" stroke="none" stroke-width="1" fill="none" fill-rule="evenodd">
        <g id="Sub.-Child-Category-Page" transform="translate(-25.000000, -149.000000)" fill="#212B36">
            <g id="Filter-Icon" transform="translate(25.000000, 149.000000)">
                <path d="M3.67114426,10.5890721 C3.66701311,10.5899902 3.66265246,10.5902197 3.65852131,10.5909082 C3.63763607,10.5948098 3.6162918,10.5957279 3.59517705,10.5977934 C3.57543934,10.5996295 3.55570164,10.6033016 3.53573443,10.6033016 C3.53366885,10.6033016 3.53183279,10.6037607 3.52976721,10.6037607 C3.52770164,10.6037607 3.52586557,10.6033016 3.5238,10.6033016 C3.50383279,10.6033016 3.48409508,10.5996295 3.46412787,10.5977934 C3.44301311,10.5957279 3.42189836,10.5948098 3.40078361,10.5909082 C3.39665246,10.5902197 3.3922918,10.5899902 3.38839016,10.5890721 C3.37002951,10.5851705 3.35281639,10.5780557 3.33491475,10.572777 C3.3138,10.5663508 3.29291475,10.5615311 3.27225902,10.5532689 C3.26835738,10.5516623 3.26422623,10.5507443 3.26032459,10.5491377 C3.24701311,10.5434 3.23484918,10.5346787 3.22176721,10.528023 C3.21740656,10.5261869 3.21327541,10.5236623 3.20914426,10.5213672 C3.19032459,10.5114984 3.17127541,10.502777 3.15360328,10.4910721 C3.14993115,10.488777 3.14625902,10.4874 3.1430459,10.4848754 C3.13202951,10.4775311 3.12261967,10.4676623 3.1122918,10.4596295 C3.1038,10.4529738 3.09576721,10.446318 3.08773443,10.4394328 C3.07602951,10.4295639 3.06294754,10.4217607 3.05147213,10.4109738 L0.210390164,7.66926885 C-0.0631836066,7.40510492 -0.0709868852,6.96949836 0.193177049,6.69569508 C0.457111475,6.42212131 0.892947541,6.41408852 1.16652131,6.67825246 L2.84124262,8.29421967 L2.84124262,0.688547541 C2.84124262,0.308252459 3.14947213,2.29508197e-05 3.52976721,2.29508197e-05 C3.9100623,2.29508197e-05 4.2182918,0.308022951 4.2182918,0.688318033 L4.2182918,8.29421967 L5.89301311,6.67825246 C6.16658689,6.41408852 6.60219344,6.42212131 6.86635738,6.69569508 C7.1302918,6.96949836 7.12271803,7.40510492 6.84891475,7.66926885 L4.00783279,10.4109738 C3.99658689,10.4217607 3.98350492,10.4293344 3.9718,10.4392033 C3.9635377,10.4460885 3.95550492,10.4532033 3.94701311,10.459859 C3.93645574,10.4678918 3.92727541,10.4777607 3.91648852,10.4848754 C3.9130459,10.4874 3.90937377,10.488777 3.90593115,10.4910721 C3.88802951,10.502777 3.86898033,10.5114984 3.85039016,10.5213672 C3.84602951,10.5236623 3.84212787,10.5261869 3.83776721,10.528023 C3.82468525,10.5346787 3.81252131,10.5434 3.79898033,10.5491377 C3.7953082,10.5507443 3.79094754,10.5516623 3.7870459,10.5532689 C3.76661967,10.5615311 3.74550492,10.5663508 3.72439016,10.572777 C3.70648852,10.5780557 3.68927541,10.5851705 3.67114426,10.5890721 Z M13.142282,4.61345902 C13.522577,4.61345902 13.8308067,4.92168852 13.8308067,5.30198361 C13.8310361,5.68227869 13.5228066,5.9905082 13.1425115,5.9905082 L5.13634754,5.9905082 L5.13634754,4.61345902 L13.142282,4.61345902 Z M13.8308066,1.89812459 C13.8308066,2.27841967 13.5228066,2.58664918 13.1425115,2.58664918 L5.13634754,2.58664918 L5.13634754,1.2096 L13.142282,1.2096 C13.522577,1.2096 13.8308066,1.51782951 13.8308066,1.89812459 Z M13.142282,8.01718033 C13.522577,8.01718033 13.8308066,8.32563934 13.8308066,8.70570492 C13.8308066,9.086 13.5228066,9.39422951 13.1425115,9.39422951 L5.97933115,9.39422951 L7.40641311,8.01718033 L13.142282,8.01718033 Z" id="Combined-Shape"></path>
            </g>
        </g>
    </g>
</svg>