<svg width="18" height="18" viewBox="0 0 18 18" fill="none" xmlns="http://www.w3.org/2000/svg">
<path d="M17.5791 9.16765C17.5791 8.4302 17.5192 7.89205 17.3897 7.33398H8.96875V10.6625H13.9117C13.8121 11.4896 13.2739 12.7354 12.078 13.5724L12.0612 13.6839L14.7238 15.7465L14.9083 15.7649C16.6024 14.2003 17.5791 11.8982 17.5791 9.16765Z" fill="#4285F4"/>
<path d="M8.96944 17.9374C11.3911 17.9374 13.424 17.1401 14.909 15.7649L12.0787 13.5724C11.3213 14.1006 10.3048 14.4693 8.96944 14.4693C6.59763 14.4693 4.58458 12.9047 3.86699 10.7422L3.7618 10.7511L0.993237 12.8937L0.957031 12.9944C2.43193 15.9243 5.4615 17.9374 8.96944 17.9374Z" fill="#34A853"/>
<path d="M3.86663 10.7421C3.67729 10.184 3.56771 9.58606 3.56771 8.96822C3.56771 8.35032 3.67729 7.7524 3.85667 7.19433L3.85166 7.07548L1.0484 4.89844L0.956679 4.94206C0.348801 6.15789 0 7.52321 0 8.96822C0 10.4132 0.348801 11.7785 0.956679 12.9943L3.86663 10.7421Z" fill="#FBBC05"/>
<path d="M8.96944 3.46802C10.6536 3.46802 11.7897 4.19551 12.4375 4.80346L14.9687 2.33196C13.4141 0.886947 11.3911 0 8.96944 0C5.4615 0 2.43193 2.01305 0.957031 4.94292L3.85702 7.19519C4.58458 5.03265 6.59763 3.46802 8.96944 3.46802Z" fill="#EB4335"/>
</svg>
