<?xml version="1.0" encoding="iso-8859-1"?>
<!-- Generator: Adobe Illustrator 19.0.0, SVG Export Plug-In . SVG Version: 6.00 Build 0)  -->
<svg version="1.1" id="Capa_1" xmlns="http://www.w3.org/2000/svg" xmlns:xlink="http://www.w3.org/1999/xlink" x="0px" y="0px"
	 viewBox="0 0 381.42 381.42" style="enable-background:new 0 0 381.42 381.42;" xml:space="preserve">
<g>
	<g>
		<path d="M338.71,219.42h-38h-8c38-45.6,49.6-104.8,28.4-150.8l9.2-9.2c6-6,9.2-14.4,8.4-24c-0.8-8.8-4.8-17.2-11.2-24
			c-14-14-35.2-15.2-47.6-3.2l-9.2,9.2c-50-23.2-116-7.6-162.8,39.2c-46.4,46.4-62,112.8-39.6,162.4h-25.6c-4,0-7.2,3.2-7.2,7.2
			c0,85.6,69.6,155.2,155.2,155.2s155.2-69.6,155.2-155.2C345.91,222.62,342.71,219.42,338.71,219.42z M293.51,233.82
			c-2,22.8-10.8,43.6-25.2,60l-60-60H293.51z M257.91,304.22c-16.4,14-37.2,23.2-60,24.8v-84.8L257.91,304.22z M117.91,67.02
			c43.6-43.6,105.6-58,150.4-34.4c2.8,1.6,6.4,0.8,8.4-1.2l12.8-12.8c6.8-6.8,18.8-5.2,27.2,3.2c4,4,6.8,9.6,7.2,14.8
			c0.4,4.8-1.2,9.2-4,12.4l-12.8,12.8c-2.4,2.4-2.8,5.6-1.2,8.4c23.2,44.4,9.6,105.2-32.8,148.8H84.31
			C59.91,174.62,73.51,111.42,117.91,67.02z M183.51,244.22v84.8c-22.8-1.6-43.6-10.8-60-24.8L183.51,244.22z M113.51,293.82
			c-14.8-16.4-23.6-37.2-25.2-60h85.2L113.51,293.82z M190.71,367.42c-75.2,0-136.8-59.2-140.4-133.6h23.6c2,29.2,14.4,56,34,75.6
			c0,0,0,0.4,0.4,0.4c0,0,0.4,0,0.4,0.4c21.2,21.2,50.4,34,82.8,34c32.4,0,61.6-13.2,82.8-34c0,0,0.4,0,0.4-0.4c0,0,0-0.4,0.4-0.4
			c19.6-19.6,32-46,34-75.6h23.6C327.51,308.22,265.91,367.42,190.71,367.42z"/>
	</g>
</g>
<g>
	<g>
		<path d="M159.51,60.22c-3.2-2.4-7.6-2-10.4,1.2l-8.8,10.8c-2.4,3.2-2,7.6,1.2,10.4c1.6,1.2,3.2,1.6,4.8,1.6c2,0,4.4-0.8,5.6-2.8
			l8.8-10.8C163.11,67.42,162.71,63.02,159.51,60.22z"/>
	</g>
</g>
<g>
	<g>
		<path d="M191.91,76.62c-3.2-2.4-7.6-2-10.4,1.2l-8.8,10.8c-2.4,3.2-2,7.6,1.2,10.4c1.6,1.2,3.2,1.6,4.8,1.6c2,0,4.4-0.8,5.6-2.8
			l8.8-10.8C195.51,83.82,195.11,79.42,191.91,76.62z"/>
	</g>
</g>
<g>
	<g>
		<path d="M199.51,37.02c-3.2-2.4-7.6-2-10.4,1.2l-8.8,10.8c-2.4,3.2-2,7.6,1.2,10.4c1.6,1.2,3.2,1.6,4.8,1.6c2,0,4.4-0.8,5.6-2.8
			l8.8-10.8C203.11,44.22,202.71,39.82,199.51,37.02z"/>
	</g>
</g>
<g>
	<g>
		<path d="M233.11,42.62c-3.2-2.4-7.6-2-10.4,1.2l-8.8,10.8c-2.4,3.2-2,7.6,1.2,10.4c1.6,0.8,3.2,1.6,4.8,1.6c2,0,4.4-0.8,5.6-2.8
			l8.8-10.8C236.71,49.82,236.31,45.42,233.11,42.62z"/>
	</g>
</g>
<g>
</g>
<g>
</g>
<g>
</g>
<g>
</g>
<g>
</g>
<g>
</g>
<g>
</g>
<g>
</g>
<g>
</g>
<g>
</g>
<g>
</g>
<g>
</g>
<g>
</g>
<g>
</g>
<g>
</g>
</svg>
