<svg width="28" height="17" viewBox="0 0 28 17" fill="none" xmlns="http://www.w3.org/2000/svg">
<path d="M25.9 0H2.1C0.940202 0 0 0.940202 0 2.1V14.9C0 16.0598 0.940202 17 2.1 17H25.9C27.0598 17 28 16.0598 28 14.9V2.1C28 0.940202 27.0598 0 25.9 0Z" fill="#F4F4F4"/>
<path d="M23.38 15.2366C23.2521 15.2397 23.1468 15.2812 23.0641 15.3613C22.9813 15.4414 22.9384 15.5416 22.9355 15.6619C22.9384 15.7814 22.9813 15.8813 23.0641 15.9618C23.1468 16.0423 23.2521 16.0841 23.38 16.0873C23.5049 16.0841 23.6088 16.0423 23.6919 15.9618C23.7749 15.8813 23.818 15.7814 23.8212 15.6619C23.8181 15.5416 23.7751 15.4414 23.6923 15.3613C23.6094 15.2812 23.5053 15.2397 23.38 15.2366ZM23.38 15.9935C23.2826 15.9911 23.2023 15.9588 23.139 15.8965C23.0758 15.8342 23.043 15.756 23.0408 15.6619C23.043 15.5674 23.0758 15.4893 23.139 15.4275C23.2023 15.3657 23.2826 15.3337 23.38 15.3315C23.4753 15.3337 23.5544 15.3657 23.6172 15.4275C23.68 15.4893 23.7126 15.5674 23.7149 15.6619C23.7126 15.756 23.68 15.8342 23.6172 15.8965C23.5544 15.9588 23.4753 15.9911 23.38 15.9935ZM23.4055 15.4628H23.2194V15.8579H23.3055V15.7099H23.3449L23.4672 15.8579H23.5703L23.4384 15.7089C23.4796 15.7038 23.5113 15.6907 23.5335 15.6696C23.5556 15.6485 23.5669 15.6217 23.5671 15.589C23.5668 15.55 23.5528 15.5193 23.525 15.497C23.4972 15.4746 23.4573 15.4633 23.4055 15.4628ZM23.4197 15.5368C23.4463 15.5369 23.4672 15.5452 23.4824 15.5618C23.4975 15.5785 23.5053 15.6031 23.5055 15.6359C23.5053 15.6695 23.4975 15.6948 23.4824 15.7116C23.4672 15.7284 23.4463 15.7368 23.4197 15.7368H23.3055V15.5368L23.4197 15.5368Z" fill="black"/>
<path d="M5.98018 15.4391H5.65332V13.9635H5.97377V14.1433C5.97377 14.1433 6.25523 13.9235 6.4224 13.9263C6.74744 13.9316 6.94153 14.1991 6.94153 14.1991C6.94153 14.1991 7.09897 13.9263 7.45425 13.9263C7.97962 13.9263 8.05669 14.3913 8.05669 14.3913V15.4329H7.74265V14.5153C7.74265 14.5153 7.74378 14.2363 7.40298 14.2363C7.05055 14.2363 7.01844 14.5153 7.01844 14.5153V15.4329H6.69158V14.5091C6.69158 14.5091 6.66018 14.2177 6.36472 14.2177C5.98099 14.2177 5.97377 14.5153 5.97377 14.5153L5.98018 15.4391Z" fill="black"/>
<path d="M15.9208 13.9261C15.7536 13.9233 15.4722 14.1431 15.4722 14.1431V13.9637H15.1514V15.4389H15.4784L15.4722 14.5152C15.4722 14.5152 15.4794 14.2182 15.8631 14.2182C15.9344 14.2182 15.9897 14.2349 16.0335 14.2607V14.2594L16.14 13.9721C16.0758 13.946 16.0027 13.9274 15.9208 13.9261Z" fill="black"/>
<path d="M20.5243 13.9261C20.3571 13.9233 20.0757 14.1431 20.0757 14.1431V13.9637H19.7549V15.4389H20.0819L20.0757 14.5152C20.0757 14.5152 20.0829 14.2182 20.4666 14.2182C20.5379 14.2182 20.5932 14.2349 20.6371 14.2607V14.2594L20.7436 13.9721C20.6793 13.946 20.6062 13.9274 20.5243 13.9261V13.9261Z" fill="black"/>
<path d="M9.11361 13.92C8.62444 13.92 8.36557 14.3453 8.36426 14.7007C8.36292 15.0649 8.65896 15.485 9.12739 15.485C9.40067 15.485 9.62517 15.2898 9.62517 15.2898L9.62457 15.4401H9.94631V13.9631H9.62344V14.1491C9.62344 14.1491 9.41261 13.92 9.11361 13.92H9.11361ZM9.17626 14.2206C9.43907 14.2206 9.65243 14.4418 9.65243 14.714C9.65243 14.9862 9.43907 15.2062 9.17626 15.2062C8.91344 15.2062 8.70134 14.9862 8.70134 14.714C8.70134 14.4418 8.91344 14.2206 9.17626 14.2206Z" fill="black"/>
<path d="M18.4964 13.92C18.0073 13.92 17.7484 14.3453 17.7471 14.7007C17.7457 15.0649 18.0418 15.485 18.5102 15.485C18.7835 15.485 19.008 15.2898 19.008 15.2898L19.0074 15.4401H19.3291V13.9631H19.0063V14.1491C19.0063 14.1491 18.7954 13.92 18.4964 13.92H18.4964ZM18.5591 14.2206C18.8219 14.2206 19.0352 14.4418 19.0352 14.714C19.0352 14.9862 18.8219 15.2062 18.5591 15.2062C18.2963 15.2062 18.0842 14.9862 18.0842 14.714C18.0842 14.4418 18.2963 14.2206 18.5591 14.2206Z" fill="black"/>
<path d="M21.5853 13.92C21.0961 13.92 20.8372 14.3453 20.8359 14.7007C20.8346 15.0649 21.1306 15.485 21.5991 15.485C21.8723 15.485 22.0968 15.2898 22.0968 15.2898L22.0963 15.4401H22.418V13.38H22.0951V14.1491C22.0951 14.1491 21.8843 13.92 21.5853 13.92H21.5853ZM21.6479 14.2207C21.9108 14.2207 22.1241 14.4418 22.1241 14.714C22.1241 14.9863 21.9108 15.2062 21.6479 15.2062C21.3851 15.2062 21.173 14.9863 21.173 14.714C21.173 14.4418 21.3851 14.2207 21.6479 14.2207Z" fill="black"/>
<path d="M10.928 15.4887C10.5948 15.4887 10.2871 15.2903 10.2871 15.2903L10.4281 15.0795C10.4281 15.0795 10.7192 15.2097 10.928 15.2097C11.0637 15.2097 11.2906 15.1673 11.2933 15.0361C11.2962 14.8974 10.912 14.8563 10.912 14.8563C10.912 14.8563 10.3384 14.8487 10.3384 14.3913C10.3384 14.1036 10.6249 13.9201 10.9921 13.9201C11.2043 13.9201 11.601 14.0999 11.601 14.0999L11.4407 14.3417C11.4407 14.3417 11.1345 14.2233 10.9729 14.2177C10.8364 14.2129 10.6716 14.2761 10.6716 14.3913C10.6716 14.7041 11.6266 14.3669 11.6266 14.9989C11.6266 15.4135 11.2377 15.4887 10.928 15.4887Z" fill="black"/>
<path d="M12.1575 13.5358V13.9649H11.873V14.2752H12.1575V15.0171C12.1575 15.0171 12.1323 15.519 12.6901 15.519C12.8443 15.519 13.1462 15.4086 13.1462 15.4086L13.0171 15.0862C13.0171 15.0862 12.897 15.1853 12.7615 15.182C12.5037 15.1757 12.5109 15.0159 12.5109 15.0159V14.2752H13.0422V13.9649H12.5109V13.5358H12.1575Z" fill="black"/>
<path d="M14.093 13.9382C13.5685 13.9382 13.3065 14.3561 13.3086 14.7189C13.3108 15.0919 13.5472 15.5117 14.1244 15.5117C14.3714 15.5117 14.7183 15.3019 14.7183 15.3019L14.5692 15.051C14.5692 15.051 14.3325 15.2135 14.1244 15.2135C13.7077 15.2135 13.6808 14.8195 13.6808 14.8195H14.796C14.796 14.8195 14.8792 13.9382 14.093 13.9382ZM14.0454 14.2279C14.0578 14.2272 14.071 14.2279 14.0843 14.2279C14.4768 14.2279 14.474 14.5867 14.474 14.5867H13.6808C13.6808 14.5867 13.662 14.249 14.0454 14.2279Z" fill="black"/>
<path d="M17.4102 15.0472L17.5597 15.3366C17.5597 15.3366 17.3227 15.4856 17.0567 15.4856C16.506 15.4856 16.2002 15.0847 16.2002 14.7053C16.2002 14.109 16.6868 13.9337 17.0159 13.9337C17.3146 13.9337 17.5733 14.1003 17.5733 14.1003L17.4057 14.3896C17.4057 14.3896 17.304 14.2362 17.0069 14.2362C16.7102 14.2362 16.5537 14.4836 16.5537 14.7184C16.5537 14.9816 16.7359 15.2051 17.0114 15.2051C17.2275 15.2051 17.4102 15.0472 17.4102 15.0472Z" fill="black"/>
<path d="M23.8672 10.4332V9.85751H23.7469L23.6085 10.2534L23.4702 9.85751H23.3499V10.4332H23.4348V9.99897L23.5645 10.3732H23.6526L23.7823 9.99799V10.4332H23.8672ZM23.1054 10.4332V9.95575H23.2595V9.8585H22.8672V9.95575H23.0213V10.4332H23.1054Z" fill="#F79F1A"/>
<path d="M23.3248 7.09455C23.3248 10.1778 20.746 12.6773 17.5648 12.6773C14.3836 12.6773 11.8047 10.1778 11.8047 7.09455C11.8047 4.01125 14.3836 1.51175 17.5648 1.51175C20.746 1.51175 23.3248 4.01125 23.3248 7.09455Z" fill="#F79F1A"/>
<path d="M16.2194 7.09455C16.2194 10.1778 13.6405 12.6773 10.4593 12.6773C7.27809 12.6773 4.69922 10.1778 4.69922 7.09455C4.69922 4.01125 7.27809 1.51175 10.4593 1.51175C13.6405 1.51175 16.2194 4.01125 16.2194 7.09455Z" fill="#EA001B"/>
<path d="M14.0123 2.69974C12.6684 3.72177 11.8057 5.30994 11.8057 7.09403C11.8057 8.87813 12.6684 10.4675 14.0123 11.4895C15.3563 10.4675 16.219 8.87813 16.219 7.09403C16.219 5.30994 15.3563 3.72177 14.0123 2.69974Z" fill="#FF5F01"/>
</svg>
