<?xml version="1.0" encoding="UTF-8"?>
<svg width="25px" height="25px" viewBox="0 0 25 25" version="1.1" xmlns="http://www.w3.org/2000/svg" xmlns:xlink="http://www.w3.org/1999/xlink">
    <!-- Generator: Sketch 59.1 (86144) - https://sketch.com -->
    <title>monedero</title>
    <desc>Created with Sketch.</desc>
    <g id="Page-1" stroke="none" stroke-width="1" fill="none" fill-rule="evenodd">
        <g id="Desglose-Ticket-Online-Copy-3" transform="translate(-68.000000, -331.000000)">
            <g id="monedero" transform="translate(68.000000, 331.000000)">
                <rect id="Rectangle" stroke="#979797" stroke-width="2" fill="#D8D8D8" opacity="0" x="1" y="1" width="23" height="23"></rect>
                <g id="icon" transform="translate(1.678571, 5.357143)">
                    <path d="M17.29019,13.3084644 L17.3410585,13.3227503 C17.8728888,13.4716628 18.1833051,14.0235139 18.0343926,14.5553442 C17.8854801,15.0871746 17.333629,15.3975908 16.8017986,15.2486783 C16.1308925,15.0608246 15.4450844,14.8639894 14.7443691,14.6581724 C15.6867045,14.2721611 16.5356852,13.8226134 17.29019,13.3084644 Z M13.0467632,12.0596148 C13.6817844,12.2546181 14.3053083,12.4427493 14.917331,12.624008 C13.995809,13.0765443 12.9435217,13.4543488 11.760262,13.7560193 C11.0763128,13.5428145 10.3790994,13.3223976 9.66918285,13.0943328 C10.7762347,12.8512851 11.7949248,12.548957 12.7260872,12.1869905 Z M0.807585539,3.92940054 C1.34955016,3.82313296 1.87504618,4.17633521 1.98131375,4.71829982 C2.50267044,7.37721896 4.31813557,9.2186193 7.56622777,10.3013167 C8.31048268,10.5494017 9.04167773,10.7896745 9.75980858,11.0221349 C8.51586008,11.3256944 7.13081833,11.5480428 5.60294037,11.6865227 C2.50054438,10.3151502 0.607760964,8.10740978 0.0186862503,5.10312875 C-0.087581322,4.56116413 0.265620921,4.03566811 0.807585539,3.92940054 Z" id="Combined-Shape" fill="#0D47A1" fill-rule="nonzero"></path>
                    <path d="M6.48177677,15.2779171 C11.3768638,14.6630288 15.1054607,13.4201632 17.6676954,11.517072 C20.3041082,9.55888534 21.6709559,7.50861388 21.6427724,5.34412313 C21.6355818,4.79188519 21.1820754,4.35003702 20.6298374,4.35714108 C20.0775995,4.36441822 19.6357513,4.81792465 19.6429419,5.37016259 C19.6612614,6.77710041 18.6471567,8.29825752 16.4751617,9.91149939 C14.2289887,11.5798368 10.8147285,12.7179236 6.23250894,13.2935115 C5.68453047,13.3623449 5.29610665,13.8623697 5.36494006,14.4103482 C5.43377347,14.9583267 5.9337983,15.3467505 6.48177677,15.2779171 Z" id="Path" fill="#0D47A1" fill-rule="nonzero"></path>
                    <rect id="Rectangle" stroke="#0D47A1" stroke-width="2" stroke-linecap="round" stroke-linejoin="round" x="1" y="0" width="19.6428571" height="14.2857143" rx="2"></rect>
                    <g id="Group-2" transform="translate(5.464286, 5.357143)" stroke="#0D47A1" stroke-linecap="round" stroke-linejoin="round" stroke-width="2">
                        <polyline id="Path" points="-1.32396574e-14 0.5 0.198412698 0.5 1.78571429 0.5"></polyline>
                        <polyline id="Path" points="4.46428571 0.5 4.66269841 0.5 6.25 0.5"></polyline>
                        <polyline id="Path" points="8.92857143 0.5 9.12698413 0.5 10.7142857 0.5"></polyline>
                    </g>
                </g>
            </g>
        </g>
    </g>
</svg>