<?xml version="1.0" encoding="UTF-8"?>
<svg width="18px" height="25px" viewBox="0 0 18 25" version="1.1" xmlns="http://www.w3.org/2000/svg" xmlns:xlink="http://www.w3.org/1999/xlink">
    <!-- Generator: Sketch 55.1 (78136) - https://sketchapp.com -->
    <title>Icon / 25 / In progress Copy</title>
    <desc>Created with Sketch.</desc>
    <g id="My-Order" stroke="none" stroke-width="1" fill="none" fill-rule="evenodd">
        <g id="My-Orders" transform="translate(-36.000000, -314.000000)" fill="#39B54A">
            <g id="Icon-/-25-/-Finalized--Copy" transform="translate(31.000000, 314.000000)">
                <path d="M7.45991211,12.7947363 L7.45991211,12.7946387 L7.45991211,10.8800879 L9.29697266,10.8800879 C9.61533203,10.8800879 9.87338867,10.6220313 9.87338867,10.3036719 C9.87338867,9.9853125 9.61533203,9.72725586 9.29697266,9.72725586 L7.45991211,9.72725586 L7.45991211,7.59463867 L10.3344727,7.59463867 C10.652832,7.59463867 10.9108887,7.33658203 10.9108887,7.01822266 C10.9108887,6.69986328 10.652832,6.44180664 10.3344727,6.44180664 L7.45991211,6.44180664 L7.45991211,4.52706055 L20.362793,4.52706055 L17.5291504,8.32681641 C17.3768066,8.53111328 17.376709,8.81124023 17.5289062,9.01573242 L20.3428711,12.7947363 L7.45991211,12.7947363 L7.45991211,12.7947363 Z M6.88349609,1.72789063 C6.69316406,1.72789063 6.53837889,1.57305664 6.53837889,1.38272461 C6.53833008,1.19244141 6.69316406,1.03760742 6.88349609,1.03760742 C7.07382813,1.03760742 7.22866211,1.19244141 7.22866211,1.38272461 C7.22866211,1.57305664 7.0737793,1.72789063 6.88349609,1.72789063 L6.88349609,1.72789063 Z M18.7101562,8.6715918 L21.973877,4.29517578 C22.1041992,4.12041992 22.1248047,3.88702148 22.027002,3.69209961 C21.9291992,3.49717773 21.729834,3.37413086 21.5117188,3.37413086 L7.45986328,3.37413086 L7.45986328,2.63912109 C7.93525391,2.42017578 8.26625977,1.93951172 8.26625977,1.38272461 C8.26621094,0.620322266 7.64594727,9.76562501e-06 6.88349609,9.76562501e-06 C6.12104492,9.76562501e-06 5.50073242,0.620322266 5.50073242,1.38272461 C5.50073242,1.93946289 5.83164062,2.42007813 6.30693359,2.63907227 L6.30693359,23.8471289 L5.57641602,23.8471289 C5.25810547,23.8471289 5,24.1052344 5,24.4235938 C5,24.7419531 5.25810547,25.0000098 5.57641602,25.0000098 L8.19052734,25.0000098 C8.50883789,25.0000098 8.76694336,24.7419531 8.76694336,24.4235938 C8.76694336,24.1052344 8.50883789,23.8471289 8.19052734,23.8471289 L7.45981445,23.8471289 L7.45981445,13.9474707 L21.4907715,13.9474707 C21.7087402,13.9474707 21.9080566,13.8245703 22.0058594,13.6297461 C22.1036621,13.4349707 22.083252,13.2016211 21.9530762,13.0268164 L18.7101562,8.6715918 Z" id="Fill-1"></path>
            </g>
        </g>
    </g>
</svg>