<?xml version="1.0" encoding="UTF-8"?>
<svg width="25px" height="25px" viewBox="0 0 25 25" version="1.1" xmlns="http://www.w3.org/2000/svg" xmlns:xlink="http://www.w3.org/1999/xlink">
    <!-- Generator: Sketch 55.1 (78136) - https://sketchapp.com -->
    <title>Icon / 25 / In progress Copy 3</title>
    <desc>Created with Sketch.</desc>
    <g id="My-Order" stroke="none" stroke-width="1" fill="none" fill-rule="evenodd">
        <g id="My-Orders" transform="translate(-31.000000, -460.000000)" fill="#0D47A1">
            <g id="Icon-/-25-/-Pending-Copy" transform="translate(31.000000, 460.000000)">
                <path d="M12.5,24.0039844 C18.8433105,24.0039844 24.0040039,18.8433398 24.0040039,12.4999805 C24.0040039,6.15666992 18.8433105,0.995976563 12.5,0.995976563 C6.15668945,0.995976563 0.995996094,6.15662109 0.995996094,12.4999805 C0.995996094,18.8433887 6.15668945,24.0039844 12.5,24.0039844 Z M21.3388672,3.66121094 C23.6998047,6.02209961 25,9.16111328 25,12.4999805 C25,15.8388965 23.6998047,18.9778613 21.3388672,21.3387988 C18.9778809,23.699834 15.8388672,24.9999805 12.5,24.9999805 C9.16113281,24.9999805 6.02211914,23.699834 3.66113281,21.3387988 C1.30019531,18.9778613 0,15.8388965 0,12.4999805 C0,9.16111328 1.30019531,6.02209961 3.66113281,3.66121094 C6.02211914,1.30017578 9.16113281,-1.953125e-05 12.5,-1.953125e-05 C15.8388672,-1.953125e-05 18.9778809,1.30017578 21.3388672,3.66121094 Z M12.5,21.912334 C17.6899902,21.912334 21.9123535,17.6899707 21.9123535,12.4999805 C21.9123535,7.30999023 17.6899902,3.08762695 12.5,3.08762695 C7.31000977,3.08762695 3.08764648,7.30999023 3.08764648,12.4999805 C3.08764648,17.6899707 7.31000977,21.912334 12.5,21.912334 Z M12.5,2.09163086 C18.239209,2.09163086 22.9083496,6.76077148 22.9083496,12.4999805 C22.9083496,18.2391895 18.239209,22.9083301 12.5,22.9083301 C6.76079102,22.9083301 2.09165039,18.2391895 2.09165039,12.4999805 C2.09165039,6.76077148 6.76079102,2.09163086 12.5,2.09163086 Z M12.5,13.5458008 C13.076709,13.5458008 13.5458008,13.0766113 13.5458008,12.5 C13.5458008,11.9233887 13.076709,11.4541992 12.5,11.4541992 C11.9233398,11.4541992 11.4541992,11.9233398 11.4541992,12.5 C11.4541992,13.0766113 11.923291,13.5458008 12.5,13.5458008 Z M12.997998,10.519873 C13.8839355,10.7427734 14.5418945,11.5458496 14.5418945,12.5 C14.5418945,13.6258789 13.6258789,14.5418457 12.5000488,14.5418457 C12.1044434,14.5418457 11.7349609,14.4283203 11.4217773,14.2327637 L9.31635742,16.3381836 C9.21914062,16.4354004 9.09165039,16.4840332 8.96420898,16.4840332 C8.83676758,16.4840332 8.70932617,16.4354004 8.61206055,16.3381836 C8.41757812,16.1436523 8.41757812,15.8283203 8.61206055,15.6338379 L10.7300293,13.5158691 C10.5574707,13.2165039 10.4582031,12.8697266 10.4582031,12.5 C10.4582031,11.5458984 11.1161133,10.7427734 12.002002,10.519873 L12.002002,4.73105469 C12.002002,4.45605469 12.2249512,4.23305664 12.5,4.23305664 C12.7750488,4.23305664 12.997998,4.45605469 12.997998,4.73105469 L12.997998,10.519873 Z M20.3677197,8.51206543 C21.2018506,10.1569385 21.49604,11.9948291 21.2185986,13.8272021 C20.9353955,15.697124 20.0767529,17.3945361 18.7355908,18.7356982 C18.638374,18.832915 18.5108838,18.8815479 18.3834424,18.8815479 C18.256001,18.8815479 18.1286084,18.832915 18.0312939,18.7356982 C17.8367627,18.541167 17.8368115,18.2257861 18.0312939,18.0313525 C20.4311475,15.631499 21.0130322,11.9870166 19.4793896,8.96250488 C19.3549756,8.71724121 19.4530713,8.41753418 19.6982861,8.29312012 C19.9436475,8.16880371 20.2433057,8.26675293 20.3677197,8.51206543 Z M19.0560352,6.60200195 C19.240166,6.80629883 19.2238574,7.12119141 19.0193652,7.30537109 C18.9241992,7.39106445 18.8049609,7.43334961 18.6862598,7.43334961 C18.5500781,7.43334961 18.4143848,7.3777832 18.3160938,7.26865234 C18.2246875,7.1671875 18.1288867,7.06630859 18.0312305,6.96879883 C17.8366992,6.77426758 17.8366992,6.45893555 18.0312305,6.26445313 C18.2257129,6.07001953 18.5410449,6.07001953 18.7355762,6.26445313 C18.8453418,6.37421875 18.9531543,6.48774414 19.0560352,6.60200195 Z" id="Combined-Shape"></path>
            </g>
        </g>
    </g>
</svg>