<?xml version="1.0" encoding="UTF-8"?>
<svg width="25px" height="25px" viewBox="0 0 25 25" version="1.1" xmlns="http://www.w3.org/2000/svg" xmlns:xlink="http://www.w3.org/1999/xlink">
    <!-- Generator: Sketch 55.1 (78136) - https://sketchapp.com -->
    <title>Icon / 25 / In progress Copy 4</title>
    <desc>Created with Sketch.</desc>
    <g id="My-Order" stroke="none" stroke-width="1" fill="none" fill-rule="evenodd">
        <g id="My-Orders" transform="translate(-31.000000, -626.000000)" fill="#FD5339">
            <g id="Icon-/-25-/-Cancel-Copy" transform="translate(31.000000, 626.000000)">
                <path d="M12.5,24.0039844 C18.8433105,24.0039844 24.0040039,18.8433398 24.0040039,12.4999805 C24.0040039,6.15666992 18.8433105,0.995976563 12.5,0.995976563 C6.15668945,0.995976563 0.995996094,6.15662109 0.995996094,12.4999805 C0.995996094,18.8433887 6.15668945,24.0039844 12.5,24.0039844 Z M21.3388672,3.66111328 C23.6998047,6.02209961 25,9.16116211 25,12.4999805 C25,15.8388477 23.6998047,18.9778613 21.3388672,21.3388477 C18.9778809,23.699834 15.8388672,24.9999805 12.5,24.9999805 C9.16113281,24.9999805 6.02211914,23.699834 3.66113281,21.3388477 C1.30019531,18.9778613 0,15.8388477 0,12.4999805 C0,9.16116211 1.30019531,6.02209961 3.66113281,3.66111328 C6.02211914,1.30017578 9.16113281,-1.953125e-05 12.5,-1.953125e-05 C15.8388672,-1.953125e-05 18.9778809,1.30017578 21.3388672,3.66111328 Z M16.9902783,18.6101904 L18.6101514,16.9903174 L14.4719678,12.8521826 C14.2774854,12.657749 14.2774854,12.3423682 14.4719678,12.1478369 L18.6101514,8.00970215 L16.9902783,6.3898291 L12.8521436,10.5280127 C12.6576611,10.7224463 12.3423291,10.7224463 12.1477979,10.5280127 L8.00966309,6.3898291 L6.38979004,8.00970215 L10.5279736,12.1478369 C10.7224561,12.3423193 10.7224561,12.6576514 10.5279736,12.8521826 L6.38979004,16.9903174 L8.00966309,18.6101904 L12.1477979,14.4720068 C12.2450635,14.3748389 12.3725537,14.3262061 12.4999951,14.3262061 C12.6274365,14.3262061 12.7549268,14.3748389 12.8521436,14.4720068 L16.9902783,18.6101904 Z M15.5284619,12.4999854 L19.6666943,16.6380713 C19.8611279,16.8326025 19.8611279,17.1479346 19.6666943,17.342417 L17.3424756,19.6666357 C17.24521,19.7638037 17.1177686,19.8124731 16.9903271,19.8124731 C16.8628857,19.8124731 16.7353955,19.7637549 16.6381787,19.6665869 L12.4999951,15.5284521 L8.36190918,19.6666846 C8.16742676,19.8610693 7.85209473,19.8610693 7.65756348,19.6666846 L5.33339355,17.3424658 C5.13891113,17.1480322 5.13891113,16.8327002 5.33339355,16.6381201 L9.47157715,12.4999854 L5.33334473,8.36189941 C5.1388623,8.16741699 5.1388623,7.85208496 5.33334473,7.65755371 L7.65751465,5.33338379 C7.85199707,5.1389502 8.1673291,5.1389502 8.36186035,5.33338379 L12.4999951,9.47156738 L16.6380811,5.33333496 C16.8326123,5.13890137 17.1479443,5.13890137 17.3424268,5.33333496 L19.6666455,7.65750488 C19.8610791,7.8519873 19.8610791,8.16731934 19.6666455,8.36185059 L15.5284619,12.4999854 Z" id="Combined-Shape"></path>
            </g>
        </g>
    </g>
</svg>