<?xml version="1.0" encoding="UTF-8"?>
<svg width="23px" height="18px" viewBox="0 0 23 18" version="1.1" xmlns="http://www.w3.org/2000/svg" xmlns:xlink="http://www.w3.org/1999/xlink">
    <!-- Generator: Sketch 55.2 (78181) - https://sketchapp.com -->
    <title>icon / 25 / scan</title>
    <desc>Created with Sketch.</desc>
    <g id="Symbols" stroke="none" stroke-width="1" fill="none" fill-rule="evenodd">
        <g id="forms-/-header-search" transform="translate(-310.000000, -14.000000)" fill="#0D47A1" fill-rule="nonzero">
            <g id="icons-/-25-/-scan">
                <g transform="translate(309.000000, 10.000000)">
                    <path d="M2.34765625,5.34765625 L2.34765625,6.6953125 L1,6.6953125 L1,4 L3.6953125,4 L3.6953125,5.34765625 L2.34765625,5.34765625 Z M2.34765625,18.8242188 L2.34765625,20.171875 L3.6953125,20.171875 L3.6953125,21.5195312 L1,21.5195312 L1,18.8242188 L2.34765625,18.8242188 Z M21.3046875,4 L24,4 L24,6.6953125 L22.6523438,6.6953125 L22.6523438,5.34765625 L21.3046875,5.34765625 L21.3046875,4 Z M22.6523438,20.171875 L22.6523438,18.8242188 L24,18.8242188 L24,21.5195312 L21.3046875,21.5195312 L21.3046875,20.171875 L22.6523438,20.171875 Z M21.3046875,6.6953125 L21.3046875,12.0859375 L24,12.0859375 L24,13.4335938 L21.3046875,13.4335938 L21.3046875,18.8242188 L17.2617188,18.8242188 L17.2617188,13.4335938 L15.8691406,13.4335938 L15.8691406,18.8242188 L14.5214844,18.8242188 L14.5214844,13.4335938 L13.1738281,13.4335938 L13.1738281,18.8242188 L9.13085938,18.8242188 L9.13085938,13.4335938 L7.78320312,13.4335938 L7.78320312,18.8242188 L6.43554688,18.8242188 L6.43554688,13.4335938 L5.04296875,13.4335938 L5.04296875,18.8242188 L3.6953125,18.8242188 L3.6953125,13.4335938 L1,13.4335938 L1,12.0859375 L3.6953125,12.0859375 L3.6953125,6.6953125 L5.04296875,6.6953125 L5.04296875,12.0859375 L6.43554688,12.0859375 L6.43554688,6.6953125 L7.78320312,6.6953125 L7.78320312,12.0859375 L9.13085938,12.0859375 L9.13085938,6.6953125 L13.1738281,6.6953125 L13.1738281,12.0859375 L14.5214844,12.0859375 L14.5214844,6.6953125 L15.8691406,6.6953125 L15.8691406,12.0859375 L17.2617188,12.0859375 L17.2617188,6.6953125 L21.3046875,6.6953125 Z" id="Combined-Shape"></path>
                </g>
            </g>
        </g>
    </g>
</svg>