<?xml version="1.0" encoding="UTF-8"?><svg width="24px" height="20px" viewBox="0 0 24 20" version="1.1" xmlns="http://www.w3.org/2000/svg" xmlns:xlink="http://www.w3.org/1999/xlink"><!--Generator: Sketch 54.1 (76490) - https://sketchapp.com--><title>Fill 1</title><desc>Created with Sketch.</desc><g id="Page-1" stroke="none" stroke-width="1" fill="none" fill-rule="evenodd"><g id="Contact-Page-v2" transform="translate(-175.000000, -618.000000)" fill="#4591C2"><g id="Iniciar-Sesion" transform="translate(123.000000, 617.000000)"><g id="Social"><path d="M59.547808,21 C68.604832,21 73.557664,13.3061552 73.557664,6.63466517 C73.557664,6.41603914 73.553344,6.19839746 73.543552,5.98193702 C74.504896,5.26935987 75.340672,4.3801888 76,3.36777604 C75.117664,3.7695912 74.168224,4.04048667 73.172224,4.16254713 C74.188864,3.53767632 74.969344,2.54859286 75.337408,1.36972507 C74.385856,1.94803571 73.332448,2.36865212 72.21088,2.59515302 C71.312416,1.61384599 70.032736,1 68.616736,1 C65.897248,1 63.692032,3.26117001 63.692032,6.04857809 C63.692032,6.44488084 63.735328,6.83006034 63.819712,7.19978541 C59.72752,6.98883737 56.09872,4.97966315 53.6704,1.92470642 C53.247136,2.67065332 53.003584,3.53767632 53.003584,4.4622843 C53.003584,6.21404877 53.872864,7.7603776 55.194688,8.6650031 C54.387136,8.63950821 53.628256,8.41192452 52.964608,8.03334022 C52.963456,8.0544055 52.963456,8.07556921 52.963456,8.09771727 C52.963456,10.5432576 54.661024,12.5846204 56.913856,13.0475642 C56.500384,13.162931 56.06512,13.2251425 55.61584,13.2251425 C55.298656,13.2251425 54.990112,13.192954 54.690208,13.1340893 C55.317088,15.1400152 57.134752,16.5997204 59.290144,16.6408666 C57.604576,17.9950487 55.481632,18.8020258 53.174656,18.8020258 C52.777312,18.8020258 52.38544,18.7787949 52,18.7321364 C54.179296,20.1640827 56.766688,21 59.547808,21" id="Fill-1"/></g></g></g></g></svg>