<svg xmlns="http://www.w3.org/2000/svg" fill="none" viewBox="0 0 345 149">
  <rect width="345" height="149" fill="#F9FAFB" rx="2"/>
  <g opacity=".3">
    <path fill="#E6E6EF" fill-rule="evenodd" d="M196.2 18l16.7-3 21 3.7h76c2.6 0 4.8 2.4 4.8 5.5v84.5c0 3-2.2 5.5-4.9 5.5h-76l-20.9-3.6-15.2 2.6c-2.7.5-5.2-1.5-5.6-4.6l-.1-.8V23.4c0-2.7 1.8-5 4.1-5.5z" clip-rule="evenodd"/>
    <path fill="#F5B97C" fill-rule="evenodd" d="M196.2 18l16.7-3 21 3.7h76c2.6 0 4.8 2.4 4.8 5.5v84.5c0 3-2.2 5.5-4.9 5.5h-76l-20.9-3.6-15.2 2.6c-2.7.5-5.2-1.5-5.6-4.6l-.1-.8V23.4c0-2.7 1.8-5 4.1-5.5z" clip-rule="evenodd"/>
    <path fill="#7BC1EB" fill-rule="evenodd" d="M204 26.3l9-2.1 20.9 3h67.8c2.7 0 4.9 2.5 4.9 5.5v66.8c0 3-2.2 5.5-5 5.5H234l-21-3-6.8 1.7c-2.7.6-5.3-1.3-5.8-4.3l-.1-1.1V31.7c0-2.6 1.6-4.9 3.9-5.4z" clip-rule="evenodd"/>
    <path fill="#00A07D" fill-rule="evenodd" d="M287.2 27.2c-.4 1.7-.6 3.4-.3 4.9.8 4.6 3.4 10.4 5.9 16 3.7 8.4 7.2 16.4 4.4 19.5-2 2-5.2 1.8-8.6 1.5-4.7-.3-9.7-.7-12.5 4.7a22 22 0 0 1-8.3 8c-5.3 3.5-10.6 7-10 17.5.1 3.2-1.1 4.9-3.2 5.7h-20.7l-21-3-6.7 1.6a5 5 0 0 1-6-4.7V31a5 5 0 0 1 3.8-4.8l9-2.1 20.9 3h53.3z" clip-rule="evenodd"/>
    <mask id="a" width="99" height="82" x="200" y="24" maskUnits="userSpaceOnUse">
      <path fill="#fff" fill-rule="evenodd" d="M287.2 27.2c-.4 1.7-.6 3.4-.3 4.9.8 4.6 3.4 10.4 5.9 16 3.7 8.4 7.2 16.4 4.4 19.5-2 2-5.2 1.8-8.6 1.5-4.7-.3-9.7-.7-12.5 4.7a22 22 0 0 1-8.3 8c-5.3 3.5-10.6 7-10 17.5.1 3.2-1.1 4.9-3.2 5.7h-20.7l-21-3-6.7 1.6a5 5 0 0 1-6-4.7V31a5 5 0 0 1 3.8-4.8l9-2.1 20.9 3h53.3z" clip-rule="evenodd"/>
    </mask>
    <g mask="#F5B97C">
      <path fill="#fff" d="M237.8 113.9l-4.2-3 11-20.2c.9-1.7 1.5-3.4 1.7-5.3l2.2-12.1c1-5.7 3.8-10.6 8-13.6l10.6-8.1c4.5-3.4 6.9-9.4 6-15.5l-3.7-26.8 5-1 3.7 27.1c1 8-2.1 16.2-8.2 20.8L259.3 64c-3.2 2.4-5.3 6-6 10l-2 12.4c-.5 2.5-1.3 4.8-2.5 7l-11 20.4z"/>
    </g>
    <path fill="#403F9F" d="M270.3 49.7c-2.6 0-4.7 2.4-4.7 5.3 0 3 3.7 7.7 4.5 8.8.1.1.3.1.4 0 .8-1 4.5-5.7 4.5-8.8 0-2.9-2.1-5.2-4.7-5.3z"/>
    <path fill="#F5B97C" d="M270.3 49.7c-2.6 0-4.7 2.4-4.7 5.3 0 3 3.7 7.7 4.5 8.8.1.1.3.1.4 0 .8-1 4.5-5.7 4.5-8.8 0-2.9-2.1-5.2-4.7-5.3z"/>
    <path fill="#F5B97C" fill-rule="evenodd" d="M213 15l20.9 3.7v95.5l-21-3.6V15z" clip-rule="evenodd"/>
  </g>
  <path fill="#B28B67" fill-rule="evenodd" d="M247.2 70.9c1.2.7 2.4 1.1 3 1 1.3-.4 1.4-6 .3-8.1-1-2.2-6.5-3.1-6.8 1.2 0 1.5.5 2.8 1.4 3.9l-1.6 7.8h4.4l-.7-5.8z" clip-rule="evenodd"/>
  <path fill="#191847" fill-rule="evenodd" d="M251 64.8l-.3-.9c0-.3-.3-.6-.4-1a7 7 0 0 0-1.3-1.4c-.8-.7-1.9-1.2-3-1a3 3 0 0 0-1.4.6c-.4.4-.8.9-1.3.9-.6 0-1.1-.5-1.5-.9a4 4 0 0 0-1.7-.7c-1-.2-2 .2-2.6 1-.7 1-1.2 2.4-.8 3.7l.4.6c.1.1.4.3.4.5.1.3 0 .6-.2.8 0 .3-.2.7-.1 1 0 .6.4 1.2.7 1.6.4.4.8.6 1.3.7H241c.6.5 1.2.7 1.9.6a3 3 0 0 0 1.7-.6c.5-.5.5-1.2.4-1.9.1 0 .5.1.3-.2l-.4-.2-.3-.3c-.4-.5 0-1.5.5-1.7.7-.3.9 1 1.4 1.2.3.2.7 0 .9-.3.3-.3.5-.7.7-1.2l.4-1c.1-.2.4-.7.2-.9.6-.1 1.2.1 1.6.5.2 0 .4.2.5.5l.1.2c.1 0 0-.2 0-.2z" clip-rule="evenodd"/>
  <path fill="#C5CFD6" fill-rule="evenodd" d="M242.2 102a12.5 12.5 0 0 0 0 25h2a12.5 12.5 0 1 0 0-25h-2zm-3.3 5.7a4 4 0 0 0-4 4v5.6a4 4 0 0 0 4 4h8.7a4 4 0 0 0 4-4v-5.6a4 4 0 0 0-4-4H239z" clip-rule="evenodd"/>
  <path fill="#B28B67" fill-rule="evenodd" d="M275 126a104.7 104.7 0 0 1-12-19.7c-1.3-3.3 3.2-4.8 4.2-3.3a188 188 0 0 1 9.8 21.7l-2 1.3z" clip-rule="evenodd"/>
  <path fill="#2F3676" fill-rule="evenodd" d="M267.6 124.6l-6.8-18.6c-1.4-3.4 5.5-5.6 6.6-4 2.4 3.5 8.1 17.6 8.9 18.7l-8.7 3.9z" clip-rule="evenodd"/>
  <path fill="#B28B67" fill-rule="evenodd" d="M249.6 120.8a127.1 127.1 0 0 1 10.8-14.4c2-2.3 6.2 1.5 4.2 3.6-5.1 5-12.6 11.8-13.2 12.4-.8.8-2.6-.3-1.8-1.6z" clip-rule="evenodd"/>
  <path fill="#E4E4E4" fill-rule="evenodd" d="M251.3 120.9c-.8-.5-1.7-.9-2.2-.2v.2l-.7 1.5 9 5.6s1-1 .3-1.6l-1.1-1-2.6-3.9c-.3-.5-1-.6-1.4-.2 0 0-.9-.1-1.3-.4zM275 125.4c-.8 0-1.7.1-1.8 1v.2l.1 1.6h10.4s.4-1.5-.5-1.6l-1.4-.2-4-2a1 1 0 0 0-1.4.6s-.8.4-1.3.4z" clip-rule="evenodd"/>
  <path fill="#5C63AB" fill-rule="evenodd" d="M258.4 106.9l-11.3-2c-5.4-1.1-7-4.3-6-11.3h10c2 .7 16.5 7.8 16.5 7.8 1.8 1 1.5 3.7 1.2 4.7l-8.9 16.6-8.2-5.7 6.7-9.4s.3-.6 0-.7z" clip-rule="evenodd"/>
  <path fill="#B28B67" fill-rule="evenodd" d="M264.6 95.5l-5.8-4.7-1.3 3.5 5.8 2.6c1.6 2.1 2.5 3 2.7 2.7.2-.3 0-.6 0-.9-.2-.2-.2-.3-.2-.5.2-.4 1.3-.4 2.3-.3 1 .1.8-.4.5-.6a15 15 0 0 0-4-1.8zm-30.7 8.3c.5-1.2 2.3-12.8 2.3-12.8h3.9l-3.9 13.3c-.3 1 .3 2.5.7 3.5l.2.4c-.6.3-.9 0-1.2-.5-.3-.4-.7-.8-1.5-.4l-1 .6c-1 .6-2 1.2-3.2.4-.2-.2-.4-.7.1-1.1a18 18 0 0 0 3.6-3.4z" clip-rule="evenodd"/>
  <path fill="#E87613" fill-rule="evenodd" d="M247.2 73.3l1.5-.3c6 5.6 8.4 16.3 15.6 22l-1.7 2.3c-12.6-1.7-15.7-14.7-15.5-24z" clip-rule="evenodd"/>
  <path fill="#DDE3E9" fill-rule="evenodd" d="M240.2 95.2h14c.7 0 .6-1 .5-1.6-1-5.9-5.2-12.3-5.2-20.7l-4.1-.7c-3.4 6-4.5 13.2-5.2 23z" clip-rule="evenodd"/>
  <path fill="#FF9B21" fill-rule="evenodd" d="M238.6 99.4c-.6 1.7-1.2 3.1-1.8 4.2h-3a46 46 0 0 1 7-25.6c-.8 0-1.4-.4-1.9-1.3-1.4-2.9-1-4.5.7-5 .8-.3 1.7-.1 2.6.1.8.2 1.8.4 2.9.4h.3l1.3.1s5.5 20.3 3 27.1h-11z" clip-rule="evenodd"/>
  <path fill="#000" fill-opacity=".1" fill-rule="evenodd" d="M238.6 99.4a130 130 0 0 0 2.5-7.4c.3 3 .8 5.9 1.7 7.4h-4.2z" clip-rule="evenodd"/>
  <path fill="#B28B67" fill-rule="evenodd" d="M299 58.2c-1.2.7-2.3 1.1-2.9 1-1.4-.4-1.5-6-.4-8.1s6.5-3.1 6.8 1.2c0 1.5-.5 2.8-1.3 3.9l1.5 7.8h-4.4l.7-5.8z" clip-rule="evenodd"/>
  <path fill="#191847" fill-rule="evenodd" d="M293.9 48.6v-.8l.8.5h.3a6.8 6.8 0 0 0 1.3-.1l2-.2a5 5 0 0 1 2.7.6c.9.5 1.5 1.4 1.7 2.7v.2l-.1.2-.1.1c.7 2-.2 4-1.3 4.8l-.9-1.3c.2-.2.4-.5.4-.8 0-.7-.5-1.2-1.1-1.2a1 1 0 0 0-.4 0c-.4-.5-.6-1-1-1.3l-.3-.1c-1.5.2-2.6 0-3.3-.7-.7-.7-.9-1.6-.7-2.6zm2.6 2.3a2 2 0 0 1-1.2-.5c-.3-.2-.5-.6-.5-1h.2a7.7 7.7 0 0 0 1.5-.2l1.4-.2c-.8.3-1.3 1-1.4 2z" clip-rule="evenodd"/>
  <path fill="#997659" fill-rule="evenodd" d="M305.6 81l-6.9 24.8-3.3 21h-2.7l3.6-45.8h9.3z" clip-rule="evenodd"/>
  <path fill="#B28B67" fill-rule="evenodd" d="M308.1 81c-.5 13.6 0 20.6.2 21.8 0 1.3 1.5 9.3 5 24.5l-2.9-1c-5.3-14-7.2-21.2-7.8-23s-2.3-9.3-5-22.3h10.5z" clip-rule="evenodd"/>
  <path fill="#E4E4E4" fill-rule="evenodd" d="M311.6 126.3c.8 0 1.8.2 2 1v.3l-.2 1.5H303s-.4-1.4.5-1.5l1.4-.2 4-2a1 1 0 0 1 1.4.5s.8.4 1.3.4zM294.3 126.3c.9 0 1.8.2 2 1v.3l-.2 1.5h-10.4s-.4-1.4.5-1.5l1.4-.2 4-2a1 1 0 0 1 1.4.5s.8.4 1.3.4z" clip-rule="evenodd"/>
  <path fill="#69A1AC" fill-rule="evenodd" d="M306.6 81l-3 12.6h-9L296 81h10.5z" clip-rule="evenodd"/>
  <path fill="#89C5CC" fill-rule="evenodd" d="M308.2 81c1.5 4.7.6 12.6.6 12.6h-9.2L297 81h11.1z" clip-rule="evenodd"/>
  <path fill="#B28B67" fill-rule="evenodd" d="M280 60.6l7.2 1.3-1.3 3.5-5.9-2.7c-2.5.2-3.7 0-3.6-.3 0-.4.3-.4.6-.5l.4-.3c.2-.4-.7-1.2-1.5-2s-.2-.9.1-.9c1.2.4 2.5 1 4 2zm4.5 20l5.2-5.4 1.8 3.2L286 82c-1.4 2.3-2.1 3.3-2.4 3-.2-.3-.1-.6 0-.9v-.5c-.2-.4-1.3-.2-2.3 0s-.8-.3-.6-.6a15 15 0 0 1 3.7-2.3z" clip-rule="evenodd"/>
  <path fill="#2026A2" fill-rule="evenodd" d="M297 61.3A47 47 0 0 1 285 80l2.9 2.7c7-4 10.6-6.4 11.7-12.8.2-1.6-.1-6.5-.2-9l-2.4.5z" clip-rule="evenodd"/>
  <path fill="#F2F2F2" fill-rule="evenodd" d="M308.8 81.6l-14 2s2.5-16.6 1.8-22.6c0-.2.3-.6.4-.5 1.8.2 3.5-1 3.5-1a53 53 0 0 1 8.3 22z" clip-rule="evenodd"/>
  <path fill="#1F28CF" fill-rule="evenodd" d="M298.2 69c-.7 10.6.6 19 5.4 18.3l7.5-1c0-9-4.9-20.6-8.6-26.3-.2-.2-.5-.6-1-.6l-2.2.4-2.1.3c-4 .7-9.6 1.7-16.2.4l-.2 4.2c6.3 3.2 12.5 5.5 17.4 4.3z" clip-rule="evenodd"/>
  <path fill="#454F5B" d="M17.6 53c-.2 0-.4 0-.5-.2a.7.7 0 0 1-.2-.5V34.1c0-.2 0-.3.2-.5l.5-.2h13.2c.2 0 .4 0 .5.2.2.2.2.3.2.5V37c0 .2 0 .4-.2.5l-.5.2H22v3.6h8.2c.2 0 .4 0 .5.2.2.1.2.3.2.5v2.5c0 .2 0 .4-.2.6l-.5.2H22v3.6h9c.2 0 .4 0 .5.2.2.2.3.3.3.5v2.8c0 .2-.1.4-.3.5l-.5.2H17.6zm17.7 0c-.2 0-.4 0-.5-.2a.7.7 0 0 1-.2-.5V39.1c0-.2 0-.3.2-.5l.5-.2h3.4l.5.2.2.5v1.1c.5-.6 1.2-1.1 2-1.5a6.4 6.4 0 0 1 5.5.2c.8.5 1.5 1.2 2 2.1.5 1 .7 2.1.7 3.5v7.8c0 .2 0 .4-.2.5l-.5.2h-3.7c-.2 0-.4 0-.6-.2a.7.7 0 0 1-.2-.5v-7.6c0-.9-.2-1.5-.6-2-.4-.4-1-.6-1.7-.6-.8 0-1.3.2-1.8.7-.4.4-.6 1-.6 1.9v7.6c0 .2 0 .4-.2.5l-.5.2h-3.7zm24.1.3c-2 0-3.8-.6-5.1-1.7a6.4 6.4 0 0 1-2.1-4.7v-2.3c0-2 .7-3.6 2-4.7s3.1-1.7 5.2-1.7c1.7 0 3 .2 4.1.8s2 1.3 2.5 2.1.8 1.5.9 2.2c0 .2 0 .3-.2.5l-.6.2h-3.7c-.2 0-.4 0-.5-.2l-.3-.4c-.2-.5-.5-1-.8-1.2a2 2 0 0 0-1.2-.3c-1.5 0-2.2 1-2.3 2.8v2.1c0 .9.2 1.6.6 2 .4.5 1 .8 1.7.8.5 0 1-.2 1.2-.4.3-.2.6-.6.8-1.2 0-.2.2-.3.3-.4l.5-.1H66c.2 0 .4 0 .5.2l.3.4c0 .6-.3 1.3-.8 2.1s-1.3 1.5-2.5 2.2-2.5.9-4.2.9zm15.2 0c-1.6 0-3-.6-4-1.7S69.1 49 69.1 47V39c0-.2 0-.3.2-.5l.5-.2h3.7c.3 0 .4.1.5.2.2.2.3.3.3.5v7.7c0 1.7.7 2.6 2.3 2.6.7 0 1.3-.2 1.7-.7.5-.5.7-1 .7-2v-7.6c0-.2 0-.3.2-.5l.5-.2h3.7l.5.2.2.5v13.2c0 .2 0 .4-.2.5l-.5.2H80c-.2 0-.4 0-.5-.2a.7.7 0 0 1-.2-.5v-1c-1 1.3-2.6 2-4.7 2zm19.5 0c-2.3 0-4-.6-5.4-1.8-1.3-1.3-2-3-2-5.4v-.9c.1-2.2.8-4 2-5.2s3.2-1.8 5.4-1.8c1.6 0 3 .3 4 1a6 6 0 0 1 2.5 2.6c.6 1.1.9 2.4.9 3.8v.7l-.2.6-.6.2H92v.1c0 .9.2 1.6.6 2 .3.6.9.8 1.6.8.4 0 .8 0 1-.2l.8-.7.4-.4h4.2l.4.1.2.4c0 .5-.3 1-.9 1.7-.5.7-1.3 1.2-2.4 1.7a9 9 0 0 1-3.7.7zm2.2-9v-.1c0-1-.2-1.6-.6-2.1-.4-.5-1-.8-1.6-.8s-1.3.3-1.7.8c-.3.5-.5 1.2-.5 2v.1h4.4zm8.4 8.7c-.2 0-.4 0-.5-.2a.7.7 0 0 1-.2-.5V39.1c0-.2 0-.3.2-.5l.5-.2h3.4l.5.2c.2.2.2.3.2.5v1.1c.5-.6 1.2-1.1 2-1.5a6.4 6.4 0 0 1 5.5.2 5 5 0 0 1 2 2.1c.5 1 .7 2.1.7 3.5v7.8c0 .2 0 .4-.2.5l-.5.2h-3.7c-.2 0-.4 0-.5-.2a.7.7 0 0 1-.2-.5v-7.6c0-.9-.2-1.5-.6-2-.4-.4-1-.6-1.8-.6-.7 0-1.3.2-1.7.7-.5.4-.7 1-.7 1.9v7.6c0 .2 0 .4-.2.5l-.5.2h-3.7zm24.9 0c-4 0-6-1.9-6-5.6v-5.2h-2.2l-.5-.1a.7.7 0 0 1-.2-.6v-2.4l.2-.5.5-.2h2.3v-4.6c0-.2 0-.4.2-.5l.5-.2h3.4c.2 0 .4 0 .5.2l.2.5v4.6h3.5l.5.2c.2.2.2.3.2.5v2.4c0 .3 0 .4-.2.6l-.5.1h-3.5V47c0 .7.1 1.2.4 1.5.2.3.6.5 1.1.5h2.3c.2 0 .3 0 .5.2l.2.5v2.6l-.2.5-.5.2h-2.7zm6.3 0c-.2 0-.3 0-.5-.2a.7.7 0 0 1-.2-.5V39.2c0-.2 0-.4.2-.5.1-.2.3-.3.5-.3h3.4c.2 0 .4.1.5.3.2 0 .3.3.3.5v1c.5-.5 1-1 1.8-1.3.7-.3 1.5-.5 2.3-.5h1.3l.5.2.2.5v3c0 .3 0 .4-.2.6l-.5.2h-2.8c-.8 0-1.4.2-1.8.6-.4.4-.6 1-.6 1.7v7.1c0 .2 0 .4-.2.5l-.5.2H136zm16.4.3c-1 0-2-.2-2.7-.6-.8-.4-1.5-.9-2-1.6a4 4 0 0 1-.6-2.2c0-1.3.5-2.3 1.5-3 1.1-.9 2.6-1.4 4.4-1.7l3.5-.6v-.3c0-.7-.2-1.2-.4-1.5s-.8-.5-1.5-.5c-.3 0-.7 0-1 .2l-.8.6-.6.5-.3.2h-3.2l-.5-.2a.6.6 0 0 1-.1-.5c0-.5.2-1 .7-1.6.5-.7 1.2-1.2 2.2-1.7 1-.4 2.2-.6 3.7-.6 2.3 0 4 .5 5.1 1.5 1.2 1 1.7 2.4 1.7 4.1v8.5c0 .2 0 .4-.2.5l-.5.2h-3.4c-.2 0-.4 0-.5-.2a.7.7 0 0 1-.2-.5v-1c-.4.6-1 1-1.7 1.4-.8.4-1.6.6-2.6.6zm1.4-3.3c.8 0 1.5-.3 2-.8.5-.6.7-1.4.7-2.4v-.3l-2.3.4c-1.5.3-2.3.8-2.3 1.6 0 .5.1.8.5 1 .4.3.8.5 1.4.5zM24.2 83c-4 0-5.9-1.9-5.9-5.6v-5.2h-2.2l-.5-.1a.7.7 0 0 1-.2-.6v-2.4c0-.2 0-.3.2-.5l.5-.2h2.2v-4.6c0-.2 0-.4.2-.5l.5-.2h3.4c.3 0 .4 0 .6.2s.1.3.1.5v4.6h3.5l.6.2.2.5v2.4l-.2.6-.6.1h-3.5V77c0 .7.2 1.2.4 1.5s.6.5 1.2.5h2.2c.2 0 .4 0 .5.2l.2.5v2.6c0 .2 0 .4-.2.5l-.5.2h-2.7zm11 .3c-1.6 0-3-.6-4-1.7S29.7 79 29.7 77V69c0-.2 0-.3.2-.5l.5-.2h3.7l.5.2c.2.2.3.3.3.5v7.7c0 1.7.7 2.6 2.3 2.6.7 0 1.3-.2 1.7-.7.5-.5.7-1 .7-2v-7.6c0-.2 0-.3.2-.5l.5-.2H44l.5.2.2.5v13.2c0 .2 0 .4-.2.5l-.5.2h-3.4c-.2 0-.4 0-.5-.2a.7.7 0 0 1-.2-.5v-1c-1 1.3-2.6 2-4.7 2zM61 83c-4 0-6-1.9-6-5.6v-5.2h-2.2l-.5-.1a.7.7 0 0 1-.2-.6v-2.4l.2-.5.5-.2H55v-4.6l.2-.5.5-.2h3.5c.2 0 .4 0 .5.2l.2.5v4.6h3.5l.5.2.2.5v2.4c0 .3 0 .4-.2.6l-.5.1h-3.5V77c0 .7.1 1.2.4 1.5.2.3.6.5 1.1.5h2.2c.2 0 .4 0 .5.2.2.2.2.3.2.5v2.6c0 .2 0 .4-.2.5l-.5.2H61zm6.3-16.6c-.2 0-.4 0-.5-.2a.8.8 0 0 1-.2-.5v-2.6c0-.2 0-.4.2-.5.1-.2.3-.2.5-.2h3.5c.2 0 .4 0 .5.2.2.1.2.3.2.5v2.6c0 .2 0 .4-.2.5-.1.2-.3.2-.5.2h-3.5zm0 16.6c-.2 0-.4 0-.5-.2a.7.7 0 0 1-.2-.5V69.1c0-.2 0-.3.2-.5l.5-.2h3.5l.5.2c.2.2.2.3.2.5v13.2c0 .2 0 .4-.2.5l-.5.2h-3.5zm14.3.3c-2.3 0-4.1-.6-5.4-1.8-1.3-1.3-2-3-2-5.4v-.9c0-2.2.7-4 2-5.2 1.3-1.2 3.1-1.8 5.3-1.8 1.6 0 3 .3 4 1a6 6 0 0 1 2.6 2.6c.5 1.1.8 2.4.8 3.8v.7c0 .2 0 .4-.2.6l-.5.2h-8.9v.1c0 .9.2 1.6.6 2 .4.6 1 .8 1.6.8.4 0 .8 0 1-.2l.8-.7.4-.4h4.2l.4.1c.2.1.2.2.2.4 0 .5-.3 1-.8 1.7-.6.7-1.4 1.2-2.4 1.7a9 9 0 0 1-3.7.7zm2.2-9v-.1c0-1-.2-1.6-.6-2.1a2 2 0 0 0-1.7-.8 2 2 0 0 0-1.6.8c-.4.5-.6 1.2-.6 2v.1h4.5zM92 83c-.2 0-.3 0-.5-.2a.7.7 0 0 1-.2-.5V69.1c0-.2 0-.3.2-.5l.5-.2h3.5l.5.2.2.5v1.1c.5-.6 1.1-1.1 1.9-1.5a6.4 6.4 0 0 1 5.6.2c.8.5 1.5 1.2 2 2.1.4 1 .7 2.1.7 3.5v7.8l-.2.5-.5.2h-3.8c-.2 0-.3 0-.5-.2a.7.7 0 0 1-.2-.5v-7.6c0-.9-.2-1.5-.6-2-.4-.4-1-.6-1.7-.6-.8 0-1.4.2-1.8.7-.4.4-.6 1-.6 1.9v7.6l-.2.5-.5.2H92zm22.9.3c-1.8 0-3.2-.6-4.3-1.7a7.4 7.4 0 0 1-1.6-4.9v-2c0-2 .6-3.6 1.6-4.8 1-1.2 2.5-1.7 4.3-1.7 1.7 0 3 .5 4 1.6v-6l.2-.5.5-.2h3.7c.2 0 .3 0 .5.2l.2.5v18.5c0 .2 0 .4-.2.5l-.5.2h-3.4c-.2 0-.3 0-.5-.2a.7.7 0 0 1-.2-.5v-.9a5.3 5.3 0 0 1-4.3 1.9zm1.6-4c.8 0 1.4-.2 1.8-.7.4-.5.6-1.1.6-2a18.5 18.5 0 0 0 0-2c0-.8-.2-1.4-.6-1.8-.4-.5-1-.7-1.8-.7s-1.4.2-1.8.7c-.4.5-.6 1.2-.6 2v1.8c0 .9.2 1.6.6 2 .4.5 1 .8 1.8.8zm15 4c-1 0-1.8-.2-2.6-.6-.8-.4-1.5-.9-2-1.6a4 4 0 0 1-.6-2.2c0-1.3.5-2.3 1.5-3 1.1-.9 2.6-1.4 4.4-1.7l3.5-.6v-.3c0-.7-.2-1.2-.4-1.5s-.8-.5-1.5-.5c-.3 0-.7 0-1 .2l-.8.6-.6.5-.3.2H128l-.5-.2a.6.6 0 0 1-.1-.5c0-.5.2-1 .7-1.6.5-.7 1.2-1.2 2.2-1.7s2.2-.6 3.7-.6c2.3 0 4 .5 5.1 1.5 1.2 1 1.7 2.4 1.7 4.1v8.5c0 .2 0 .4-.2.5l-.5.2h-3.4c-.2 0-.4 0-.5-.2a.7.7 0 0 1-.2-.5v-1c-.4.6-1 1-1.7 1.4-.8.4-1.6.6-2.6.6zM133 80c.8 0 1.5-.3 2-.8.5-.6.7-1.4.7-2.4v-.3l-2.3.4c-1.5.3-2.3.8-2.3 1.6 0 .5.1.8.5 1 .4.3.8.5 1.4.5zm11.4 3c-.2 0-.4 0-.6-.2a.7.7 0 0 1-.2-.5v-3.7l.2-.5.6-.2h3.7c.2 0 .3 0 .5.2l.2.5v3.7l-.2.5-.5.2h-3.7zM17 106.3h-.2v-.3-.2l1-2.2-2.4-5.4V98v-.2h.8c.1 0 .2 0 .3.2l1.8 4.4 2-4.4c0-.2 0-.2.2-.2h.7v.4l-3.4 7.9-.1.1H17zm10.4-2.2c-.8 0-1.5-.3-2-.8-.3-.5-.5-1.2-.6-2v-.8c0-.8.3-1.5.7-2 .4-.6 1-.9 1.9-.9s1.5.3 2 1v-2.8-.2l.2-.1h.7l.1.3v8.1l-.2.1h-.6-.2v-.8c-.5.6-1.1 1-2 1zm.2-1c.6 0 1-.1 1.3-.5.3-.3.4-.8.4-1.3a5.8 5.8 0 0 0 0-1c0-.4-.1-.8-.4-1.2-.3-.3-.7-.5-1.3-.5-.6 0-1 .2-1.2.5s-.4.8-.5 1.4v.4c0 1.5.6 2.3 1.7 2.3zm7.1 1c-.8 0-1.5-.2-2-.7-.4-.5-.7-1.2-.8-2.1v-.8c.1-.9.4-1.6.9-2s1-.9 2-.9c.8 0 1.5.3 2 .9.4.5.7 1.3.7 2.3v.2l-.1.2H33v.2c0 .5.2 1 .5 1.3s.7.5 1.2.5a1.7 1.7 0 0 0 1.4-.6l.2-.2H37.2l.1.2-.3.6c-.2.2-.5.5-1 .7l-1.3.2zm1.7-3.7c0-.6-.2-1-.5-1.4s-.7-.5-1.2-.5-1 .2-1.2.5-.5.8-.5 1.4h3.4zm-2-3.5l-.2-.2v-.2l1-1c0-.2.1-.2.2-.2h1l.2.1v.2l-1.4 1.1-.2.1H34.4zm4.8-.3H39V95.6v-.2l.2-.1h1V96.6h-1zm-1.3 9.7l-.2-.1V105.6v-.2h.4c.4 0 .6-.1.8-.4l.2-.8V98v-.2h1v6.4c0 1.4-.6 2-2 2H38zm5.8-2.2c-.4 0-.8 0-1.1-.2l-.8-.7c-.2-.2-.3-.6-.3-.9 0-.5.2-1 .7-1.3s1-.5 1.7-.7l1.8-.2v-.4c0-.8-.4-1.2-1.4-1.2-.4 0-.7 0-.9.2l-.5.5v.2h-.7-.2v-.2c0-.2 0-.4.2-.6.2-.3.4-.5.8-.7.4-.2.8-.3 1.3-.3 1 0 1.6.2 2 .7.3.4.5.9.5 1.5v4.1l-.3.1H46h-.2v-.8l-.8.7c-.3.2-.8.2-1.3.2zm.2-.9c.6 0 1-.1 1.3-.5s.5-.8.5-1.5v-.3l-1.4.2c-.5 0-1 .2-1.3.4s-.4.4-.4.7c0 .4.1.6.4.8.2.2.6.2 1 .2zm7 .8c-1.2 0-1.9-.7-1.9-2.1v-3.2h-1-.1V98v-.2h1.2v-2-.2l.2-.1h.7l.1.3v2h1.7v.8H50v3.2c0 .4 0 .7.2 1 .1.1.4.3.7.3H51.9v.8l-.2.1H51zm4.7.1c-.8 0-1.4-.2-2-.7-.4-.5-.7-1.2-.7-2.1v-.8c0-.9.3-1.6.8-2s1.1-.9 2-.9c.8 0 1.5.3 2 .9.5.5.7 1.3.7 2.3v.4H54v.2c0 .5.1 1 .4 1.3s.7.5 1.2.5a1.7 1.7 0 0 0 1.5-.6l.1-.2h.9l.1.2c0 .1 0 .4-.3.6l-1 .7-1.3.2zm1.7-3.7c0-.6-.1-1-.4-1.4s-.8-.5-1.3-.5-.9.2-1.2.5-.4.8-.4 1.4h3.3zm7.6 3.7c-.5 0-1 0-1.4-.2l-.8-.7-.3-.5.1-.2.2-.1h.6l.1.1.6.6 1 .2c.4 0 .7-.1 1-.3.3-.1.4-.4.4-.7 0-.2 0-.3-.2-.5l-.5-.3a9 9 0 0 0-1.2-.3c-.7-.1-1.2-.4-1.5-.7s-.4-.6-.4-1 0-.7.3-1l.7-.6c.4-.2.8-.3 1.3-.3s1 .1 1.3.3l.8.6.3.5-.1.2-.2.1h-.5l-.2-.1-.4-.4-.4-.2a2 2 0 0 0-.6-.1c-.4 0-.7 0-1 .3l-.2.6.1.4.5.4 1.1.3c.8.1 1.3.3 1.6.6.3.3.5.7.5 1.2l-.3 1-.9.6-1.4.2zm6.5 0c-.8 0-1.5-.2-2-.7a3 3 0 0 1-.8-2v-1c0-.9.3-1.5.8-2s1.2-.8 2-.8 1.6.3 2 .8c.5.5.8 1.1.8 2a5.7 5.7 0 0 1 0 1c0 .8-.3 1.5-.7 2-.5.5-1.2.7-2 .7zm0-.9c.5 0 1-.1 1.2-.5.4-.3.5-.8.5-1.4a5.6 5.6 0 0 0 0-.9c0-.6-.1-1-.5-1.4-.2-.3-.7-.5-1.2-.5s-.9.2-1.2.5c-.3.4-.4.8-.5 1.4v.9c0 .6.2 1.1.5 1.4.3.4.7.5 1.2.5zm4.6.8h-.2v-6-.2h1v.8c.4-.6 1-.8 1.7-.8h.7V98.7H78.3c-.4 0-.8.2-1 .4-.3.3-.4.6-.4 1v3.6l-.1.2-.2.1H76zm4.6 2.3h-.2l-.1-.3v-8-.2h1v.8c.5-.7 1.2-1 2-1 .9 0 1.5.3 2 .8a5 5 0 0 1 .7 2.8c-.1.9-.4 1.6-.8 2.1-.4.6-1 .8-1.9.8-.8 0-1.5-.3-2-.9v3h-.7zm2.5-3.1c.6 0 1-.2 1.3-.6s.4-.8.4-1.4v-.3c0-1.6-.6-2.3-1.7-2.3-.6 0-1 .2-1.3.5-.2.4-.4.8-.4 1.3a6 6 0 0 0 0 1c0 .5.2.9.4 1.3.3.3.8.5 1.3.5zm4.6.8h-.2v-6-.2H88.4v.8c.4-.6 1-.8 1.7-.8h.7V98.7H90c-.4 0-.8.2-1 .4-.3.3-.4.6-.4 1V104l-.3.1h-.5zm6.6.1c-.8 0-1.5-.2-2-.7-.5-.5-.7-1.2-.8-2.1v-.8c0-.9.3-1.6.8-2s1.2-.9 2-.9c.9 0 1.5.3 2 .9.5.5.7 1.3.7 2.3v.4h-4.4v.2c0 .5.2 1 .5 1.3s.7.5 1.2.5a1.7 1.7 0 0 0 1.4-.6l.2-.2H96.8v.2c0 .1 0 .4-.2.6l-1 .7-1.3.2zm1.7-3.7c0-.6-.2-1-.5-1.4s-.7-.5-1.2-.5-1 .2-1.2.5-.5.8-.5 1.4H96zm2.8 3.6h-.2v-6-.2H99.5v.8c.3-.3.6-.6.9-.7.3-.2.7-.3 1.2-.3.8 0 1.4.3 1.8.8.4.5.6 1.1.6 2v3.5l-.3.1h-.5-.2V100.3c0-.6-.2-1-.5-1.3s-.7-.5-1.2-.5-1 .1-1.2.5c-.3.3-.5.7-.5 1.3v3.5l-.3.1h-.5zm9.2.1c-.8 0-1.4-.3-1.9-.8-.4-.5-.6-1.2-.6-2v-.8c0-.8.2-1.5.6-2 .5-.6 1.1-.9 2-.9s1.4.3 1.9 1v-2.8-.2l.2-.1h.8v8.4l-.2.1h-.7v-.8c-.5.6-1.2 1-2 1zm.3-1c.5 0 1-.1 1.2-.5.3-.3.4-.8.5-1.3a5.8 5.8 0 0 0 0-1c0-.4-.2-.8-.5-1.2-.3-.3-.7-.5-1.2-.5-.6 0-1 .2-1.3.5s-.4.8-.4 1.4v.4c0 1.5.5 2.3 1.7 2.3zm7 1c-.8 0-1.4-.2-2-.7-.4-.5-.7-1.2-.7-2.1v-.8c0-.9.3-1.6.8-2s1.1-.9 2-.9c.8 0 1.5.3 2 .9.5.5.7 1.3.7 2.3v.4H113.6v.2c0 .5.2 1 .5 1.3s.6.5 1.1.5a1.7 1.7 0 0 0 1.5-.6l.2-.2H117.9v.2c0 .1 0 .4-.3.6l-.9.7-1.4.2zm1.7-3.7c0-.6-.1-1-.4-1.4s-.7-.5-1.3-.5c-.5 0-.9.2-1.2.5s-.4.8-.4 1.4h3.3zm2.9 3.6h-.3v-6-.2h1v.8c.4-.6 1-.8 1.7-.8h.7V98.7H122c-.4 0-.8.2-1 .4-.3.3-.4.6-.4 1v3.6l-.1.2-.2.1h-.5zm9.1.1c-.8 0-1.4-.3-1.9-.8-.4-.5-.6-1.2-.6-2v-.8c0-.8.2-1.5.7-2 .4-.6 1-.9 1.8-.9s1.5.3 2 1v-2.8-.2l.3-.1h.7v8.4l-.2.1h-.7v-.8c-.5.6-1.2 1-2 1zm.3-1c.5 0 1-.1 1.2-.5.3-.3.5-.8.5-1.3a5.8 5.8 0 0 0 0-1c0-.4-.2-.8-.5-1.2-.3-.3-.7-.5-1.2-.5-.6 0-1 .2-1.3.5s-.4.8-.4 1.4v.4c0 1.5.5 2.3 1.7 2.3zm7 1c-.8 0-1.4-.2-1.9-.7-.5-.5-.8-1.2-.8-2.1v-.8c0-.9.3-1.6.8-2s1.1-.9 2-.9c.8 0 1.5.3 2 .9.5.5.7 1.3.7 2.3v.4h-4.4v.2c0 .5.2 1 .5 1.3s.7.5 1.1.5a1.7 1.7 0 0 0 1.5-.6l.2-.2H138.9v.2c0 .1 0 .4-.3.6l-.9.7-1.3.2zm1.7-3.7c0-.6-.1-1-.4-1.4s-.7-.5-1.2-.5c-.6 0-1 .2-1.3.5s-.4.8-.4 1.4h3.3zm5.8 3.6h-.2v-8.3-.1l.2-.1h.7l.1.3v8.1l-.2.1h-.6zm4.4.1c-.4 0-.8 0-1.1-.2-.4-.2-.6-.4-.8-.7-.2-.2-.3-.6-.3-.9 0-.5.2-1 .6-1.3s1-.5 1.8-.7l1.8-.2v-.4c0-.8-.5-1.2-1.4-1.2-.4 0-.7 0-1 .2l-.4.5-.1.2h-.8v-.2c0-.2 0-.4.2-.6.1-.3.4-.5.8-.7.3-.2.8-.3 1.3-.3.9 0 1.5.2 2 .7.3.4.5.9.5 1.5v4.1l-.3.1h-.5-.2v-.8l-.8.7c-.3.2-.8.2-1.3.2zm.2-.9c.5 0 1-.1 1.3-.5s.5-.8.5-1.5v-.3l-1.4.2c-.6 0-1 .2-1.3.4s-.5.4-.5.7c0 .4.2.6.4.8.3.2.6.2 1 .2zm6.8 1c-.6 0-1-.2-1.4-.3-.4-.2-.7-.4-.9-.7l-.3-.5.1-.2.2-.1h.6l.1.1.7.6.9.2c.4 0 .8-.1 1-.3.3-.1.4-.4.4-.7 0-.2 0-.3-.2-.5l-.5-.3a9 9 0 0 0-1.2-.3c-.7-.1-1.2-.4-1.5-.7s-.4-.6-.4-1 .1-.7.3-1l.8-.6c.3-.2.7-.3 1.2-.3s1 .1 1.3.3l.8.6.3.5-.1.2-.2.1h-.4l-.3-.1-.3-.4-.4-.2a2 2 0 0 0-.7-.1c-.4 0-.7 0-.9.3-.2.1-.3.3-.3.6l.1.4.5.4 1.1.3c.8.1 1.3.3 1.6.6.4.3.5.7.5 1.2 0 .3 0 .6-.3 1l-.9.6-1.3.2zm9.4 0c-.9 0-1.5-.3-2-.8a3 3 0 0 1-.8-2v-1c0-.9.3-1.5.8-2s1.1-.8 2-.8 1.5.3 2 .8.8 1.1.8 2a5.7 5.7 0 0 1 0 1c0 .8-.3 1.5-.8 2-.4.5-1.1.7-2 .7zm0-1c.5 0 1-.1 1.2-.5.3-.3.5-.8.5-1.4a5.6 5.6 0 0 0 0-.9c0-.6-.2-1-.5-1.4-.3-.3-.7-.5-1.2-.5s-1 .2-1.2.5c-.3.4-.5.8-.5 1.4v.9c0 .6.2 1.1.5 1.4.3.4.7.5 1.2.5zm5.2.8h-.2l-.1-.3v-5h-1.2l-.1-.3V98v-.2h1.3v-.6c0-.7.2-1.2.5-1.5.3-.4.8-.6 1.5-.6h.7l.2.1.1.2V96H171.5c-.4 0-.7.1-.8.3l-.2 1v.5h1.7v.8h-1.7v5.1l-.1.2-.2.1h-.5zm6 .1c-.8 0-1.5-.2-2-.7-.4-.5-.7-1.2-.7-2.1v-.8c0-.9.3-1.6.8-2s1.1-.9 2-.9c.8 0 1.5.3 2 .9.4.5.7 1.3.7 2.3v.2l-.1.2h-4.4v.2c0 .5.2 1 .5 1.3s.7.5 1.2.5a1.7 1.7 0 0 0 1.5-.6l.1-.2h.9l.1.2c0 .1 0 .4-.3.6l-1 .7-1.3.2zm1.7-3.7c0-.6-.2-1-.5-1.4s-.7-.5-1.2-.5-1 .2-1.2.5-.5.8-.5 1.4h3.4zm2.8 3.6h-.2v-6-.2H181l.1.2v.6c.3-.6.9-.8 1.7-.8h.7V98.7H182.6c-.5 0-.8.2-1 .4-.3.3-.5.6-.5 1V104l-.2.1h-.6zm6.7 0c-1.3 0-1.9-.7-1.9-2.1v-3.2h-1-.1l-.1-.3V98v-.2h1.2v-2-.2l.3-.1h.7v2.3H187.9l.1.2V98.6h-1.7v3.2c0 .4 0 .7.2 1 0 .1.3.3.6.3h1v.8l-.2.1h-.8zm4 .1c-.5 0-.8 0-1.2-.2l-.7-.7c-.2-.2-.3-.6-.3-.9 0-.5.2-1 .6-1.3s1-.5 1.8-.7l1.8-.2v-.4c0-.8-.5-1.2-1.5-1.2-.3 0-.6 0-.8.2l-.5.5-.1.2h-.7-.1l-.1-.2c0-.2 0-.4.2-.6l.8-.7c.4-.2.8-.3 1.4-.3.9 0 1.5.2 1.9.7.4.4.6.9.6 1.5v4l-.1.1-.2.1h-.7l-.1-.3v-.5c-.2.3-.4.5-.8.7s-.7.2-1.3.2zm.2-.9c.5 0 1-.1 1.3-.5s.5-.8.5-1.5v-.3l-1.4.2c-.6 0-1 .2-1.3.4s-.5.4-.5.7c0 .4.2.6.4.8.3.2.6.2 1 .2zm6.7 1c-.5 0-1-.2-1.4-.3l-.8-.7-.3-.5.1-.2.2-.1h.6l.1.1.6.6 1 .2c.4 0 .7-.1 1-.3.3-.1.4-.4.4-.7 0-.2 0-.3-.2-.5l-.5-.3a9 9 0 0 0-1.2-.3c-.7-.1-1.2-.4-1.5-.7s-.4-.6-.4-1 0-.7.3-1l.7-.6c.4-.2.8-.3 1.3-.3s1 .1 1.3.3l.8.6c.2.2.2.4.2.5v.2l-.2.1h-.5l-.2-.1-.4-.4-.4-.2a2 2 0 0 0-.6-.1c-.4 0-.7 0-1 .3l-.2.6.1.4.5.4 1.1.3c.8.1 1.3.3 1.6.6.3.3.5.7.5 1.2l-.3 1-.9.6-1.4.2zm-177.5 16h-.2v-3c-.5.6-1.2 1-2 1s-1.5-.3-1.9-.9-.7-1.2-.7-2v-.8c0-.9.3-1.5.7-2 .4-.6 1-.9 1.9-.9.9 0 1.5.3 2 1v-.6-.2h.9l.1.2v8.2h-.8zm-2-3c.6 0 1-.2 1.3-.5.3-.4.4-.8.4-1.3a6 6 0 0 0 0-1c0-.5-.1-.9-.4-1.3s-.7-.5-1.3-.5c-.6 0-1 .2-1.2.5s-.4.8-.5 1.4v.4c0 1.5.6 2.3 1.7 2.3zm7 1c-.8 0-1.4-.3-1.8-.8a3 3 0 0 1-.6-2V112v-.2h1v3.6c0 1.2.6 1.8 1.7 1.8.5 0 .9-.2 1.2-.5.3-.3.4-.8.4-1.3V112v-.2h1l.1.2v5.9l-.3.1h-.5-.2v-.8l-.9.7-1.1.2zm7.3 0c-.8 0-1.5-.3-2-.8s-.7-1.2-.8-2.1v-.8c0-.9.3-1.6.8-2s1.2-.9 2-.9c.9 0 1.6.3 2 .9.5.5.8 1.3.8 2.3v.2l-.1.2H31v.2c0 .5.2 1 .5 1.3s.7.5 1.2.5a1.7 1.7 0 0 0 1.4-.6l.2-.2H35.2l.1.2-.3.6-1 .7-1.3.2zm1.7-3.8c0-.6-.2-1-.5-1.4s-.7-.5-1.2-.5-1 .2-1.2.5-.5.8-.5 1.4h3.4zm8.6 3.7c-1 0-1.8-.3-2.4-.8-.6-.6-.9-1.4-.9-2.4a32.3 32.3 0 0 1 0-2.2c0-1 .3-1.8.9-2.3.6-.6 1.4-1 2.4-1a4 4 0 0 1 1.8.5 2.6 2.6 0 0 1 1.6 2.3l-.1.1-.2.1h-.6-.2v-.3c-.2-.6-.5-1-.8-1.3-.4-.2-.9-.3-1.5-.3-1.4 0-2 .7-2.1 2.3v2c0 1.6.7 2.3 2.1 2.3.6 0 1.1-.1 1.5-.3s.6-.7.7-1.3l.1-.2.2-.1h.8v.2a2.7 2.7 0 0 1-1.5 2.3 4 4 0 0 1-1.8.4zm5.1-.1H48v-8.3-.1l.2-.1h.8V112.7a2.3 2.3 0 0 1 2-1c.8 0 1.4.3 1.9.8.4.5.6 1.1.6 2v3.5l-.3.1h-.7l-.1-.3v-3.3c0-.6-.2-1-.4-1.3s-.7-.5-1.2-.5c-.6 0-1 .1-1.3.5-.3.3-.4.7-.4 1.3v3.3l-.1.2-.2.1h-.6zm9.5.1c-.8 0-1.4-.2-2-.7-.4-.5-.7-1.2-.7-2.1v-.8c0-.9.3-1.6.8-2s1.1-.9 2-.9c.8 0 1.5.3 2 .9.4.5.7 1.3.7 2.3v.4H56v.2c0 .5.1 1 .4 1.3s.7.5 1.2.5a1.7 1.7 0 0 0 1.5-.6l.1-.2h.9l.1.2c0 .1 0 .4-.3.6l-1 .7-1.3.2zm1.7-3.7c0-.6-.2-1-.5-1.4s-.7-.5-1.2-.5-1 .2-1.2.5-.4.8-.4 1.4h3.3zm4.8 3.7c-.8 0-1.4-.3-1.9-.8-.4-.5-.6-1.2-.6-2v-.8c0-.8.2-1.5.6-2 .5-.6 1.1-.9 2-.9s1.4.3 1.9 1v-2.8-.2l.2-.1h.8v8.4l-.2.1h-.7v-.8c-.5.6-1.2 1-2 1zm.3-1c.5 0 1-.1 1.2-.5.3-.3.4-.8.5-1.3a5.8 5.8 0 0 0 0-1c0-.4-.2-.8-.5-1.2-.3-.3-.7-.5-1.2-.5-.6 0-1 .2-1.3.5s-.4.8-.4 1.4v.4c0 1.5.5 2.3 1.7 2.3zm4.9.9H69v-6-.2h1v.8c.4-.6 1-.8 1.7-.8h.7V112.7H71.5c-.4 0-.8.2-1 .4-.3.3-.4.6-.4 1v3.6l-.1.2-.2.1h-.5zm5.8.1c-.4 0-.7 0-1-.2-.4-.2-.7-.4-.9-.7-.2-.2-.3-.6-.3-.9 0-.5.3-1 .7-1.3s1-.5 1.8-.7l1.8-.2v-.4c0-.8-.5-1.2-1.5-1.2-.3 0-.6 0-.9.2l-.4.5-.2.2h-.6-.2v-.2c0-.2 0-.4.2-.6l.8-.7c.4-.2.8-.3 1.3-.3 1 0 1.6.2 2 .7.4.4.6.9.6 1.5v4l-.1.1-.2.1h-.6-.1l-.1-.3v-.5c-.2.3-.4.5-.8.7s-.8.2-1.3.2zm.3-.9c.5 0 1-.1 1.3-.5s.5-.8.5-1.5v-.3l-1.4.2c-.6 0-1 .2-1.4.4s-.4.4-.4.7c0 .4.1.6.4.8.3.2.6.2 1 .2zm7 1c-.8 0-1.4-.3-1.8-.8a3 3 0 0 1-.7-2V112l.1-.2h.9l.1.2v3.4c0 1.2.6 1.8 1.6 1.8.5 0 1-.2 1.2-.5.3-.3.5-.8.5-1.3V112v-.2h1V118l-.2.1h-.5-.2v-.8l-.9.7-1.2.2zm5-7.6h-.2l-.1-.3v-.6-.2l.3-.1H88.3V110.6H87.4zm0 7.4h-.1l-.1-.3V112v-.2h1V118l-.2.1h-.5zm7.8 0c-1.3 0-1.9-.7-1.9-2.1v-3.2h-1-.1l-.1-.3v-.4-.2h1.2v-2-.2l.3-.1h.7v2.3h1.8v.8h-1.7v3.2c0 .4 0 .7.2 1 .1.1.3.3.6.3h1v.8l-.2.1h-.8zm2.4-7.4h-.2V109.6v-.2l.2-.1H98.5V110.6H97.6zm0 7.4h-.1v-6-.2H98.4l.1.2v5.9l-.3.1h-.5zm5.2.1c-.8 0-1.5-.2-2-.7-.5-.5-.7-1.2-.8-2.1v-.8c0-.9.3-1.6.8-2s1.2-.9 2-.9c.9 0 1.5.3 2 .9.5.5.7 1.3.7 2.3v.4H101v.2c0 .5.2 1 .5 1.3s.7.5 1.2.5a1.7 1.7 0 0 0 1.4-.6l.2-.2H105.3v.2c0 .1 0 .4-.2.6l-1 .7-1.3.2zm1.7-3.7c0-.6-.2-1-.5-1.4s-.7-.5-1.2-.5-1 .2-1.3.5-.4.8-.4 1.4h3.4zm2.8 3.6h-.2l-.1-.3V112v-.2h1v.8c.3-.3.6-.6.9-.7.3-.2.7-.3 1.2-.3.8 0 1.4.3 1.8.8.4.5.6 1.1.6 2v3.5l-.3.1h-.7V114.3c0-.6-.2-1-.5-1.3s-.7-.5-1.2-.5-1 .1-1.2.5c-.3.3-.5.7-.5 1.3v3.5l-.3.1h-.5zm9.4.1c-.8 0-1.5-.2-2-.7-.4-.5-.7-1.2-.7-2.1v-.8c0-.9.3-1.6.8-2s1.1-.9 2-.9c.8 0 1.5.3 2 .9.4.5.7 1.3.7 2.3v.2l-.1.2H115v.2c0 .5.2 1 .5 1.3s.7.5 1.2.5a1.7 1.7 0 0 0 1.5-.6l.1-.2h.9l.1.2c0 .1 0 .4-.3.6l-1 .7-1.3.2zm1.7-3.7c0-.6-.2-1-.5-1.4s-.7-.5-1.2-.5-1 .2-1.2.5-.5.8-.5 1.4h3.4zm5.8 5.9h-.2V112v-.2H124.9c.1 0 0 .1 0 .2v.6c.5-.7 1.2-1 2-1 .9 0 1.5.3 2 .8.4.6.6 1.2.6 2a5 5 0 0 1 0 .9c0 .8-.2 1.5-.7 2-.4.6-1 .8-1.9.8-.8 0-1.5-.3-1.9-.9v3h-.8zm2.5-3.1c.6 0 1-.2 1.3-.6s.4-.8.4-1.4v-.3c0-1.6-.5-2.3-1.7-2.3-.5 0-1 .2-1.3.5-.2.4-.4.8-.4 1.3a6 6 0 0 0 0 1c0 .5.2.9.5 1.3.3.3.7.5 1.2.5zm6 1l-1-.3c-.4-.2-.6-.4-.8-.7-.2-.2-.3-.6-.3-.9 0-.5.2-1 .6-1.3s1-.5 1.8-.7l1.8-.2v-.4c0-.8-.5-1.2-1.4-1.2-.4 0-.7 0-1 .2l-.4.5-.1.2h-.8l-.1-.2c0-.2 0-.4.3-.6.1-.3.4-.5.8-.7.3-.2.8-.3 1.3-.3.9 0 1.5.2 1.9.7.4.4.6.9.6 1.5v4l-.1.1-.2.1h-.7v-.8l-.9.7c-.4.2-.7.2-1.2.2zm.3-1c.5 0 1-.1 1.3-.5s.5-.8.5-1.5v-.3l-1.4.2c-.6 0-1 .2-1.3.4s-.5.4-.5.7c0 .4.2.6.4.8.3.2.6.2 1 .2zm4.9.8h-.2v-6-.2H138.6v.8c.4-.6 1-.8 1.8-.8H141l.1.2v.7h-1c-.4 0-.7.2-1 .4-.2.3-.4.6-.4 1V118l-.3.1h-.5zm5.9.1c-.4 0-.8 0-1.1-.2-.4-.2-.6-.4-.8-.7-.2-.2-.3-.6-.3-.9 0-.5.2-1 .6-1.3s1-.5 1.8-.7l1.8-.2v-.4c0-.8-.5-1.2-1.4-1.2-.4 0-.7 0-1 .2l-.4.5-.1.2H142.3h-.2v-.2c0-.2 0-.4.2-.6.1-.3.4-.5.8-.7.3-.2.8-.3 1.3-.3.9 0 1.5.2 2 .7.3.4.5.9.5 1.5v4.1l-.3.1h-.5-.2v-.8l-.8.7c-.3.2-.8.2-1.3.2zm.2-.9c.5 0 1-.1 1.3-.5s.5-.8.5-1.5v-.3l-1.4.2c-.6 0-1 .2-1.3.4s-.4.4-.4.7c0 .4 0 .6.3.8.3.2.6.2 1 .2zm9.7.8c-1.2 0-1.8-.7-1.8-2.1v-3.2h-1-.2v-.7-.2h1.2v-2-.2l.2-.1h.8v2.3h1.7l.1.2V112.6h-1.8v3.2l.2 1c.2.1.4.3.7.3h.9l.1.2V118l-.2.1h-.9zm2.6 0h-.2l-.1-.3V112v-.2h1V118l-.2.1h-.5zm-.1-7.1l-.2-.2v-.2l1-1c0-.2.1-.2.2-.2h1l.2.1v.2l-1.4 1.1-.2.1H156.2zm2.9 7.1h-.2l-.1-.3v-.8-.2h1.3v1.2l-.2.1h-.8z"/>
  <defs>
    <linearGradient id="c" x1="192" x2="192" y1="15" y2="114.2" gradientUnits="userSpaceOnUse">
      <stop offset="0" stop-color="#E6E6EF" stop-opacity="0"/>
      <stop offset="1" stop-opacity=".1"/>
    </linearGradient>
    <linearGradient id="b" x1="265.6" x2="265.6" y1="49.7" y2="63.9" gradientUnits="userSpaceOnUse">
      <stop offset="0" stop-color="#403F9F" stop-opacity="0"/>
      <stop offset="1" stop-opacity=".2"/>
    </linearGradient>
    <linearGradient id="a" x1="244.4" x2="204.3" y1="64.6" y2="56.1" gradientUnits="userSpaceOnUse">
      <stop offset="0" stop-opacity="0"/>
      <stop offset="1" stop-opacity=".2"/>
    </linearGradient>
  </defs>
</svg>