<?xml version="1.0" encoding="UTF-8"?>
<svg width="22px" height="22px" viewBox="0 0 22 22" version="1.1" xmlns="http://www.w3.org/2000/svg" xmlns:xlink="http://www.w3.org/1999/xlink">
    <!-- Generator: sketchtool 56.3 (101010) - https://sketch.com -->
    <title>8335D32E-14A4-424D-AA5F-5B0CC3BD5F45</title>
    <desc>Created with sketchtool.</desc>
    <g id="Main-Navigation" stroke="none" stroke-width="1" fill="none" fill-rule="evenodd">
        <g id="Nav---Guest" transform="translate(-26.000000, -237.000000)" fill="#FFFFFF" fill-rule="nonzero" stroke="#FFFFFF" stroke-width="0.6">
            <g id="User" transform="translate(27.000000, 238.000000)">
                <path d="M2.81395349,16.9476744 C4.63372093,18.8255814 7.18023256,20 10,20 C15.5116279,20 20,15.5116279 20,10 C20,4.48837209 15.5116279,0 10,0 C4.48837209,0 0,4.48837209 0,10 C0,12.627907 1.02325581,15.0232558 2.68604651,16.8081395 C2.72093023,16.8662791 2.76744186,16.9069767 2.81395349,16.9476744 Z M10,18.8488372 C7.8255814,18.8488372 5.8255814,18.0581395 4.28488372,16.75 C6.87790698,15.8895349 7.8372093,14.8430233 8.19186047,14.1453488 C8.68604651,14.3604651 9.23837209,14.4767442 9.84883721,14.4825581 C9.86046512,14.4825581 9.87790698,14.4825581 9.88953488,14.4825581 C9.89534884,14.4825581 9.93023256,14.4825581 9.94186047,14.4825581 C9.95348837,14.4825581 9.97093023,14.4825581 9.98255814,14.4825581 C10.6453488,14.4709302 11.244186,14.3372093 11.7616279,14.0872093 C12.0930233,14.7848837 13.0348837,15.8662791 15.7034884,16.75 C14.1686047,18.0581395 12.1744186,18.8488372 10,18.8488372 Z M6.76744186,8.15116279 C6.76744186,8.13953488 6.76744186,8.12790698 6.76744186,8.11627907 C6.90697674,5.0872093 9.13953488,4.84883721 9.8255814,4.84883721 C9.85465116,4.84883721 9.87790698,4.84883721 9.89534884,4.84883721 C9.9127907,4.84883721 9.9244186,4.84883721 9.94186047,4.84883721 C9.95930233,4.84883721 9.97674419,4.84883721 10.0116279,4.84883721 C10.6918605,4.84883721 12.9302326,5.0872093 13.0697674,8.11627907 C13.0697674,8.12790698 13.0697674,8.13953488 13.0697674,8.15116279 C13.0755814,8.18023256 13.3604651,10.9825581 12.0523256,12.4534884 C11.5348837,13.0348837 10.8430233,13.3255814 9.94186047,13.3313953 C9.93604651,13.3313953 9.9244186,13.3313953 9.9244186,13.3313953 L9.9244186,13.3313953 C9.91860465,13.3313953 9.9127907,13.3313953 9.90697674,13.3313953 C9,13.3197674 8.31395349,13.0348837 7.79651163,12.4534884 C6.48255814,10.994186 6.76162791,8.18023256 6.76744186,8.15116279 Z M10,1.15116279 C14.877907,1.15116279 18.8488372,5.12209302 18.8488372,10 C18.8488372,12.2325581 18.0116279,14.2790698 16.6453488,15.8372093 C12.8895349,14.744186 12.744186,13.4186047 12.744186,13.4011628 C12.744186,13.4244186 12.744186,13.4302326 12.744186,13.4302326 L12.7034884,13.4302326 C12.7732558,13.3604651 12.8430233,13.2906977 12.9127907,13.2151163 C14.5116279,11.4186047 14.244186,8.34302326 14.2151163,8.04069767 C14.0581395,4.83139535 11.8546512,3.69186047 10.0116279,3.69186047 C9.97674419,3.69186047 9.94186047,3.69186047 9.91860465,3.69186047 C9.89534884,3.69186047 9.86627907,3.69186047 9.8255814,3.69186047 C7.98255814,3.69186047 5.77325581,4.83139535 5.62209302,8.04069767 C5.59302326,8.3372093 5.33139535,11.4127907 6.9244186,13.2151163 C7.01744186,13.3197674 7.11627907,13.4186047 7.21511628,13.5116279 C7.09302326,13.8488372 6.47674419,14.9186047 3.35465116,15.8313953 C1.98255814,14.2732558 1.15116279,12.2325581 1.15116279,10 C1.15116279,5.12209302 5.12209302,1.15116279 10,1.15116279 Z" id="Shape"></path>
            </g>
        </g>
    </g>
</svg>