<svg width="28" height="17" viewBox="0 0 28 17" fill="none" xmlns="http://www.w3.org/2000/svg">
<path d="M26.88 0H1.12C0.501441 0 0 0.501441 0 1.12V15.88C0 16.4986 0.501441 17 1.12 17H26.88C27.4986 17 28 16.4986 28 15.88V1.12C28 0.501441 27.4986 0 26.88 0Z" fill="#26337A"/>
<path fill-rule="evenodd" clip-rule="evenodd" d="M11.6172 11.2049L12.4781 5.8006H13.8543L12.9934 11.2049H11.6172Z" fill="#FFFFFE"/>
<path fill-rule="evenodd" clip-rule="evenodd" d="M17.9848 5.93323C17.7127 5.82476 17.2848 5.70648 16.7517 5.70648C15.3911 5.70648 14.4334 6.43988 14.4254 7.49005C14.4167 8.26686 15.1088 8.70008 15.6306 8.95827C16.1669 9.22293 16.347 9.39229 16.3449 9.62893C16.3412 9.99088 15.9169 10.1567 15.5212 10.1567C14.9702 10.1567 14.6775 10.0751 14.2249 9.87332L14.0479 9.78728L13.8555 10.997C14.1764 11.1475 14.7713 11.2782 15.3887 11.285C16.8346 11.285 17.7742 10.5605 17.7852 9.43906C17.7902 8.82307 17.4235 8.35617 16.6293 7.97067C16.1484 7.72006 15.8532 7.55405 15.8566 7.30041C15.8569 7.07582 16.1059 6.83535 16.6449 6.83535C17.0951 6.828 17.4209 6.9332 17.6749 7.04302L17.7984 7.10479L17.9848 5.93323Z" fill="#FFFFFE"/>
<path fill-rule="evenodd" clip-rule="evenodd" d="M19.8173 9.28886C19.9313 8.97823 20.3655 7.77825 20.3655 7.77825C20.3575 7.79254 20.4789 7.46523 20.5484 7.26266L20.6413 7.72877C20.6413 7.72877 20.9054 9.01869 20.9597 9.28886H19.8173ZM21.515 5.80609H20.4515C20.1216 5.80609 19.8747 5.90171 19.7302 6.25408L17.6865 11.2068H19.1319C19.1319 11.2068 19.3678 10.5406 19.4213 10.3943C19.5789 10.3943 20.9834 10.3971 21.1839 10.3971C21.2252 10.5857 21.3515 11.2068 21.3515 11.2068H22.6288L21.515 5.80609Z" fill="#FFFFFE"/>
<path fill-rule="evenodd" clip-rule="evenodd" d="M10.463 5.80515L9.11605 9.4896L8.97178 8.74064C8.72077 7.87771 7.93942 6.94239 7.06543 6.47373L8.29771 11.2002L9.75415 11.1993L11.9213 5.80515H10.463Z" fill="#FFFFFE"/>
<path fill-rule="evenodd" clip-rule="evenodd" d="M7.86541 5.80148H5.64619L5.62793 5.91346C7.35474 6.36113 8.49729 7.4417 8.97152 8.74065L8.48926 6.25745C8.40607 5.91498 8.16427 5.81345 7.86541 5.80148Z" fill="#EC982D"/>
</svg>
