<?xml version="1.0" encoding="UTF-8"?><svg width="24px" height="17px" viewBox="0 0 24 17" version="1.1" xmlns="http://www.w3.org/2000/svg" xmlns:xlink="http://www.w3.org/1999/xlink"><!--Generator: Sketch 54.1 (76490) - https://sketchapp.com--><title>yt_logo_rgb_light</title><desc>Created with Sketch.</desc><defs><polygon id="path-1" points="0.0118032787 0.189965116 23.8986885 0.189965116 23.8986885 17 0.0118032787 17"/></defs><g id="Page-1" stroke="none" stroke-width="1" fill="none" fill-rule="evenodd"><g id="Contact-Page-v2" transform="translate(-229.000000, -619.000000)"><g id="Iniciar-Sesion" transform="translate(123.000000, 617.000000)"><g id="Social"><g id="yt_logo_rgb_light" transform="translate(106.000000, 2.000000)"><g id="Group-3"><mask id="mask-2" fill="white"><use xlink:href="#path-1"/></mask><g id="Clip-2"/><path d="M23.3992131,2.81468605 C23.1243934,1.78163953 22.3146885,0.967813953 21.2864262,0.691662791 C19.4226885,0.189965116 11.9492459,0.189965116 11.9492459,0.189965116 C11.9492459,0.189965116 4.476,0.189965116 2.6122623,0.691662791 C1.584,0.967813953 0.774295082,1.78163953 0.49947541,2.81468605 C0,4.68765116 0,8.59488372 0,8.59488372 C0,8.59488372 0,12.502314 0.49947541,14.3750814 C0.774295082,15.4081279 1.584,16.2221512 2.6122623,16.4981047 C4.476,17 11.9492459,17 11.9492459,17 C11.9492459,17 19.4226885,17 21.2864262,16.4981047 C22.3146885,16.2221512 23.1243934,15.4081279 23.3992131,14.3750814 C23.8986885,12.502314 23.8986885,8.59488372 23.8986885,8.59488372 C23.8986885,8.59488372 23.8986885,4.68765116 23.3992131,2.81468605" id="Fill-1" fill="#D9252A" mask="url(#mask-2)"/></g><polyline id="Fill-4" fill="#FFFFFE" points="9.55947541 12.1971047 15.7681967 8.5950814 9.55947541 4.99266279 9.55947541 12.1971047"/></g></g></g></g></g></svg>